G75*
%MOIN*%
%OFA0B0*%
%FSLAX24Y24*%
%IPPOS*%
%LPD*%
%AMOC8*
5,1,8,0,0,1.08239X$1,22.5*
%
%ADD10C,0.0000*%
%ADD11C,0.0480*%
%ADD12OC8,0.0500*%
%ADD13C,0.0500*%
%ADD14R,0.0413X0.0425*%
%ADD15R,0.0425X0.0413*%
%ADD16R,0.0433X0.0394*%
%ADD17R,0.0236X0.0866*%
%ADD18C,0.1000*%
%ADD19OC8,0.1000*%
%ADD20R,0.0580X0.0110*%
%ADD21R,0.0110X0.0580*%
%ADD22OC8,0.0600*%
%ADD23R,0.0880X0.0480*%
%ADD24R,0.0866X0.1417*%
%ADD25R,0.0551X0.0551*%
%ADD26OC8,0.1500*%
%ADD27C,0.0600*%
%ADD28C,0.0740*%
%ADD29C,0.0600*%
%ADD30R,0.0217X0.0472*%
%ADD31R,0.0520X0.0230*%
%ADD32R,0.0394X0.0433*%
%ADD33R,0.0228X0.0512*%
%ADD34R,0.0740X0.0740*%
%ADD35R,0.0315X0.0315*%
%ADD36R,0.0800X0.0260*%
%ADD37OC8,0.0480*%
%ADD38R,0.0300X0.0400*%
%ADD39R,0.0400X0.0300*%
%ADD40R,0.0500X0.0500*%
%ADD41C,0.0748*%
%ADD42R,0.0256X0.0197*%
%ADD43C,0.0630*%
%ADD44C,0.1400*%
%ADD45R,0.0591X0.1142*%
%ADD46R,0.0315X0.0315*%
%ADD47C,0.0100*%
%ADD48C,0.0356*%
%ADD49C,0.0240*%
%ADD50C,0.0160*%
%ADD51C,0.0120*%
%ADD52C,0.0320*%
%ADD53C,0.0500*%
%ADD54C,0.0400*%
%ADD55C,0.0660*%
%ADD56C,0.1000*%
%ADD57C,0.0700*%
D10*
X000150Y004729D02*
X000150Y024329D01*
X029450Y024329D01*
X029450Y004729D01*
X000150Y004729D01*
X001528Y006697D02*
X001530Y006745D01*
X001536Y006793D01*
X001546Y006840D01*
X001559Y006886D01*
X001577Y006931D01*
X001597Y006975D01*
X001622Y007017D01*
X001650Y007056D01*
X001680Y007093D01*
X001714Y007127D01*
X001751Y007159D01*
X001789Y007188D01*
X001830Y007213D01*
X001873Y007235D01*
X001918Y007253D01*
X001964Y007267D01*
X002011Y007278D01*
X002059Y007285D01*
X002107Y007288D01*
X002155Y007287D01*
X002203Y007282D01*
X002251Y007273D01*
X002297Y007261D01*
X002342Y007244D01*
X002386Y007224D01*
X002428Y007201D01*
X002468Y007174D01*
X002506Y007144D01*
X002541Y007111D01*
X002573Y007075D01*
X002603Y007037D01*
X002629Y006996D01*
X002651Y006953D01*
X002671Y006909D01*
X002686Y006864D01*
X002698Y006817D01*
X002706Y006769D01*
X002710Y006721D01*
X002710Y006673D01*
X002706Y006625D01*
X002698Y006577D01*
X002686Y006530D01*
X002671Y006485D01*
X002651Y006441D01*
X002629Y006398D01*
X002603Y006357D01*
X002573Y006319D01*
X002541Y006283D01*
X002506Y006250D01*
X002468Y006220D01*
X002428Y006193D01*
X002386Y006170D01*
X002342Y006150D01*
X002297Y006133D01*
X002251Y006121D01*
X002203Y006112D01*
X002155Y006107D01*
X002107Y006106D01*
X002059Y006109D01*
X002011Y006116D01*
X001964Y006127D01*
X001918Y006141D01*
X001873Y006159D01*
X001830Y006181D01*
X001789Y006206D01*
X001751Y006235D01*
X001714Y006267D01*
X001680Y006301D01*
X001650Y006338D01*
X001622Y006377D01*
X001597Y006419D01*
X001577Y006463D01*
X001559Y006508D01*
X001546Y006554D01*
X001536Y006601D01*
X001530Y006649D01*
X001528Y006697D01*
X001528Y022445D02*
X001530Y022493D01*
X001536Y022541D01*
X001546Y022588D01*
X001559Y022634D01*
X001577Y022679D01*
X001597Y022723D01*
X001622Y022765D01*
X001650Y022804D01*
X001680Y022841D01*
X001714Y022875D01*
X001751Y022907D01*
X001789Y022936D01*
X001830Y022961D01*
X001873Y022983D01*
X001918Y023001D01*
X001964Y023015D01*
X002011Y023026D01*
X002059Y023033D01*
X002107Y023036D01*
X002155Y023035D01*
X002203Y023030D01*
X002251Y023021D01*
X002297Y023009D01*
X002342Y022992D01*
X002386Y022972D01*
X002428Y022949D01*
X002468Y022922D01*
X002506Y022892D01*
X002541Y022859D01*
X002573Y022823D01*
X002603Y022785D01*
X002629Y022744D01*
X002651Y022701D01*
X002671Y022657D01*
X002686Y022612D01*
X002698Y022565D01*
X002706Y022517D01*
X002710Y022469D01*
X002710Y022421D01*
X002706Y022373D01*
X002698Y022325D01*
X002686Y022278D01*
X002671Y022233D01*
X002651Y022189D01*
X002629Y022146D01*
X002603Y022105D01*
X002573Y022067D01*
X002541Y022031D01*
X002506Y021998D01*
X002468Y021968D01*
X002428Y021941D01*
X002386Y021918D01*
X002342Y021898D01*
X002297Y021881D01*
X002251Y021869D01*
X002203Y021860D01*
X002155Y021855D01*
X002107Y021854D01*
X002059Y021857D01*
X002011Y021864D01*
X001964Y021875D01*
X001918Y021889D01*
X001873Y021907D01*
X001830Y021929D01*
X001789Y021954D01*
X001751Y021983D01*
X001714Y022015D01*
X001680Y022049D01*
X001650Y022086D01*
X001622Y022125D01*
X001597Y022167D01*
X001577Y022211D01*
X001559Y022256D01*
X001546Y022302D01*
X001536Y022349D01*
X001530Y022397D01*
X001528Y022445D01*
X027118Y022445D02*
X027120Y022493D01*
X027126Y022541D01*
X027136Y022588D01*
X027149Y022634D01*
X027167Y022679D01*
X027187Y022723D01*
X027212Y022765D01*
X027240Y022804D01*
X027270Y022841D01*
X027304Y022875D01*
X027341Y022907D01*
X027379Y022936D01*
X027420Y022961D01*
X027463Y022983D01*
X027508Y023001D01*
X027554Y023015D01*
X027601Y023026D01*
X027649Y023033D01*
X027697Y023036D01*
X027745Y023035D01*
X027793Y023030D01*
X027841Y023021D01*
X027887Y023009D01*
X027932Y022992D01*
X027976Y022972D01*
X028018Y022949D01*
X028058Y022922D01*
X028096Y022892D01*
X028131Y022859D01*
X028163Y022823D01*
X028193Y022785D01*
X028219Y022744D01*
X028241Y022701D01*
X028261Y022657D01*
X028276Y022612D01*
X028288Y022565D01*
X028296Y022517D01*
X028300Y022469D01*
X028300Y022421D01*
X028296Y022373D01*
X028288Y022325D01*
X028276Y022278D01*
X028261Y022233D01*
X028241Y022189D01*
X028219Y022146D01*
X028193Y022105D01*
X028163Y022067D01*
X028131Y022031D01*
X028096Y021998D01*
X028058Y021968D01*
X028018Y021941D01*
X027976Y021918D01*
X027932Y021898D01*
X027887Y021881D01*
X027841Y021869D01*
X027793Y021860D01*
X027745Y021855D01*
X027697Y021854D01*
X027649Y021857D01*
X027601Y021864D01*
X027554Y021875D01*
X027508Y021889D01*
X027463Y021907D01*
X027420Y021929D01*
X027379Y021954D01*
X027341Y021983D01*
X027304Y022015D01*
X027270Y022049D01*
X027240Y022086D01*
X027212Y022125D01*
X027187Y022167D01*
X027167Y022211D01*
X027149Y022256D01*
X027136Y022302D01*
X027126Y022349D01*
X027120Y022397D01*
X027118Y022445D01*
X027118Y006697D02*
X027120Y006745D01*
X027126Y006793D01*
X027136Y006840D01*
X027149Y006886D01*
X027167Y006931D01*
X027187Y006975D01*
X027212Y007017D01*
X027240Y007056D01*
X027270Y007093D01*
X027304Y007127D01*
X027341Y007159D01*
X027379Y007188D01*
X027420Y007213D01*
X027463Y007235D01*
X027508Y007253D01*
X027554Y007267D01*
X027601Y007278D01*
X027649Y007285D01*
X027697Y007288D01*
X027745Y007287D01*
X027793Y007282D01*
X027841Y007273D01*
X027887Y007261D01*
X027932Y007244D01*
X027976Y007224D01*
X028018Y007201D01*
X028058Y007174D01*
X028096Y007144D01*
X028131Y007111D01*
X028163Y007075D01*
X028193Y007037D01*
X028219Y006996D01*
X028241Y006953D01*
X028261Y006909D01*
X028276Y006864D01*
X028288Y006817D01*
X028296Y006769D01*
X028300Y006721D01*
X028300Y006673D01*
X028296Y006625D01*
X028288Y006577D01*
X028276Y006530D01*
X028261Y006485D01*
X028241Y006441D01*
X028219Y006398D01*
X028193Y006357D01*
X028163Y006319D01*
X028131Y006283D01*
X028096Y006250D01*
X028058Y006220D01*
X028018Y006193D01*
X027976Y006170D01*
X027932Y006150D01*
X027887Y006133D01*
X027841Y006121D01*
X027793Y006112D01*
X027745Y006107D01*
X027697Y006106D01*
X027649Y006109D01*
X027601Y006116D01*
X027554Y006127D01*
X027508Y006141D01*
X027463Y006159D01*
X027420Y006181D01*
X027379Y006206D01*
X027341Y006235D01*
X027304Y006267D01*
X027270Y006301D01*
X027240Y006338D01*
X027212Y006377D01*
X027187Y006419D01*
X027167Y006463D01*
X027149Y006508D01*
X027136Y006554D01*
X027126Y006601D01*
X027120Y006649D01*
X027118Y006697D01*
D11*
X011750Y013629D03*
X009850Y013629D03*
D12*
X014200Y007979D03*
X019100Y019879D03*
X017650Y023229D03*
D13*
X018450Y023229D03*
X018300Y019879D03*
X014200Y008779D03*
X016969Y006179D03*
X017756Y006179D03*
X018544Y006179D03*
D14*
X017294Y007629D03*
X017294Y008179D03*
X016606Y008179D03*
X016606Y007629D03*
X015994Y008829D03*
X015306Y008829D03*
X017656Y012729D03*
X018344Y012729D03*
X017994Y014929D03*
X017306Y014929D03*
X019256Y023229D03*
X019944Y023229D03*
X013244Y023579D03*
X012556Y023579D03*
D15*
X017450Y020523D03*
X017450Y019834D03*
X022550Y021534D03*
X022550Y022223D03*
X023550Y016973D03*
X023550Y016284D03*
X019650Y014073D03*
X019650Y013384D03*
X023400Y009823D03*
X023400Y009134D03*
X014750Y008823D03*
X014750Y008134D03*
X013350Y013734D03*
X013350Y014423D03*
X004600Y014284D03*
X004600Y014973D03*
X004600Y013273D03*
X004600Y012584D03*
D16*
X008950Y016394D03*
X008950Y017063D03*
X011900Y021644D03*
X011900Y022313D03*
X010900Y022894D03*
X010900Y023563D03*
X016650Y015013D03*
X016650Y014344D03*
X020750Y014563D03*
X020750Y013894D03*
X021550Y013894D03*
X021550Y014563D03*
X024100Y009813D03*
X024100Y009144D03*
X024900Y009144D03*
X024900Y009813D03*
X020150Y006763D03*
X020150Y006094D03*
X011850Y007894D03*
X011850Y008563D03*
X011050Y008563D03*
X011050Y007894D03*
X009150Y007563D03*
X009150Y006894D03*
D17*
X012800Y019905D03*
X013300Y019905D03*
X013800Y019905D03*
X014300Y019905D03*
X014300Y021952D03*
X013800Y021952D03*
X013300Y021952D03*
X012800Y021952D03*
D18*
X003750Y019679D03*
X004750Y007129D03*
D19*
X006750Y007129D03*
X005750Y019679D03*
D20*
X013530Y012809D03*
X013530Y012619D03*
X013530Y012419D03*
X013530Y012219D03*
X013530Y012029D03*
X013530Y011829D03*
X013530Y011629D03*
X013530Y011429D03*
X013530Y011239D03*
X013530Y011039D03*
X013530Y010839D03*
X013530Y010649D03*
X016770Y010649D03*
X016770Y010839D03*
X016770Y011039D03*
X016770Y011239D03*
X016770Y011429D03*
X016770Y011629D03*
X016770Y011829D03*
X016770Y012029D03*
X016770Y012219D03*
X016770Y012419D03*
X016770Y012619D03*
X016770Y012809D03*
D21*
X016230Y013349D03*
X016040Y013349D03*
X015840Y013349D03*
X015640Y013349D03*
X015450Y013349D03*
X015250Y013349D03*
X015050Y013349D03*
X014850Y013349D03*
X014660Y013349D03*
X014460Y013349D03*
X014260Y013349D03*
X014070Y013349D03*
X014070Y010109D03*
X014260Y010109D03*
X014460Y010109D03*
X014660Y010109D03*
X014850Y010109D03*
X015050Y010109D03*
X015250Y010109D03*
X015450Y010109D03*
X015640Y010109D03*
X015840Y010109D03*
X016040Y010109D03*
X016230Y010109D03*
D22*
X015150Y006579D03*
X014150Y006579D03*
X013150Y006579D03*
X012150Y006579D03*
X011150Y006579D03*
X011150Y005579D03*
X012150Y005579D03*
X013150Y005579D03*
X014150Y005579D03*
X015150Y005579D03*
X026900Y009829D03*
X027900Y009829D03*
X028900Y009829D03*
X028900Y008829D03*
X027900Y008829D03*
X027900Y010929D03*
X028900Y010929D03*
X028900Y011929D03*
X027900Y011929D03*
X026900Y011929D03*
X027900Y013029D03*
X028900Y013029D03*
X028900Y014029D03*
X027900Y014029D03*
X026900Y014029D03*
X026900Y015129D03*
X026900Y016129D03*
X027900Y016129D03*
X027900Y017129D03*
X026900Y017129D03*
X015050Y019829D03*
X008050Y019829D03*
D23*
X019720Y020669D03*
X019720Y021579D03*
X019720Y022489D03*
D24*
X017280Y021579D03*
D25*
X008048Y015779D03*
X008048Y014979D03*
X006552Y014979D03*
X006552Y015779D03*
X006098Y017329D03*
X004602Y017329D03*
X003848Y017279D03*
X002352Y017279D03*
X006352Y010379D03*
X006450Y009577D03*
X007848Y010379D03*
X006450Y008081D03*
X004798Y009029D03*
X003302Y009029D03*
X002548Y009029D03*
X001052Y009029D03*
X021400Y006627D03*
X022400Y006627D03*
X023400Y006627D03*
X024400Y006627D03*
X024400Y005131D03*
X023400Y005131D03*
X022400Y005131D03*
X021400Y005131D03*
D26*
X015500Y021479D03*
X015500Y023479D03*
X009300Y023479D03*
X009300Y021479D03*
D27*
X021200Y021929D02*
X021800Y021929D01*
X021800Y022929D02*
X021200Y022929D01*
X021200Y020929D02*
X021800Y020929D01*
X023700Y021079D02*
X024300Y021079D01*
X024300Y022079D02*
X023700Y022079D01*
X023700Y023079D02*
X024300Y023079D01*
X024300Y020079D02*
X023700Y020079D01*
X026200Y019829D02*
X026200Y019229D01*
X027200Y019229D02*
X027200Y019829D01*
X028200Y019829D02*
X028200Y019229D01*
D28*
X025350Y021879D03*
X025350Y022879D03*
X015950Y020179D03*
X015650Y016229D03*
X019550Y009379D03*
X021400Y007579D03*
X022400Y007579D03*
X023400Y007579D03*
X010050Y007629D03*
X010050Y008629D03*
X010050Y006629D03*
X007500Y009429D03*
X004550Y010329D03*
X002600Y010029D03*
X004600Y015879D03*
X002600Y016279D03*
X001800Y019429D03*
X001800Y020429D03*
X006330Y021729D03*
X007470Y021729D03*
X006650Y016579D03*
D29*
X026900Y013029D03*
X027900Y015129D03*
X026900Y010929D03*
X026900Y008829D03*
D30*
X011574Y019767D03*
X011200Y019767D03*
X010826Y019767D03*
X010826Y020791D03*
X011574Y020791D03*
D31*
X019050Y014099D03*
X019050Y013359D03*
X018250Y013729D03*
D32*
X017985Y014279D03*
X017315Y014279D03*
X017315Y015579D03*
X017985Y015579D03*
X011985Y015229D03*
X011315Y015229D03*
X010785Y015129D03*
X010115Y015129D03*
X010185Y010629D03*
X009515Y010629D03*
X009515Y009779D03*
X010185Y009779D03*
X007685Y005779D03*
X007015Y005779D03*
X015415Y008179D03*
X016085Y008179D03*
X016215Y005329D03*
X016885Y005329D03*
X017615Y005379D03*
X018285Y005379D03*
X018965Y005379D03*
X019635Y005379D03*
X013235Y022929D03*
X012565Y022929D03*
X020015Y023879D03*
X020685Y023879D03*
X024965Y023879D03*
X025635Y023879D03*
D33*
X022287Y010926D03*
X021894Y010926D03*
X021500Y010926D03*
X021106Y010926D03*
X020713Y010926D03*
X020713Y008832D03*
X021106Y008832D03*
X021500Y008832D03*
X021894Y008832D03*
X022287Y008832D03*
D34*
X024400Y007579D03*
X010050Y005629D03*
D35*
X007695Y008079D03*
X007105Y008079D03*
X012505Y015079D03*
X013095Y015079D03*
X010900Y021584D03*
X010900Y022174D03*
X017205Y023829D03*
X017795Y023829D03*
X023805Y023929D03*
X024395Y023929D03*
X025850Y005724D03*
X025850Y005134D03*
D36*
X025710Y010479D03*
X025710Y010979D03*
X025710Y011479D03*
X025710Y011979D03*
X025710Y012479D03*
X025710Y012979D03*
X025710Y013479D03*
X025710Y013979D03*
X023290Y013979D03*
X023290Y013479D03*
X023290Y012979D03*
X023290Y012479D03*
X023290Y011979D03*
X023290Y011479D03*
X023290Y010979D03*
X023290Y010479D03*
D37*
X024650Y015729D03*
X024650Y016729D03*
X021200Y016729D03*
X021200Y015729D03*
X020550Y018079D03*
X020550Y019079D03*
X010300Y016779D03*
X010300Y015779D03*
X008950Y017829D03*
X008950Y018829D03*
X007150Y019529D03*
X007150Y020529D03*
X001650Y017279D03*
X000650Y017279D03*
X002100Y015479D03*
X002100Y014479D03*
D38*
X013850Y015629D03*
X014250Y015629D03*
X014650Y015629D03*
X014650Y016479D03*
X013850Y016479D03*
D39*
X021400Y012479D03*
X021400Y012079D03*
X021400Y011679D03*
X022250Y011679D03*
X022250Y012479D03*
D40*
X019331Y006179D03*
D41*
X005541Y009552D03*
X005541Y010552D03*
X005541Y011552D03*
X005541Y012552D03*
X005541Y013552D03*
X005541Y014552D03*
X005541Y015552D03*
X005541Y016552D03*
X003541Y016052D03*
X003541Y015052D03*
X003541Y014052D03*
X003541Y013052D03*
X003541Y012052D03*
X003541Y011052D03*
X003541Y010052D03*
D42*
X009604Y011256D03*
X009604Y011571D03*
X009604Y011886D03*
X009604Y012201D03*
X010096Y012201D03*
X010096Y011886D03*
X010096Y011571D03*
X010096Y011256D03*
X018404Y010951D03*
X018404Y010636D03*
X018404Y010321D03*
X018404Y010006D03*
X018896Y010006D03*
X018896Y010321D03*
X018896Y010636D03*
X018896Y010951D03*
D43*
X000700Y018629D03*
X000700Y020129D03*
D44*
X004850Y023329D03*
X006850Y023329D03*
D45*
X011159Y016679D03*
X012341Y016679D03*
D46*
G36*
X014513Y014688D02*
X014291Y014466D01*
X014069Y014688D01*
X014291Y014910D01*
X014513Y014688D01*
G37*
G36*
X014931Y014270D02*
X014709Y014048D01*
X014487Y014270D01*
X014709Y014492D01*
X014931Y014270D01*
G37*
D47*
X015101Y014283D02*
X015420Y014283D01*
X015420Y014348D02*
X015420Y013809D01*
X015325Y013809D01*
X015305Y013789D01*
X015250Y013789D01*
X015195Y013789D01*
X015175Y013809D01*
X014680Y013809D01*
X014680Y013877D01*
X014779Y013877D01*
X015101Y014200D01*
X015101Y014340D01*
X015083Y014359D01*
X015409Y014359D01*
X015420Y014348D01*
X015420Y014185D02*
X015087Y014185D01*
X015125Y014154D02*
X015250Y014029D01*
X015250Y013349D01*
X015250Y012829D01*
X015400Y012679D01*
X015270Y012738D02*
X015270Y012909D01*
X015305Y012909D01*
X015325Y012889D01*
X016150Y012889D01*
X016150Y012729D01*
X016240Y012639D01*
X016149Y012639D01*
X016137Y012627D01*
X016031Y012627D01*
X015903Y012574D01*
X015805Y012476D01*
X015752Y012348D01*
X015752Y012210D01*
X015805Y012082D01*
X015903Y011984D01*
X016031Y011931D01*
X016169Y011931D01*
X016297Y011984D01*
X016310Y011996D01*
X016310Y011690D01*
X016295Y011726D01*
X016197Y011824D01*
X016069Y011877D01*
X015931Y011877D01*
X015803Y011824D01*
X015705Y011726D01*
X015652Y011598D01*
X015652Y011468D01*
X015479Y011274D01*
X015454Y011267D01*
X015420Y011208D01*
X015375Y011157D01*
X015377Y011131D01*
X015239Y010890D01*
X014992Y010749D01*
X014959Y010749D01*
X014915Y010705D01*
X014862Y010675D01*
X014853Y010643D01*
X014830Y010620D01*
X014830Y010558D01*
X014827Y010549D01*
X014805Y010549D01*
X014785Y010569D01*
X013990Y010569D01*
X013990Y012910D01*
X013995Y012909D01*
X014070Y012909D01*
X014070Y012953D01*
X014070Y012953D01*
X014070Y012909D01*
X014115Y012909D01*
X014135Y012889D01*
X014168Y012889D01*
X014105Y012826D01*
X014052Y012698D01*
X014052Y012560D01*
X014105Y012432D01*
X014203Y012334D01*
X014331Y012281D01*
X014469Y012281D01*
X014597Y012334D01*
X014625Y012361D01*
X014653Y012334D01*
X014781Y012281D01*
X014919Y012281D01*
X015047Y012334D01*
X015145Y012432D01*
X015198Y012560D01*
X015198Y012666D01*
X015270Y012738D01*
X015240Y012707D02*
X016171Y012707D01*
X016150Y012806D02*
X015270Y012806D01*
X015270Y012904D02*
X015309Y012904D01*
X015050Y012829D02*
X014850Y012829D01*
X014850Y012629D01*
X014850Y012829D02*
X014660Y012829D01*
X014660Y013349D01*
X014460Y013349D02*
X014460Y014021D01*
X014709Y014270D01*
X014988Y014086D02*
X015420Y014086D01*
X015420Y013988D02*
X014890Y013988D01*
X014791Y013889D02*
X015420Y013889D01*
X015307Y013791D02*
X015193Y013791D01*
X015250Y013789D02*
X015250Y013734D01*
X015250Y013734D01*
X015250Y013734D01*
X015250Y013789D01*
X015050Y013349D02*
X015050Y012829D01*
X015198Y012609D02*
X015987Y012609D01*
X015839Y012510D02*
X015178Y012510D01*
X015125Y012412D02*
X015778Y012412D01*
X015752Y012313D02*
X014998Y012313D01*
X014900Y012179D02*
X014070Y012179D01*
X014070Y013349D01*
X014030Y013349D01*
X013950Y013529D01*
X013865Y013495D02*
X013726Y013495D01*
X013713Y013508D02*
X013713Y013684D01*
X013400Y013684D01*
X013400Y013784D01*
X013713Y013784D01*
X013713Y013961D01*
X013702Y013999D01*
X013683Y014033D01*
X013655Y014061D01*
X013650Y014064D01*
X013733Y014146D01*
X013733Y014435D01*
X014040Y014128D01*
X014040Y013789D01*
X013995Y013789D01*
X013957Y013779D01*
X013923Y013759D01*
X013895Y013731D01*
X013875Y013697D01*
X013865Y013659D01*
X013865Y013349D01*
X014035Y013349D01*
X014035Y013349D01*
X013865Y013349D01*
X013865Y013039D01*
X013866Y013034D01*
X013796Y013034D01*
X013848Y013160D01*
X013848Y013298D01*
X013795Y013426D01*
X013713Y013508D01*
X013713Y013594D02*
X013865Y013594D01*
X013874Y013692D02*
X013400Y013692D01*
X013300Y013692D02*
X012160Y013692D01*
X012160Y013710D02*
X012098Y013861D01*
X011982Y013976D01*
X011832Y014039D01*
X011668Y014039D01*
X011518Y013976D01*
X011402Y013861D01*
X011340Y013710D01*
X011340Y013547D01*
X011402Y013397D01*
X010793Y013397D01*
X010952Y013298D02*
X011501Y013298D01*
X011518Y013281D02*
X011668Y013219D01*
X011832Y013219D01*
X011910Y013251D01*
X011952Y013199D01*
X011113Y013199D01*
X010251Y013732D01*
X010198Y013861D01*
X010082Y013976D01*
X009932Y014039D01*
X009768Y014039D01*
X009618Y013976D01*
X009502Y013861D01*
X009440Y013710D01*
X009440Y013547D01*
X009502Y013397D01*
X008650Y013397D01*
X008650Y013495D02*
X009462Y013495D01*
X009440Y013594D02*
X008650Y013594D01*
X008650Y013692D02*
X009440Y013692D01*
X009473Y013791D02*
X008650Y013791D01*
X008650Y013889D02*
X009531Y013889D01*
X009645Y013988D02*
X008650Y013988D01*
X008650Y014086D02*
X012717Y014086D01*
X012731Y014081D02*
X012869Y014081D01*
X012985Y014129D01*
X013050Y014064D01*
X013045Y014061D01*
X013017Y014033D01*
X012998Y013999D01*
X012987Y013961D01*
X012987Y013784D01*
X013300Y013784D01*
X013300Y013684D01*
X012987Y013684D01*
X012987Y013577D01*
X012981Y013577D01*
X012853Y013524D01*
X012755Y013426D01*
X012702Y013298D01*
X012702Y013160D01*
X012702Y013159D01*
X012398Y013346D01*
X012255Y013524D01*
X012248Y013561D01*
X012200Y013593D01*
X012165Y013637D01*
X012160Y013638D01*
X012160Y013710D01*
X012127Y013791D02*
X012987Y013791D01*
X012987Y013889D02*
X012069Y013889D01*
X011955Y013988D02*
X012995Y013988D01*
X013027Y014086D02*
X012883Y014086D01*
X012731Y014081D02*
X012603Y014134D01*
X012505Y014232D01*
X012466Y014325D01*
X012460Y014328D01*
X012384Y014358D01*
X012380Y014368D01*
X012191Y014462D01*
X011542Y014509D01*
X011459Y014509D01*
X011452Y014515D01*
X011443Y014516D01*
X011389Y014579D01*
X009449Y014579D01*
X009646Y014677D02*
X011290Y014677D01*
X011192Y014776D02*
X011085Y014776D01*
X011052Y014742D02*
X011139Y014829D01*
X011389Y014579D01*
X011550Y014729D02*
X011315Y014963D01*
X011315Y015229D01*
X011052Y014742D02*
X010517Y014742D01*
X010450Y014810D01*
X010383Y014742D01*
X009848Y014742D01*
X009811Y014779D01*
X009781Y014745D01*
X009772Y014740D01*
X009764Y014733D01*
X009720Y014715D01*
X008650Y014180D01*
X008650Y012974D01*
X009358Y012676D01*
X009366Y012675D01*
X009404Y012656D01*
X009443Y012640D01*
X009448Y012635D01*
X009455Y012631D01*
X009483Y012599D01*
X009513Y012569D01*
X009516Y012562D01*
X009597Y012470D01*
X009802Y012470D01*
X009850Y012422D01*
X009898Y012470D01*
X010294Y012470D01*
X010343Y012421D01*
X011769Y012421D01*
X011898Y012292D01*
X012141Y012049D01*
X012427Y012049D01*
X012402Y012110D01*
X012402Y012248D01*
X012455Y012376D01*
X012537Y012458D01*
X011947Y012759D01*
X011076Y012759D01*
X011012Y012744D01*
X010987Y012759D01*
X010959Y012759D01*
X010912Y012805D01*
X010106Y013305D01*
X010082Y013281D01*
X009932Y013219D01*
X009768Y013219D01*
X009618Y013281D01*
X009502Y013397D01*
X009601Y013298D02*
X008650Y013298D01*
X008650Y013200D02*
X010275Y013200D01*
X010116Y013298D02*
X010099Y013298D01*
X010000Y013629D02*
X009850Y013629D01*
X010000Y013629D02*
X011050Y012979D01*
X012000Y012979D01*
X013100Y012419D01*
X013530Y012419D01*
X013520Y012229D02*
X012800Y012229D01*
X012750Y012179D01*
X012429Y012313D02*
X011877Y012313D01*
X011975Y012215D02*
X012402Y012215D01*
X012402Y012116D02*
X012074Y012116D01*
X012050Y011829D02*
X011678Y012201D01*
X010096Y012201D01*
X010096Y011886D02*
X010357Y011886D01*
X010500Y011979D01*
X011250Y011979D01*
X011500Y011829D01*
X011600Y011479D02*
X011850Y011629D01*
X013530Y011629D01*
X013530Y011829D02*
X012050Y011829D01*
X011950Y011429D02*
X011700Y011279D01*
X010500Y011279D01*
X010207Y011571D01*
X010096Y011571D01*
X010096Y011256D02*
X010222Y011256D01*
X010400Y011079D01*
X011800Y011079D01*
X012060Y011239D01*
X013530Y011239D01*
X013530Y011429D02*
X011950Y011429D01*
X011600Y011479D02*
X011000Y011479D01*
X010700Y011629D01*
X010700Y010629D02*
X010185Y010629D01*
X010551Y009529D02*
X010558Y009529D01*
X010603Y009484D01*
X010731Y009431D01*
X010827Y009431D01*
X010820Y009424D01*
X010820Y008930D01*
X010763Y008930D01*
X010663Y008831D01*
X010663Y008491D01*
X010590Y008564D01*
X010590Y008736D01*
X010508Y008935D01*
X010356Y009087D01*
X010157Y009169D01*
X009943Y009169D01*
X009744Y009087D01*
X009606Y008949D01*
X009559Y008949D01*
X009430Y008820D01*
X009430Y008820D01*
X008930Y008320D01*
X008930Y007930D01*
X008863Y007930D01*
X008763Y007831D01*
X008763Y007296D01*
X008846Y007214D01*
X008841Y007211D01*
X008813Y007183D01*
X008794Y007149D01*
X008783Y007111D01*
X008783Y006943D01*
X009102Y006943D01*
X009102Y006846D01*
X009198Y006846D01*
X009198Y006547D01*
X009386Y006547D01*
X009424Y006558D01*
X009459Y006577D01*
X009487Y006605D01*
X009506Y006639D01*
X009510Y006653D01*
X009510Y006521D01*
X009592Y006323D01*
X009744Y006171D01*
X009798Y006149D01*
X009660Y006149D01*
X009622Y006139D01*
X009588Y006119D01*
X009560Y006091D01*
X009540Y006057D01*
X009530Y006019D01*
X009530Y005679D01*
X010000Y005679D01*
X010000Y005579D01*
X009530Y005579D01*
X009530Y005239D01*
X009540Y005201D01*
X009560Y005167D01*
X009588Y005139D01*
X009622Y005119D01*
X009660Y005109D01*
X010000Y005109D01*
X010000Y005579D01*
X010100Y005579D01*
X010100Y005679D01*
X010570Y005679D01*
X010570Y005834D01*
X010680Y005724D01*
X010680Y005384D01*
X010955Y005109D01*
X011345Y005109D01*
X011620Y005384D01*
X011620Y005773D01*
X011345Y006049D01*
X011005Y006049D01*
X010880Y006174D01*
X010880Y006184D01*
X010955Y006109D01*
X011345Y006109D01*
X011620Y006384D01*
X011620Y006773D01*
X011528Y006866D01*
X011617Y006984D01*
X011648Y007015D01*
X011731Y006981D01*
X011869Y006981D01*
X011900Y006993D01*
X011680Y006773D01*
X011680Y006384D01*
X011955Y006109D01*
X012345Y006109D01*
X012620Y006384D01*
X012620Y006756D01*
X012734Y006859D01*
X012741Y006859D01*
X012801Y006919D01*
X012865Y006976D01*
X012865Y006983D01*
X012870Y006988D01*
X012870Y007073D01*
X012874Y007158D01*
X012870Y007163D01*
X012870Y007209D01*
X012930Y007115D01*
X012930Y007023D01*
X012680Y006773D01*
X012680Y006384D01*
X012955Y006109D01*
X013345Y006109D01*
X013620Y006384D01*
X013620Y006773D01*
X013370Y007023D01*
X013370Y007155D01*
X013385Y007220D01*
X013370Y007243D01*
X013370Y007270D01*
X013323Y007317D01*
X013020Y007793D01*
X013020Y008688D01*
X013414Y009081D01*
X013455Y008982D01*
X013553Y008884D01*
X013681Y008831D01*
X013802Y008831D01*
X013800Y008818D01*
X013800Y008809D01*
X014170Y008809D01*
X014170Y008749D01*
X013800Y008749D01*
X013800Y008739D01*
X013815Y008662D01*
X013846Y008589D01*
X013889Y008524D01*
X013945Y008468D01*
X014011Y008424D01*
X014072Y008399D01*
X014026Y008399D01*
X013780Y008153D01*
X013780Y007805D01*
X014026Y007559D01*
X014374Y007559D01*
X014474Y007659D01*
X014486Y007649D01*
X014532Y007655D01*
X014577Y007642D01*
X014619Y007666D01*
X014667Y007671D01*
X014696Y007708D01*
X014736Y007731D01*
X014744Y007758D01*
X015033Y007758D01*
X015108Y007832D01*
X015148Y007792D01*
X015683Y007792D01*
X015750Y007860D01*
X015817Y007792D01*
X016229Y007792D01*
X016229Y007346D01*
X016328Y007246D01*
X016730Y007246D01*
X016730Y007232D01*
X016689Y007198D01*
X016619Y007227D01*
X016481Y007227D01*
X016353Y007174D01*
X016255Y007076D01*
X016202Y006948D01*
X016202Y006810D01*
X016255Y006682D01*
X016353Y006584D01*
X016481Y006531D01*
X016619Y006531D01*
X016747Y006584D01*
X016845Y006682D01*
X016892Y006794D01*
X017030Y006909D01*
X017041Y006909D01*
X017093Y006961D01*
X017105Y006932D01*
X017203Y006834D01*
X017331Y006781D01*
X017469Y006781D01*
X017597Y006834D01*
X017650Y006886D01*
X017650Y006864D01*
X017636Y006860D01*
X017626Y006852D01*
X017615Y006847D01*
X017588Y006820D01*
X017559Y006797D01*
X017553Y006786D01*
X017544Y006777D01*
X017530Y006742D01*
X017512Y006709D01*
X017511Y006696D01*
X017506Y006685D01*
X017506Y006647D01*
X017503Y006610D01*
X017506Y006598D01*
X017506Y006523D01*
X017400Y006417D01*
X017363Y006326D01*
X017325Y006417D01*
X017207Y006535D01*
X017052Y006599D01*
X016885Y006599D01*
X016731Y006535D01*
X016613Y006417D01*
X016549Y006262D01*
X016549Y006095D01*
X016613Y005941D01*
X016731Y005823D01*
X016885Y005759D01*
X017052Y005759D01*
X017207Y005823D01*
X017325Y005941D01*
X017325Y005942D01*
X017325Y005743D01*
X017249Y005666D01*
X017249Y005619D01*
X017152Y005715D01*
X016617Y005715D01*
X016535Y005633D01*
X016532Y005637D01*
X016504Y005665D01*
X016470Y005685D01*
X016432Y005695D01*
X016264Y005695D01*
X016264Y005377D01*
X016167Y005377D01*
X016167Y005280D01*
X016264Y005280D01*
X016264Y004962D01*
X016432Y004962D01*
X016470Y004972D01*
X016504Y004992D01*
X016532Y005020D01*
X016535Y005025D01*
X016617Y004942D01*
X017152Y004942D01*
X017251Y005042D01*
X017251Y005089D01*
X017348Y004992D01*
X017426Y004992D01*
X017451Y004968D01*
X017558Y004923D01*
X017593Y004923D01*
X017629Y004899D01*
X008650Y004899D01*
X008650Y008229D01*
X009650Y009229D01*
X009650Y009392D01*
X009783Y009392D01*
X009850Y009460D01*
X009917Y009392D01*
X010452Y009392D01*
X010551Y009492D01*
X010551Y009529D01*
X010516Y009457D02*
X010668Y009457D01*
X010820Y009358D02*
X009650Y009358D01*
X009650Y009260D02*
X010820Y009260D01*
X010820Y009161D02*
X010175Y009161D01*
X010380Y009063D02*
X010820Y009063D01*
X010820Y008964D02*
X010478Y008964D01*
X010536Y008866D02*
X010699Y008866D01*
X010663Y008767D02*
X010577Y008767D01*
X010590Y008669D02*
X010663Y008669D01*
X010663Y008570D02*
X010590Y008570D01*
X010050Y008629D02*
X009950Y008729D01*
X009650Y008729D01*
X009150Y008229D01*
X009150Y007563D01*
X008763Y007585D02*
X008650Y007585D01*
X008650Y007487D02*
X008763Y007487D01*
X008763Y007388D02*
X008650Y007388D01*
X008650Y007290D02*
X008770Y007290D01*
X008822Y007191D02*
X008650Y007191D01*
X008650Y007093D02*
X008783Y007093D01*
X008783Y006994D02*
X008650Y006994D01*
X008650Y006896D02*
X009102Y006896D01*
X009150Y006894D02*
X009150Y006229D01*
X009650Y005729D01*
X009950Y005729D01*
X010050Y005629D01*
X010100Y005615D02*
X010680Y005615D01*
X010680Y005517D02*
X010570Y005517D01*
X010570Y005579D02*
X010100Y005579D01*
X010100Y005109D01*
X010440Y005109D01*
X010478Y005119D01*
X010512Y005139D01*
X010540Y005167D01*
X010560Y005201D01*
X010570Y005239D01*
X010570Y005579D01*
X010570Y005714D02*
X010680Y005714D01*
X010591Y005812D02*
X010570Y005812D01*
X010946Y006108D02*
X016549Y006108D01*
X016549Y006206D02*
X015442Y006206D01*
X015345Y006109D02*
X015620Y006384D01*
X015620Y006773D01*
X015345Y007049D01*
X014955Y007049D01*
X014680Y006773D01*
X014680Y006384D01*
X014955Y006109D01*
X015345Y006109D01*
X015345Y006049D02*
X014955Y006049D01*
X014680Y005773D01*
X014680Y005384D01*
X014955Y005109D01*
X015345Y005109D01*
X015620Y005384D01*
X015620Y005773D01*
X015345Y006049D01*
X015384Y006009D02*
X016584Y006009D01*
X016643Y005911D02*
X015483Y005911D01*
X015581Y005812D02*
X016756Y005812D01*
X016616Y005714D02*
X015620Y005714D01*
X015620Y005615D02*
X015886Y005615D01*
X015879Y005603D02*
X015869Y005565D01*
X015869Y005377D01*
X016167Y005377D01*
X016167Y005695D01*
X015999Y005695D01*
X015961Y005685D01*
X015926Y005665D01*
X015898Y005637D01*
X015879Y005603D01*
X015869Y005517D02*
X015620Y005517D01*
X015620Y005418D02*
X015869Y005418D01*
X015869Y005280D02*
X015869Y005093D01*
X015879Y005054D01*
X015898Y005020D01*
X015926Y004992D01*
X015961Y004972D01*
X015999Y004962D01*
X016167Y004962D01*
X016167Y005280D01*
X015869Y005280D01*
X015869Y005221D02*
X015457Y005221D01*
X015359Y005123D02*
X015869Y005123D01*
X015896Y005024D02*
X008650Y005024D01*
X008650Y004926D02*
X017552Y004926D01*
X017316Y005024D02*
X017234Y005024D01*
X017297Y005714D02*
X017153Y005714D01*
X017182Y005812D02*
X017325Y005812D01*
X017325Y005911D02*
X017295Y005911D01*
X017331Y006403D02*
X017395Y006403D01*
X017485Y006502D02*
X017240Y006502D01*
X017506Y006600D02*
X016764Y006600D01*
X016698Y006502D02*
X015620Y006502D01*
X015620Y006600D02*
X016336Y006600D01*
X016248Y006699D02*
X015620Y006699D01*
X015596Y006797D02*
X016207Y006797D01*
X016202Y006896D02*
X015498Y006896D01*
X015399Y006994D02*
X016221Y006994D01*
X016272Y007093D02*
X013370Y007093D01*
X013378Y007191D02*
X016395Y007191D01*
X016285Y007290D02*
X013350Y007290D01*
X013277Y007388D02*
X016229Y007388D01*
X016229Y007487D02*
X013215Y007487D01*
X013152Y007585D02*
X014000Y007585D01*
X013901Y007684D02*
X013089Y007684D01*
X013027Y007782D02*
X013803Y007782D01*
X013780Y007881D02*
X013020Y007881D01*
X013020Y007979D02*
X013780Y007979D01*
X013780Y008078D02*
X013020Y008078D01*
X013020Y008176D02*
X013804Y008176D01*
X013902Y008275D02*
X013020Y008275D01*
X013020Y008373D02*
X014001Y008373D01*
X013941Y008472D02*
X013020Y008472D01*
X013020Y008570D02*
X013858Y008570D01*
X013814Y008669D02*
X013020Y008669D01*
X013100Y008767D02*
X014170Y008767D01*
X014200Y008779D02*
X013550Y008079D01*
X013550Y007579D01*
X013150Y007179D02*
X013150Y006579D01*
X013498Y006896D02*
X013802Y006896D01*
X013704Y006797D02*
X013596Y006797D01*
X013680Y006773D02*
X013680Y006384D01*
X013955Y006109D01*
X014345Y006109D01*
X014620Y006384D01*
X014620Y006773D01*
X014345Y007049D01*
X013955Y007049D01*
X013680Y006773D01*
X013680Y006699D02*
X013620Y006699D01*
X013620Y006600D02*
X013680Y006600D01*
X013680Y006502D02*
X013620Y006502D01*
X013620Y006403D02*
X013680Y006403D01*
X013759Y006305D02*
X013541Y006305D01*
X013650Y006279D02*
X013650Y006929D01*
X013399Y006994D02*
X013901Y006994D01*
X014399Y006994D02*
X014901Y006994D01*
X014802Y006896D02*
X014498Y006896D01*
X014596Y006797D02*
X014704Y006797D01*
X014680Y006699D02*
X014620Y006699D01*
X014620Y006600D02*
X014680Y006600D01*
X014680Y006502D02*
X014620Y006502D01*
X014620Y006403D02*
X014680Y006403D01*
X014759Y006305D02*
X014541Y006305D01*
X014442Y006206D02*
X014858Y006206D01*
X014916Y006009D02*
X014384Y006009D01*
X014345Y006049D02*
X013955Y006049D01*
X013680Y005773D01*
X013680Y005384D01*
X013955Y005109D01*
X014345Y005109D01*
X014620Y005384D01*
X014620Y005773D01*
X014345Y006049D01*
X014483Y005911D02*
X014817Y005911D01*
X014719Y005812D02*
X014581Y005812D01*
X014620Y005714D02*
X014680Y005714D01*
X014680Y005615D02*
X014620Y005615D01*
X014620Y005517D02*
X014680Y005517D01*
X014680Y005418D02*
X014620Y005418D01*
X014556Y005320D02*
X014744Y005320D01*
X014843Y005221D02*
X014457Y005221D01*
X014359Y005123D02*
X014941Y005123D01*
X015556Y005320D02*
X016167Y005320D01*
X016167Y005418D02*
X016264Y005418D01*
X016264Y005517D02*
X016167Y005517D01*
X016167Y005615D02*
X016264Y005615D01*
X016264Y005221D02*
X016167Y005221D01*
X016167Y005123D02*
X016264Y005123D01*
X016264Y005024D02*
X016167Y005024D01*
X016535Y005024D02*
X016535Y005024D01*
X016566Y006305D02*
X015541Y006305D01*
X015620Y006403D02*
X016607Y006403D01*
X016852Y006699D02*
X017511Y006699D01*
X017509Y006797D02*
X017560Y006797D01*
X017291Y006797D02*
X016896Y006797D01*
X017014Y006896D02*
X017141Y006896D01*
X017294Y007134D02*
X017400Y007129D01*
X017294Y007134D02*
X017294Y007629D01*
X017294Y008179D01*
X017300Y008184D01*
X017300Y008779D01*
X017850Y008729D02*
X018500Y008722D01*
X018544Y006179D01*
X019000Y006779D02*
X019331Y006498D01*
X019331Y006179D01*
X019816Y006715D02*
X019550Y007129D01*
X019550Y008839D01*
X019657Y008839D01*
X019856Y008921D01*
X020008Y009073D01*
X020090Y009271D01*
X020090Y009486D01*
X020023Y009649D01*
X021245Y009649D01*
X021995Y010399D01*
X022124Y010528D01*
X022154Y010520D01*
X022280Y010520D01*
X022280Y010919D01*
X022294Y010919D01*
X022294Y010520D01*
X022421Y010520D01*
X022459Y010530D01*
X022494Y010550D01*
X022521Y010578D01*
X022541Y010612D01*
X022551Y010650D01*
X022551Y010919D01*
X022294Y010919D01*
X022294Y010933D01*
X022551Y010933D01*
X022551Y011002D01*
X022670Y010884D01*
X022720Y010834D01*
X022720Y010778D01*
X022784Y010715D01*
X022770Y010701D01*
X022750Y010667D01*
X022740Y010629D01*
X022740Y010494D01*
X023275Y010494D01*
X023275Y010464D01*
X022740Y010464D01*
X022740Y010329D01*
X022750Y010291D01*
X022770Y010257D01*
X022798Y010229D01*
X022832Y010209D01*
X022870Y010199D01*
X023275Y010199D01*
X023275Y010464D01*
X023305Y010464D01*
X023305Y010494D01*
X023840Y010494D01*
X023840Y010629D01*
X023830Y010667D01*
X023810Y010701D01*
X023796Y010715D01*
X023810Y010729D01*
X023850Y010729D01*
X023850Y010180D01*
X023813Y010180D01*
X023741Y010108D01*
X023733Y010122D01*
X023705Y010150D01*
X023670Y010170D01*
X023632Y010180D01*
X023450Y010180D01*
X023450Y009873D01*
X023350Y009873D01*
X023350Y009773D01*
X023037Y009773D01*
X023037Y009597D01*
X023043Y009576D01*
X022919Y009627D01*
X022781Y009627D01*
X022653Y009574D01*
X022555Y009476D01*
X022502Y009348D01*
X022502Y009228D01*
X022472Y009258D01*
X022103Y009258D01*
X022091Y009245D01*
X022078Y009258D01*
X021709Y009258D01*
X021697Y009245D01*
X021684Y009258D01*
X021316Y009258D01*
X021303Y009245D01*
X021291Y009258D01*
X020922Y009258D01*
X020909Y009245D01*
X020897Y009258D01*
X020528Y009258D01*
X020429Y009158D01*
X020429Y008904D01*
X020423Y008889D01*
X020423Y008582D01*
X020403Y008574D01*
X020400Y008571D01*
X020397Y008574D01*
X020269Y008627D01*
X020131Y008627D01*
X020003Y008574D01*
X019905Y008476D01*
X019852Y008348D01*
X019852Y008210D01*
X019870Y008166D01*
X019870Y007992D01*
X019852Y007948D01*
X019852Y007810D01*
X019905Y007682D01*
X020003Y007584D01*
X020131Y007531D01*
X020269Y007531D01*
X020313Y007549D01*
X020487Y007549D01*
X020531Y007531D01*
X020669Y007531D01*
X020797Y007584D01*
X020860Y007646D01*
X020860Y007471D01*
X020942Y007273D01*
X021094Y007121D01*
X021110Y007114D01*
X021110Y007072D01*
X021054Y007072D01*
X020954Y006973D01*
X020954Y006281D01*
X021054Y006181D01*
X021746Y006181D01*
X021846Y006281D01*
X021846Y006973D01*
X021746Y007072D01*
X021690Y007072D01*
X021690Y007114D01*
X021706Y007121D01*
X021858Y007273D01*
X021900Y007375D01*
X021942Y007273D01*
X022094Y007121D01*
X022110Y007114D01*
X022110Y007072D01*
X022054Y007072D01*
X021954Y006973D01*
X021954Y006281D01*
X022054Y006181D01*
X022746Y006181D01*
X022846Y006281D01*
X022846Y006973D01*
X022746Y007072D01*
X022690Y007072D01*
X022690Y007114D01*
X022706Y007121D01*
X022858Y007273D01*
X022900Y007375D01*
X022942Y007273D01*
X023094Y007121D01*
X023110Y007114D01*
X023110Y007072D01*
X023054Y007072D01*
X022954Y006973D01*
X022954Y006281D01*
X023054Y006181D01*
X023746Y006181D01*
X023846Y006281D01*
X023846Y006973D01*
X023746Y007072D01*
X023690Y007072D01*
X023690Y007114D01*
X023706Y007121D01*
X023858Y007273D01*
X023860Y007278D01*
X023860Y007138D01*
X023960Y007039D01*
X024020Y007039D01*
X023954Y006973D01*
X023954Y006281D01*
X024054Y006181D01*
X024746Y006181D01*
X024846Y006281D01*
X024846Y006973D01*
X024780Y007039D01*
X024840Y007039D01*
X024940Y007138D01*
X024940Y008019D01*
X024840Y008119D01*
X024214Y008119D01*
X023842Y008491D01*
X023750Y008529D01*
X023354Y008529D01*
X023125Y008758D01*
X023683Y008758D01*
X023772Y008847D01*
X023791Y008827D01*
X023826Y008808D01*
X023864Y008797D01*
X024052Y008797D01*
X024052Y009096D01*
X024148Y009096D01*
X024148Y008797D01*
X024336Y008797D01*
X024374Y008808D01*
X024409Y008827D01*
X024437Y008855D01*
X024456Y008889D01*
X024467Y008928D01*
X024467Y009096D01*
X024148Y009096D01*
X024148Y009193D01*
X024467Y009193D01*
X024467Y009361D01*
X024456Y009399D01*
X024437Y009433D01*
X024409Y009461D01*
X024404Y009464D01*
X024487Y009546D01*
X024487Y010081D01*
X024387Y010180D01*
X024350Y010180D01*
X024350Y011029D01*
X024317Y011108D01*
X024650Y010775D01*
X024650Y010180D01*
X024613Y010180D01*
X024513Y010081D01*
X024513Y009546D01*
X024596Y009464D01*
X024591Y009461D01*
X024563Y009433D01*
X024544Y009399D01*
X024533Y009361D01*
X024533Y009193D01*
X024852Y009193D01*
X024852Y009096D01*
X024948Y009096D01*
X024948Y008797D01*
X025136Y008797D01*
X025174Y008808D01*
X025209Y008827D01*
X025237Y008855D01*
X025256Y008889D01*
X025267Y008928D01*
X025267Y009096D01*
X024948Y009096D01*
X024948Y009193D01*
X025267Y009193D01*
X025267Y009361D01*
X025256Y009399D01*
X025237Y009433D01*
X025209Y009461D01*
X025204Y009464D01*
X025287Y009546D01*
X025287Y010081D01*
X025187Y010180D01*
X025150Y010180D01*
X025150Y010268D01*
X025240Y010179D01*
X025711Y010179D01*
X025900Y010054D01*
X025900Y009679D01*
X025938Y009587D01*
X026481Y009045D01*
X026430Y008922D01*
X026430Y008735D01*
X026502Y008563D01*
X026634Y008430D01*
X026807Y008359D01*
X026993Y008359D01*
X027166Y008430D01*
X027298Y008563D01*
X027370Y008735D01*
X027370Y008922D01*
X027298Y009095D01*
X027166Y009227D01*
X026993Y009299D01*
X026934Y009299D01*
X026874Y009359D01*
X027095Y009359D01*
X027370Y009634D01*
X027370Y010023D01*
X027095Y010299D01*
X026851Y010299D01*
X026771Y010402D01*
X026739Y010487D01*
X026807Y010459D01*
X026993Y010459D01*
X027166Y010530D01*
X027298Y010663D01*
X027370Y010835D01*
X027370Y011022D01*
X027298Y011195D01*
X027166Y011327D01*
X026993Y011399D01*
X026876Y011399D01*
X026834Y011459D01*
X027095Y011459D01*
X027370Y011734D01*
X027370Y012123D01*
X027095Y012399D01*
X026784Y012399D01*
X026492Y012691D01*
X026400Y012729D01*
X026230Y012729D01*
X026535Y012729D01*
X026634Y012630D01*
X026807Y012559D01*
X026993Y012559D01*
X027166Y012630D01*
X027298Y012763D01*
X027370Y012935D01*
X027370Y013122D01*
X027298Y013295D01*
X027166Y013427D01*
X026993Y013499D01*
X026807Y013499D01*
X026665Y013440D01*
X026784Y013559D01*
X027095Y013559D01*
X027370Y013834D01*
X027370Y014223D01*
X027265Y014329D01*
X027400Y014329D01*
X027492Y014367D01*
X027790Y014666D01*
X027807Y014659D01*
X027993Y014659D01*
X028166Y014730D01*
X028298Y014863D01*
X028370Y015035D01*
X028370Y015222D01*
X028298Y015395D01*
X028166Y015527D01*
X027993Y015599D01*
X027807Y015599D01*
X027634Y015527D01*
X027502Y015395D01*
X027430Y015222D01*
X027430Y015035D01*
X027437Y015019D01*
X027370Y014952D01*
X027370Y015323D01*
X027095Y015599D01*
X026705Y015599D01*
X026485Y015379D01*
X025000Y015379D01*
X024908Y015341D01*
X024838Y015270D01*
X023803Y014236D01*
X023760Y014279D01*
X022820Y014279D01*
X022720Y014179D01*
X022720Y013778D01*
X022770Y013729D01*
X022720Y013679D01*
X022720Y013278D01*
X022770Y013229D01*
X022720Y013179D01*
X022720Y012778D01*
X022770Y012729D01*
X022720Y012679D01*
X022720Y012284D01*
X022620Y012384D01*
X022620Y012699D01*
X022520Y012799D01*
X022102Y012799D01*
X022148Y012910D01*
X022148Y013048D01*
X022095Y013176D01*
X021997Y013274D01*
X021869Y013327D01*
X021731Y013327D01*
X021603Y013274D01*
X021505Y013176D01*
X021452Y013048D01*
X021452Y012910D01*
X021498Y012799D01*
X021130Y012799D01*
X021030Y012699D01*
X021030Y012684D01*
X020980Y012634D01*
X020980Y012908D01*
X021339Y013199D01*
X021380Y013199D01*
X021404Y013223D01*
X021437Y013232D01*
X021469Y013288D01*
X021515Y013334D01*
X021515Y013368D01*
X021606Y013527D01*
X021837Y013527D01*
X021937Y013627D01*
X021937Y014161D01*
X021869Y014229D01*
X021937Y014296D01*
X021937Y014415D01*
X022850Y015329D01*
X022850Y015604D01*
X022880Y015634D01*
X022880Y016916D01*
X022945Y016982D01*
X022998Y017110D01*
X022998Y017248D01*
X022945Y017376D01*
X022850Y017471D01*
X022850Y017709D01*
X025558Y017709D01*
X025649Y017697D01*
X025690Y017709D01*
X025733Y017709D01*
X025818Y017744D01*
X025906Y017768D01*
X025940Y017794D01*
X025980Y017811D01*
X026044Y017876D01*
X026390Y018144D01*
X026430Y018161D01*
X026494Y018226D01*
X026567Y018282D01*
X026588Y018319D01*
X026618Y018349D01*
X026653Y018434D01*
X026698Y018513D01*
X026704Y018556D01*
X026720Y018596D01*
X026720Y018687D01*
X026731Y018778D01*
X026720Y018819D01*
X026720Y019101D01*
X026737Y019118D01*
X026802Y018963D01*
X026934Y018830D01*
X027107Y018759D01*
X027293Y018759D01*
X027466Y018830D01*
X027598Y018963D01*
X027670Y019135D01*
X027670Y019922D01*
X027598Y020095D01*
X027466Y020227D01*
X027293Y020299D01*
X027107Y020299D01*
X026934Y020227D01*
X026802Y020095D01*
X026737Y019939D01*
X026611Y020066D01*
X026598Y020095D01*
X026466Y020227D01*
X026293Y020299D01*
X026107Y020299D01*
X025934Y020227D01*
X025802Y020095D01*
X025789Y020066D01*
X025482Y019758D01*
X025380Y019512D01*
X025380Y019056D01*
X025370Y019049D01*
X024900Y019049D01*
X024900Y021617D01*
X024905Y021606D01*
X024953Y021540D01*
X025011Y021482D01*
X025077Y021434D01*
X025150Y021397D01*
X025228Y021372D01*
X025300Y021360D01*
X025300Y021829D01*
X025400Y021829D01*
X025400Y021929D01*
X025869Y021929D01*
X025857Y022001D01*
X025832Y022078D01*
X025795Y022151D01*
X025747Y022218D01*
X025689Y022275D01*
X025623Y022324D01*
X025566Y022352D01*
X025955Y022337D01*
X026011Y021947D01*
X026011Y021947D01*
X026220Y021488D01*
X026550Y021108D01*
X026974Y020835D01*
X027457Y020693D01*
X027961Y020693D01*
X028444Y020835D01*
X028444Y020835D01*
X028512Y020879D01*
X029280Y020879D01*
X029280Y014313D01*
X029095Y014499D01*
X028705Y014499D01*
X028430Y014223D01*
X028430Y013834D01*
X028705Y013559D01*
X029095Y013559D01*
X029280Y013744D01*
X029280Y013313D01*
X029095Y013499D01*
X028705Y013499D01*
X028430Y013223D01*
X028430Y012834D01*
X028705Y012559D01*
X029095Y012559D01*
X029280Y012744D01*
X029280Y012213D01*
X029095Y012399D01*
X028705Y012399D01*
X028430Y012123D01*
X028430Y011734D01*
X028705Y011459D01*
X029095Y011459D01*
X029280Y011644D01*
X029280Y011213D01*
X029095Y011399D01*
X028705Y011399D01*
X028430Y011123D01*
X028430Y010734D01*
X028705Y010459D01*
X029095Y010459D01*
X029280Y010644D01*
X029280Y010113D01*
X029095Y010299D01*
X028705Y010299D01*
X028430Y010023D01*
X028430Y009634D01*
X028705Y009359D01*
X029095Y009359D01*
X029280Y009544D01*
X029280Y009113D01*
X029095Y009299D01*
X028705Y009299D01*
X028430Y009023D01*
X028430Y008634D01*
X028705Y008359D01*
X029095Y008359D01*
X029280Y008544D01*
X029280Y007475D01*
X029198Y007654D01*
X029198Y007654D01*
X028868Y008035D01*
X028444Y008307D01*
X028112Y008405D01*
X028350Y008642D01*
X028350Y008779D01*
X027950Y008779D01*
X027950Y008879D01*
X027850Y008879D01*
X027850Y009279D01*
X027714Y009279D01*
X027450Y009015D01*
X027450Y008879D01*
X027850Y008879D01*
X027850Y008779D01*
X027450Y008779D01*
X027450Y008642D01*
X027643Y008449D01*
X027457Y008449D01*
X026974Y008307D01*
X026974Y008307D01*
X026550Y008035D01*
X026550Y008035D01*
X026550Y008035D01*
X026220Y007654D01*
X026011Y007196D01*
X025939Y006697D01*
X025943Y006667D01*
X025919Y006677D01*
X025781Y006677D01*
X025653Y006624D01*
X025555Y006526D01*
X025502Y006398D01*
X025502Y006260D01*
X025555Y006132D01*
X025620Y006066D01*
X025620Y006049D01*
X025523Y005952D01*
X025523Y005496D01*
X025605Y005414D01*
X025600Y005411D01*
X025572Y005383D01*
X025553Y005349D01*
X025543Y005311D01*
X025543Y005162D01*
X025821Y005162D01*
X025821Y005105D01*
X025543Y005105D01*
X025543Y004956D01*
X025553Y004918D01*
X025564Y004899D01*
X024826Y004899D01*
X024826Y005081D01*
X024450Y005081D01*
X024450Y005181D01*
X024350Y005181D01*
X024350Y005556D01*
X024105Y005556D01*
X024067Y005546D01*
X024032Y005526D01*
X024004Y005498D01*
X023985Y005464D01*
X023974Y005426D01*
X023974Y005181D01*
X024350Y005181D01*
X024350Y005081D01*
X023974Y005081D01*
X023974Y004899D01*
X023826Y004899D01*
X023826Y005081D01*
X023450Y005081D01*
X023450Y005181D01*
X023350Y005181D01*
X023350Y005556D01*
X023105Y005556D01*
X023067Y005546D01*
X023032Y005526D01*
X023004Y005498D01*
X022985Y005464D01*
X022974Y005426D01*
X022974Y005181D01*
X023350Y005181D01*
X023350Y005081D01*
X022974Y005081D01*
X022974Y004899D01*
X022826Y004899D01*
X022826Y005081D01*
X022450Y005081D01*
X022450Y005181D01*
X022350Y005181D01*
X022350Y005556D01*
X022105Y005556D01*
X022067Y005546D01*
X022032Y005526D01*
X022004Y005498D01*
X021985Y005464D01*
X021974Y005426D01*
X021974Y005181D01*
X022350Y005181D01*
X022350Y005081D01*
X021974Y005081D01*
X021974Y004899D01*
X021826Y004899D01*
X021826Y005081D01*
X021450Y005081D01*
X021450Y005181D01*
X021350Y005181D01*
X021350Y005556D01*
X021105Y005556D01*
X021067Y005546D01*
X021032Y005526D01*
X021004Y005498D01*
X020985Y005464D01*
X020974Y005426D01*
X020974Y005181D01*
X021350Y005181D01*
X021350Y005081D01*
X020974Y005081D01*
X020974Y004899D01*
X020450Y004899D01*
X020450Y005729D01*
X020445Y005736D01*
X020537Y005827D01*
X020537Y006361D01*
X020454Y006444D01*
X020459Y006447D01*
X020487Y006474D01*
X020506Y006509D01*
X020517Y006547D01*
X020517Y006715D01*
X020198Y006715D01*
X020198Y006812D01*
X020102Y006812D01*
X020102Y007110D01*
X019914Y007110D01*
X019876Y007100D01*
X019841Y007080D01*
X019813Y007052D01*
X019794Y007018D01*
X019783Y006980D01*
X019783Y006812D01*
X020102Y006812D01*
X020102Y006715D01*
X019816Y006715D01*
X019763Y006797D02*
X020102Y006797D01*
X020198Y006797D02*
X020954Y006797D01*
X020954Y006699D02*
X020517Y006699D01*
X020517Y006600D02*
X020954Y006600D01*
X020954Y006502D02*
X020502Y006502D01*
X020495Y006403D02*
X020954Y006403D01*
X020954Y006305D02*
X020537Y006305D01*
X020537Y006206D02*
X021029Y006206D01*
X020537Y006108D02*
X025579Y006108D01*
X025580Y006009D02*
X020537Y006009D01*
X020537Y005911D02*
X025523Y005911D01*
X025523Y005812D02*
X020522Y005812D01*
X020450Y005714D02*
X025523Y005714D01*
X025523Y005615D02*
X020450Y005615D01*
X020450Y005517D02*
X021023Y005517D01*
X020974Y005418D02*
X020450Y005418D01*
X020450Y005320D02*
X020974Y005320D01*
X020974Y005221D02*
X020450Y005221D01*
X020450Y005123D02*
X021350Y005123D01*
X021350Y005221D02*
X021450Y005221D01*
X021450Y005181D02*
X021450Y005556D01*
X021695Y005556D01*
X021733Y005546D01*
X021768Y005526D01*
X021796Y005498D01*
X021815Y005464D01*
X021826Y005426D01*
X021826Y005181D01*
X021450Y005181D01*
X021450Y005123D02*
X022350Y005123D01*
X022350Y005221D02*
X022450Y005221D01*
X022450Y005181D02*
X022450Y005556D01*
X022695Y005556D01*
X022733Y005546D01*
X022768Y005526D01*
X022796Y005498D01*
X022815Y005464D01*
X022826Y005426D01*
X022826Y005181D01*
X022450Y005181D01*
X022450Y005123D02*
X023350Y005123D01*
X023350Y005221D02*
X023450Y005221D01*
X023450Y005181D02*
X023450Y005556D01*
X023695Y005556D01*
X023733Y005546D01*
X023768Y005526D01*
X023796Y005498D01*
X023815Y005464D01*
X023826Y005426D01*
X023826Y005181D01*
X023450Y005181D01*
X023450Y005123D02*
X024350Y005123D01*
X024350Y005221D02*
X024450Y005221D01*
X024450Y005181D02*
X024450Y005556D01*
X024695Y005556D01*
X024733Y005546D01*
X024768Y005526D01*
X024796Y005498D01*
X024815Y005464D01*
X024826Y005426D01*
X024826Y005181D01*
X024450Y005181D01*
X024450Y005123D02*
X025821Y005123D01*
X025879Y005123D02*
X026918Y005123D01*
X026974Y005087D02*
X027457Y004945D01*
X027961Y004945D01*
X028444Y005087D01*
X028444Y005087D01*
X028868Y005360D01*
X029198Y005740D01*
X029198Y005740D01*
X029280Y005920D01*
X029280Y004899D01*
X026136Y004899D01*
X026147Y004918D01*
X026157Y004956D01*
X026157Y005105D01*
X025879Y005105D01*
X025879Y005162D01*
X026157Y005162D01*
X026157Y005311D01*
X026147Y005349D01*
X026128Y005383D01*
X026100Y005411D01*
X026095Y005414D01*
X026177Y005496D01*
X026177Y005834D01*
X026220Y005740D01*
X026550Y005360D01*
X026974Y005087D01*
X026974Y005087D01*
X027188Y005024D02*
X026157Y005024D01*
X026149Y004926D02*
X029280Y004926D01*
X029280Y005024D02*
X028230Y005024D01*
X028500Y005123D02*
X029280Y005123D01*
X029280Y005221D02*
X028653Y005221D01*
X028806Y005320D02*
X029280Y005320D01*
X029280Y005418D02*
X028919Y005418D01*
X028868Y005360D02*
X028868Y005360D01*
X028868Y005360D01*
X029004Y005517D02*
X029280Y005517D01*
X029280Y005615D02*
X029090Y005615D01*
X029175Y005714D02*
X029280Y005714D01*
X029280Y005812D02*
X029231Y005812D01*
X029276Y005911D02*
X029280Y005911D01*
X029275Y007487D02*
X029280Y007487D01*
X029280Y007585D02*
X029230Y007585D01*
X029280Y007684D02*
X029172Y007684D01*
X029087Y007782D02*
X029280Y007782D01*
X029280Y007881D02*
X029002Y007881D01*
X028916Y007979D02*
X029280Y007979D01*
X029280Y008078D02*
X028802Y008078D01*
X028868Y008035D02*
X028868Y008035D01*
X028648Y008176D02*
X029280Y008176D01*
X029280Y008275D02*
X028495Y008275D01*
X028444Y008307D02*
X028444Y008307D01*
X028592Y008472D02*
X028179Y008472D01*
X028220Y008373D02*
X028691Y008373D01*
X028494Y008570D02*
X028278Y008570D01*
X028350Y008669D02*
X028430Y008669D01*
X028430Y008767D02*
X028350Y008767D01*
X028350Y008879D02*
X028350Y009015D01*
X028086Y009279D01*
X027950Y009279D01*
X027950Y008879D01*
X028350Y008879D01*
X028430Y008866D02*
X027950Y008866D01*
X027950Y008964D02*
X027850Y008964D01*
X027850Y008866D02*
X027370Y008866D01*
X027370Y008767D02*
X027450Y008767D01*
X027450Y008669D02*
X027342Y008669D01*
X027302Y008570D02*
X027522Y008570D01*
X027621Y008472D02*
X027208Y008472D01*
X027198Y008373D02*
X027029Y008373D01*
X026923Y008275D02*
X024058Y008275D01*
X024156Y008176D02*
X026770Y008176D01*
X026617Y008078D02*
X024881Y008078D01*
X024940Y007979D02*
X026502Y007979D01*
X026416Y007881D02*
X024940Y007881D01*
X024940Y007782D02*
X026331Y007782D01*
X026246Y007684D02*
X024940Y007684D01*
X024940Y007585D02*
X026189Y007585D01*
X026220Y007654D02*
X026220Y007654D01*
X026144Y007487D02*
X024940Y007487D01*
X024940Y007388D02*
X026099Y007388D01*
X026054Y007290D02*
X024940Y007290D01*
X024940Y007191D02*
X026010Y007191D01*
X026011Y007196D02*
X026011Y007196D01*
X025996Y007093D02*
X024894Y007093D01*
X024824Y006994D02*
X025982Y006994D01*
X025968Y006896D02*
X024846Y006896D01*
X024846Y006797D02*
X025953Y006797D01*
X025939Y006699D02*
X024846Y006699D01*
X024846Y006600D02*
X025629Y006600D01*
X025545Y006502D02*
X024846Y006502D01*
X024846Y006403D02*
X025504Y006403D01*
X025502Y006305D02*
X024846Y006305D01*
X024771Y006206D02*
X025524Y006206D01*
X025939Y006697D02*
X025939Y006697D01*
X026177Y005812D02*
X026187Y005812D01*
X026220Y005740D02*
X026220Y005740D01*
X026243Y005714D02*
X026177Y005714D01*
X026177Y005615D02*
X026328Y005615D01*
X026414Y005517D02*
X026177Y005517D01*
X026100Y005418D02*
X026499Y005418D01*
X026612Y005320D02*
X026155Y005320D01*
X026157Y005221D02*
X026765Y005221D01*
X025600Y005418D02*
X024826Y005418D01*
X024826Y005320D02*
X025545Y005320D01*
X025543Y005221D02*
X024826Y005221D01*
X024826Y005024D02*
X025543Y005024D01*
X025551Y004926D02*
X024826Y004926D01*
X024450Y005320D02*
X024350Y005320D01*
X024350Y005418D02*
X024450Y005418D01*
X024450Y005517D02*
X024350Y005517D01*
X024023Y005517D02*
X023777Y005517D01*
X023826Y005418D02*
X023974Y005418D01*
X023974Y005320D02*
X023826Y005320D01*
X023826Y005221D02*
X023974Y005221D01*
X023974Y005024D02*
X023826Y005024D01*
X023826Y004926D02*
X023974Y004926D01*
X023450Y005320D02*
X023350Y005320D01*
X023350Y005418D02*
X023450Y005418D01*
X023450Y005517D02*
X023350Y005517D01*
X023023Y005517D02*
X022777Y005517D01*
X022826Y005418D02*
X022974Y005418D01*
X022974Y005320D02*
X022826Y005320D01*
X022826Y005221D02*
X022974Y005221D01*
X022974Y005024D02*
X022826Y005024D01*
X022826Y004926D02*
X022974Y004926D01*
X022450Y005320D02*
X022350Y005320D01*
X022350Y005418D02*
X022450Y005418D01*
X022450Y005517D02*
X022350Y005517D01*
X022023Y005517D02*
X021777Y005517D01*
X021826Y005418D02*
X021974Y005418D01*
X021974Y005320D02*
X021826Y005320D01*
X021826Y005221D02*
X021974Y005221D01*
X021974Y005024D02*
X021826Y005024D01*
X021826Y004926D02*
X021974Y004926D01*
X021450Y005320D02*
X021350Y005320D01*
X021350Y005418D02*
X021450Y005418D01*
X021450Y005517D02*
X021350Y005517D01*
X020974Y005024D02*
X020450Y005024D01*
X020450Y004926D02*
X020974Y004926D01*
X021771Y006206D02*
X022029Y006206D01*
X021954Y006305D02*
X021846Y006305D01*
X021846Y006403D02*
X021954Y006403D01*
X021954Y006502D02*
X021846Y006502D01*
X021846Y006600D02*
X021954Y006600D01*
X021954Y006699D02*
X021846Y006699D01*
X021846Y006797D02*
X021954Y006797D01*
X021954Y006896D02*
X021846Y006896D01*
X021824Y006994D02*
X021976Y006994D01*
X022110Y007093D02*
X021690Y007093D01*
X021776Y007191D02*
X022024Y007191D01*
X021935Y007290D02*
X021865Y007290D01*
X021110Y007093D02*
X020437Y007093D01*
X020424Y007100D02*
X020386Y007110D01*
X020198Y007110D01*
X020198Y006812D01*
X020517Y006812D01*
X020517Y006980D01*
X020506Y007018D01*
X020487Y007052D01*
X020459Y007080D01*
X020424Y007100D01*
X020513Y006994D02*
X020976Y006994D01*
X020954Y006896D02*
X020517Y006896D01*
X021024Y007191D02*
X019550Y007191D01*
X019550Y007290D02*
X020935Y007290D01*
X020894Y007388D02*
X019550Y007388D01*
X019550Y007487D02*
X020860Y007487D01*
X020860Y007585D02*
X020799Y007585D01*
X020198Y007093D02*
X020102Y007093D01*
X020102Y006994D02*
X020198Y006994D01*
X020198Y006896D02*
X020102Y006896D01*
X019863Y007093D02*
X019573Y007093D01*
X019636Y006994D02*
X019787Y006994D01*
X019783Y006896D02*
X019700Y006896D01*
X019550Y007585D02*
X020001Y007585D01*
X019904Y007684D02*
X019550Y007684D01*
X019550Y007782D02*
X019863Y007782D01*
X019852Y007881D02*
X019550Y007881D01*
X019550Y007979D02*
X019865Y007979D01*
X019870Y008078D02*
X019550Y008078D01*
X019550Y008176D02*
X019866Y008176D01*
X019852Y008275D02*
X019550Y008275D01*
X019550Y008373D02*
X019862Y008373D01*
X019903Y008472D02*
X019550Y008472D01*
X019550Y008570D02*
X019999Y008570D01*
X019723Y008866D02*
X020423Y008866D01*
X020429Y008964D02*
X019899Y008964D01*
X019998Y009063D02*
X020429Y009063D01*
X020432Y009161D02*
X020044Y009161D01*
X020085Y009260D02*
X022502Y009260D01*
X022506Y009358D02*
X020090Y009358D01*
X020090Y009457D02*
X022547Y009457D01*
X022634Y009555D02*
X020061Y009555D01*
X019550Y009379D02*
X019000Y009679D01*
X017750Y009679D01*
X017500Y009929D01*
X017000Y009929D01*
X016700Y010279D01*
X016250Y010579D01*
X016040Y010579D01*
X016040Y010109D01*
X016230Y010109D02*
X016230Y009699D01*
X016450Y009679D01*
X017350Y009679D01*
X017850Y008729D01*
X018150Y009179D02*
X018950Y008960D01*
X019000Y006779D01*
X016950Y007129D02*
X016650Y006879D01*
X016550Y006879D01*
X016950Y007129D02*
X016950Y009469D01*
X016200Y009469D01*
X015840Y009679D01*
X015840Y010109D01*
X015640Y010109D02*
X015640Y010519D01*
X015750Y010679D01*
X015850Y010879D01*
X016100Y011029D01*
X015600Y011079D02*
X015400Y010729D01*
X015050Y010529D01*
X015050Y010109D01*
X015050Y009223D01*
X015306Y008829D01*
X015350Y008734D01*
X015350Y008394D01*
X015415Y008179D01*
X015058Y007782D02*
X016229Y007782D01*
X016229Y007684D02*
X014677Y007684D01*
X014550Y007879D02*
X014200Y007979D01*
X014550Y007879D02*
X014750Y008134D01*
X014400Y007585D02*
X016229Y007585D01*
X016606Y007629D02*
X016606Y008179D01*
X016085Y008179D01*
X015994Y008829D02*
X015894Y008984D01*
X015400Y009329D01*
X015250Y009629D01*
X015250Y010109D01*
X015450Y010109D02*
X015450Y009729D01*
X016100Y009229D01*
X016400Y009229D01*
X016500Y009129D01*
X017250Y010279D02*
X017850Y010279D01*
X018128Y010006D01*
X018404Y010006D01*
X018157Y010321D02*
X017830Y010649D01*
X016770Y010649D01*
X016770Y010839D02*
X017990Y010839D01*
X018193Y010636D01*
X018316Y011039D02*
X016770Y011039D01*
X016770Y011239D02*
X019910Y011239D01*
X019750Y011429D02*
X016770Y011429D01*
X016770Y011629D02*
X019650Y011629D01*
X019550Y011829D02*
X016770Y011829D01*
X016770Y012219D02*
X018400Y012219D01*
X018400Y012729D01*
X018344Y012729D01*
X019050Y012729D01*
X019350Y012979D01*
X020050Y012979D01*
X020050Y014079D01*
X019806Y014079D01*
X019806Y014229D01*
X019700Y014185D02*
X019600Y014185D01*
X019600Y014123D02*
X019600Y014430D01*
X019418Y014430D01*
X019380Y014420D01*
X019345Y014400D01*
X019329Y014384D01*
X019090Y014384D01*
X018988Y014486D01*
X018986Y014502D01*
X018922Y014552D01*
X018865Y014609D01*
X018849Y014609D01*
X018835Y014619D01*
X018755Y014609D01*
X018675Y014609D01*
X018663Y014597D01*
X018351Y014557D01*
X018351Y014566D01*
X018307Y014610D01*
X018321Y014624D01*
X018341Y014658D01*
X018351Y014696D01*
X018351Y014879D01*
X018044Y014879D01*
X018044Y014979D01*
X017944Y014979D01*
X017944Y015291D01*
X017936Y015291D01*
X017936Y015530D01*
X018033Y015530D01*
X018033Y015212D01*
X018044Y015212D01*
X018044Y014979D01*
X018351Y014979D01*
X018351Y015161D01*
X018341Y015199D01*
X018321Y015233D01*
X018293Y015261D01*
X018293Y015262D01*
X018302Y015270D01*
X018321Y015304D01*
X018331Y015343D01*
X018331Y015522D01*
X018452Y015402D01*
X018452Y015310D01*
X018505Y015182D01*
X018603Y015084D01*
X018731Y015031D01*
X018869Y015031D01*
X018997Y015084D01*
X019095Y015182D01*
X019148Y015310D01*
X019148Y015448D01*
X019095Y015575D01*
X019250Y015579D01*
X019250Y015379D01*
X019835Y015379D01*
X019802Y015298D01*
X019802Y015160D01*
X019855Y015032D01*
X019953Y014934D01*
X020081Y014881D01*
X020219Y014881D01*
X020347Y014934D01*
X020445Y015032D01*
X020498Y015160D01*
X020498Y015298D01*
X020465Y015379D01*
X020800Y015379D01*
X020800Y015123D01*
X020727Y015109D01*
X020655Y015109D01*
X020637Y015091D01*
X020611Y015086D01*
X020571Y015025D01*
X020520Y014974D01*
X020520Y014948D01*
X020508Y014930D01*
X020463Y014930D01*
X020363Y014831D01*
X020363Y014296D01*
X020431Y014229D01*
X020363Y014161D01*
X020363Y013635D01*
X020311Y013530D01*
X020270Y013489D01*
X020270Y013448D01*
X020252Y013412D01*
X020270Y013357D01*
X020270Y012874D01*
X020236Y012840D01*
X019450Y012229D01*
X018550Y012229D01*
X018550Y012366D01*
X018571Y012366D01*
X018609Y012376D01*
X018643Y012396D01*
X018671Y012424D01*
X018691Y012458D01*
X018701Y012496D01*
X018701Y012679D01*
X018394Y012679D01*
X018394Y012779D01*
X018294Y012779D01*
X018294Y013091D01*
X018118Y013091D01*
X018080Y013081D01*
X018046Y013061D01*
X018018Y013033D01*
X018015Y013029D01*
X017933Y013111D01*
X017378Y013111D01*
X017279Y013012D01*
X017279Y012839D01*
X017230Y012839D01*
X017230Y012934D01*
X017130Y013034D01*
X017012Y013034D01*
X016990Y013077D01*
X016990Y013081D01*
X017069Y013081D01*
X017197Y013134D01*
X017295Y013232D01*
X017348Y013360D01*
X017348Y013498D01*
X017302Y013609D01*
X017580Y013609D01*
X017580Y013422D01*
X017578Y013419D01*
X017580Y013331D01*
X017580Y013243D01*
X017582Y013241D01*
X017583Y013237D01*
X017647Y013177D01*
X017709Y013114D01*
X017712Y013114D01*
X017715Y013112D01*
X017803Y013114D01*
X017891Y013114D01*
X017894Y013117D01*
X018656Y013137D01*
X018720Y013074D01*
X019301Y013074D01*
X019367Y013008D01*
X019933Y013008D01*
X020033Y013107D01*
X020033Y013661D01*
X019950Y013744D01*
X019955Y013747D01*
X019983Y013774D01*
X020002Y013809D01*
X020013Y013847D01*
X020013Y014023D01*
X019700Y014023D01*
X019700Y014123D01*
X020013Y014123D01*
X020013Y014300D01*
X020002Y014338D01*
X019983Y014372D01*
X019955Y014400D01*
X019920Y014420D01*
X019882Y014430D01*
X019700Y014430D01*
X019700Y014123D01*
X019600Y014123D01*
X019650Y014073D02*
X019650Y014629D01*
X019600Y014382D02*
X019700Y014382D01*
X019700Y014283D02*
X019600Y014283D01*
X019700Y014086D02*
X020363Y014086D01*
X020363Y013988D02*
X020013Y013988D01*
X020013Y013889D02*
X020363Y013889D01*
X020363Y013791D02*
X019992Y013791D01*
X020002Y013692D02*
X020363Y013692D01*
X020343Y013594D02*
X020033Y013594D01*
X020033Y013495D02*
X020276Y013495D01*
X020257Y013397D02*
X020033Y013397D01*
X020033Y013298D02*
X020270Y013298D01*
X020270Y013200D02*
X020033Y013200D01*
X020027Y013101D02*
X020270Y013101D01*
X020270Y013003D02*
X018689Y013003D01*
X018691Y012999D02*
X018671Y013033D01*
X018643Y013061D01*
X018609Y013081D01*
X018571Y013091D01*
X018394Y013091D01*
X018394Y012779D01*
X018701Y012779D01*
X018701Y012961D01*
X018691Y012999D01*
X018701Y012904D02*
X020270Y012904D01*
X020192Y012806D02*
X018701Y012806D01*
X018701Y012609D02*
X019939Y012609D01*
X020065Y012707D02*
X018394Y012707D01*
X018394Y012806D02*
X018294Y012806D01*
X018294Y012904D02*
X018394Y012904D01*
X018394Y013003D02*
X018294Y013003D01*
X017943Y013101D02*
X018692Y013101D01*
X018656Y013581D02*
X018660Y013594D01*
X018660Y013721D01*
X018258Y013721D01*
X018258Y013736D01*
X018660Y013736D01*
X018660Y013864D01*
X018656Y013877D01*
X018720Y013814D01*
X019296Y013814D01*
X019298Y013809D01*
X019317Y013774D01*
X019345Y013747D01*
X019350Y013744D01*
X019267Y013661D01*
X019267Y013644D01*
X018720Y013644D01*
X018656Y013581D01*
X018660Y013594D02*
X018670Y013594D01*
X018660Y013692D02*
X019298Y013692D01*
X019308Y013791D02*
X018660Y013791D01*
X018994Y014480D02*
X020363Y014480D01*
X020363Y014382D02*
X019973Y014382D01*
X020013Y014283D02*
X020376Y014283D01*
X020387Y014185D02*
X020013Y014185D01*
X020363Y014579D02*
X018895Y014579D01*
X018520Y014579D02*
X018338Y014579D01*
X018346Y014677D02*
X020363Y014677D01*
X020363Y014776D02*
X018351Y014776D01*
X018351Y014874D02*
X020407Y014874D01*
X020386Y014973D02*
X020520Y014973D01*
X020462Y015071D02*
X020602Y015071D01*
X020498Y015170D02*
X020800Y015170D01*
X020800Y015268D02*
X020498Y015268D01*
X020470Y015367D02*
X020800Y015367D01*
X019914Y014973D02*
X018044Y014973D01*
X018044Y015071D02*
X017944Y015071D01*
X017944Y015170D02*
X018044Y015170D01*
X018033Y015268D02*
X017944Y015268D01*
X017936Y015367D02*
X018033Y015367D01*
X018033Y015465D02*
X017936Y015465D01*
X017985Y015579D02*
X018600Y014979D01*
X019150Y014979D01*
X019250Y015079D01*
X019083Y015170D02*
X019802Y015170D01*
X019802Y015268D02*
X019131Y015268D01*
X019148Y015367D02*
X019830Y015367D01*
X019838Y015071D02*
X018967Y015071D01*
X018633Y015071D02*
X018351Y015071D01*
X018349Y015170D02*
X018517Y015170D01*
X018469Y015268D02*
X018300Y015268D01*
X018331Y015367D02*
X018452Y015367D01*
X018388Y015465D02*
X018331Y015465D01*
X019100Y015564D02*
X019250Y015564D01*
X019250Y015465D02*
X019141Y015465D01*
X017315Y015579D02*
X017315Y015029D01*
X017315Y014679D01*
X016250Y014679D01*
X016040Y014469D01*
X016040Y013349D01*
X016230Y013349D02*
X016620Y013849D01*
X017000Y013829D02*
X016915Y014344D01*
X017315Y014279D02*
X017315Y014679D01*
X017306Y014929D02*
X017315Y015029D01*
X016475Y015662D02*
X014970Y015662D01*
X014970Y015570D02*
X014970Y015899D01*
X014870Y015999D01*
X014480Y015999D01*
X014480Y016109D01*
X014870Y016109D01*
X014970Y016208D01*
X014970Y016452D01*
X015290Y016729D01*
X015446Y016729D01*
X015344Y016687D01*
X015192Y016535D01*
X015110Y016336D01*
X015110Y016121D01*
X015192Y015923D01*
X015344Y015771D01*
X015543Y015689D01*
X015757Y015689D01*
X015956Y015771D01*
X016108Y015923D01*
X016190Y016121D01*
X016190Y016336D01*
X016108Y016535D01*
X015956Y016687D01*
X015757Y016769D01*
X015690Y016769D01*
X015710Y016789D01*
X015731Y016781D01*
X015869Y016781D01*
X015997Y016834D01*
X016095Y016932D01*
X016148Y017060D01*
X016148Y017198D01*
X016140Y017218D01*
X016150Y017229D01*
X017165Y017229D01*
X017152Y017198D01*
X017152Y017060D01*
X017205Y016932D01*
X017303Y016834D01*
X017342Y016818D01*
X016150Y015229D01*
X016150Y014890D01*
X016030Y014770D01*
X015975Y014715D01*
X015820Y014870D01*
X015691Y014999D01*
X015191Y014999D01*
X015070Y015120D01*
X015070Y015312D01*
X015084Y015333D01*
X015070Y015401D01*
X015070Y015470D01*
X015053Y015487D01*
X015048Y015511D01*
X014990Y015550D01*
X014970Y015570D01*
X014976Y015564D02*
X016401Y015564D01*
X016327Y015465D02*
X015070Y015465D01*
X015077Y015367D02*
X016254Y015367D01*
X016180Y015268D02*
X015070Y015268D01*
X015070Y015170D02*
X016150Y015170D01*
X016150Y015071D02*
X015119Y015071D01*
X014850Y015029D02*
X014850Y015379D01*
X014700Y015479D01*
X014650Y015629D01*
X014970Y015761D02*
X015369Y015761D01*
X015256Y015859D02*
X014970Y015859D01*
X014911Y015958D02*
X015178Y015958D01*
X015137Y016056D02*
X014480Y016056D01*
X014916Y016155D02*
X015110Y016155D01*
X015110Y016253D02*
X014970Y016253D01*
X014970Y016352D02*
X015116Y016352D01*
X015157Y016450D02*
X014970Y016450D01*
X015082Y016549D02*
X015206Y016549D01*
X015196Y016647D02*
X015305Y016647D01*
X015813Y016746D02*
X017288Y016746D01*
X017292Y016844D02*
X016008Y016844D01*
X016100Y016943D02*
X017200Y016943D01*
X017159Y017041D02*
X016141Y017041D01*
X016148Y017140D02*
X017152Y017140D01*
X017214Y016647D02*
X015995Y016647D01*
X016094Y016549D02*
X017140Y016549D01*
X017066Y016450D02*
X016143Y016450D01*
X016184Y016352D02*
X016992Y016352D01*
X016918Y016253D02*
X016190Y016253D01*
X016190Y016155D02*
X016845Y016155D01*
X016771Y016056D02*
X016163Y016056D01*
X016122Y015958D02*
X016697Y015958D01*
X016623Y015859D02*
X016044Y015859D01*
X015931Y015761D02*
X016549Y015761D01*
X016150Y014973D02*
X015717Y014973D01*
X015816Y014874D02*
X016134Y014874D01*
X016036Y014776D02*
X015914Y014776D01*
X015840Y014539D02*
X015600Y014779D01*
X015100Y014779D01*
X014850Y015029D01*
X014600Y014979D02*
X014600Y015229D01*
X013950Y015229D01*
X013850Y015329D01*
X013850Y015629D01*
X013300Y015529D02*
X012550Y015529D01*
X012400Y015679D01*
X011000Y015679D01*
X010850Y015529D01*
X010785Y015479D01*
X010785Y015129D01*
X010484Y014776D02*
X010416Y014776D01*
X010115Y015129D02*
X010115Y015594D01*
X010300Y015779D01*
X009815Y014776D02*
X009808Y014776D01*
X009252Y014480D02*
X011941Y014480D01*
X012250Y014679D02*
X011550Y014729D01*
X011985Y015229D02*
X012185Y015079D01*
X012505Y015079D01*
X012250Y014679D02*
X012550Y014529D01*
X012800Y014429D01*
X012552Y014185D02*
X008661Y014185D01*
X008858Y014283D02*
X012483Y014283D01*
X012352Y014382D02*
X009055Y014382D01*
X010055Y013988D02*
X011545Y013988D01*
X011431Y013889D02*
X010169Y013889D01*
X010227Y013791D02*
X011373Y013791D01*
X011340Y013692D02*
X010315Y013692D01*
X010474Y013594D02*
X011340Y013594D01*
X011362Y013495D02*
X010634Y013495D01*
X010434Y013101D02*
X008650Y013101D01*
X008650Y013003D02*
X010593Y013003D01*
X010752Y012904D02*
X008815Y012904D01*
X009049Y012806D02*
X010911Y012806D01*
X011111Y013200D02*
X011951Y013200D01*
X012050Y013429D02*
X011750Y013629D01*
X012050Y013429D02*
X012250Y013179D01*
X013160Y012619D01*
X013530Y012619D01*
X013530Y012809D02*
X013480Y013249D01*
X013500Y013319D01*
X013500Y013229D01*
X013480Y013249D02*
X013050Y013229D01*
X012702Y013200D02*
X012636Y013200D01*
X012702Y013298D02*
X012476Y013298D01*
X012357Y013397D02*
X012743Y013397D01*
X012824Y013495D02*
X012279Y013495D01*
X012200Y013594D02*
X012987Y013594D01*
X013713Y013791D02*
X014040Y013791D01*
X014040Y013889D02*
X013713Y013889D01*
X013705Y013988D02*
X014040Y013988D01*
X014040Y014086D02*
X013673Y014086D01*
X013733Y014185D02*
X013983Y014185D01*
X013884Y014283D02*
X013733Y014283D01*
X013733Y014382D02*
X013786Y014382D01*
X014141Y014688D02*
X013300Y015529D01*
X013400Y015079D02*
X013095Y015079D01*
X013400Y015079D02*
X014260Y014219D01*
X014260Y013349D01*
X013865Y013397D02*
X013807Y013397D01*
X013848Y013298D02*
X013865Y013298D01*
X013865Y013200D02*
X013848Y013200D01*
X013865Y013101D02*
X013824Y013101D01*
X013990Y012904D02*
X014119Y012904D01*
X014097Y012806D02*
X013990Y012806D01*
X013990Y012707D02*
X014056Y012707D01*
X014052Y012609D02*
X013990Y012609D01*
X013990Y012510D02*
X014072Y012510D01*
X014125Y012412D02*
X013990Y012412D01*
X013990Y012313D02*
X014252Y012313D01*
X013990Y012215D02*
X015752Y012215D01*
X015791Y012116D02*
X013990Y012116D01*
X013990Y012018D02*
X015869Y012018D01*
X015800Y011821D02*
X013990Y011821D01*
X013990Y011919D02*
X016310Y011919D01*
X016310Y011821D02*
X016200Y011821D01*
X016297Y011722D02*
X016310Y011722D01*
X016000Y011529D02*
X015600Y011079D01*
X015433Y011230D02*
X013990Y011230D01*
X013990Y011328D02*
X015527Y011328D01*
X015615Y011427D02*
X013990Y011427D01*
X013990Y011525D02*
X015652Y011525D01*
X015663Y011624D02*
X013990Y011624D01*
X013990Y011722D02*
X015703Y011722D01*
X015377Y011131D02*
X013990Y011131D01*
X013990Y011033D02*
X015320Y011033D01*
X015264Y010934D02*
X013990Y010934D01*
X013990Y010836D02*
X015144Y010836D01*
X014947Y010737D02*
X013990Y010737D01*
X013990Y010639D02*
X014849Y010639D01*
X014850Y010629D02*
X014750Y010779D01*
X014800Y010829D01*
X014750Y010779D02*
X014300Y010829D01*
X014850Y010629D02*
X014850Y010109D01*
X014850Y008929D01*
X014750Y008829D01*
X014750Y008823D01*
X014506Y008773D01*
X014200Y008779D01*
X014230Y008767D02*
X014387Y008767D01*
X014387Y008773D02*
X014700Y008773D01*
X014700Y008873D01*
X014589Y008873D01*
X014600Y008818D01*
X014600Y008809D01*
X014230Y008809D01*
X014230Y008749D01*
X014387Y008749D01*
X014387Y008773D01*
X014591Y008866D02*
X014700Y008866D01*
X014700Y008873D02*
X014700Y009180D01*
X014665Y009180D01*
X014674Y009191D01*
X014680Y009198D01*
X014680Y009200D01*
X014702Y009230D01*
X014680Y009371D01*
X014680Y009649D01*
X014785Y009649D01*
X014805Y009669D01*
X014830Y009669D01*
X014830Y009247D01*
X014816Y009180D01*
X014800Y009180D01*
X014800Y008873D01*
X014700Y008873D01*
X014700Y008964D02*
X014800Y008964D01*
X014800Y009063D02*
X014700Y009063D01*
X014700Y009161D02*
X014800Y009161D01*
X014816Y009180D02*
X014816Y009180D01*
X014830Y009260D02*
X014697Y009260D01*
X014682Y009358D02*
X014830Y009358D01*
X014830Y009457D02*
X014680Y009457D01*
X014680Y009555D02*
X014830Y009555D01*
X014830Y009654D02*
X014790Y009654D01*
X014460Y009289D02*
X014460Y010109D01*
X014260Y010109D02*
X014260Y009589D01*
X013550Y009529D01*
X012800Y008779D01*
X012800Y007729D01*
X013150Y007179D01*
X012930Y007093D02*
X012871Y007093D01*
X012870Y007191D02*
X012881Y007191D01*
X012870Y006994D02*
X012901Y006994D01*
X012802Y006896D02*
X012778Y006896D01*
X012704Y006797D02*
X012666Y006797D01*
X012680Y006699D02*
X012620Y006699D01*
X012620Y006600D02*
X012680Y006600D01*
X012680Y006502D02*
X012620Y006502D01*
X012620Y006403D02*
X012680Y006403D01*
X012759Y006305D02*
X012541Y006305D01*
X012442Y006206D02*
X012858Y006206D01*
X012955Y006049D02*
X012680Y005773D01*
X012680Y005384D01*
X012955Y005109D01*
X013345Y005109D01*
X013620Y005384D01*
X013620Y005773D01*
X013345Y006049D01*
X012955Y006049D01*
X012916Y006009D02*
X012356Y006009D01*
X012336Y006029D02*
X012200Y006029D01*
X012200Y005629D01*
X012100Y005629D01*
X012100Y006029D01*
X011964Y006029D01*
X011700Y005765D01*
X011700Y005629D01*
X012100Y005629D01*
X012100Y005529D01*
X011700Y005529D01*
X011700Y005392D01*
X011964Y005129D01*
X012100Y005129D01*
X012100Y005529D01*
X012200Y005529D01*
X012200Y005629D01*
X012600Y005629D01*
X012600Y005765D01*
X012336Y006029D01*
X012200Y006009D02*
X012100Y006009D01*
X012100Y005911D02*
X012200Y005911D01*
X012200Y005812D02*
X012100Y005812D01*
X012100Y005714D02*
X012200Y005714D01*
X012200Y005615D02*
X012680Y005615D01*
X012680Y005517D02*
X012600Y005517D01*
X012600Y005529D02*
X012200Y005529D01*
X012200Y005129D01*
X012336Y005129D01*
X012600Y005392D01*
X012600Y005529D01*
X012600Y005418D02*
X012680Y005418D01*
X012744Y005320D02*
X012527Y005320D01*
X012429Y005221D02*
X012843Y005221D01*
X012941Y005123D02*
X011359Y005123D01*
X011457Y005221D02*
X011871Y005221D01*
X011773Y005320D02*
X011556Y005320D01*
X011620Y005418D02*
X011700Y005418D01*
X011700Y005517D02*
X011620Y005517D01*
X011620Y005615D02*
X012100Y005615D01*
X012150Y005579D02*
X012150Y005529D01*
X012600Y005079D01*
X013450Y005079D01*
X013500Y005129D01*
X013650Y005279D01*
X013650Y005829D01*
X013581Y005812D02*
X013719Y005812D01*
X013680Y005714D02*
X013620Y005714D01*
X013620Y005615D02*
X013680Y005615D01*
X013680Y005517D02*
X013620Y005517D01*
X013620Y005418D02*
X013680Y005418D01*
X013744Y005320D02*
X013556Y005320D01*
X013457Y005221D02*
X013843Y005221D01*
X013941Y005123D02*
X013359Y005123D01*
X012680Y005714D02*
X012600Y005714D01*
X012553Y005812D02*
X012719Y005812D01*
X012817Y005911D02*
X012454Y005911D01*
X012200Y005517D02*
X012100Y005517D01*
X012100Y005418D02*
X012200Y005418D01*
X012200Y005320D02*
X012100Y005320D01*
X012100Y005221D02*
X012200Y005221D01*
X011700Y005714D02*
X011620Y005714D01*
X011581Y005812D02*
X011747Y005812D01*
X011846Y005911D02*
X011483Y005911D01*
X011384Y006009D02*
X011944Y006009D01*
X011858Y006206D02*
X011442Y006206D01*
X011541Y006305D02*
X011759Y006305D01*
X011680Y006403D02*
X011620Y006403D01*
X011620Y006502D02*
X011680Y006502D01*
X011680Y006600D02*
X011620Y006600D01*
X011620Y006699D02*
X011680Y006699D01*
X011704Y006797D02*
X011596Y006797D01*
X011550Y006896D02*
X011802Y006896D01*
X011698Y006994D02*
X011627Y006994D01*
X011450Y007129D02*
X011150Y006729D01*
X011150Y006579D01*
X011450Y007129D02*
X011450Y009329D01*
X011650Y009529D01*
X011650Y010379D01*
X012260Y010839D01*
X013530Y010839D01*
X013530Y010649D02*
X012570Y010649D01*
X012100Y010229D01*
X012900Y010179D02*
X012900Y009579D01*
X012300Y008979D01*
X012300Y007329D01*
X012650Y007479D02*
X012650Y007079D01*
X012150Y006629D01*
X012150Y006579D01*
X012650Y007479D02*
X012550Y007679D01*
X012550Y008879D01*
X013450Y009779D01*
X013800Y009799D01*
X014070Y009849D01*
X014070Y010109D01*
X014850Y010629D02*
X014900Y011029D01*
X014900Y012179D01*
X014702Y012313D02*
X014548Y012313D01*
X013530Y012219D02*
X013520Y012229D01*
X012491Y012412D02*
X011778Y012412D01*
X012048Y012707D02*
X009283Y012707D01*
X009475Y012609D02*
X012242Y012609D01*
X012435Y012510D02*
X009561Y012510D01*
X011402Y013397D02*
X011518Y013281D01*
X014141Y014688D02*
X014291Y014688D01*
X014600Y014979D02*
X015000Y014579D01*
X015500Y014579D01*
X015640Y014439D01*
X015640Y013349D01*
X015840Y013349D02*
X015840Y014539D01*
X017000Y013829D02*
X017800Y013829D01*
X017800Y013334D01*
X019650Y013384D01*
X019600Y012629D02*
X019090Y012219D01*
X018400Y012219D01*
X018550Y012313D02*
X019559Y012313D01*
X019685Y012412D02*
X018659Y012412D01*
X018701Y012510D02*
X019812Y012510D01*
X020980Y012707D02*
X021038Y012707D01*
X020980Y012806D02*
X021495Y012806D01*
X021454Y012904D02*
X020980Y012904D01*
X021097Y013003D02*
X021452Y013003D01*
X021474Y013101D02*
X021219Y013101D01*
X021381Y013200D02*
X021529Y013200D01*
X021479Y013298D02*
X021662Y013298D01*
X021531Y013397D02*
X022720Y013397D01*
X022720Y013495D02*
X021587Y013495D01*
X021903Y013594D02*
X022720Y013594D01*
X022733Y013692D02*
X021937Y013692D01*
X021937Y013791D02*
X022720Y013791D01*
X022720Y013889D02*
X021937Y013889D01*
X021937Y013988D02*
X022720Y013988D01*
X022720Y014086D02*
X021937Y014086D01*
X021913Y014185D02*
X022726Y014185D01*
X022199Y014677D02*
X024245Y014677D01*
X024146Y014579D02*
X022100Y014579D01*
X022002Y014480D02*
X024048Y014480D01*
X023949Y014382D02*
X021937Y014382D01*
X021924Y014283D02*
X023851Y014283D01*
X024343Y014776D02*
X022297Y014776D01*
X022396Y014874D02*
X024442Y014874D01*
X024540Y014973D02*
X022494Y014973D01*
X022593Y015071D02*
X024639Y015071D01*
X024737Y015170D02*
X022691Y015170D01*
X022790Y015268D02*
X024836Y015268D01*
X024820Y015319D02*
X025060Y015559D01*
X025060Y015899D01*
X024820Y016139D01*
X024551Y016139D01*
X024186Y016504D01*
X023933Y016504D01*
X023933Y016561D01*
X023850Y016644D01*
X023855Y016647D01*
X023883Y016674D01*
X023902Y016709D01*
X023913Y016747D01*
X023913Y016923D01*
X023600Y016923D01*
X023600Y017023D01*
X023913Y017023D01*
X023913Y017200D01*
X023902Y017238D01*
X026430Y017238D01*
X026430Y017323D02*
X026430Y016934D01*
X026705Y016659D01*
X027095Y016659D01*
X027370Y016934D01*
X027370Y017323D01*
X027095Y017599D01*
X026705Y017599D01*
X026430Y017323D01*
X026443Y017337D02*
X022961Y017337D01*
X022998Y017238D02*
X023198Y017238D01*
X023187Y017200D01*
X023187Y017023D01*
X023500Y017023D01*
X023500Y016923D01*
X023187Y016923D01*
X023187Y016747D01*
X023198Y016709D01*
X023217Y016674D01*
X023245Y016647D01*
X023250Y016644D01*
X023167Y016561D01*
X023167Y016007D01*
X023267Y015908D01*
X023833Y015908D01*
X023933Y016007D01*
X023933Y016064D01*
X024003Y016064D01*
X024240Y015828D01*
X024240Y015559D01*
X024480Y015319D01*
X024820Y015319D01*
X024868Y015367D02*
X024971Y015367D01*
X024966Y015465D02*
X026572Y015465D01*
X026670Y015564D02*
X025060Y015564D01*
X025060Y015662D02*
X029280Y015662D01*
X029280Y015564D02*
X028078Y015564D01*
X028086Y015679D02*
X028350Y015942D01*
X028350Y016079D01*
X027950Y016079D01*
X027950Y016179D01*
X027850Y016179D01*
X027850Y016579D01*
X027714Y016579D01*
X027450Y016315D01*
X027450Y016179D01*
X027850Y016179D01*
X027850Y016079D01*
X027450Y016079D01*
X027450Y015942D01*
X027714Y015679D01*
X027850Y015679D01*
X027850Y016079D01*
X027950Y016079D01*
X027950Y015679D01*
X028086Y015679D01*
X028168Y015761D02*
X029280Y015761D01*
X029280Y015859D02*
X028267Y015859D01*
X028350Y015958D02*
X029280Y015958D01*
X029280Y016056D02*
X028350Y016056D01*
X028350Y016179D02*
X028350Y016315D01*
X028086Y016579D01*
X027950Y016579D01*
X027950Y016179D01*
X028350Y016179D01*
X028350Y016253D02*
X029280Y016253D01*
X029280Y016155D02*
X027950Y016155D01*
X027950Y016253D02*
X027850Y016253D01*
X027850Y016155D02*
X026950Y016155D01*
X026950Y016179D02*
X027350Y016179D01*
X027350Y016315D01*
X027086Y016579D01*
X026950Y016579D01*
X026950Y016179D01*
X026850Y016179D01*
X026850Y016579D01*
X026714Y016579D01*
X026450Y016315D01*
X026450Y016179D01*
X026850Y016179D01*
X026850Y016079D01*
X026450Y016079D01*
X026450Y015942D01*
X026714Y015679D01*
X026850Y015679D01*
X026850Y016079D01*
X026950Y016079D01*
X026950Y016179D01*
X026950Y016253D02*
X026850Y016253D01*
X026850Y016155D02*
X024535Y016155D01*
X024437Y016253D02*
X026450Y016253D01*
X026487Y016352D02*
X024853Y016352D01*
X024820Y016319D02*
X025060Y016559D01*
X025060Y016899D01*
X024820Y017139D01*
X024480Y017139D01*
X024240Y016899D01*
X024240Y016559D01*
X024480Y016319D01*
X024820Y016319D01*
X024951Y016450D02*
X026585Y016450D01*
X026684Y016549D02*
X025050Y016549D01*
X025060Y016647D02*
X029280Y016647D01*
X029280Y016549D02*
X028116Y016549D01*
X028095Y016659D02*
X028370Y016934D01*
X028370Y017323D01*
X028095Y017599D01*
X027705Y017599D01*
X027430Y017323D01*
X027430Y016934D01*
X027705Y016659D01*
X028095Y016659D01*
X028182Y016746D02*
X029280Y016746D01*
X029280Y016844D02*
X028280Y016844D01*
X028370Y016943D02*
X029280Y016943D01*
X029280Y017041D02*
X028370Y017041D01*
X028370Y017140D02*
X029280Y017140D01*
X029280Y017238D02*
X028370Y017238D01*
X028357Y017337D02*
X029280Y017337D01*
X029280Y017435D02*
X028258Y017435D01*
X028160Y017534D02*
X029280Y017534D01*
X029280Y017632D02*
X022850Y017632D01*
X022850Y017534D02*
X026640Y017534D01*
X026542Y017435D02*
X022886Y017435D01*
X022998Y017140D02*
X023187Y017140D01*
X023198Y017238D02*
X023217Y017272D01*
X023245Y017300D01*
X023280Y017320D01*
X023318Y017330D01*
X023500Y017330D01*
X023500Y017023D01*
X023600Y017023D01*
X023600Y017330D01*
X023782Y017330D01*
X023820Y017320D01*
X023855Y017300D01*
X023883Y017272D01*
X023902Y017238D01*
X023913Y017140D02*
X026430Y017140D01*
X026430Y017041D02*
X024917Y017041D01*
X025016Y016943D02*
X026430Y016943D01*
X026520Y016844D02*
X025060Y016844D01*
X025060Y016746D02*
X026618Y016746D01*
X026850Y016549D02*
X026950Y016549D01*
X026950Y016450D02*
X026850Y016450D01*
X026850Y016352D02*
X026950Y016352D01*
X027116Y016549D02*
X027684Y016549D01*
X027585Y016450D02*
X027215Y016450D01*
X027313Y016352D02*
X027487Y016352D01*
X027450Y016253D02*
X027350Y016253D01*
X027350Y016079D02*
X026950Y016079D01*
X026950Y015679D01*
X027086Y015679D01*
X027350Y015942D01*
X027350Y016079D01*
X027350Y016056D02*
X027450Y016056D01*
X027450Y015958D02*
X027350Y015958D01*
X027267Y015859D02*
X027533Y015859D01*
X027632Y015761D02*
X027168Y015761D01*
X027130Y015564D02*
X027722Y015564D01*
X027572Y015465D02*
X027228Y015465D01*
X027327Y015367D02*
X027490Y015367D01*
X027449Y015268D02*
X027370Y015268D01*
X027370Y015170D02*
X027430Y015170D01*
X027430Y015071D02*
X027370Y015071D01*
X027370Y014973D02*
X027390Y014973D01*
X027704Y014579D02*
X029280Y014579D01*
X029280Y014677D02*
X028038Y014677D01*
X028212Y014776D02*
X029280Y014776D01*
X029280Y014874D02*
X028303Y014874D01*
X028344Y014973D02*
X029280Y014973D01*
X029280Y015071D02*
X028370Y015071D01*
X028370Y015170D02*
X029280Y015170D01*
X029280Y015268D02*
X028351Y015268D01*
X028310Y015367D02*
X029280Y015367D01*
X029280Y015465D02*
X028228Y015465D01*
X027950Y015761D02*
X027850Y015761D01*
X027850Y015859D02*
X027950Y015859D01*
X027950Y015958D02*
X027850Y015958D01*
X027850Y016056D02*
X027950Y016056D01*
X027950Y016352D02*
X027850Y016352D01*
X027850Y016450D02*
X027950Y016450D01*
X027950Y016549D02*
X027850Y016549D01*
X027618Y016746D02*
X027182Y016746D01*
X027280Y016844D02*
X027520Y016844D01*
X027430Y016943D02*
X027370Y016943D01*
X027370Y017041D02*
X027430Y017041D01*
X027430Y017140D02*
X027370Y017140D01*
X027370Y017238D02*
X027430Y017238D01*
X027443Y017337D02*
X027357Y017337D01*
X027258Y017435D02*
X027542Y017435D01*
X027640Y017534D02*
X027160Y017534D01*
X026492Y018223D02*
X029280Y018223D01*
X029280Y018125D02*
X026365Y018125D01*
X026238Y018026D02*
X029280Y018026D01*
X029280Y017928D02*
X026111Y017928D01*
X025998Y017829D02*
X029280Y017829D01*
X029280Y017731D02*
X025786Y017731D01*
X026591Y018322D02*
X029280Y018322D01*
X029280Y018420D02*
X026647Y018420D01*
X026699Y018519D02*
X029280Y018519D01*
X029280Y018617D02*
X026720Y018617D01*
X026724Y018716D02*
X029280Y018716D01*
X029280Y018814D02*
X028378Y018814D01*
X028373Y018812D02*
X028436Y018844D01*
X028493Y018886D01*
X028543Y018936D01*
X028585Y018993D01*
X028617Y019056D01*
X028639Y019123D01*
X028650Y019193D01*
X028650Y019479D01*
X028250Y019479D01*
X028250Y019579D01*
X028150Y019579D01*
X028150Y020276D01*
X028095Y020268D01*
X028027Y020246D01*
X027964Y020214D01*
X027907Y020172D01*
X027857Y020122D01*
X027815Y020065D01*
X027783Y020002D01*
X027761Y019934D01*
X027750Y019864D01*
X027750Y019579D01*
X028150Y019579D01*
X028150Y019479D01*
X027750Y019479D01*
X027750Y019193D01*
X027761Y019123D01*
X027783Y019056D01*
X027815Y018993D01*
X027857Y018936D01*
X027907Y018886D01*
X027964Y018844D01*
X028027Y018812D01*
X028095Y018790D01*
X028150Y018781D01*
X028150Y019479D01*
X028250Y019479D01*
X028250Y018781D01*
X028305Y018790D01*
X028373Y018812D01*
X028250Y018814D02*
X028150Y018814D01*
X028150Y018913D02*
X028250Y018913D01*
X028250Y019011D02*
X028150Y019011D01*
X028150Y019110D02*
X028250Y019110D01*
X028250Y019208D02*
X028150Y019208D01*
X028150Y019307D02*
X028250Y019307D01*
X028250Y019405D02*
X028150Y019405D01*
X028150Y019504D02*
X027670Y019504D01*
X027670Y019602D02*
X027750Y019602D01*
X027750Y019701D02*
X027670Y019701D01*
X027670Y019799D02*
X027750Y019799D01*
X027755Y019898D02*
X027670Y019898D01*
X027639Y019996D02*
X027781Y019996D01*
X027837Y020095D02*
X027599Y020095D01*
X027500Y020193D02*
X027936Y020193D01*
X028150Y020193D02*
X028250Y020193D01*
X028250Y020276D02*
X028250Y019579D01*
X028650Y019579D01*
X028650Y019864D01*
X028639Y019934D01*
X028617Y020002D01*
X028585Y020065D01*
X028543Y020122D01*
X028493Y020172D01*
X028436Y020214D01*
X028373Y020246D01*
X028305Y020268D01*
X028250Y020276D01*
X028250Y020095D02*
X028150Y020095D01*
X028150Y019996D02*
X028250Y019996D01*
X028250Y019898D02*
X028150Y019898D01*
X028150Y019799D02*
X028250Y019799D01*
X028250Y019701D02*
X028150Y019701D01*
X028150Y019602D02*
X028250Y019602D01*
X028250Y019504D02*
X029280Y019504D01*
X029280Y019602D02*
X028650Y019602D01*
X028650Y019701D02*
X029280Y019701D01*
X029280Y019799D02*
X028650Y019799D01*
X028645Y019898D02*
X029280Y019898D01*
X029280Y019996D02*
X028619Y019996D01*
X028563Y020095D02*
X029280Y020095D01*
X029280Y020193D02*
X028464Y020193D01*
X028271Y020784D02*
X029280Y020784D01*
X029280Y020686D02*
X024900Y020686D01*
X024900Y020784D02*
X027147Y020784D01*
X026974Y020835D02*
X026974Y020835D01*
X026900Y020883D02*
X024900Y020883D01*
X024900Y020981D02*
X026746Y020981D01*
X026593Y021080D02*
X024900Y021080D01*
X024900Y021178D02*
X026489Y021178D01*
X026550Y021108D02*
X026550Y021108D01*
X026403Y021277D02*
X024900Y021277D01*
X024900Y021375D02*
X025217Y021375D01*
X025300Y021375D02*
X025400Y021375D01*
X025400Y021360D02*
X025472Y021372D01*
X025550Y021397D01*
X025623Y021434D01*
X025689Y021482D01*
X025747Y021540D01*
X025795Y021606D01*
X025832Y021679D01*
X025857Y021757D01*
X025869Y021829D01*
X025400Y021829D01*
X025400Y021360D01*
X025483Y021375D02*
X026318Y021375D01*
X026233Y021474D02*
X025677Y021474D01*
X025770Y021572D02*
X026182Y021572D01*
X026220Y021488D02*
X026220Y021488D01*
X026137Y021671D02*
X025828Y021671D01*
X025859Y021769D02*
X026092Y021769D01*
X026047Y021868D02*
X025400Y021868D01*
X025400Y021769D02*
X025300Y021769D01*
X025300Y021671D02*
X025400Y021671D01*
X025400Y021572D02*
X025300Y021572D01*
X025300Y021474D02*
X025400Y021474D01*
X025023Y021474D02*
X024900Y021474D01*
X024900Y021572D02*
X024930Y021572D01*
X025863Y021966D02*
X026008Y021966D01*
X025994Y022065D02*
X025836Y022065D01*
X025786Y022163D02*
X025980Y022163D01*
X025965Y022262D02*
X025702Y022262D01*
X024965Y023879D02*
X024395Y023929D01*
X022150Y023729D02*
X022000Y023879D01*
X020685Y023879D01*
X020015Y023879D02*
X019650Y024129D01*
X018650Y024129D01*
X018250Y023829D01*
X017795Y023829D01*
X017205Y023829D02*
X016950Y023574D01*
X016950Y022229D01*
X017280Y021899D01*
X017280Y021579D01*
X017656Y021429D01*
X019720Y021579D01*
X020840Y021568D02*
X020840Y021199D01*
X020857Y021222D01*
X020907Y021272D01*
X020964Y021314D01*
X021027Y021346D01*
X021095Y021368D01*
X021165Y021379D01*
X021450Y021379D01*
X021450Y020979D01*
X021550Y020979D01*
X021550Y021379D01*
X021835Y021379D01*
X021905Y021368D01*
X021973Y021346D01*
X022036Y021314D01*
X022093Y021272D01*
X022143Y021222D01*
X022185Y021165D01*
X022217Y021102D01*
X022239Y021034D01*
X022248Y020979D01*
X021550Y020979D01*
X021550Y020879D01*
X022248Y020879D01*
X022239Y020823D01*
X022217Y020756D01*
X022185Y020693D01*
X022143Y020636D01*
X022093Y020586D01*
X022036Y020544D01*
X021973Y020512D01*
X021905Y020490D01*
X021835Y020479D01*
X021550Y020479D01*
X021550Y020879D01*
X021450Y020879D01*
X021450Y020479D01*
X021165Y020479D01*
X021095Y020490D01*
X021027Y020512D01*
X020964Y020544D01*
X020907Y020586D01*
X020857Y020636D01*
X020840Y020659D01*
X020840Y019971D01*
X020796Y019865D01*
X020714Y019783D01*
X020714Y019783D01*
X020400Y019469D01*
X020520Y019469D01*
X020520Y019109D01*
X020580Y019109D01*
X020580Y019469D01*
X020712Y019469D01*
X020940Y019240D01*
X020940Y019109D01*
X020580Y019109D01*
X020580Y019049D01*
X020940Y019049D01*
X020940Y018917D01*
X020712Y018689D01*
X020580Y018689D01*
X020580Y019049D01*
X020520Y019049D01*
X020160Y019049D01*
X020160Y018917D01*
X020388Y018689D01*
X020520Y018689D01*
X020520Y019049D01*
X020520Y019109D01*
X020160Y019109D01*
X020160Y019229D01*
X020064Y019133D01*
X020045Y019125D01*
X019970Y019050D01*
X019827Y018991D01*
X019673Y018991D01*
X019530Y019050D01*
X019421Y019159D01*
X019362Y019302D01*
X019362Y019353D01*
X019346Y019315D01*
X019114Y019083D01*
X019008Y019039D01*
X018071Y019039D01*
X018034Y019034D01*
X018013Y019039D01*
X017992Y019039D01*
X017958Y019053D01*
X017922Y019062D01*
X017905Y019075D01*
X017886Y019083D01*
X017860Y019109D01*
X017638Y019275D01*
X017638Y019152D01*
X017579Y019009D01*
X017470Y018900D01*
X017327Y018841D01*
X017173Y018841D01*
X017030Y018900D01*
X016975Y018955D01*
X016922Y018919D01*
X016903Y018900D01*
X016878Y018889D01*
X016855Y018874D01*
X016829Y018869D01*
X016804Y018859D01*
X016776Y018859D01*
X016750Y018854D01*
X016723Y018859D01*
X011846Y018859D01*
X011747Y018900D01*
X011671Y018976D01*
X011666Y018989D01*
X011516Y018989D01*
X011476Y019006D01*
X011370Y018900D01*
X011227Y018841D01*
X011073Y018841D01*
X010930Y018900D01*
X010821Y019009D01*
X010762Y019152D01*
X010762Y019306D01*
X010768Y019321D01*
X010631Y019321D01*
X010508Y019444D01*
X010508Y020090D01*
X010631Y020213D01*
X011005Y020213D01*
X011769Y020213D01*
X011853Y020130D01*
X011841Y020158D01*
X011727Y020344D01*
X011379Y020344D01*
X011256Y020467D01*
X011256Y021114D01*
X011379Y021237D01*
X011769Y021237D01*
X011892Y021114D01*
X011892Y021056D01*
X011897Y021054D01*
X011923Y021047D01*
X011949Y021029D01*
X011977Y021016D01*
X011995Y020996D01*
X012017Y020980D01*
X012033Y020953D01*
X012054Y020930D01*
X012063Y020905D01*
X012262Y020581D01*
X012298Y020581D01*
X012339Y020585D01*
X012355Y020581D01*
X012372Y020581D01*
X012410Y020565D01*
X012450Y020554D01*
X012463Y020543D01*
X012479Y020536D01*
X012508Y020507D01*
X012534Y020487D01*
X012595Y020548D01*
X013005Y020548D01*
X013050Y020503D01*
X013095Y020548D01*
X013505Y020548D01*
X013550Y020503D01*
X013595Y020548D01*
X014005Y020548D01*
X014050Y020503D01*
X014095Y020548D01*
X014505Y020548D01*
X014628Y020425D01*
X014927Y020384D01*
X014939Y020389D01*
X015161Y020389D01*
X015367Y020304D01*
X015372Y020299D01*
X015458Y020507D01*
X015470Y020519D01*
X015102Y020519D01*
X014656Y020965D01*
X014187Y020991D01*
X014117Y020984D01*
X014077Y020997D01*
X014034Y020999D01*
X013971Y021030D01*
X013905Y021050D01*
X013872Y021078D01*
X013833Y021096D01*
X013787Y021148D01*
X013733Y021193D01*
X013713Y021230D01*
X013685Y021262D01*
X013668Y021309D01*
X013595Y021309D01*
X013590Y021314D01*
X013590Y021071D01*
X013546Y020965D01*
X013464Y020883D01*
X014738Y020883D01*
X014837Y020784D02*
X013366Y020784D01*
X013267Y020686D02*
X014935Y020686D01*
X015034Y020587D02*
X012258Y020587D01*
X012198Y020686D02*
X012483Y020686D01*
X012486Y020683D02*
X012592Y020639D01*
X013158Y020639D01*
X013264Y020683D01*
X013464Y020883D01*
X013553Y020981D02*
X014360Y020981D01*
X014565Y020489D02*
X015451Y020489D01*
X015410Y020390D02*
X014882Y020390D01*
X013867Y021080D02*
X013590Y021080D01*
X013590Y021178D02*
X013750Y021178D01*
X013680Y021277D02*
X013590Y021277D01*
X012800Y021952D02*
X012800Y022513D01*
X012565Y022929D01*
X012015Y022829D01*
X011900Y022313D01*
X012556Y022889D02*
X012556Y023579D01*
X011780Y024119D02*
X011628Y023967D01*
X011573Y023967D01*
X011430Y023908D01*
X011391Y023869D01*
X011305Y023869D01*
X011204Y023970D01*
X010596Y023970D01*
X010473Y023847D01*
X010473Y023280D01*
X010524Y023229D01*
X010473Y023178D01*
X010473Y022610D01*
X010596Y022487D01*
X010601Y022487D01*
X010533Y022419D01*
X010533Y021930D01*
X010583Y021879D01*
X010533Y021828D01*
X010533Y021339D01*
X010656Y021216D01*
X011144Y021216D01*
X011222Y021294D01*
X011540Y021294D01*
X011596Y021237D01*
X011931Y021237D01*
X012404Y020765D01*
X012486Y020683D01*
X012384Y020784D02*
X012137Y020784D01*
X012076Y020883D02*
X012286Y020883D01*
X012187Y020981D02*
X012015Y020981D01*
X012089Y021080D02*
X011892Y021080D01*
X011828Y021178D02*
X011990Y021178D01*
X011557Y021277D02*
X011205Y021277D01*
X011320Y021178D02*
X010260Y021178D01*
X010260Y021081D02*
X009698Y020519D01*
X008902Y020519D01*
X008596Y020825D01*
X008070Y020869D01*
X007709Y020869D01*
X007448Y020977D01*
X007248Y021177D01*
X007240Y021196D01*
X007141Y021237D01*
X006978Y021400D01*
X006900Y021589D01*
X006822Y021400D01*
X006659Y021237D01*
X006445Y021149D01*
X006215Y021149D01*
X006001Y021237D01*
X005838Y021400D01*
X005750Y021613D01*
X005750Y021844D01*
X005838Y022057D01*
X006001Y022220D01*
X006215Y022309D01*
X006445Y022309D01*
X006659Y022220D01*
X006822Y022057D01*
X006900Y021868D01*
X006978Y022057D01*
X007141Y022220D01*
X007355Y022309D01*
X007585Y022309D01*
X007671Y022273D01*
X007709Y022289D01*
X007989Y022289D01*
X008018Y022298D01*
X008130Y022289D01*
X008241Y022289D01*
X008269Y022277D01*
X008704Y022241D01*
X008902Y022439D01*
X009698Y022439D01*
X010260Y021876D01*
X010260Y021081D01*
X010259Y021080D02*
X010577Y021080D01*
X010578Y021085D02*
X010568Y021047D01*
X010568Y020795D01*
X010822Y020795D01*
X010822Y021177D01*
X010698Y021177D01*
X010660Y021167D01*
X010626Y021147D01*
X010598Y021119D01*
X010578Y021085D01*
X010568Y020981D02*
X010160Y020981D01*
X010062Y020883D02*
X010568Y020883D01*
X010568Y020787D02*
X010568Y020535D01*
X010578Y020497D01*
X010598Y020462D01*
X010626Y020434D01*
X010660Y020415D01*
X010698Y020404D01*
X010822Y020404D01*
X010822Y020787D01*
X010568Y020787D01*
X010568Y020784D02*
X009963Y020784D01*
X009865Y020686D02*
X010568Y020686D01*
X010568Y020587D02*
X009766Y020587D01*
X010512Y020095D02*
X008420Y020095D01*
X008500Y020015D02*
X008236Y020279D01*
X008100Y020279D01*
X008100Y019879D01*
X008000Y019879D01*
X008000Y020279D01*
X007864Y020279D01*
X007600Y020015D01*
X007600Y019879D01*
X008000Y019879D01*
X008000Y019779D01*
X007600Y019779D01*
X007600Y019642D01*
X007864Y019379D01*
X008000Y019379D01*
X008000Y019779D01*
X008100Y019779D01*
X008100Y019879D01*
X008500Y019879D01*
X008500Y020015D01*
X008500Y019996D02*
X010508Y019996D01*
X010508Y019898D02*
X008500Y019898D01*
X008500Y019779D02*
X008100Y019779D01*
X008100Y019379D01*
X008236Y019379D01*
X008500Y019642D01*
X008500Y019779D01*
X008500Y019701D02*
X010508Y019701D01*
X010508Y019799D02*
X008100Y019799D01*
X008100Y019701D02*
X008000Y019701D01*
X008000Y019799D02*
X007516Y019799D01*
X007600Y019715D02*
X007336Y019979D01*
X006964Y019979D01*
X006700Y019715D01*
X006700Y019342D01*
X006964Y019079D01*
X007336Y019079D01*
X007600Y019342D01*
X007600Y019715D01*
X007600Y019701D02*
X007600Y019701D01*
X007600Y019602D02*
X007640Y019602D01*
X007600Y019504D02*
X007739Y019504D01*
X007837Y019405D02*
X007600Y019405D01*
X007564Y019307D02*
X010762Y019307D01*
X010762Y019208D02*
X009122Y019208D01*
X009112Y019219D02*
X008980Y019219D01*
X008980Y018859D01*
X008920Y018859D01*
X008920Y019219D01*
X008788Y019219D01*
X008560Y018990D01*
X008560Y018859D01*
X008920Y018859D01*
X008920Y018799D01*
X008560Y018799D01*
X008560Y018667D01*
X008788Y018439D01*
X008920Y018439D01*
X008920Y018799D01*
X008980Y018799D01*
X008980Y018859D01*
X009340Y018859D01*
X009340Y018990D01*
X009112Y019219D01*
X008980Y019208D02*
X008920Y019208D01*
X008920Y019110D02*
X008980Y019110D01*
X008980Y019011D02*
X008920Y019011D01*
X008920Y018913D02*
X008980Y018913D01*
X008980Y018814D02*
X020263Y018814D01*
X020361Y018716D02*
X009340Y018716D01*
X009340Y018667D02*
X009340Y018799D01*
X008980Y018799D01*
X008980Y018439D01*
X009112Y018439D01*
X009340Y018667D01*
X009290Y018617D02*
X023150Y018617D01*
X023150Y018519D02*
X009192Y018519D01*
X008980Y018519D02*
X008920Y018519D01*
X008920Y018617D02*
X008980Y018617D01*
X008980Y018716D02*
X008920Y018716D01*
X008920Y018814D02*
X001191Y018814D01*
X001225Y018733D02*
X001145Y018926D01*
X000997Y019074D01*
X000804Y019154D01*
X000596Y019154D01*
X000403Y019074D01*
X000360Y019031D01*
X000360Y019726D01*
X000403Y019684D01*
X000596Y019604D01*
X000804Y019604D01*
X000997Y019684D01*
X001145Y019831D01*
X001225Y020024D01*
X001225Y020233D01*
X001145Y020426D01*
X000997Y020574D01*
X000804Y020654D01*
X000596Y020654D01*
X000403Y020574D01*
X000360Y020531D01*
X000360Y022087D01*
X000382Y021935D01*
X000596Y021467D01*
X000596Y021467D01*
X000933Y021077D01*
X001356Y020805D01*
X001308Y020757D01*
X001220Y020544D01*
X001220Y020313D01*
X001308Y020100D01*
X001471Y019937D01*
X001491Y019929D01*
X001471Y019920D01*
X001308Y019757D01*
X001220Y019544D01*
X001220Y019313D01*
X001308Y019100D01*
X001471Y018937D01*
X001685Y018849D01*
X001915Y018849D01*
X002129Y018937D01*
X002292Y019100D01*
X002380Y019313D01*
X002380Y019544D01*
X002292Y019757D01*
X002129Y019920D01*
X002109Y019929D01*
X002129Y019937D01*
X002292Y020100D01*
X002380Y020313D01*
X002380Y020544D01*
X002335Y020654D01*
X002376Y020654D01*
X002870Y020799D01*
X002870Y020799D01*
X003304Y021077D01*
X003304Y021077D01*
X003304Y021077D01*
X003641Y021467D01*
X003855Y021935D01*
X003855Y021935D01*
X003928Y022445D01*
X003855Y022955D01*
X003641Y023424D01*
X003304Y023813D01*
X002870Y024092D01*
X002778Y024119D01*
X004379Y024119D01*
X004335Y024100D01*
X004079Y023844D01*
X003940Y023510D01*
X003940Y023148D01*
X004079Y022813D01*
X004335Y022557D01*
X004669Y022419D01*
X005031Y022419D01*
X005365Y022557D01*
X005621Y022813D01*
X005760Y023148D01*
X005760Y023510D01*
X005621Y023844D01*
X005365Y024100D01*
X005321Y024119D01*
X006379Y024119D01*
X006335Y024100D01*
X006079Y023844D01*
X005940Y023510D01*
X005940Y023148D01*
X006079Y022813D01*
X006335Y022557D01*
X006669Y022419D01*
X007031Y022419D01*
X007365Y022557D01*
X007621Y022813D01*
X007760Y023148D01*
X007760Y023510D01*
X007621Y023844D01*
X007365Y024100D01*
X007321Y024119D01*
X008582Y024119D01*
X008340Y023876D01*
X008340Y023081D01*
X008902Y022519D01*
X009698Y022519D01*
X010260Y023081D01*
X010260Y023876D01*
X010018Y024119D01*
X011780Y024119D01*
X011696Y024035D02*
X010102Y024035D01*
X010200Y023936D02*
X010563Y023936D01*
X010473Y023838D02*
X010260Y023838D01*
X010260Y023739D02*
X010473Y023739D01*
X010473Y023641D02*
X010260Y023641D01*
X010260Y023542D02*
X010473Y023542D01*
X010473Y023444D02*
X010260Y023444D01*
X010260Y023345D02*
X010473Y023345D01*
X010506Y023247D02*
X010260Y023247D01*
X010260Y023148D02*
X010473Y023148D01*
X010473Y023050D02*
X010229Y023050D01*
X010130Y022951D02*
X010473Y022951D01*
X010473Y022853D02*
X010032Y022853D01*
X009933Y022754D02*
X010473Y022754D01*
X010473Y022656D02*
X009835Y022656D01*
X009736Y022557D02*
X010526Y022557D01*
X010573Y022459D02*
X007128Y022459D01*
X007241Y022262D02*
X006559Y022262D01*
X006716Y022163D02*
X007084Y022163D01*
X006986Y022065D02*
X006814Y022065D01*
X006859Y021966D02*
X006941Y021966D01*
X006907Y021572D02*
X006893Y021572D01*
X006852Y021474D02*
X006948Y021474D01*
X007003Y021375D02*
X006797Y021375D01*
X006698Y021277D02*
X007102Y021277D01*
X007247Y021178D02*
X006517Y021178D01*
X006143Y021178D02*
X003391Y021178D01*
X003306Y021080D02*
X007345Y021080D01*
X007336Y020979D02*
X006964Y020979D01*
X006700Y020715D01*
X006700Y020342D01*
X006964Y020079D01*
X007336Y020079D01*
X007600Y020342D01*
X007600Y020715D01*
X007336Y020979D01*
X007443Y020981D02*
X003154Y020981D01*
X003001Y020883D02*
X006868Y020883D01*
X006769Y020784D02*
X002821Y020784D01*
X002485Y020686D02*
X006700Y020686D01*
X006700Y020587D02*
X002362Y020587D01*
X002380Y020489D02*
X006700Y020489D01*
X006700Y020390D02*
X002380Y020390D01*
X002371Y020292D02*
X003531Y020292D01*
X003541Y020296D02*
X003462Y020263D01*
X003388Y020220D01*
X003321Y020169D01*
X003260Y020108D01*
X003208Y020041D01*
X003166Y019967D01*
X003133Y019888D01*
X003111Y019806D01*
X003101Y019729D01*
X003700Y019729D01*
X003700Y020328D01*
X003623Y020318D01*
X003541Y020296D01*
X003700Y020292D02*
X003800Y020292D01*
X003800Y020328D02*
X003877Y020318D01*
X003959Y020296D01*
X004038Y020263D01*
X004112Y020220D01*
X004179Y020169D01*
X004240Y020108D01*
X004292Y020041D01*
X004334Y019967D01*
X004367Y019888D01*
X004389Y019806D01*
X004399Y019729D01*
X003800Y019729D01*
X003700Y019729D01*
X003700Y019629D01*
X003101Y019629D01*
X003111Y019552D01*
X003133Y019469D01*
X003166Y019391D01*
X003208Y019317D01*
X003260Y019249D01*
X003321Y019189D01*
X003388Y019137D01*
X003462Y019095D01*
X003541Y019062D01*
X003623Y019040D01*
X003700Y019030D01*
X003700Y019629D01*
X003800Y019629D01*
X003800Y019729D01*
X003800Y020328D01*
X003800Y020193D02*
X003700Y020193D01*
X003700Y020095D02*
X003800Y020095D01*
X003800Y019996D02*
X003700Y019996D01*
X003700Y019898D02*
X003800Y019898D01*
X003800Y019799D02*
X003700Y019799D01*
X003700Y019701D02*
X002315Y019701D01*
X002356Y019602D02*
X003104Y019602D01*
X003124Y019504D02*
X002380Y019504D01*
X002380Y019405D02*
X003160Y019405D01*
X003216Y019307D02*
X002377Y019307D01*
X002336Y019208D02*
X003301Y019208D01*
X003435Y019110D02*
X002296Y019110D01*
X002203Y019011D02*
X005413Y019011D01*
X005456Y018969D02*
X005040Y019385D01*
X005040Y019973D01*
X005456Y020389D01*
X006044Y020389D01*
X006460Y019973D01*
X006460Y019385D01*
X006044Y018969D01*
X005456Y018969D01*
X005315Y019110D02*
X004065Y019110D01*
X004038Y019095D02*
X004112Y019137D01*
X004179Y019189D01*
X004240Y019249D01*
X004292Y019317D01*
X004334Y019391D01*
X004367Y019469D01*
X004389Y019552D01*
X004399Y019629D01*
X003800Y019629D01*
X003800Y019030D01*
X003877Y019040D01*
X003959Y019062D01*
X004038Y019095D01*
X004199Y019208D02*
X005216Y019208D01*
X005118Y019307D02*
X004284Y019307D01*
X004340Y019405D02*
X005040Y019405D01*
X005040Y019504D02*
X004376Y019504D01*
X004396Y019602D02*
X005040Y019602D01*
X005040Y019701D02*
X003800Y019701D01*
X003800Y019602D02*
X003700Y019602D01*
X003700Y019504D02*
X003800Y019504D01*
X003800Y019405D02*
X003700Y019405D01*
X003700Y019307D02*
X003800Y019307D01*
X003800Y019208D02*
X003700Y019208D01*
X003700Y019110D02*
X003800Y019110D01*
X004390Y019799D02*
X005040Y019799D01*
X005040Y019898D02*
X004363Y019898D01*
X004317Y019996D02*
X005063Y019996D01*
X005162Y020095D02*
X004250Y020095D01*
X004147Y020193D02*
X005260Y020193D01*
X005359Y020292D02*
X003969Y020292D01*
X003353Y020193D02*
X002330Y020193D01*
X002286Y020095D02*
X003250Y020095D01*
X003183Y019996D02*
X002188Y019996D01*
X002151Y019898D02*
X003137Y019898D01*
X003110Y019799D02*
X002250Y019799D01*
X001449Y019898D02*
X001173Y019898D01*
X001213Y019996D02*
X001412Y019996D01*
X001314Y020095D02*
X001225Y020095D01*
X001225Y020193D02*
X001270Y020193D01*
X001229Y020292D02*
X001201Y020292D01*
X001220Y020390D02*
X001160Y020390D01*
X001220Y020489D02*
X001082Y020489D01*
X000965Y020587D02*
X001238Y020587D01*
X001279Y020686D02*
X000360Y020686D01*
X000360Y020784D02*
X001335Y020784D01*
X001236Y020883D02*
X000360Y020883D01*
X000360Y020981D02*
X001083Y020981D01*
X000933Y021077D02*
X000933Y021077D01*
X000931Y021080D02*
X000360Y021080D01*
X000360Y021178D02*
X000846Y021178D01*
X000760Y021277D02*
X000360Y021277D01*
X000360Y021375D02*
X000675Y021375D01*
X000593Y021474D02*
X000360Y021474D01*
X000360Y021572D02*
X000548Y021572D01*
X000503Y021671D02*
X000360Y021671D01*
X000360Y021769D02*
X000458Y021769D01*
X000413Y021868D02*
X000360Y021868D01*
X000382Y021935D02*
X000382Y021935D01*
X000377Y021966D02*
X000360Y021966D01*
X000360Y022065D02*
X000363Y022065D01*
X000360Y020587D02*
X000435Y020587D01*
X001113Y019799D02*
X001350Y019799D01*
X001285Y019701D02*
X001014Y019701D01*
X001244Y019602D02*
X000360Y019602D01*
X000360Y019504D02*
X001220Y019504D01*
X001220Y019405D02*
X000360Y019405D01*
X000360Y019307D02*
X001223Y019307D01*
X001264Y019208D02*
X000360Y019208D01*
X000360Y019110D02*
X000489Y019110D01*
X000911Y019110D02*
X001304Y019110D01*
X001397Y019011D02*
X001060Y019011D01*
X001151Y018913D02*
X001530Y018913D01*
X001225Y018733D02*
X001225Y018524D01*
X001145Y018331D01*
X000997Y018184D01*
X000804Y018104D01*
X000596Y018104D01*
X000403Y018184D01*
X000360Y018226D01*
X000360Y017540D01*
X000488Y017669D01*
X000620Y017669D01*
X000620Y017309D01*
X000680Y017309D01*
X000680Y017669D01*
X000812Y017669D01*
X001040Y017440D01*
X001040Y017309D01*
X000680Y017309D01*
X000680Y017249D01*
X001040Y017249D01*
X001040Y017117D01*
X000812Y016889D01*
X000680Y016889D01*
X000680Y017249D01*
X000620Y017249D01*
X000620Y016889D01*
X000488Y016889D01*
X000360Y017017D01*
X000360Y007055D01*
X000382Y007207D01*
X000382Y007207D01*
X000596Y007676D01*
X000596Y007676D01*
X000933Y008065D01*
X000933Y008065D01*
X000933Y008065D01*
X001367Y008344D01*
X001367Y008344D01*
X001861Y008489D01*
X002376Y008489D01*
X002870Y008344D01*
X002870Y008344D01*
X003304Y008065D01*
X003304Y008065D01*
X003641Y007676D01*
X003855Y007207D01*
X003928Y006697D01*
X003928Y006697D01*
X003855Y006187D01*
X003855Y006187D01*
X003641Y005719D01*
X003641Y005719D01*
X003304Y005329D01*
X003304Y005329D01*
X003304Y005329D01*
X002870Y005051D01*
X002870Y005051D01*
X002489Y004939D01*
X007650Y004939D01*
X007650Y005352D01*
X007401Y005352D01*
X007350Y005403D01*
X007299Y005352D01*
X006732Y005352D01*
X006609Y005475D01*
X006609Y006082D01*
X006665Y006139D01*
X006601Y006419D01*
X006456Y006419D01*
X006040Y006835D01*
X006040Y007423D01*
X006272Y007655D01*
X006155Y007655D01*
X006117Y007665D01*
X006082Y007685D01*
X006054Y007713D01*
X006035Y007747D01*
X006024Y007785D01*
X006024Y008031D01*
X006400Y008031D01*
X006400Y008131D01*
X006400Y008506D01*
X006155Y008506D01*
X006117Y008496D01*
X006082Y008476D01*
X006054Y008448D01*
X006035Y008414D01*
X006024Y008376D01*
X006024Y008131D01*
X006400Y008131D01*
X006500Y008131D01*
X006500Y008506D01*
X006745Y008506D01*
X006783Y008496D01*
X006818Y008476D01*
X006846Y008448D01*
X006865Y008414D01*
X006876Y008376D01*
X006876Y008368D01*
X006889Y008376D01*
X006927Y008386D01*
X007076Y008386D01*
X007076Y008108D01*
X007133Y008108D01*
X007133Y008386D01*
X007282Y008386D01*
X007320Y008376D01*
X007354Y008356D01*
X007358Y008353D01*
X007451Y008446D01*
X007940Y008446D01*
X007986Y008400D01*
X008150Y008729D01*
X008150Y009702D01*
X008148Y009698D01*
X008141Y009668D01*
X008114Y009633D01*
X008094Y009595D01*
X008071Y009575D01*
X008069Y009572D01*
X008080Y009544D01*
X008080Y009313D01*
X007992Y009100D01*
X007829Y008937D01*
X007615Y008849D01*
X007385Y008849D01*
X007171Y008937D01*
X007008Y009100D01*
X006936Y009276D01*
X006936Y009214D01*
X006813Y009091D01*
X006087Y009091D01*
X005997Y009182D01*
X005872Y009057D01*
X005657Y008968D01*
X005425Y008968D01*
X005349Y009000D01*
X005284Y008935D01*
X005284Y008666D01*
X005161Y008543D01*
X004435Y008543D01*
X004312Y008666D01*
X004312Y009391D01*
X004435Y009514D01*
X004704Y009514D01*
X004974Y009785D01*
X005027Y009837D01*
X005046Y009883D01*
X005157Y009994D01*
X005000Y009959D01*
X004879Y009837D01*
X004665Y009749D01*
X004435Y009749D01*
X004221Y009837D01*
X004124Y009934D01*
X004036Y009722D01*
X003872Y009557D01*
X003695Y009484D01*
X003788Y009391D01*
X003788Y008666D01*
X003665Y008543D01*
X002939Y008543D01*
X002925Y008558D01*
X002911Y008543D01*
X002185Y008543D01*
X002062Y008666D01*
X002062Y009391D01*
X002109Y009438D01*
X002122Y009687D01*
X002108Y009700D01*
X002020Y009913D01*
X002020Y010144D01*
X002108Y010357D01*
X002271Y010520D01*
X002485Y010609D01*
X002715Y010609D01*
X002929Y010520D01*
X002937Y010512D01*
X003175Y010512D01*
X003210Y010548D01*
X003222Y010552D01*
X003210Y010557D01*
X003046Y010722D01*
X002957Y010936D01*
X002957Y011169D01*
X003007Y011289D01*
X002992Y011289D01*
X002886Y011333D01*
X002604Y011615D01*
X002560Y011721D01*
X002560Y013419D01*
X002604Y013526D01*
X002686Y013607D01*
X002974Y013895D01*
X002957Y013936D01*
X002957Y014169D01*
X003046Y014383D01*
X003210Y014548D01*
X003303Y014586D01*
X003266Y014604D01*
X003200Y014653D01*
X003141Y014711D01*
X003093Y014778D01*
X003055Y014851D01*
X003030Y014930D01*
X003018Y015002D01*
X003491Y015002D01*
X003491Y015102D01*
X003018Y015102D01*
X003030Y015175D01*
X003055Y015254D01*
X003093Y015327D01*
X003141Y015394D01*
X003200Y015452D01*
X003266Y015501D01*
X003303Y015519D01*
X003210Y015557D01*
X003068Y015700D01*
X002853Y015756D01*
X002715Y015699D01*
X002485Y015699D01*
X002394Y015736D01*
X002490Y015640D01*
X002490Y015509D01*
X002130Y015509D01*
X002070Y015509D01*
X002070Y015869D01*
X001938Y015869D01*
X001710Y015640D01*
X001710Y015509D01*
X002070Y015509D01*
X002070Y015449D01*
X001710Y015449D01*
X001710Y015317D01*
X001938Y015089D01*
X002070Y015089D01*
X002070Y015449D01*
X002130Y015449D01*
X002130Y015509D01*
X002130Y015869D01*
X002190Y015869D01*
X002108Y015950D01*
X002020Y016163D01*
X002020Y016394D01*
X002108Y016607D01*
X002271Y016770D01*
X002471Y016853D01*
X002402Y016853D01*
X002402Y017229D01*
X002402Y017329D01*
X002302Y017329D01*
X002302Y017704D01*
X002057Y017704D01*
X002018Y017694D01*
X001984Y017674D01*
X001956Y017646D01*
X001937Y017612D01*
X001926Y017574D01*
X001926Y017554D01*
X001812Y017669D01*
X001680Y017669D01*
X001680Y017309D01*
X001620Y017309D01*
X001620Y017669D01*
X001488Y017669D01*
X001260Y017440D01*
X001260Y017309D01*
X001620Y017309D01*
X001620Y017249D01*
X001260Y017249D01*
X001260Y017117D01*
X001488Y016889D01*
X001620Y016889D01*
X001620Y017249D01*
X001680Y017249D01*
X001680Y017309D01*
X002040Y017309D01*
X002040Y017329D01*
X002302Y017329D01*
X002302Y017229D01*
X002040Y017229D01*
X002040Y017249D01*
X001680Y017249D01*
X001680Y016889D01*
X001812Y016889D01*
X001926Y017004D01*
X001926Y016983D01*
X001937Y016945D01*
X001956Y016911D01*
X001984Y016883D01*
X002018Y016863D01*
X002057Y016853D01*
X002302Y016853D01*
X002302Y017229D01*
X002402Y017229D01*
X002778Y017229D01*
X002778Y016983D01*
X002767Y016945D01*
X002748Y016911D01*
X002720Y016883D01*
X002685Y016863D01*
X002668Y016859D01*
X002715Y016859D01*
X002929Y016770D01*
X003042Y016657D01*
X003276Y016596D01*
X003400Y016879D01*
X003362Y016916D01*
X003362Y017641D01*
X003485Y017764D01*
X004189Y017764D01*
X004239Y017814D01*
X004965Y017814D01*
X005088Y017691D01*
X005088Y016966D01*
X004965Y016843D01*
X004388Y016843D01*
X004112Y016211D01*
X004271Y016370D01*
X004485Y016459D01*
X004715Y016459D01*
X004929Y016370D01*
X005023Y016276D01*
X004957Y016436D01*
X004957Y016669D01*
X005046Y016883D01*
X005210Y017048D01*
X005381Y017118D01*
X005612Y017441D01*
X005612Y017691D01*
X005735Y017814D01*
X006461Y017814D01*
X006584Y017691D01*
X006584Y017159D01*
X006765Y017159D01*
X006979Y017070D01*
X007142Y016907D01*
X007230Y016694D01*
X007230Y016463D01*
X007142Y016250D01*
X007035Y016144D01*
X007038Y016141D01*
X007038Y015416D01*
X007012Y015391D01*
X007012Y015367D01*
X007038Y015341D01*
X007038Y014616D01*
X007030Y014609D01*
X007570Y014609D01*
X007562Y014616D01*
X007562Y015341D01*
X007645Y015424D01*
X007633Y015445D01*
X007622Y015483D01*
X007622Y015729D01*
X007998Y015729D01*
X007998Y015829D01*
X007998Y016204D01*
X007753Y016204D01*
X007715Y016194D01*
X007680Y016174D01*
X007652Y016146D01*
X007633Y016112D01*
X007622Y016074D01*
X007622Y015829D01*
X007998Y015829D01*
X008098Y015829D01*
X008098Y016204D01*
X008343Y016204D01*
X008382Y016194D01*
X008410Y016178D01*
X008410Y016202D01*
X008454Y016308D01*
X008523Y016378D01*
X008523Y016678D01*
X008617Y016771D01*
X008613Y016774D01*
X008594Y016809D01*
X008583Y016847D01*
X008583Y017015D01*
X008902Y017015D01*
X008902Y017112D01*
X008902Y017410D01*
X008714Y017410D01*
X008676Y017400D01*
X008641Y017380D01*
X008613Y017352D01*
X008594Y017318D01*
X008583Y017280D01*
X008583Y017112D01*
X008902Y017112D01*
X008998Y017112D01*
X008998Y017410D01*
X009150Y017410D01*
X009150Y017477D01*
X009112Y017439D01*
X008980Y017439D01*
X008980Y017799D01*
X008920Y017799D01*
X008560Y017799D01*
X008560Y017667D01*
X008788Y017439D01*
X008920Y017439D01*
X008920Y017799D01*
X008920Y017859D01*
X008920Y018219D01*
X008788Y018219D01*
X008560Y017990D01*
X008560Y017859D01*
X008920Y017859D01*
X008980Y017859D01*
X008980Y018219D01*
X009112Y018219D01*
X009150Y018180D01*
X009150Y018229D01*
X020160Y018229D01*
X020160Y018240D01*
X020388Y018469D01*
X020520Y018469D01*
X020520Y018229D01*
X020580Y018229D01*
X020580Y018469D01*
X020712Y018469D01*
X020940Y018240D01*
X020940Y018229D01*
X023150Y018229D01*
X023150Y018841D01*
X023073Y018841D01*
X022930Y018900D01*
X022900Y018930D01*
X022870Y018900D01*
X022727Y018841D01*
X022573Y018841D01*
X022430Y018900D01*
X022321Y019009D01*
X022262Y019152D01*
X022262Y019306D01*
X022321Y019449D01*
X022430Y019558D01*
X022480Y019578D01*
X022480Y019633D01*
X022521Y019732D01*
X022580Y019791D01*
X022580Y021083D01*
X022595Y021118D01*
X022250Y021118D01*
X022127Y021241D01*
X022127Y021383D01*
X021964Y021445D01*
X021901Y021419D01*
X021099Y021419D01*
X020911Y021496D01*
X020840Y021568D01*
X020840Y021474D02*
X020966Y021474D01*
X020840Y021375D02*
X021143Y021375D01*
X020913Y021277D02*
X020840Y021277D01*
X021450Y021277D02*
X021550Y021277D01*
X021550Y021375D02*
X021450Y021375D01*
X021450Y021178D02*
X021550Y021178D01*
X021550Y021080D02*
X021450Y021080D01*
X021450Y020981D02*
X021550Y020981D01*
X021550Y020883D02*
X022580Y020883D01*
X022580Y020981D02*
X022247Y020981D01*
X022224Y021080D02*
X022580Y021080D01*
X022580Y020784D02*
X022226Y020784D01*
X022180Y020686D02*
X022580Y020686D01*
X022580Y020587D02*
X022095Y020587D01*
X021899Y020489D02*
X022580Y020489D01*
X022580Y020390D02*
X020840Y020390D01*
X020840Y020292D02*
X022580Y020292D01*
X022580Y020193D02*
X020840Y020193D01*
X020840Y020095D02*
X022580Y020095D01*
X022580Y019996D02*
X020840Y019996D01*
X020810Y019898D02*
X022580Y019898D01*
X022580Y019799D02*
X020731Y019799D01*
X020632Y019701D02*
X022508Y019701D01*
X022480Y019602D02*
X020534Y019602D01*
X020435Y019504D02*
X022376Y019504D01*
X022303Y019405D02*
X020775Y019405D01*
X020874Y019307D02*
X022262Y019307D01*
X022262Y019208D02*
X020940Y019208D01*
X020940Y019110D02*
X022279Y019110D01*
X022320Y019011D02*
X020940Y019011D01*
X020936Y018913D02*
X022417Y018913D01*
X022883Y018913D02*
X022917Y018913D01*
X023150Y018814D02*
X020837Y018814D01*
X020739Y018716D02*
X023150Y018716D01*
X023150Y018420D02*
X020760Y018420D01*
X020859Y018322D02*
X023150Y018322D01*
X023650Y017579D02*
X023550Y017479D01*
X023550Y016973D01*
X023600Y016943D02*
X024284Y016943D01*
X024240Y016844D02*
X023913Y016844D01*
X023912Y016746D02*
X024240Y016746D01*
X024240Y016647D02*
X023855Y016647D01*
X023933Y016549D02*
X024250Y016549D01*
X024240Y016450D02*
X024349Y016450D01*
X024338Y016352D02*
X024447Y016352D01*
X024902Y016056D02*
X026450Y016056D01*
X026450Y015958D02*
X025001Y015958D01*
X025060Y015859D02*
X026533Y015859D01*
X026632Y015761D02*
X025060Y015761D01*
X024650Y015729D02*
X024094Y016284D01*
X023550Y016284D01*
X023933Y016056D02*
X024011Y016056D01*
X024110Y015958D02*
X023883Y015958D01*
X024208Y015859D02*
X022880Y015859D01*
X022880Y015761D02*
X024240Y015761D01*
X024240Y015662D02*
X022880Y015662D01*
X022850Y015564D02*
X024240Y015564D01*
X024334Y015465D02*
X022850Y015465D01*
X022850Y015367D02*
X024432Y015367D01*
X023217Y015958D02*
X022880Y015958D01*
X022880Y016056D02*
X023167Y016056D01*
X023167Y016155D02*
X022880Y016155D01*
X022880Y016253D02*
X023167Y016253D01*
X023167Y016352D02*
X022880Y016352D01*
X022880Y016450D02*
X023167Y016450D01*
X023167Y016549D02*
X022880Y016549D01*
X022880Y016647D02*
X023245Y016647D01*
X023188Y016746D02*
X022880Y016746D01*
X022880Y016844D02*
X023187Y016844D01*
X023187Y017041D02*
X022970Y017041D01*
X022906Y016943D02*
X023500Y016943D01*
X023500Y017041D02*
X023600Y017041D01*
X023600Y017140D02*
X023500Y017140D01*
X023500Y017238D02*
X023600Y017238D01*
X023913Y017041D02*
X024383Y017041D01*
X024900Y019110D02*
X025380Y019110D01*
X025380Y019208D02*
X024900Y019208D01*
X024900Y019307D02*
X025380Y019307D01*
X025380Y019405D02*
X024900Y019405D01*
X024900Y019504D02*
X025380Y019504D01*
X025417Y019602D02*
X024900Y019602D01*
X024900Y019701D02*
X025458Y019701D01*
X025523Y019799D02*
X024900Y019799D01*
X024900Y019898D02*
X025622Y019898D01*
X025720Y019996D02*
X024900Y019996D01*
X024900Y020095D02*
X025801Y020095D01*
X025900Y020193D02*
X024900Y020193D01*
X024900Y020292D02*
X026090Y020292D01*
X026310Y020292D02*
X027090Y020292D01*
X026900Y020193D02*
X026500Y020193D01*
X026599Y020095D02*
X026801Y020095D01*
X026761Y019996D02*
X026680Y019996D01*
X027310Y020292D02*
X029280Y020292D01*
X029280Y020390D02*
X024900Y020390D01*
X024900Y020489D02*
X029280Y020489D01*
X029280Y020587D02*
X024900Y020587D01*
X026729Y019110D02*
X026741Y019110D01*
X026720Y019011D02*
X026781Y019011D01*
X026720Y018913D02*
X026851Y018913D01*
X026972Y018814D02*
X026721Y018814D01*
X027428Y018814D02*
X028022Y018814D01*
X027880Y018913D02*
X027549Y018913D01*
X027619Y019011D02*
X027806Y019011D01*
X027765Y019110D02*
X027659Y019110D01*
X027670Y019208D02*
X027750Y019208D01*
X027750Y019307D02*
X027670Y019307D01*
X027670Y019405D02*
X027750Y019405D01*
X028650Y019405D02*
X029280Y019405D01*
X029280Y019307D02*
X028650Y019307D01*
X028650Y019208D02*
X029280Y019208D01*
X029280Y019110D02*
X028635Y019110D01*
X028594Y019011D02*
X029280Y019011D01*
X029280Y018913D02*
X028520Y018913D01*
X028215Y016450D02*
X029280Y016450D01*
X029280Y016352D02*
X028313Y016352D01*
X026950Y016056D02*
X026850Y016056D01*
X026850Y015958D02*
X026950Y015958D01*
X026950Y015859D02*
X026850Y015859D01*
X026850Y015761D02*
X026950Y015761D01*
X027605Y014480D02*
X028687Y014480D01*
X028588Y014382D02*
X028183Y014382D01*
X028086Y014479D02*
X027950Y014479D01*
X027950Y014079D01*
X027850Y014079D01*
X027850Y014479D01*
X027714Y014479D01*
X027450Y014215D01*
X027450Y014079D01*
X027850Y014079D01*
X027850Y013979D01*
X027450Y013979D01*
X027450Y013842D01*
X027714Y013579D01*
X027850Y013579D01*
X027850Y013979D01*
X027950Y013979D01*
X027950Y014079D01*
X028350Y014079D01*
X028350Y014215D01*
X028086Y014479D01*
X027950Y014382D02*
X027850Y014382D01*
X027850Y014283D02*
X027950Y014283D01*
X027950Y014185D02*
X027850Y014185D01*
X027850Y014086D02*
X027950Y014086D01*
X027950Y013988D02*
X028430Y013988D01*
X028350Y013979D02*
X027950Y013979D01*
X027950Y013579D01*
X028086Y013579D01*
X028350Y013842D01*
X028350Y013979D01*
X028350Y013889D02*
X028430Y013889D01*
X028473Y013791D02*
X028298Y013791D01*
X028200Y013692D02*
X028572Y013692D01*
X028670Y013594D02*
X028101Y013594D01*
X028086Y013479D02*
X027950Y013479D01*
X027950Y013079D01*
X027850Y013079D01*
X027850Y013479D01*
X027714Y013479D01*
X027450Y013215D01*
X027450Y013079D01*
X027850Y013079D01*
X027850Y012979D01*
X027450Y012979D01*
X027450Y012842D01*
X027714Y012579D01*
X027850Y012579D01*
X027850Y012979D01*
X027950Y012979D01*
X027950Y013079D01*
X028350Y013079D01*
X028350Y013215D01*
X028086Y013479D01*
X028168Y013397D02*
X028603Y013397D01*
X028505Y013298D02*
X028267Y013298D01*
X028350Y013200D02*
X028430Y013200D01*
X028430Y013101D02*
X028350Y013101D01*
X028350Y012979D02*
X027950Y012979D01*
X027950Y012579D01*
X028086Y012579D01*
X028350Y012842D01*
X028350Y012979D01*
X028350Y012904D02*
X028430Y012904D01*
X028430Y013003D02*
X027950Y013003D01*
X027950Y013101D02*
X027850Y013101D01*
X027850Y013003D02*
X027370Y013003D01*
X027370Y013101D02*
X027450Y013101D01*
X027450Y013200D02*
X027338Y013200D01*
X027295Y013298D02*
X027533Y013298D01*
X027632Y013397D02*
X027197Y013397D01*
X027130Y013594D02*
X027699Y013594D01*
X027600Y013692D02*
X027228Y013692D01*
X027327Y013791D02*
X027502Y013791D01*
X027450Y013889D02*
X027370Y013889D01*
X027370Y013988D02*
X027850Y013988D01*
X027850Y013889D02*
X027950Y013889D01*
X027950Y013791D02*
X027850Y013791D01*
X027850Y013692D02*
X027950Y013692D01*
X027950Y013594D02*
X027850Y013594D01*
X027850Y013397D02*
X027950Y013397D01*
X027950Y013298D02*
X027850Y013298D01*
X027850Y013200D02*
X027950Y013200D01*
X027950Y012904D02*
X027850Y012904D01*
X027850Y012806D02*
X027950Y012806D01*
X027950Y012707D02*
X027850Y012707D01*
X027850Y012609D02*
X027950Y012609D01*
X028116Y012609D02*
X028655Y012609D01*
X028557Y012707D02*
X028215Y012707D01*
X028313Y012806D02*
X028458Y012806D01*
X028620Y012313D02*
X028152Y012313D01*
X028086Y012379D02*
X027950Y012379D01*
X027950Y011979D01*
X027850Y011979D01*
X027850Y012379D01*
X027714Y012379D01*
X027450Y012115D01*
X027450Y011979D01*
X027850Y011979D01*
X027850Y011879D01*
X027450Y011879D01*
X027450Y011742D01*
X027714Y011479D01*
X027850Y011479D01*
X027850Y011879D01*
X027950Y011879D01*
X027950Y011979D01*
X028350Y011979D01*
X028350Y012115D01*
X028086Y012379D01*
X027950Y012313D02*
X027850Y012313D01*
X027850Y012215D02*
X027950Y012215D01*
X027950Y012116D02*
X027850Y012116D01*
X027850Y012018D02*
X027950Y012018D01*
X027950Y011919D02*
X028430Y011919D01*
X028350Y011879D02*
X027950Y011879D01*
X027950Y011479D01*
X028086Y011479D01*
X028350Y011742D01*
X028350Y011879D01*
X028350Y011821D02*
X028430Y011821D01*
X028442Y011722D02*
X028330Y011722D01*
X028231Y011624D02*
X028540Y011624D01*
X028639Y011525D02*
X028133Y011525D01*
X028086Y011379D02*
X027950Y011379D01*
X027950Y010979D01*
X027850Y010979D01*
X027850Y011379D01*
X027714Y011379D01*
X027450Y011115D01*
X027450Y010979D01*
X027850Y010979D01*
X027850Y010879D01*
X027450Y010879D01*
X027450Y010742D01*
X027714Y010479D01*
X027850Y010479D01*
X027850Y010879D01*
X027950Y010879D01*
X027950Y010979D01*
X028350Y010979D01*
X028350Y011115D01*
X028086Y011379D01*
X028137Y011328D02*
X028635Y011328D01*
X028536Y011230D02*
X028235Y011230D01*
X028334Y011131D02*
X028438Y011131D01*
X028430Y011033D02*
X028350Y011033D01*
X028430Y010934D02*
X027950Y010934D01*
X027950Y010879D02*
X028350Y010879D01*
X028350Y010742D01*
X028086Y010479D01*
X027950Y010479D01*
X027950Y010879D01*
X027950Y010836D02*
X027850Y010836D01*
X027850Y010934D02*
X027370Y010934D01*
X027370Y010836D02*
X027450Y010836D01*
X027455Y010737D02*
X027329Y010737D01*
X027275Y010639D02*
X027554Y010639D01*
X027652Y010540D02*
X027176Y010540D01*
X027149Y010245D02*
X027680Y010245D01*
X027714Y010279D02*
X027450Y010015D01*
X027450Y009879D01*
X027850Y009879D01*
X027850Y010279D01*
X027714Y010279D01*
X027850Y010245D02*
X027950Y010245D01*
X027950Y010279D02*
X028086Y010279D01*
X028350Y010015D01*
X028350Y009879D01*
X027950Y009879D01*
X027850Y009879D01*
X027850Y009779D01*
X027450Y009779D01*
X027450Y009642D01*
X027714Y009379D01*
X027850Y009379D01*
X027850Y009779D01*
X027950Y009779D01*
X027950Y009879D01*
X027950Y010279D01*
X027950Y010146D02*
X027850Y010146D01*
X027850Y010048D02*
X027950Y010048D01*
X027950Y009949D02*
X027850Y009949D01*
X027850Y009851D02*
X027370Y009851D01*
X027370Y009949D02*
X027450Y009949D01*
X027483Y010048D02*
X027346Y010048D01*
X027247Y010146D02*
X027581Y010146D01*
X027450Y009752D02*
X027370Y009752D01*
X027370Y009654D02*
X027450Y009654D01*
X027537Y009555D02*
X027291Y009555D01*
X027193Y009457D02*
X027636Y009457D01*
X027695Y009260D02*
X027088Y009260D01*
X027232Y009161D02*
X027596Y009161D01*
X027498Y009063D02*
X027312Y009063D01*
X027353Y008964D02*
X027450Y008964D01*
X027850Y009063D02*
X027950Y009063D01*
X027950Y009161D02*
X027850Y009161D01*
X027850Y009260D02*
X027950Y009260D01*
X027950Y009379D02*
X028086Y009379D01*
X028350Y009642D01*
X028350Y009779D01*
X027950Y009779D01*
X027950Y009379D01*
X027950Y009457D02*
X027850Y009457D01*
X027850Y009555D02*
X027950Y009555D01*
X027950Y009654D02*
X027850Y009654D01*
X027850Y009752D02*
X027950Y009752D01*
X027950Y009851D02*
X028430Y009851D01*
X028430Y009949D02*
X028350Y009949D01*
X028317Y010048D02*
X028454Y010048D01*
X028553Y010146D02*
X028219Y010146D01*
X028120Y010245D02*
X028651Y010245D01*
X028624Y010540D02*
X028148Y010540D01*
X028246Y010639D02*
X028525Y010639D01*
X028430Y010737D02*
X028345Y010737D01*
X028350Y010836D02*
X028430Y010836D01*
X027950Y010737D02*
X027850Y010737D01*
X027850Y010639D02*
X027950Y010639D01*
X027950Y010540D02*
X027850Y010540D01*
X027850Y011033D02*
X027950Y011033D01*
X027950Y011131D02*
X027850Y011131D01*
X027850Y011230D02*
X027950Y011230D01*
X027950Y011328D02*
X027850Y011328D01*
X027663Y011328D02*
X027164Y011328D01*
X027264Y011230D02*
X027565Y011230D01*
X027466Y011131D02*
X027325Y011131D01*
X027366Y011033D02*
X027450Y011033D01*
X027667Y011525D02*
X027161Y011525D01*
X027260Y011624D02*
X027569Y011624D01*
X027470Y011722D02*
X027358Y011722D01*
X027370Y011821D02*
X027450Y011821D01*
X027370Y011919D02*
X027850Y011919D01*
X027850Y011821D02*
X027950Y011821D01*
X027950Y011722D02*
X027850Y011722D01*
X027850Y011624D02*
X027950Y011624D01*
X027950Y011525D02*
X027850Y011525D01*
X027450Y012018D02*
X027370Y012018D01*
X027370Y012116D02*
X027451Y012116D01*
X027550Y012215D02*
X027279Y012215D01*
X027180Y012313D02*
X027648Y012313D01*
X027684Y012609D02*
X027114Y012609D01*
X027243Y012707D02*
X027585Y012707D01*
X027487Y012806D02*
X027316Y012806D01*
X027357Y012904D02*
X027450Y012904D01*
X027002Y013495D02*
X028702Y013495D01*
X029098Y013495D02*
X029280Y013495D01*
X029280Y013397D02*
X029197Y013397D01*
X029130Y013594D02*
X029280Y013594D01*
X029280Y013692D02*
X029228Y013692D01*
X028430Y014086D02*
X028350Y014086D01*
X028350Y014185D02*
X028430Y014185D01*
X028490Y014283D02*
X028282Y014283D01*
X027617Y014382D02*
X027507Y014382D01*
X027518Y014283D02*
X027310Y014283D01*
X027370Y014185D02*
X027450Y014185D01*
X027450Y014086D02*
X027370Y014086D01*
X026798Y013495D02*
X026720Y013495D01*
X026557Y012707D02*
X026452Y012707D01*
X026574Y012609D02*
X026686Y012609D01*
X026672Y012510D02*
X029280Y012510D01*
X029280Y012412D02*
X026771Y012412D01*
X026230Y012729D02*
X026230Y012729D01*
X026857Y011427D02*
X029280Y011427D01*
X029280Y011525D02*
X029161Y011525D01*
X029260Y011624D02*
X029280Y011624D01*
X029280Y011328D02*
X029165Y011328D01*
X029264Y011230D02*
X029280Y011230D01*
X029275Y010639D02*
X029280Y010639D01*
X029280Y010540D02*
X029176Y010540D01*
X029280Y010442D02*
X026756Y010442D01*
X026817Y010343D02*
X029280Y010343D01*
X029280Y010245D02*
X029149Y010245D01*
X029247Y010146D02*
X029280Y010146D01*
X029280Y009457D02*
X029193Y009457D01*
X029280Y009358D02*
X026874Y009358D01*
X026462Y009063D02*
X025267Y009063D01*
X025267Y008964D02*
X026447Y008964D01*
X026430Y008866D02*
X025243Y008866D01*
X024948Y008866D02*
X024852Y008866D01*
X024852Y008797D02*
X024852Y009096D01*
X024533Y009096D01*
X024533Y008928D01*
X024544Y008889D01*
X024563Y008855D01*
X024591Y008827D01*
X024626Y008808D01*
X024664Y008797D01*
X024852Y008797D01*
X024852Y008964D02*
X024948Y008964D01*
X024948Y009063D02*
X024852Y009063D01*
X024852Y009161D02*
X024148Y009161D01*
X024148Y009063D02*
X024052Y009063D01*
X024052Y008964D02*
X024148Y008964D01*
X024148Y008866D02*
X024052Y008866D01*
X023693Y008767D02*
X026430Y008767D01*
X026458Y008669D02*
X023214Y008669D01*
X023312Y008570D02*
X026498Y008570D01*
X026592Y008472D02*
X023861Y008472D01*
X023959Y008373D02*
X026771Y008373D01*
X026364Y009161D02*
X024948Y009161D01*
X025267Y009260D02*
X026265Y009260D01*
X026167Y009358D02*
X025267Y009358D01*
X025213Y009457D02*
X026068Y009457D01*
X025970Y009555D02*
X025287Y009555D01*
X025287Y009654D02*
X025910Y009654D01*
X025900Y009752D02*
X025287Y009752D01*
X025287Y009851D02*
X025900Y009851D01*
X025900Y009949D02*
X025287Y009949D01*
X025287Y010048D02*
X025900Y010048D01*
X025760Y010146D02*
X025221Y010146D01*
X025174Y010245D02*
X025150Y010245D01*
X024650Y010245D02*
X024350Y010245D01*
X024350Y010343D02*
X024650Y010343D01*
X024650Y010442D02*
X024350Y010442D01*
X024350Y010540D02*
X024650Y010540D01*
X024650Y010639D02*
X024350Y010639D01*
X024350Y010737D02*
X024650Y010737D01*
X024589Y010836D02*
X024350Y010836D01*
X024350Y010934D02*
X024491Y010934D01*
X024392Y011033D02*
X024348Y011033D01*
X023850Y010639D02*
X023837Y010639D01*
X023840Y010540D02*
X023850Y010540D01*
X023840Y010464D02*
X023305Y010464D01*
X023305Y010199D01*
X023710Y010199D01*
X023748Y010209D01*
X023782Y010229D01*
X023810Y010257D01*
X023830Y010291D01*
X023840Y010329D01*
X023840Y010464D01*
X023840Y010442D02*
X023850Y010442D01*
X023840Y010343D02*
X023850Y010343D01*
X023850Y010245D02*
X023798Y010245D01*
X023779Y010146D02*
X023708Y010146D01*
X023450Y010146D02*
X023350Y010146D01*
X023350Y010180D02*
X023168Y010180D01*
X023130Y010170D01*
X023095Y010150D01*
X023067Y010122D01*
X023048Y010088D01*
X023037Y010050D01*
X023037Y009873D01*
X023350Y009873D01*
X023350Y010180D01*
X023305Y010245D02*
X023275Y010245D01*
X023275Y010343D02*
X023305Y010343D01*
X023305Y010442D02*
X023275Y010442D01*
X023092Y010146D02*
X021743Y010146D01*
X021644Y010048D02*
X023037Y010048D01*
X023037Y009949D02*
X021546Y009949D01*
X021447Y009851D02*
X023350Y009851D01*
X023350Y009949D02*
X023450Y009949D01*
X023450Y010048D02*
X023350Y010048D01*
X023037Y009752D02*
X021349Y009752D01*
X021250Y009654D02*
X023037Y009654D01*
X022782Y010245D02*
X021841Y010245D01*
X021940Y010343D02*
X022740Y010343D01*
X022740Y010442D02*
X022038Y010442D01*
X022280Y010540D02*
X022294Y010540D01*
X022280Y010639D02*
X022294Y010639D01*
X022280Y010737D02*
X022294Y010737D01*
X022280Y010836D02*
X022294Y010836D01*
X022551Y010836D02*
X022718Y010836D01*
X022761Y010737D02*
X022551Y010737D01*
X022548Y010639D02*
X022743Y010639D01*
X022740Y010540D02*
X022477Y010540D01*
X022551Y010934D02*
X022619Y010934D01*
X022691Y012313D02*
X022720Y012313D01*
X022720Y012412D02*
X022620Y012412D01*
X022620Y012510D02*
X022720Y012510D01*
X022720Y012609D02*
X022620Y012609D01*
X022612Y012707D02*
X022748Y012707D01*
X022720Y012806D02*
X022105Y012806D01*
X022146Y012904D02*
X022720Y012904D01*
X022720Y013003D02*
X022148Y013003D01*
X022126Y013101D02*
X022720Y013101D01*
X022741Y013200D02*
X022071Y013200D01*
X021938Y013298D02*
X022720Y013298D01*
X024421Y010146D02*
X024579Y010146D01*
X024513Y010048D02*
X024487Y010048D01*
X024487Y009949D02*
X024513Y009949D01*
X024513Y009851D02*
X024487Y009851D01*
X024487Y009752D02*
X024513Y009752D01*
X024513Y009654D02*
X024487Y009654D01*
X024487Y009555D02*
X024513Y009555D01*
X024587Y009457D02*
X024413Y009457D01*
X024467Y009358D02*
X024533Y009358D01*
X024533Y009260D02*
X024467Y009260D01*
X024467Y009063D02*
X024533Y009063D01*
X024533Y008964D02*
X024467Y008964D01*
X024443Y008866D02*
X024557Y008866D01*
X022935Y007290D02*
X022865Y007290D01*
X022776Y007191D02*
X023024Y007191D01*
X023110Y007093D02*
X022690Y007093D01*
X022824Y006994D02*
X022976Y006994D01*
X022954Y006896D02*
X022846Y006896D01*
X022846Y006797D02*
X022954Y006797D01*
X022954Y006699D02*
X022846Y006699D01*
X022846Y006600D02*
X022954Y006600D01*
X022954Y006502D02*
X022846Y006502D01*
X022846Y006403D02*
X022954Y006403D01*
X022954Y006305D02*
X022846Y006305D01*
X022771Y006206D02*
X023029Y006206D01*
X023771Y006206D02*
X024029Y006206D01*
X023954Y006305D02*
X023846Y006305D01*
X023846Y006403D02*
X023954Y006403D01*
X023954Y006502D02*
X023846Y006502D01*
X023846Y006600D02*
X023954Y006600D01*
X023954Y006699D02*
X023846Y006699D01*
X023846Y006797D02*
X023954Y006797D01*
X023954Y006896D02*
X023846Y006896D01*
X023824Y006994D02*
X023976Y006994D01*
X023906Y007093D02*
X023690Y007093D01*
X023776Y007191D02*
X023860Y007191D01*
X024777Y005517D02*
X025523Y005517D01*
X029109Y008373D02*
X029280Y008373D01*
X029280Y008472D02*
X029208Y008472D01*
X028430Y008964D02*
X028350Y008964D01*
X028302Y009063D02*
X028469Y009063D01*
X028568Y009161D02*
X028204Y009161D01*
X028105Y009260D02*
X028666Y009260D01*
X028607Y009457D02*
X028164Y009457D01*
X028263Y009555D02*
X028509Y009555D01*
X028430Y009654D02*
X028350Y009654D01*
X028350Y009752D02*
X028430Y009752D01*
X029134Y009260D02*
X029280Y009260D01*
X029280Y009161D02*
X029232Y009161D01*
X028430Y012018D02*
X028350Y012018D01*
X028349Y012116D02*
X028430Y012116D01*
X028521Y012215D02*
X028250Y012215D01*
X029180Y012313D02*
X029280Y012313D01*
X029279Y012215D02*
X029280Y012215D01*
X029280Y012609D02*
X029145Y012609D01*
X029243Y012707D02*
X029280Y012707D01*
X029280Y014382D02*
X029212Y014382D01*
X029280Y014480D02*
X029113Y014480D01*
X021550Y020489D02*
X021450Y020489D01*
X021450Y020587D02*
X021550Y020587D01*
X021550Y020686D02*
X021450Y020686D01*
X021450Y020784D02*
X021550Y020784D01*
X021101Y020489D02*
X020840Y020489D01*
X020840Y020587D02*
X020905Y020587D01*
X021857Y021375D02*
X022127Y021375D01*
X022127Y021277D02*
X022087Y021277D01*
X022175Y021178D02*
X022190Y021178D01*
X020580Y019405D02*
X020520Y019405D01*
X020520Y019307D02*
X020580Y019307D01*
X020580Y019208D02*
X020520Y019208D01*
X020520Y019110D02*
X020580Y019110D01*
X020580Y019011D02*
X020520Y019011D01*
X020520Y018913D02*
X020580Y018913D01*
X020580Y018814D02*
X020520Y018814D01*
X020520Y018716D02*
X020580Y018716D01*
X020580Y018420D02*
X020520Y018420D01*
X020520Y018322D02*
X020580Y018322D01*
X020340Y018420D02*
X001182Y018420D01*
X001223Y018519D02*
X008708Y018519D01*
X008610Y018617D02*
X001225Y018617D01*
X001225Y018716D02*
X008560Y018716D01*
X008560Y018913D02*
X002070Y018913D01*
X001135Y018322D02*
X020241Y018322D01*
X020164Y018913D02*
X017483Y018913D01*
X017580Y019011D02*
X019623Y019011D01*
X019470Y019110D02*
X019141Y019110D01*
X019240Y019208D02*
X019401Y019208D01*
X019362Y019307D02*
X019338Y019307D01*
X019877Y019011D02*
X020160Y019011D01*
X020160Y019110D02*
X020030Y019110D01*
X020140Y019208D02*
X020160Y019208D01*
X017859Y019110D02*
X017621Y019110D01*
X017638Y019208D02*
X017727Y019208D01*
X017017Y018913D02*
X016916Y018913D01*
X012535Y020489D02*
X012531Y020489D01*
X011819Y020193D02*
X011789Y020193D01*
X011759Y020292D02*
X007549Y020292D01*
X007600Y020390D02*
X011333Y020390D01*
X011256Y020489D02*
X011070Y020489D01*
X011074Y020497D02*
X011084Y020535D01*
X011084Y020787D01*
X010830Y020787D01*
X010830Y020795D01*
X010822Y020795D01*
X010822Y020787D01*
X010830Y020787D01*
X010830Y020404D01*
X010954Y020404D01*
X010992Y020415D01*
X011026Y020434D01*
X011054Y020462D01*
X011074Y020497D01*
X011084Y020587D02*
X011256Y020587D01*
X011256Y020686D02*
X011084Y020686D01*
X011084Y020784D02*
X011256Y020784D01*
X011256Y020883D02*
X011084Y020883D01*
X011084Y020795D02*
X011084Y021047D01*
X011074Y021085D01*
X011054Y021119D01*
X011026Y021147D01*
X010992Y021167D01*
X010954Y021177D01*
X010830Y021177D01*
X010830Y020795D01*
X011084Y020795D01*
X011084Y020981D02*
X011256Y020981D01*
X011256Y021080D02*
X011075Y021080D01*
X010830Y021080D02*
X010822Y021080D01*
X010822Y020981D02*
X010830Y020981D01*
X010822Y020883D02*
X010830Y020883D01*
X010822Y020784D02*
X010830Y020784D01*
X010822Y020686D02*
X010830Y020686D01*
X010822Y020587D02*
X010830Y020587D01*
X010822Y020489D02*
X010830Y020489D01*
X010582Y020489D02*
X007600Y020489D01*
X007600Y020587D02*
X008834Y020587D01*
X008735Y020686D02*
X007600Y020686D01*
X007531Y020784D02*
X008637Y020784D01*
X008322Y020193D02*
X010611Y020193D01*
X010508Y019602D02*
X008460Y019602D01*
X008361Y019504D02*
X010508Y019504D01*
X010546Y019405D02*
X008263Y019405D01*
X008100Y019405D02*
X008000Y019405D01*
X008000Y019504D02*
X008100Y019504D01*
X008100Y019602D02*
X008000Y019602D01*
X008000Y019898D02*
X008100Y019898D01*
X008100Y019996D02*
X008000Y019996D01*
X008000Y020095D02*
X008100Y020095D01*
X008100Y020193D02*
X008000Y020193D01*
X007778Y020193D02*
X007451Y020193D01*
X007352Y020095D02*
X007680Y020095D01*
X007600Y019996D02*
X006437Y019996D01*
X006460Y019898D02*
X006883Y019898D01*
X006784Y019799D02*
X006460Y019799D01*
X006460Y019701D02*
X006700Y019701D01*
X006700Y019602D02*
X006460Y019602D01*
X006460Y019504D02*
X006700Y019504D01*
X006700Y019405D02*
X006460Y019405D01*
X006382Y019307D02*
X006736Y019307D01*
X006834Y019208D02*
X006284Y019208D01*
X006185Y019110D02*
X006933Y019110D01*
X007367Y019110D02*
X008679Y019110D01*
X008581Y019011D02*
X006087Y019011D01*
X006338Y020095D02*
X006948Y020095D01*
X006849Y020193D02*
X006240Y020193D01*
X006141Y020292D02*
X006751Y020292D01*
X007417Y019898D02*
X007600Y019898D01*
X007466Y019208D02*
X008778Y019208D01*
X009221Y019110D02*
X010779Y019110D01*
X010820Y019011D02*
X009319Y019011D01*
X009340Y018913D02*
X010917Y018913D01*
X011383Y018913D02*
X011734Y018913D01*
X009150Y018223D02*
X001037Y018223D01*
X000855Y018125D02*
X008694Y018125D01*
X008596Y018026D02*
X000360Y018026D01*
X000360Y017928D02*
X008560Y017928D01*
X008560Y017731D02*
X006544Y017731D01*
X006584Y017632D02*
X008595Y017632D01*
X008693Y017534D02*
X006584Y017534D01*
X006584Y017435D02*
X009150Y017435D01*
X008998Y017337D02*
X008902Y017337D01*
X008902Y017238D02*
X008998Y017238D01*
X008998Y017140D02*
X008902Y017140D01*
X008902Y017041D02*
X007008Y017041D01*
X007106Y016943D02*
X008583Y016943D01*
X008584Y016844D02*
X007168Y016844D01*
X007209Y016746D02*
X008591Y016746D01*
X008523Y016647D02*
X007230Y016647D01*
X007230Y016549D02*
X008523Y016549D01*
X008523Y016450D02*
X007225Y016450D01*
X007184Y016352D02*
X008498Y016352D01*
X008431Y016253D02*
X007143Y016253D01*
X007046Y016155D02*
X007661Y016155D01*
X007622Y016056D02*
X007038Y016056D01*
X007038Y015958D02*
X007622Y015958D01*
X007622Y015859D02*
X007038Y015859D01*
X007038Y015761D02*
X007998Y015761D01*
X007998Y015859D02*
X008098Y015859D01*
X008098Y015958D02*
X007998Y015958D01*
X007998Y016056D02*
X008098Y016056D01*
X008098Y016155D02*
X007998Y016155D01*
X007622Y015662D02*
X007038Y015662D01*
X007038Y015564D02*
X007622Y015564D01*
X007627Y015465D02*
X007038Y015465D01*
X007012Y015367D02*
X007588Y015367D01*
X007562Y015268D02*
X007038Y015268D01*
X007038Y015170D02*
X007562Y015170D01*
X007562Y015071D02*
X007038Y015071D01*
X007038Y014973D02*
X007562Y014973D01*
X007562Y014874D02*
X007038Y014874D01*
X007038Y014776D02*
X007562Y014776D01*
X007562Y014677D02*
X007038Y014677D01*
X005222Y015052D02*
X005210Y015048D01*
X005046Y014883D01*
X004957Y014669D01*
X004957Y014644D01*
X004929Y014671D01*
X004933Y014674D01*
X004952Y014709D01*
X004963Y014747D01*
X004963Y014923D01*
X004650Y014923D01*
X004650Y015023D01*
X004963Y015023D01*
X004963Y015200D01*
X004952Y015238D01*
X004933Y015272D01*
X004926Y015279D01*
X005038Y015240D01*
X005046Y015222D01*
X005210Y015057D01*
X005222Y015052D01*
X005196Y015071D02*
X004963Y015071D01*
X004963Y015170D02*
X005098Y015170D01*
X004956Y015268D02*
X004935Y015268D01*
X004550Y015023D02*
X004550Y014923D01*
X004237Y014923D01*
X004237Y014747D01*
X004248Y014709D01*
X004267Y014674D01*
X004271Y014671D01*
X004177Y014578D01*
X004177Y013991D01*
X004270Y013898D01*
X004270Y013876D01*
X004262Y013856D01*
X004262Y013702D01*
X004270Y013682D01*
X004270Y013660D01*
X004214Y013603D01*
X003918Y013603D01*
X004036Y013722D01*
X004125Y013936D01*
X004125Y014169D01*
X004036Y014383D01*
X003872Y014548D01*
X003779Y014586D01*
X003816Y014604D01*
X003882Y014653D01*
X003941Y014711D01*
X003989Y014778D01*
X004027Y014851D01*
X004052Y014930D01*
X004064Y015002D01*
X003591Y015002D01*
X003591Y015102D01*
X004064Y015102D01*
X004052Y015175D01*
X004027Y015254D01*
X003989Y015327D01*
X003941Y015394D01*
X003882Y015452D01*
X003816Y015501D01*
X003779Y015519D01*
X003872Y015557D01*
X004036Y015722D01*
X004037Y015723D01*
X004108Y015550D01*
X004271Y015387D01*
X004409Y015330D01*
X004368Y015330D01*
X004330Y015320D01*
X004295Y015300D01*
X004267Y015272D01*
X004248Y015238D01*
X004237Y015200D01*
X004237Y015023D01*
X004550Y015023D01*
X004550Y014973D02*
X004059Y014973D01*
X004034Y014874D02*
X004237Y014874D01*
X004237Y014776D02*
X003988Y014776D01*
X003907Y014677D02*
X004266Y014677D01*
X004178Y014579D02*
X003796Y014579D01*
X003939Y014480D02*
X004177Y014480D01*
X004177Y014382D02*
X004037Y014382D01*
X004077Y014283D02*
X004177Y014283D01*
X004177Y014185D02*
X004118Y014185D01*
X004125Y014086D02*
X004177Y014086D01*
X004180Y013988D02*
X004125Y013988D01*
X004106Y013889D02*
X004270Y013889D01*
X004262Y013791D02*
X004065Y013791D01*
X004007Y013692D02*
X004266Y013692D01*
X004934Y014677D02*
X004961Y014677D01*
X004963Y014776D02*
X005001Y014776D01*
X004963Y014874D02*
X005042Y014874D01*
X005135Y014973D02*
X004650Y014973D01*
X004237Y015071D02*
X003591Y015071D01*
X003491Y015071D02*
X000360Y015071D01*
X000360Y014973D02*
X003023Y014973D01*
X003100Y015029D02*
X002550Y015029D01*
X002100Y015479D01*
X002100Y014479D01*
X002130Y014480D02*
X003143Y014480D01*
X003045Y014382D02*
X002490Y014382D01*
X002490Y014317D02*
X002490Y014449D01*
X002130Y014449D01*
X002130Y014509D01*
X002070Y014509D01*
X002070Y014869D01*
X001938Y014869D01*
X001710Y014640D01*
X001710Y014509D01*
X002070Y014509D01*
X002070Y014449D01*
X001710Y014449D01*
X001710Y014317D01*
X001938Y014089D01*
X002070Y014089D01*
X002070Y014449D01*
X002130Y014449D01*
X002130Y014089D01*
X002262Y014089D01*
X002490Y014317D01*
X002456Y014283D02*
X003004Y014283D01*
X002964Y014185D02*
X002358Y014185D01*
X002130Y014185D02*
X002070Y014185D01*
X002070Y014283D02*
X002130Y014283D01*
X002130Y014382D02*
X002070Y014382D01*
X002070Y014480D02*
X000360Y014480D01*
X000360Y014382D02*
X001710Y014382D01*
X001744Y014283D02*
X000360Y014283D01*
X000360Y014185D02*
X001842Y014185D01*
X001710Y014579D02*
X000360Y014579D01*
X000360Y014677D02*
X001747Y014677D01*
X001845Y014776D02*
X000360Y014776D01*
X000360Y014874D02*
X003048Y014874D01*
X003094Y014776D02*
X002355Y014776D01*
X002262Y014869D02*
X002130Y014869D01*
X002130Y014509D01*
X002490Y014509D01*
X002490Y014640D01*
X002262Y014869D01*
X002130Y014776D02*
X002070Y014776D01*
X002070Y014677D02*
X002130Y014677D01*
X002130Y014579D02*
X002070Y014579D01*
X002453Y014677D02*
X003175Y014677D01*
X003286Y014579D02*
X002490Y014579D01*
X002262Y015089D02*
X002490Y015317D01*
X002490Y015449D01*
X002130Y015449D01*
X002130Y015089D01*
X002262Y015089D01*
X002343Y015170D02*
X003029Y015170D01*
X003063Y015268D02*
X002441Y015268D01*
X002490Y015367D02*
X003122Y015367D01*
X003218Y015465D02*
X002130Y015465D01*
X002070Y015465D02*
X000360Y015465D01*
X000360Y015367D02*
X001710Y015367D01*
X001759Y015268D02*
X000360Y015268D01*
X000360Y015170D02*
X001857Y015170D01*
X002070Y015170D02*
X002130Y015170D01*
X002130Y015268D02*
X002070Y015268D01*
X002070Y015367D02*
X002130Y015367D01*
X002130Y015564D02*
X002070Y015564D01*
X002070Y015662D02*
X002130Y015662D01*
X002130Y015761D02*
X002070Y015761D01*
X002070Y015859D02*
X002130Y015859D01*
X002105Y015958D02*
X000360Y015958D01*
X000360Y016056D02*
X002064Y016056D01*
X002024Y016155D02*
X000360Y016155D01*
X000360Y016253D02*
X002020Y016253D01*
X002020Y016352D02*
X000360Y016352D01*
X000360Y016450D02*
X002043Y016450D01*
X002084Y016549D02*
X000360Y016549D01*
X000360Y016647D02*
X002148Y016647D01*
X002247Y016746D02*
X000360Y016746D01*
X000360Y016844D02*
X002450Y016844D01*
X002402Y016943D02*
X002302Y016943D01*
X002302Y017041D02*
X002402Y017041D01*
X002402Y017140D02*
X002302Y017140D01*
X002302Y017238D02*
X002040Y017238D01*
X002302Y017337D02*
X002402Y017337D01*
X002402Y017329D02*
X002402Y017704D01*
X002647Y017704D01*
X002685Y017694D01*
X002720Y017674D01*
X002748Y017646D01*
X002767Y017612D01*
X002778Y017574D01*
X002778Y017329D01*
X002402Y017329D01*
X002402Y017238D02*
X003362Y017238D01*
X003362Y017140D02*
X002778Y017140D01*
X002778Y017041D02*
X003362Y017041D01*
X003362Y016943D02*
X002766Y016943D01*
X002750Y016844D02*
X003384Y016844D01*
X003341Y016746D02*
X002953Y016746D01*
X003079Y016647D02*
X003298Y016647D01*
X003362Y017337D02*
X002778Y017337D01*
X002778Y017435D02*
X003362Y017435D01*
X003362Y017534D02*
X002778Y017534D01*
X002756Y017632D02*
X003362Y017632D01*
X003452Y017731D02*
X000360Y017731D01*
X000360Y017829D02*
X008920Y017829D01*
X008920Y017731D02*
X008980Y017731D01*
X008980Y017632D02*
X008920Y017632D01*
X008920Y017534D02*
X008980Y017534D01*
X008980Y017928D02*
X008920Y017928D01*
X008920Y018026D02*
X008980Y018026D01*
X008980Y018125D02*
X008920Y018125D01*
X008604Y017337D02*
X006584Y017337D01*
X006584Y017238D02*
X008583Y017238D01*
X008583Y017140D02*
X006811Y017140D01*
X005608Y017435D02*
X005088Y017435D01*
X005088Y017337D02*
X005538Y017337D01*
X005467Y017238D02*
X005088Y017238D01*
X005088Y017140D02*
X005396Y017140D01*
X005204Y017041D02*
X005088Y017041D01*
X005105Y016943D02*
X005064Y016943D01*
X005030Y016844D02*
X004966Y016844D01*
X004989Y016746D02*
X004345Y016746D01*
X004302Y016647D02*
X004957Y016647D01*
X004957Y016549D02*
X004259Y016549D01*
X004216Y016450D02*
X004464Y016450D01*
X004253Y016352D02*
X004173Y016352D01*
X004154Y016253D02*
X004130Y016253D01*
X004736Y016450D02*
X004957Y016450D01*
X004947Y016352D02*
X004992Y016352D01*
X004062Y015662D02*
X003977Y015662D01*
X003878Y015564D02*
X004103Y015564D01*
X004193Y015465D02*
X003864Y015465D01*
X003960Y015367D02*
X004320Y015367D01*
X004265Y015268D02*
X004019Y015268D01*
X004053Y015170D02*
X004237Y015170D01*
X003204Y015564D02*
X002490Y015564D01*
X002468Y015662D02*
X003105Y015662D01*
X001929Y015859D02*
X000360Y015859D01*
X000360Y015761D02*
X001830Y015761D01*
X001732Y015662D02*
X000360Y015662D01*
X000360Y015564D02*
X001710Y015564D01*
X001680Y016943D02*
X001620Y016943D01*
X001620Y017041D02*
X001680Y017041D01*
X001680Y017140D02*
X001620Y017140D01*
X001620Y017238D02*
X001680Y017238D01*
X001650Y017279D02*
X001200Y017279D01*
X001150Y017229D01*
X001150Y017559D01*
X001228Y017637D01*
X001353Y017534D02*
X000947Y017534D01*
X001040Y017435D02*
X001260Y017435D01*
X001260Y017337D02*
X001040Y017337D01*
X001050Y017279D02*
X001100Y017229D01*
X001040Y017238D02*
X001260Y017238D01*
X001260Y017140D02*
X001040Y017140D01*
X000964Y017041D02*
X001336Y017041D01*
X001434Y016943D02*
X000866Y016943D01*
X000680Y016943D02*
X000620Y016943D01*
X000620Y017041D02*
X000680Y017041D01*
X000680Y017140D02*
X000620Y017140D01*
X000620Y017238D02*
X000680Y017238D01*
X000650Y017279D02*
X001050Y017279D01*
X000680Y017337D02*
X000620Y017337D01*
X000620Y017435D02*
X000680Y017435D01*
X000680Y017534D02*
X000620Y017534D01*
X000620Y017632D02*
X000680Y017632D01*
X000848Y017632D02*
X001452Y017632D01*
X001620Y017632D02*
X001680Y017632D01*
X001680Y017534D02*
X001620Y017534D01*
X001620Y017435D02*
X001680Y017435D01*
X001680Y017337D02*
X001620Y017337D01*
X001848Y017632D02*
X001948Y017632D01*
X002302Y017632D02*
X002402Y017632D01*
X002402Y017534D02*
X002302Y017534D01*
X002302Y017435D02*
X002402Y017435D01*
X001938Y016943D02*
X001866Y016943D01*
X000434Y016943D02*
X000360Y016943D01*
X000360Y017632D02*
X000452Y017632D01*
X000360Y018125D02*
X000545Y018125D01*
X000363Y018223D02*
X000360Y018223D01*
X000360Y019701D02*
X000385Y019701D01*
X003477Y021277D02*
X005962Y021277D01*
X005863Y021375D02*
X003562Y021375D01*
X003641Y021467D02*
X003641Y021467D01*
X003644Y021474D02*
X005808Y021474D01*
X005767Y021572D02*
X003689Y021572D01*
X003734Y021671D02*
X005750Y021671D01*
X005750Y021769D02*
X003779Y021769D01*
X003824Y021868D02*
X005760Y021868D01*
X005801Y021966D02*
X003860Y021966D01*
X003874Y022065D02*
X005846Y022065D01*
X005944Y022163D02*
X003888Y022163D01*
X003902Y022262D02*
X006101Y022262D01*
X006335Y022557D02*
X005365Y022557D01*
X005464Y022656D02*
X006236Y022656D01*
X006138Y022754D02*
X005562Y022754D01*
X005638Y022853D02*
X006062Y022853D01*
X006021Y022951D02*
X005679Y022951D01*
X005719Y023050D02*
X005981Y023050D01*
X005940Y023148D02*
X005760Y023148D01*
X005760Y023247D02*
X005940Y023247D01*
X005940Y023345D02*
X005760Y023345D01*
X005760Y023444D02*
X005940Y023444D01*
X005953Y023542D02*
X005747Y023542D01*
X005706Y023641D02*
X005994Y023641D01*
X006035Y023739D02*
X005665Y023739D01*
X005624Y023838D02*
X006076Y023838D01*
X006171Y023936D02*
X005529Y023936D01*
X005431Y024035D02*
X006269Y024035D01*
X007431Y024035D02*
X008498Y024035D01*
X008400Y023936D02*
X007529Y023936D01*
X007624Y023838D02*
X008340Y023838D01*
X008340Y023739D02*
X007665Y023739D01*
X007706Y023641D02*
X008340Y023641D01*
X008340Y023542D02*
X007747Y023542D01*
X007760Y023444D02*
X008340Y023444D01*
X008340Y023345D02*
X007760Y023345D01*
X007760Y023247D02*
X008340Y023247D01*
X008340Y023148D02*
X007760Y023148D01*
X007719Y023050D02*
X008371Y023050D01*
X008470Y022951D02*
X007679Y022951D01*
X007638Y022853D02*
X008568Y022853D01*
X008667Y022754D02*
X007562Y022754D01*
X007464Y022656D02*
X008765Y022656D01*
X008864Y022557D02*
X007365Y022557D01*
X006572Y022459D02*
X005128Y022459D01*
X004572Y022459D02*
X003927Y022459D01*
X003916Y022360D02*
X008824Y022360D01*
X008725Y022262D02*
X008453Y022262D01*
X009776Y022360D02*
X010533Y022360D01*
X010533Y022262D02*
X009875Y022262D01*
X009973Y022163D02*
X010533Y022163D01*
X010533Y022065D02*
X010072Y022065D01*
X010170Y021966D02*
X010533Y021966D01*
X010572Y021868D02*
X010260Y021868D01*
X010260Y021769D02*
X010533Y021769D01*
X010533Y021671D02*
X010260Y021671D01*
X010260Y021572D02*
X010533Y021572D01*
X010533Y021474D02*
X010260Y021474D01*
X010260Y021375D02*
X010533Y021375D01*
X010595Y021277D02*
X010260Y021277D01*
X012556Y022889D02*
X012565Y022929D01*
X011499Y023936D02*
X011237Y023936D01*
X007675Y020883D02*
X007432Y020883D01*
X004335Y022557D02*
X003912Y022557D01*
X003898Y022656D02*
X004236Y022656D01*
X004138Y022754D02*
X003884Y022754D01*
X003870Y022853D02*
X004062Y022853D01*
X004021Y022951D02*
X003856Y022951D01*
X003855Y022955D02*
X003855Y022955D01*
X003812Y023050D02*
X003981Y023050D01*
X003940Y023148D02*
X003767Y023148D01*
X003722Y023247D02*
X003940Y023247D01*
X003940Y023345D02*
X003677Y023345D01*
X003641Y023424D02*
X003641Y023424D01*
X003624Y023444D02*
X003940Y023444D01*
X003953Y023542D02*
X003538Y023542D01*
X003453Y023641D02*
X003994Y023641D01*
X004035Y023739D02*
X003368Y023739D01*
X003304Y023813D02*
X003304Y023813D01*
X003265Y023838D02*
X004076Y023838D01*
X004171Y023936D02*
X003112Y023936D01*
X002959Y024035D02*
X004269Y024035D01*
X005048Y017731D02*
X005652Y017731D01*
X005612Y017632D02*
X005088Y017632D01*
X005088Y017534D02*
X005612Y017534D01*
X002957Y014086D02*
X000360Y014086D01*
X000360Y013988D02*
X002957Y013988D01*
X002968Y013889D02*
X000360Y013889D01*
X000360Y013791D02*
X002869Y013791D01*
X002771Y013692D02*
X000360Y013692D01*
X000360Y013594D02*
X002672Y013594D01*
X002592Y013495D02*
X000360Y013495D01*
X000360Y013397D02*
X002560Y013397D01*
X002560Y013298D02*
X000360Y013298D01*
X000360Y013200D02*
X002560Y013200D01*
X002560Y013101D02*
X000360Y013101D01*
X000360Y013003D02*
X002560Y013003D01*
X002560Y012904D02*
X000360Y012904D01*
X000360Y012806D02*
X002560Y012806D01*
X002560Y012707D02*
X000360Y012707D01*
X000360Y012609D02*
X002560Y012609D01*
X002560Y012510D02*
X000360Y012510D01*
X000360Y012412D02*
X002560Y012412D01*
X002560Y012313D02*
X000360Y012313D01*
X000360Y012215D02*
X002560Y012215D01*
X002560Y012116D02*
X000360Y012116D01*
X000360Y012018D02*
X002560Y012018D01*
X002560Y011919D02*
X000360Y011919D01*
X000360Y011821D02*
X002560Y011821D01*
X002560Y011722D02*
X000360Y011722D01*
X000360Y011624D02*
X002600Y011624D01*
X002693Y011525D02*
X000360Y011525D01*
X000360Y011427D02*
X002792Y011427D01*
X002897Y011328D02*
X000360Y011328D01*
X000360Y011230D02*
X002982Y011230D01*
X002957Y011131D02*
X000360Y011131D01*
X000360Y011033D02*
X002957Y011033D01*
X002958Y010934D02*
X000360Y010934D01*
X000360Y010836D02*
X002999Y010836D01*
X003039Y010737D02*
X000360Y010737D01*
X000360Y010639D02*
X003129Y010639D01*
X003203Y010540D02*
X002881Y010540D01*
X002319Y010540D02*
X000360Y010540D01*
X000360Y010442D02*
X002193Y010442D01*
X002102Y010343D02*
X000360Y010343D01*
X000360Y010245D02*
X002062Y010245D01*
X002021Y010146D02*
X000360Y010146D01*
X000360Y010048D02*
X002020Y010048D01*
X002020Y009949D02*
X000360Y009949D01*
X000360Y009851D02*
X002046Y009851D01*
X002087Y009752D02*
X000360Y009752D01*
X000360Y009654D02*
X002120Y009654D01*
X002115Y009555D02*
X000360Y009555D01*
X000360Y009457D02*
X002110Y009457D01*
X002062Y009358D02*
X001468Y009358D01*
X001467Y009362D02*
X001448Y009396D01*
X001420Y009424D01*
X001385Y009444D01*
X001347Y009454D01*
X001102Y009454D01*
X001102Y009079D01*
X001002Y009079D01*
X001002Y009454D01*
X000757Y009454D01*
X000718Y009444D01*
X000684Y009424D01*
X000656Y009396D01*
X000637Y009362D01*
X000626Y009324D01*
X000626Y009079D01*
X001002Y009079D01*
X001002Y008979D01*
X000626Y008979D01*
X000626Y008733D01*
X000637Y008695D01*
X000656Y008661D01*
X000684Y008633D01*
X000718Y008613D01*
X000757Y008603D01*
X001002Y008603D01*
X001002Y008979D01*
X001102Y008979D01*
X001102Y009079D01*
X001478Y009079D01*
X001478Y009324D01*
X001467Y009362D01*
X001478Y009260D02*
X002062Y009260D01*
X002062Y009161D02*
X001478Y009161D01*
X001478Y008979D02*
X001102Y008979D01*
X001102Y008603D01*
X001347Y008603D01*
X001385Y008613D01*
X001420Y008633D01*
X001448Y008661D01*
X001467Y008695D01*
X001478Y008733D01*
X001478Y008979D01*
X001478Y008964D02*
X002062Y008964D01*
X002062Y008866D02*
X001478Y008866D01*
X001478Y008767D02*
X002062Y008767D01*
X002062Y008669D02*
X001452Y008669D01*
X001467Y008373D02*
X000360Y008373D01*
X000360Y008275D02*
X001259Y008275D01*
X001106Y008176D02*
X000360Y008176D01*
X000360Y008078D02*
X000953Y008078D01*
X000859Y007979D02*
X000360Y007979D01*
X000360Y007881D02*
X000773Y007881D01*
X000688Y007782D02*
X000360Y007782D01*
X000360Y007684D02*
X000603Y007684D01*
X000554Y007585D02*
X000360Y007585D01*
X000360Y007487D02*
X000509Y007487D01*
X000465Y007388D02*
X000360Y007388D01*
X000360Y007290D02*
X000420Y007290D01*
X000380Y007191D02*
X000360Y007191D01*
X000360Y007093D02*
X000365Y007093D01*
X000360Y008472D02*
X001803Y008472D01*
X002158Y008570D02*
X000360Y008570D01*
X000360Y008669D02*
X000652Y008669D01*
X000626Y008767D02*
X000360Y008767D01*
X000360Y008866D02*
X000626Y008866D01*
X000626Y008964D02*
X000360Y008964D01*
X000360Y009063D02*
X001002Y009063D01*
X001002Y009161D02*
X001102Y009161D01*
X001102Y009063D02*
X002062Y009063D01*
X002434Y008472D02*
X006078Y008472D01*
X006024Y008373D02*
X002770Y008373D01*
X002978Y008275D02*
X006024Y008275D01*
X006024Y008176D02*
X003131Y008176D01*
X003284Y008078D02*
X006400Y008078D01*
X006450Y008081D02*
X006452Y008079D01*
X007105Y008079D01*
X007076Y008078D02*
X006500Y008078D01*
X006500Y008031D02*
X006500Y008131D01*
X006797Y008131D01*
X006797Y008108D01*
X007076Y008108D01*
X007076Y008050D01*
X007133Y008050D01*
X007133Y007771D01*
X007282Y007771D01*
X007320Y007782D01*
X007354Y007801D01*
X007358Y007805D01*
X007434Y007728D01*
X007432Y007451D01*
X007076Y007807D01*
X007076Y008050D01*
X006797Y008050D01*
X006797Y008031D01*
X006500Y008031D01*
X006500Y008176D02*
X006400Y008176D01*
X006400Y008275D02*
X006500Y008275D01*
X006500Y008373D02*
X006400Y008373D01*
X006400Y008472D02*
X006500Y008472D01*
X006822Y008472D02*
X008022Y008472D01*
X008071Y008570D02*
X005188Y008570D01*
X005284Y008669D02*
X008120Y008669D01*
X008150Y008767D02*
X005284Y008767D01*
X005284Y008866D02*
X007344Y008866D01*
X007144Y008964D02*
X005313Y008964D01*
X005877Y009063D02*
X007046Y009063D01*
X006983Y009161D02*
X006883Y009161D01*
X006936Y009260D02*
X006942Y009260D01*
X007656Y008866D02*
X008150Y008866D01*
X008150Y008964D02*
X007856Y008964D01*
X007954Y009063D02*
X008150Y009063D01*
X008150Y009161D02*
X008017Y009161D01*
X008058Y009260D02*
X008150Y009260D01*
X008150Y009358D02*
X008080Y009358D01*
X008080Y009457D02*
X008150Y009457D01*
X008150Y009555D02*
X008075Y009555D01*
X008130Y009654D02*
X008150Y009654D01*
X009189Y008767D02*
X009377Y008767D01*
X009287Y008866D02*
X009476Y008866D01*
X009386Y008964D02*
X009622Y008964D01*
X009720Y009063D02*
X009484Y009063D01*
X009583Y009161D02*
X009925Y009161D01*
X009853Y009457D02*
X009847Y009457D01*
X009279Y008669D02*
X009090Y008669D01*
X009180Y008570D02*
X008992Y008570D01*
X009082Y008472D02*
X008893Y008472D01*
X008983Y008373D02*
X008795Y008373D01*
X008696Y008275D02*
X008930Y008275D01*
X008930Y008176D02*
X008650Y008176D01*
X008650Y008078D02*
X008930Y008078D01*
X008930Y007979D02*
X008650Y007979D01*
X008650Y007881D02*
X008814Y007881D01*
X008763Y007782D02*
X008650Y007782D01*
X008650Y007684D02*
X008763Y007684D01*
X009537Y007457D02*
X009592Y007323D01*
X009744Y007171D01*
X009846Y007129D01*
X009744Y007087D01*
X009592Y006935D01*
X009517Y006752D01*
X009517Y006846D01*
X009198Y006846D01*
X009198Y006943D01*
X009517Y006943D01*
X009517Y007111D01*
X009506Y007149D01*
X009487Y007183D01*
X009459Y007211D01*
X009454Y007214D01*
X009537Y007296D01*
X009537Y007457D01*
X009537Y007388D02*
X009565Y007388D01*
X009530Y007290D02*
X009625Y007290D01*
X009724Y007191D02*
X009478Y007191D01*
X009517Y007093D02*
X009759Y007093D01*
X009652Y006994D02*
X009517Y006994D01*
X009576Y006896D02*
X009198Y006896D01*
X009198Y006797D02*
X009102Y006797D01*
X009102Y006846D02*
X009102Y006547D01*
X008914Y006547D01*
X008876Y006558D01*
X008841Y006577D01*
X008813Y006605D01*
X008794Y006639D01*
X008783Y006678D01*
X008783Y006846D01*
X009102Y006846D01*
X009102Y006699D02*
X009198Y006699D01*
X009198Y006600D02*
X009102Y006600D01*
X008818Y006600D02*
X008650Y006600D01*
X008650Y006502D02*
X009518Y006502D01*
X009510Y006600D02*
X009482Y006600D01*
X009517Y006797D02*
X009535Y006797D01*
X009559Y006403D02*
X008650Y006403D01*
X008650Y006305D02*
X009610Y006305D01*
X009709Y006206D02*
X008650Y006206D01*
X008650Y006108D02*
X009577Y006108D01*
X009530Y006009D02*
X008650Y006009D01*
X008650Y005911D02*
X009530Y005911D01*
X009530Y005812D02*
X008650Y005812D01*
X008650Y005714D02*
X009530Y005714D01*
X009530Y005517D02*
X008650Y005517D01*
X008650Y005615D02*
X010000Y005615D01*
X010000Y005517D02*
X010100Y005517D01*
X010100Y005418D02*
X010000Y005418D01*
X010000Y005320D02*
X010100Y005320D01*
X010100Y005221D02*
X010000Y005221D01*
X010000Y005123D02*
X010100Y005123D01*
X010484Y005123D02*
X010941Y005123D01*
X010843Y005221D02*
X010565Y005221D01*
X010570Y005320D02*
X010744Y005320D01*
X010680Y005418D02*
X010570Y005418D01*
X009616Y005123D02*
X008650Y005123D01*
X008650Y005221D02*
X009535Y005221D01*
X009530Y005320D02*
X008650Y005320D01*
X008650Y005418D02*
X009530Y005418D01*
X008783Y006699D02*
X008650Y006699D01*
X008650Y006797D02*
X008783Y006797D01*
X007685Y005779D02*
X007695Y008079D01*
X007378Y008373D02*
X007325Y008373D01*
X007133Y008373D02*
X007076Y008373D01*
X007076Y008275D02*
X007133Y008275D01*
X007133Y008176D02*
X007076Y008176D01*
X007076Y007979D02*
X007133Y007979D01*
X007133Y007881D02*
X007076Y007881D01*
X007101Y007782D02*
X007133Y007782D01*
X007199Y007684D02*
X007433Y007684D01*
X007433Y007585D02*
X007298Y007585D01*
X007396Y007487D02*
X007433Y007487D01*
X007380Y007782D02*
X007321Y007782D01*
X006885Y008373D02*
X006876Y008373D01*
X006024Y007979D02*
X003378Y007979D01*
X003464Y007881D02*
X006024Y007881D01*
X006025Y007782D02*
X003549Y007782D01*
X003634Y007684D02*
X004411Y007684D01*
X004388Y007670D02*
X004321Y007619D01*
X004260Y007558D01*
X004208Y007491D01*
X004166Y007417D01*
X004133Y007338D01*
X004111Y007256D01*
X004101Y007179D01*
X004700Y007179D01*
X004700Y007778D01*
X004623Y007768D01*
X004541Y007746D01*
X004462Y007713D01*
X004388Y007670D01*
X004287Y007585D02*
X003683Y007585D01*
X003728Y007487D02*
X004206Y007487D01*
X004154Y007388D02*
X003772Y007388D01*
X003817Y007290D02*
X004120Y007290D01*
X004103Y007191D02*
X003857Y007191D01*
X003872Y007093D02*
X004700Y007093D01*
X004700Y007079D02*
X004101Y007079D01*
X004111Y007002D01*
X004133Y006919D01*
X004166Y006841D01*
X004208Y006767D01*
X004260Y006699D01*
X004321Y006639D01*
X004388Y006587D01*
X004462Y006545D01*
X004541Y006512D01*
X004623Y006490D01*
X004700Y006480D01*
X004700Y007079D01*
X004700Y007179D01*
X004800Y007179D01*
X004800Y007778D01*
X004877Y007768D01*
X004959Y007746D01*
X005038Y007713D01*
X005112Y007670D01*
X005179Y007619D01*
X005240Y007558D01*
X005292Y007491D01*
X005334Y007417D01*
X005367Y007338D01*
X005389Y007256D01*
X005399Y007179D01*
X004800Y007179D01*
X004800Y007079D01*
X005399Y007079D01*
X005389Y007002D01*
X005367Y006919D01*
X005334Y006841D01*
X005292Y006767D01*
X005240Y006699D01*
X005179Y006639D01*
X005112Y006587D01*
X005038Y006545D01*
X004959Y006512D01*
X004877Y006490D01*
X004800Y006480D01*
X004800Y007079D01*
X004700Y007079D01*
X004700Y006994D02*
X004800Y006994D01*
X004800Y006896D02*
X004700Y006896D01*
X004700Y006797D02*
X004800Y006797D01*
X004800Y006699D02*
X004700Y006699D01*
X004700Y006600D02*
X004800Y006600D01*
X004800Y006502D02*
X004700Y006502D01*
X004579Y006502D02*
X003900Y006502D01*
X003915Y006600D02*
X004371Y006600D01*
X004261Y006699D02*
X003928Y006699D01*
X003914Y006797D02*
X004191Y006797D01*
X004143Y006896D02*
X003900Y006896D01*
X003886Y006994D02*
X004113Y006994D01*
X004700Y007191D02*
X004800Y007191D01*
X004800Y007093D02*
X006040Y007093D01*
X006040Y007191D02*
X005397Y007191D01*
X005380Y007290D02*
X006040Y007290D01*
X006040Y007388D02*
X005346Y007388D01*
X005294Y007487D02*
X006104Y007487D01*
X006202Y007585D02*
X005213Y007585D01*
X005089Y007684D02*
X006085Y007684D01*
X006040Y006994D02*
X005387Y006994D01*
X005357Y006896D02*
X006040Y006896D01*
X006077Y006797D02*
X005309Y006797D01*
X005239Y006699D02*
X006176Y006699D01*
X006274Y006600D02*
X005129Y006600D01*
X004921Y006502D02*
X006373Y006502D01*
X006604Y006403D02*
X003886Y006403D01*
X003872Y006305D02*
X006627Y006305D01*
X006650Y006206D02*
X003858Y006206D01*
X003819Y006108D02*
X006634Y006108D01*
X006609Y006009D02*
X003774Y006009D01*
X003729Y005911D02*
X006609Y005911D01*
X006609Y005812D02*
X003684Y005812D01*
X003637Y005714D02*
X006609Y005714D01*
X006609Y005615D02*
X003552Y005615D01*
X003466Y005517D02*
X006609Y005517D01*
X006665Y005418D02*
X003381Y005418D01*
X003289Y005320D02*
X007650Y005320D01*
X007650Y005221D02*
X003136Y005221D01*
X002982Y005123D02*
X007650Y005123D01*
X007650Y005024D02*
X002780Y005024D01*
X004700Y007290D02*
X004800Y007290D01*
X004800Y007388D02*
X004700Y007388D01*
X004700Y007487D02*
X004800Y007487D01*
X004800Y007585D02*
X004700Y007585D01*
X004700Y007684D02*
X004800Y007684D01*
X004408Y008570D02*
X003692Y008570D01*
X003788Y008669D02*
X004312Y008669D01*
X004312Y008767D02*
X003788Y008767D01*
X003788Y008866D02*
X004312Y008866D01*
X004312Y008964D02*
X003788Y008964D01*
X003788Y009063D02*
X004312Y009063D01*
X004312Y009161D02*
X003788Y009161D01*
X003788Y009260D02*
X004312Y009260D01*
X004312Y009358D02*
X003788Y009358D01*
X003722Y009457D02*
X004378Y009457D01*
X004745Y009555D02*
X003867Y009555D01*
X003968Y009654D02*
X004843Y009654D01*
X004942Y009752D02*
X004674Y009752D01*
X004892Y009851D02*
X005032Y009851D01*
X004991Y009949D02*
X005112Y009949D01*
X004426Y009752D02*
X004049Y009752D01*
X004090Y009851D02*
X004208Y009851D01*
X003541Y011052D02*
X005876Y011052D01*
X005950Y011079D01*
X005541Y011552D02*
X003076Y011552D01*
X003050Y011579D01*
X003541Y012052D02*
X005926Y012052D01*
X005950Y012029D01*
X005976Y009161D02*
X006017Y009161D01*
X006700Y007144D02*
X007015Y005779D01*
X006750Y007129D02*
X006700Y007144D01*
X011400Y010479D02*
X012160Y011039D01*
X013530Y011039D01*
X013421Y009063D02*
X013395Y009063D01*
X013472Y008964D02*
X013297Y008964D01*
X013198Y008866D02*
X013596Y008866D01*
X013442Y006206D02*
X013858Y006206D01*
X013916Y006009D02*
X013384Y006009D01*
X013483Y005911D02*
X013817Y005911D01*
X019550Y008669D02*
X020423Y008669D01*
X020423Y008767D02*
X019550Y008767D01*
X016770Y012419D02*
X016240Y012419D01*
X016100Y012279D01*
X016770Y012419D02*
X016770Y012619D01*
X017656Y012619D01*
X017656Y012729D01*
X017279Y012904D02*
X017230Y012904D01*
X017279Y013003D02*
X017161Y013003D01*
X017119Y013101D02*
X017368Y013101D01*
X017263Y013200D02*
X017622Y013200D01*
X017580Y013298D02*
X017323Y013298D01*
X017348Y013397D02*
X017578Y013397D01*
X017580Y013495D02*
X017348Y013495D01*
X017308Y013594D02*
X017580Y013594D01*
X017000Y013429D02*
X016770Y013349D01*
X016770Y012809D01*
X001102Y009358D02*
X001002Y009358D01*
X001002Y009260D02*
X001102Y009260D01*
X000626Y009260D02*
X000360Y009260D01*
X000360Y009358D02*
X000636Y009358D01*
X000626Y009161D02*
X000360Y009161D01*
X001002Y008964D02*
X001102Y008964D01*
X001102Y008866D02*
X001002Y008866D01*
X001002Y008767D02*
X001102Y008767D01*
X001102Y008669D02*
X001002Y008669D01*
D48*
X006550Y012529D03*
X004650Y013779D03*
X006700Y014279D03*
X008700Y015179D03*
X011500Y011829D03*
X010700Y011629D03*
X010700Y010629D03*
X010800Y009779D03*
X011850Y009179D03*
X012100Y010229D03*
X012900Y010179D03*
X013750Y009179D03*
X015400Y009329D03*
X016500Y009129D03*
X016600Y008679D03*
X017300Y008779D03*
X017900Y008329D03*
X018150Y009179D03*
X017250Y010279D03*
X016100Y011029D03*
X016000Y011529D03*
X016100Y012279D03*
X015400Y012679D03*
X014850Y012629D03*
X014400Y012629D03*
X013500Y013229D03*
X013050Y013229D03*
X012750Y012179D03*
X014300Y010829D03*
X014800Y010829D03*
X017000Y013429D03*
X016620Y013849D03*
X015250Y014229D03*
X015250Y015129D03*
X013150Y016029D03*
X013100Y016579D03*
X014800Y017129D03*
X015800Y017129D03*
X016700Y017129D03*
X017500Y017129D03*
X018800Y015379D03*
X019250Y015079D03*
X019650Y014629D03*
X020150Y015229D03*
X019750Y017129D03*
X022150Y017179D03*
X022650Y017179D03*
X022650Y019229D03*
X023150Y019229D03*
X019750Y019379D03*
X017250Y019229D03*
X016850Y020329D03*
X019150Y023729D03*
X022150Y023729D03*
X026300Y023879D03*
X026150Y015879D03*
X025650Y015729D03*
X024650Y013229D03*
X024500Y011979D03*
X022100Y010229D03*
X022300Y009529D03*
X022850Y009279D03*
X024350Y008579D03*
X024800Y008579D03*
X025250Y008579D03*
X025850Y006329D03*
X020600Y007879D03*
X020600Y008279D03*
X020200Y008279D03*
X020200Y007879D03*
X017400Y007129D03*
X016550Y006879D03*
X012300Y007329D03*
X011800Y007329D03*
X011050Y007279D03*
X008750Y010529D03*
X008650Y011379D03*
X012800Y014429D03*
X011150Y019229D03*
X011650Y023579D03*
X021800Y012979D03*
X019600Y012629D03*
D49*
X016300Y015629D02*
X016100Y015629D01*
X015250Y015129D01*
X016300Y015629D02*
X016700Y017129D01*
X013650Y013829D02*
X013950Y013529D01*
X014660Y012829D02*
X014660Y012729D01*
X014400Y012629D01*
X009600Y014979D02*
X008200Y014279D01*
X006700Y014279D01*
X006576Y012552D02*
X005541Y012552D01*
X005509Y012584D01*
X004600Y012584D01*
X004600Y013273D02*
X003762Y013273D01*
X003541Y013052D01*
X004600Y013273D02*
X004600Y014284D01*
X004600Y014973D02*
X004071Y015002D01*
X003541Y015052D01*
X006550Y012529D02*
X006576Y012552D01*
X009600Y014979D02*
X009600Y016229D01*
X009600Y017179D01*
X010000Y017579D01*
X023650Y017579D01*
X026050Y017579D01*
X025700Y017229D01*
X025650Y017229D01*
X026050Y017579D02*
X026850Y018229D01*
X027550Y018229D01*
X021500Y020729D02*
X021300Y020729D01*
X021500Y020929D01*
X013800Y021952D02*
X013300Y021952D01*
X003750Y019679D02*
X003600Y019529D01*
X003600Y018379D01*
X017615Y006038D02*
X017756Y006179D01*
X017615Y006038D02*
X017615Y005379D01*
X017615Y005213D01*
X018285Y005379D02*
X018285Y005920D01*
X018544Y006179D01*
X019331Y006179D02*
X019635Y005875D01*
X019635Y005379D01*
X018965Y005379D02*
X018965Y005044D01*
X021400Y005131D02*
X022400Y005131D01*
X023400Y005131D01*
X024150Y005131D01*
X024400Y005131D01*
X024400Y005229D01*
X024800Y005679D01*
X025150Y006729D01*
X026144Y007623D01*
X024400Y007579D02*
X024400Y006627D01*
X023400Y006627D02*
X023400Y007579D01*
X022400Y007579D02*
X022400Y006627D01*
X021400Y006627D02*
X021400Y007579D01*
X020600Y008279D02*
X020200Y008279D01*
X020600Y008279D02*
X020713Y008441D01*
X020713Y008832D01*
D50*
X021106Y008832D02*
X021106Y007822D01*
X021400Y007579D01*
X021500Y008429D02*
X022400Y007579D01*
X022200Y008229D02*
X022750Y008229D01*
X023400Y007579D01*
X023250Y008279D02*
X023700Y008279D01*
X024400Y007579D01*
X023250Y008279D02*
X022697Y008832D01*
X022287Y008832D01*
X021894Y008832D02*
X021894Y008535D01*
X022200Y008229D01*
X021500Y008429D02*
X021500Y008832D01*
X022300Y009529D02*
X022291Y010232D01*
X022287Y010466D01*
X022287Y010926D01*
X022834Y010479D01*
X023290Y010479D01*
X023290Y010979D02*
X024100Y010979D01*
X024100Y009813D01*
X024900Y009813D02*
X024900Y010879D01*
X024300Y011479D01*
X023290Y011479D01*
X023290Y011979D02*
X024500Y011979D01*
X025710Y011979D02*
X026200Y011979D01*
X026550Y011429D01*
X026900Y010929D01*
X026400Y010679D02*
X026550Y010279D01*
X026900Y009829D01*
X026150Y009729D02*
X027050Y008829D01*
X026900Y008829D01*
X026900Y008229D02*
X027600Y008429D01*
X027800Y008429D01*
X027900Y008829D01*
X026900Y008229D02*
X026650Y008079D01*
X026144Y007623D01*
X026150Y009729D02*
X026150Y010189D01*
X025710Y010479D01*
X025710Y010979D02*
X026200Y010979D01*
X026400Y010679D01*
X026900Y011929D02*
X026350Y012479D01*
X025710Y012479D01*
X025710Y012979D02*
X026950Y012979D01*
X026900Y013029D01*
X026350Y013479D02*
X026900Y014029D01*
X027350Y014579D02*
X027900Y015129D01*
X027350Y014579D02*
X025250Y014579D01*
X024150Y013479D01*
X023290Y013479D01*
X023290Y013979D02*
X023900Y013979D01*
X025050Y015129D01*
X026900Y015129D01*
X025710Y013979D02*
X025400Y013979D01*
X024650Y013229D01*
X025710Y013479D02*
X026350Y013479D01*
X021800Y012979D02*
X021800Y012079D01*
X021400Y012079D01*
X020150Y015229D02*
X020150Y016079D01*
X019750Y017129D01*
X019750Y019379D02*
X019900Y019379D01*
X020550Y020029D01*
X020550Y022129D01*
X020450Y022229D01*
X020130Y022229D01*
X019720Y022489D01*
X019944Y022414D01*
X019944Y023229D01*
X019720Y022489D02*
X020030Y022329D01*
X018800Y022329D01*
X018450Y022679D01*
X018450Y023229D01*
X019256Y023229D02*
X019256Y023623D01*
X019150Y023729D01*
X021500Y021929D02*
X022550Y021534D01*
X022550Y022223D02*
X022599Y022995D01*
X019720Y020669D02*
X019540Y020469D01*
X019100Y019879D01*
X019100Y019479D01*
X018950Y019329D01*
X018050Y019329D01*
X017650Y019629D01*
X017450Y019834D01*
X017494Y020429D02*
X017450Y020523D01*
X017656Y021429D01*
X017700Y020429D02*
X017494Y020429D01*
X017700Y020429D02*
X018250Y019729D01*
X018300Y019879D01*
X013300Y021129D02*
X013300Y021952D01*
X013300Y021129D02*
X013100Y020929D01*
X012650Y020929D01*
X011950Y021629D01*
X011950Y021729D01*
X011805Y021584D01*
X010900Y021584D01*
X010900Y022174D02*
X010900Y022894D01*
X010900Y023563D02*
X010915Y023579D01*
X011650Y023579D01*
X012100Y024029D01*
X013200Y024029D01*
X013200Y023623D01*
X013244Y023579D01*
X011950Y021729D02*
X011900Y021644D01*
X011800Y020779D02*
X011574Y020791D01*
X011800Y020779D02*
X012100Y020291D01*
X012315Y020291D01*
X012800Y019905D01*
X011900Y019279D02*
X011574Y019279D01*
X011574Y019767D01*
X011200Y019767D02*
X011200Y019279D01*
X011150Y019229D01*
X009850Y020279D02*
X008462Y020291D01*
X008050Y019829D01*
X008950Y018829D02*
X008950Y018579D01*
X009150Y018379D01*
X008950Y018179D01*
X008950Y017829D01*
X008950Y018029D01*
X009150Y018229D01*
X009150Y018379D01*
X008950Y017829D02*
X008950Y017063D01*
X008950Y016394D02*
X008700Y016144D01*
X008700Y015179D01*
X006300Y013529D02*
X005565Y013529D01*
X005541Y013552D01*
X006300Y013529D02*
X007300Y012479D01*
X008100Y012479D01*
X008800Y012179D01*
X009050Y012179D01*
X009350Y011886D01*
X009604Y011886D01*
X009604Y011571D02*
X009157Y011571D01*
X008900Y011829D01*
X008650Y011829D01*
X008100Y012029D01*
X005950Y012029D01*
X005541Y011552D02*
X007576Y011552D01*
X008100Y011529D01*
X008550Y011429D01*
X008650Y011379D01*
X008572Y010956D02*
X008000Y011079D01*
X005950Y011079D01*
X007450Y012829D02*
X005900Y014529D01*
X005600Y014529D01*
X005541Y014552D01*
X003541Y014052D02*
X002850Y013361D01*
X002850Y011779D01*
X003050Y011579D01*
X001052Y009029D02*
X001052Y008481D01*
X001050Y008429D01*
X003550Y008429D01*
X004750Y007129D01*
X008750Y010529D02*
X009515Y010629D01*
X009604Y011256D02*
X009200Y011229D01*
X008850Y010956D01*
X008572Y010956D01*
X009500Y012201D02*
X009300Y012429D01*
X008350Y012829D01*
X007450Y012829D01*
X009500Y012201D02*
X009604Y012201D01*
X010185Y009779D02*
X010800Y009779D01*
X013550Y007579D02*
X013650Y007479D01*
X013650Y006929D01*
X012150Y005579D02*
X012000Y005579D01*
X011350Y004929D01*
X010750Y004929D01*
X010050Y005629D01*
X017615Y005213D02*
X017950Y004979D01*
X018950Y004979D01*
X018965Y005044D01*
X018950Y004979D02*
X020135Y004979D01*
X020150Y006094D01*
X020615Y006513D02*
X020600Y005479D01*
X021050Y005481D01*
X021400Y005131D01*
X020615Y006513D02*
X020150Y006763D01*
X017900Y006679D02*
X017900Y008329D01*
X017900Y006679D02*
X017756Y006635D01*
X017756Y006179D01*
X015150Y012229D02*
X014950Y012229D01*
X014900Y012179D01*
X015150Y012229D02*
X015400Y012479D01*
X015400Y012679D01*
X013650Y013829D02*
X013494Y013834D01*
X013350Y013734D01*
X008150Y018229D02*
X008100Y018179D01*
X008150Y018229D02*
X008150Y018379D01*
X009850Y020279D02*
X010400Y020791D01*
X010826Y020791D01*
D51*
X011900Y019279D02*
X011900Y019129D01*
X016750Y019129D01*
X016900Y019229D01*
X017250Y019229D01*
X016850Y020329D02*
X016550Y020679D01*
X016550Y021979D01*
X016000Y022529D01*
X014950Y022529D01*
X014550Y022929D01*
X013235Y022929D01*
X014550Y017129D02*
X014800Y017129D01*
X014550Y017129D02*
X013850Y016479D01*
X013500Y016079D02*
X013400Y016029D01*
X013150Y016029D01*
X013500Y016079D02*
X014250Y016079D01*
X014250Y015629D01*
X014650Y016479D02*
X015400Y017129D01*
X015800Y017129D01*
X017500Y017129D02*
X018450Y016129D01*
X018450Y015729D01*
X018800Y015379D01*
X017985Y015579D02*
X017985Y015039D01*
X017994Y014929D01*
X017985Y014279D02*
X018770Y014379D01*
X019050Y014099D01*
X019300Y013729D02*
X019650Y014073D01*
X019806Y014229D01*
X019300Y013729D02*
X018250Y013729D01*
X019050Y013359D02*
X019624Y013359D01*
X019650Y013384D01*
X020500Y013394D02*
X020500Y012779D01*
X019550Y011829D01*
X019650Y011629D02*
X020750Y012729D01*
X020750Y013279D01*
X020850Y013429D01*
X021285Y013429D01*
X021550Y013894D01*
X021550Y014563D02*
X021600Y014679D01*
X022650Y015729D01*
X022650Y017179D01*
X022150Y017179D02*
X022150Y015663D01*
X021500Y015029D01*
X020750Y014879D01*
X020750Y014563D01*
X020750Y013894D02*
X020500Y013394D01*
X021150Y012479D02*
X021400Y012479D01*
X021150Y012479D02*
X020650Y011979D01*
X019750Y011429D01*
X019910Y011239D02*
X020900Y011679D01*
X021400Y011679D01*
X021500Y010926D02*
X021500Y010629D01*
X021050Y010179D01*
X020200Y010179D01*
X020057Y010321D01*
X018896Y010321D01*
X018896Y010006D02*
X019972Y010006D01*
X020100Y009879D01*
X021150Y009879D01*
X021900Y010629D01*
X021900Y010882D01*
X021894Y010926D01*
X022250Y011479D02*
X022700Y011329D01*
X022700Y011179D01*
X022900Y010979D01*
X023290Y010979D01*
X023290Y011479D02*
X023290Y011529D01*
X022950Y011529D01*
X022650Y011679D01*
X022650Y012029D01*
X022250Y012429D01*
X022250Y012479D01*
X022250Y011679D02*
X022250Y011479D01*
X021106Y010926D02*
X021100Y010919D01*
X021100Y010629D01*
X020900Y010429D01*
X020450Y010429D01*
X020243Y010636D01*
X018896Y010636D01*
X018896Y010951D02*
X020663Y010951D01*
X020713Y010926D01*
X022100Y010229D02*
X022237Y010229D01*
X022291Y010232D01*
X022850Y009279D02*
X022994Y009134D01*
X023400Y009134D01*
X024100Y009144D02*
X024100Y009079D01*
X025250Y008579D01*
X024900Y008779D01*
X024900Y009144D01*
X023400Y009823D02*
X023400Y010369D01*
X023290Y010479D01*
X025850Y006329D02*
X025850Y005724D01*
X025850Y005134D02*
X024153Y005134D01*
X024150Y005131D01*
X018404Y010321D02*
X018157Y010321D01*
X018193Y010636D02*
X018404Y010636D01*
X018404Y010951D02*
X018316Y011039D01*
X015994Y008829D02*
X016144Y008679D01*
X016600Y008679D01*
X014460Y009289D02*
X013750Y009179D01*
X011850Y009179D02*
X011850Y008563D01*
X011850Y007894D02*
X011750Y007894D01*
X011800Y007329D01*
X011050Y007279D02*
X011000Y007844D01*
X011050Y007894D01*
X010650Y008179D02*
X010200Y008629D01*
X010050Y008629D01*
X010650Y008179D02*
X010650Y006079D01*
X011150Y005579D01*
X013500Y005129D02*
X013700Y004929D01*
X015815Y004929D01*
X016215Y005329D01*
X016885Y005329D02*
X017615Y005379D01*
X013650Y005829D02*
X013650Y006279D01*
X011050Y008563D02*
X011050Y009329D01*
X011400Y009679D01*
X011400Y010479D01*
X009515Y010629D02*
X009515Y009779D01*
X004650Y013779D02*
X004650Y014334D01*
X004600Y014284D01*
X009600Y016229D02*
X011150Y016229D01*
X011159Y016238D01*
X011159Y016679D01*
X012341Y016679D02*
X012750Y016229D01*
X013100Y016579D01*
X015250Y015129D02*
X015315Y015013D01*
X016650Y015013D01*
X016650Y014344D02*
X016915Y014344D01*
X013400Y014429D02*
X012800Y014429D01*
X013350Y014423D02*
X013400Y014429D01*
X020550Y018079D02*
X020550Y019079D01*
X020550Y018379D02*
X020550Y018079D01*
X020550Y018379D02*
X021500Y018379D01*
X022650Y019229D02*
X022750Y019329D01*
X022750Y019579D01*
X022850Y019679D01*
X022850Y021029D01*
X023650Y021829D01*
X024000Y022079D01*
X024000Y023079D02*
X023805Y023274D01*
X023805Y023929D01*
X025635Y023879D02*
X026300Y023879D01*
X024000Y021079D02*
X023500Y021079D01*
X023150Y020729D01*
X023150Y019229D01*
D52*
X021350Y020079D02*
X021500Y020929D01*
X025100Y023079D02*
X025350Y022879D01*
X014300Y021952D02*
X013800Y021952D01*
X007848Y010379D02*
X007800Y009831D01*
X007500Y009429D01*
X006450Y008081D02*
X005652Y008031D01*
X004750Y007129D01*
X020200Y007879D02*
X020600Y007879D01*
X020200Y007879D02*
X020200Y008279D01*
D53*
X027900Y008829D02*
X027900Y009829D01*
X027900Y010929D01*
X027900Y011929D01*
X027900Y013029D01*
X027900Y014029D01*
X028050Y014229D01*
X028850Y015029D01*
X029000Y015729D01*
X029000Y018979D01*
X028200Y019529D01*
X028000Y020579D02*
X025900Y020579D01*
X025650Y017229D02*
X026150Y015879D01*
X026900Y016129D02*
X027900Y016129D01*
X028700Y016129D01*
X029000Y015729D01*
X008700Y015179D02*
X008650Y015129D01*
X008350Y014979D01*
X008048Y014979D01*
X008048Y015779D02*
X008100Y018179D01*
X006098Y017329D02*
X005541Y016552D01*
X005541Y015552D02*
X004600Y015879D01*
X005541Y015552D02*
X006552Y015779D01*
X006552Y014979D01*
X003541Y015052D02*
X003517Y015029D01*
X003100Y015029D01*
X003541Y016052D02*
X004082Y017294D01*
X003848Y017279D01*
X004082Y017294D02*
X004602Y017329D01*
X003541Y016052D02*
X002576Y016302D01*
X002600Y016279D01*
X002352Y017279D02*
X001918Y018219D01*
X007470Y021729D02*
X007850Y021579D01*
X005541Y010552D02*
X004550Y010329D01*
X003541Y010052D02*
X002624Y010052D01*
X002600Y010029D01*
X002548Y009029D01*
X003302Y009029D01*
X001052Y009029D02*
X001100Y010529D01*
D54*
X004798Y009029D02*
X005322Y009552D01*
X005541Y009552D01*
X005715Y010379D02*
X006352Y010379D01*
X006450Y010377D01*
X006450Y009577D01*
X005715Y010379D02*
X005541Y010552D01*
X027550Y018229D02*
X028200Y018879D01*
X028200Y019529D01*
X028200Y020529D01*
X028000Y020579D01*
D55*
X025900Y020579D02*
X025550Y021029D01*
X025350Y021879D01*
X025100Y023079D02*
X024000Y023079D01*
X022599Y022995D01*
X021500Y022929D01*
D56*
X021500Y020729D02*
X021500Y018379D01*
X025600Y018379D01*
X026050Y018729D01*
X026050Y019379D01*
X026200Y019529D01*
X021500Y018379D02*
X009150Y018379D01*
X008150Y018379D01*
X008050Y018379D01*
X003600Y018379D01*
X001950Y018229D01*
X001918Y018219D01*
X001228Y017637D01*
X001100Y017529D01*
X001100Y017229D01*
X001100Y015029D01*
X003100Y015029D01*
X001100Y015029D02*
X001100Y010529D01*
X008050Y018379D02*
X008050Y019829D01*
X008100Y021579D02*
X009300Y021479D01*
X008100Y021579D02*
X007850Y021579D01*
D57*
X012800Y019905D02*
X013300Y019905D01*
X013800Y019905D01*
X014300Y019905D01*
X015026Y019805D01*
X015050Y019829D01*
X015500Y021479D02*
X014176Y021552D01*
X014300Y021952D01*
M02*
