G75*
%MOIN*%
%OFA0B0*%
%FSLAX24Y24*%
%IPPOS*%
%LPD*%
%AMOC8*
5,1,8,0,0,1.08239X$1,22.5*
%
%ADD10C,0.0000*%
%ADD11C,0.0480*%
%ADD12R,0.0413X0.0425*%
%ADD13OC8,0.0500*%
%ADD14C,0.0500*%
%ADD15C,0.1000*%
%ADD16OC8,0.1000*%
%ADD17OC8,0.0600*%
%ADD18R,0.0394X0.0433*%
%ADD19OC8,0.1500*%
%ADD20C,0.0600*%
%ADD21C,0.0740*%
%ADD22C,0.0600*%
%ADD23R,0.0425X0.0413*%
%ADD24R,0.0433X0.0394*%
%ADD25R,0.0740X0.0740*%
%ADD26OC8,0.0480*%
%ADD27R,0.0551X0.0551*%
%ADD28R,0.0500X0.0500*%
%ADD29C,0.0748*%
%ADD30R,0.0217X0.0472*%
%ADD31C,0.0630*%
%ADD32C,0.1400*%
%ADD33R,0.1575X0.0630*%
%ADD34C,0.0500*%
%ADD35C,0.0356*%
%ADD36C,0.0100*%
%ADD37C,0.0240*%
%ADD38C,0.0320*%
%ADD39C,0.0160*%
%ADD40C,0.1000*%
%ADD41C,0.0120*%
%ADD42C,0.0400*%
D10*
X000150Y004729D02*
X000150Y024329D01*
X029450Y024329D01*
X029450Y004729D01*
X000150Y004729D01*
X001528Y006697D02*
X001530Y006745D01*
X001536Y006793D01*
X001546Y006840D01*
X001559Y006886D01*
X001577Y006931D01*
X001597Y006975D01*
X001622Y007017D01*
X001650Y007056D01*
X001680Y007093D01*
X001714Y007127D01*
X001751Y007159D01*
X001789Y007188D01*
X001830Y007213D01*
X001873Y007235D01*
X001918Y007253D01*
X001964Y007267D01*
X002011Y007278D01*
X002059Y007285D01*
X002107Y007288D01*
X002155Y007287D01*
X002203Y007282D01*
X002251Y007273D01*
X002297Y007261D01*
X002342Y007244D01*
X002386Y007224D01*
X002428Y007201D01*
X002468Y007174D01*
X002506Y007144D01*
X002541Y007111D01*
X002573Y007075D01*
X002603Y007037D01*
X002629Y006996D01*
X002651Y006953D01*
X002671Y006909D01*
X002686Y006864D01*
X002698Y006817D01*
X002706Y006769D01*
X002710Y006721D01*
X002710Y006673D01*
X002706Y006625D01*
X002698Y006577D01*
X002686Y006530D01*
X002671Y006485D01*
X002651Y006441D01*
X002629Y006398D01*
X002603Y006357D01*
X002573Y006319D01*
X002541Y006283D01*
X002506Y006250D01*
X002468Y006220D01*
X002428Y006193D01*
X002386Y006170D01*
X002342Y006150D01*
X002297Y006133D01*
X002251Y006121D01*
X002203Y006112D01*
X002155Y006107D01*
X002107Y006106D01*
X002059Y006109D01*
X002011Y006116D01*
X001964Y006127D01*
X001918Y006141D01*
X001873Y006159D01*
X001830Y006181D01*
X001789Y006206D01*
X001751Y006235D01*
X001714Y006267D01*
X001680Y006301D01*
X001650Y006338D01*
X001622Y006377D01*
X001597Y006419D01*
X001577Y006463D01*
X001559Y006508D01*
X001546Y006554D01*
X001536Y006601D01*
X001530Y006649D01*
X001528Y006697D01*
X001528Y022445D02*
X001530Y022493D01*
X001536Y022541D01*
X001546Y022588D01*
X001559Y022634D01*
X001577Y022679D01*
X001597Y022723D01*
X001622Y022765D01*
X001650Y022804D01*
X001680Y022841D01*
X001714Y022875D01*
X001751Y022907D01*
X001789Y022936D01*
X001830Y022961D01*
X001873Y022983D01*
X001918Y023001D01*
X001964Y023015D01*
X002011Y023026D01*
X002059Y023033D01*
X002107Y023036D01*
X002155Y023035D01*
X002203Y023030D01*
X002251Y023021D01*
X002297Y023009D01*
X002342Y022992D01*
X002386Y022972D01*
X002428Y022949D01*
X002468Y022922D01*
X002506Y022892D01*
X002541Y022859D01*
X002573Y022823D01*
X002603Y022785D01*
X002629Y022744D01*
X002651Y022701D01*
X002671Y022657D01*
X002686Y022612D01*
X002698Y022565D01*
X002706Y022517D01*
X002710Y022469D01*
X002710Y022421D01*
X002706Y022373D01*
X002698Y022325D01*
X002686Y022278D01*
X002671Y022233D01*
X002651Y022189D01*
X002629Y022146D01*
X002603Y022105D01*
X002573Y022067D01*
X002541Y022031D01*
X002506Y021998D01*
X002468Y021968D01*
X002428Y021941D01*
X002386Y021918D01*
X002342Y021898D01*
X002297Y021881D01*
X002251Y021869D01*
X002203Y021860D01*
X002155Y021855D01*
X002107Y021854D01*
X002059Y021857D01*
X002011Y021864D01*
X001964Y021875D01*
X001918Y021889D01*
X001873Y021907D01*
X001830Y021929D01*
X001789Y021954D01*
X001751Y021983D01*
X001714Y022015D01*
X001680Y022049D01*
X001650Y022086D01*
X001622Y022125D01*
X001597Y022167D01*
X001577Y022211D01*
X001559Y022256D01*
X001546Y022302D01*
X001536Y022349D01*
X001530Y022397D01*
X001528Y022445D01*
X027118Y022445D02*
X027120Y022493D01*
X027126Y022541D01*
X027136Y022588D01*
X027149Y022634D01*
X027167Y022679D01*
X027187Y022723D01*
X027212Y022765D01*
X027240Y022804D01*
X027270Y022841D01*
X027304Y022875D01*
X027341Y022907D01*
X027379Y022936D01*
X027420Y022961D01*
X027463Y022983D01*
X027508Y023001D01*
X027554Y023015D01*
X027601Y023026D01*
X027649Y023033D01*
X027697Y023036D01*
X027745Y023035D01*
X027793Y023030D01*
X027841Y023021D01*
X027887Y023009D01*
X027932Y022992D01*
X027976Y022972D01*
X028018Y022949D01*
X028058Y022922D01*
X028096Y022892D01*
X028131Y022859D01*
X028163Y022823D01*
X028193Y022785D01*
X028219Y022744D01*
X028241Y022701D01*
X028261Y022657D01*
X028276Y022612D01*
X028288Y022565D01*
X028296Y022517D01*
X028300Y022469D01*
X028300Y022421D01*
X028296Y022373D01*
X028288Y022325D01*
X028276Y022278D01*
X028261Y022233D01*
X028241Y022189D01*
X028219Y022146D01*
X028193Y022105D01*
X028163Y022067D01*
X028131Y022031D01*
X028096Y021998D01*
X028058Y021968D01*
X028018Y021941D01*
X027976Y021918D01*
X027932Y021898D01*
X027887Y021881D01*
X027841Y021869D01*
X027793Y021860D01*
X027745Y021855D01*
X027697Y021854D01*
X027649Y021857D01*
X027601Y021864D01*
X027554Y021875D01*
X027508Y021889D01*
X027463Y021907D01*
X027420Y021929D01*
X027379Y021954D01*
X027341Y021983D01*
X027304Y022015D01*
X027270Y022049D01*
X027240Y022086D01*
X027212Y022125D01*
X027187Y022167D01*
X027167Y022211D01*
X027149Y022256D01*
X027136Y022302D01*
X027126Y022349D01*
X027120Y022397D01*
X027118Y022445D01*
X027118Y006697D02*
X027120Y006745D01*
X027126Y006793D01*
X027136Y006840D01*
X027149Y006886D01*
X027167Y006931D01*
X027187Y006975D01*
X027212Y007017D01*
X027240Y007056D01*
X027270Y007093D01*
X027304Y007127D01*
X027341Y007159D01*
X027379Y007188D01*
X027420Y007213D01*
X027463Y007235D01*
X027508Y007253D01*
X027554Y007267D01*
X027601Y007278D01*
X027649Y007285D01*
X027697Y007288D01*
X027745Y007287D01*
X027793Y007282D01*
X027841Y007273D01*
X027887Y007261D01*
X027932Y007244D01*
X027976Y007224D01*
X028018Y007201D01*
X028058Y007174D01*
X028096Y007144D01*
X028131Y007111D01*
X028163Y007075D01*
X028193Y007037D01*
X028219Y006996D01*
X028241Y006953D01*
X028261Y006909D01*
X028276Y006864D01*
X028288Y006817D01*
X028296Y006769D01*
X028300Y006721D01*
X028300Y006673D01*
X028296Y006625D01*
X028288Y006577D01*
X028276Y006530D01*
X028261Y006485D01*
X028241Y006441D01*
X028219Y006398D01*
X028193Y006357D01*
X028163Y006319D01*
X028131Y006283D01*
X028096Y006250D01*
X028058Y006220D01*
X028018Y006193D01*
X027976Y006170D01*
X027932Y006150D01*
X027887Y006133D01*
X027841Y006121D01*
X027793Y006112D01*
X027745Y006107D01*
X027697Y006106D01*
X027649Y006109D01*
X027601Y006116D01*
X027554Y006127D01*
X027508Y006141D01*
X027463Y006159D01*
X027420Y006181D01*
X027379Y006206D01*
X027341Y006235D01*
X027304Y006267D01*
X027270Y006301D01*
X027240Y006338D01*
X027212Y006377D01*
X027187Y006419D01*
X027167Y006463D01*
X027149Y006508D01*
X027136Y006554D01*
X027126Y006601D01*
X027120Y006649D01*
X027118Y006697D01*
D11*
X011750Y013629D03*
X009850Y013629D03*
D12*
X009756Y012829D03*
X010444Y012829D03*
X011006Y012829D03*
X011694Y012829D03*
D13*
X014200Y007979D03*
X019100Y019879D03*
X017650Y023229D03*
D14*
X018450Y023229D03*
X018300Y019879D03*
X014200Y008779D03*
X016969Y006179D03*
X017756Y006179D03*
X018544Y006179D03*
D15*
X004750Y007129D03*
X003750Y019679D03*
D16*
X005750Y019679D03*
X006750Y007129D03*
D17*
X011150Y006579D03*
X012150Y006579D03*
X013150Y006579D03*
X014150Y006579D03*
X015150Y006579D03*
X015150Y005579D03*
X014150Y005579D03*
X013150Y005579D03*
X012150Y005579D03*
X011150Y005579D03*
X026900Y009829D03*
X027900Y009829D03*
X028900Y009829D03*
X028900Y008829D03*
X027900Y008829D03*
X027900Y010929D03*
X028900Y010929D03*
X028900Y011929D03*
X027900Y011929D03*
X026900Y011929D03*
X027900Y013029D03*
X028900Y013029D03*
X028900Y014029D03*
X027900Y014029D03*
X026900Y014029D03*
X026900Y015129D03*
X026900Y016129D03*
X027900Y016129D03*
X027900Y017129D03*
X026900Y017129D03*
X015050Y019829D03*
X008050Y019829D03*
D18*
X017515Y015229D03*
X018185Y015229D03*
D19*
X015500Y021479D03*
X015500Y023479D03*
X009300Y023479D03*
X009300Y021479D03*
D20*
X021200Y021929D02*
X021800Y021929D01*
X021800Y022929D02*
X021200Y022929D01*
X021200Y020929D02*
X021800Y020929D01*
X023700Y021079D02*
X024300Y021079D01*
X024300Y022079D02*
X023700Y022079D01*
X023700Y023079D02*
X024300Y023079D01*
X024300Y020079D02*
X023700Y020079D01*
X026200Y019829D02*
X026200Y019229D01*
X027200Y019229D02*
X027200Y019829D01*
X028200Y019829D02*
X028200Y019229D01*
D21*
X025350Y021879D03*
X025350Y022879D03*
X015950Y020179D03*
X015650Y016229D03*
X019550Y009379D03*
X021400Y007579D03*
X022400Y007579D03*
X023400Y007579D03*
X010050Y007629D03*
X010050Y008629D03*
X010050Y006629D03*
X007500Y009429D03*
X004550Y010329D03*
X002600Y010029D03*
X004600Y015879D03*
X002600Y016279D03*
X001800Y019429D03*
X001800Y020429D03*
X006330Y021729D03*
X007470Y021729D03*
X006650Y016579D03*
D22*
X026900Y013029D03*
X027900Y015129D03*
X026900Y010929D03*
X026900Y008829D03*
D23*
X021450Y009434D03*
X021450Y010123D03*
X018300Y012584D03*
X018300Y013273D03*
X018300Y013884D03*
X018300Y014573D03*
X014950Y012023D03*
X014300Y012023D03*
X014300Y011334D03*
X014950Y011334D03*
D24*
X016750Y011544D03*
X016750Y012213D03*
X017650Y012694D03*
X017650Y013363D03*
X017650Y013894D03*
X017650Y014563D03*
X018950Y014563D03*
X018950Y013894D03*
X018950Y013363D03*
X018950Y012694D03*
X025850Y005763D03*
X025850Y005094D03*
D25*
X024400Y007579D03*
X010050Y005629D03*
D26*
X002100Y014479D03*
X002100Y015479D03*
X001650Y017279D03*
X000650Y017279D03*
X007150Y019529D03*
X007150Y020529D03*
X008950Y018829D03*
X008950Y017829D03*
X010300Y016779D03*
X010300Y015779D03*
X020550Y018079D03*
X020550Y019079D03*
X021200Y016729D03*
X021200Y015729D03*
X024650Y015729D03*
X024650Y016729D03*
D27*
X024400Y006627D03*
X023400Y006627D03*
X022400Y006627D03*
X021400Y006627D03*
X021400Y005131D03*
X022400Y005131D03*
X023400Y005131D03*
X024400Y005131D03*
D28*
X019331Y006179D03*
D29*
X005541Y009552D03*
X005541Y010552D03*
X005541Y011552D03*
X005541Y012552D03*
X005541Y013552D03*
X005541Y014552D03*
X005541Y015552D03*
X005541Y016552D03*
X003541Y016052D03*
X003541Y015052D03*
X003541Y014052D03*
X003541Y013052D03*
X003541Y012052D03*
X003541Y011052D03*
X003541Y010052D03*
D30*
X018376Y008491D03*
X019124Y008491D03*
X019124Y007467D03*
X018750Y007467D03*
X018376Y007467D03*
D31*
X000700Y018629D03*
X000700Y020129D03*
D32*
X004850Y023329D03*
X006850Y023329D03*
D33*
X023199Y010229D03*
X025601Y010229D03*
D34*
X025650Y011229D02*
X025650Y015679D01*
X026900Y016129D01*
X025650Y015729D01*
X026150Y015879D01*
X026900Y017129D02*
X027250Y017179D01*
X027162Y018226D01*
X027200Y019529D01*
X026900Y017129D02*
X027900Y017129D01*
X028700Y017129D01*
X028900Y016579D01*
X028900Y014029D01*
X028900Y013029D01*
X028900Y011929D01*
X028900Y010929D01*
X028900Y009829D01*
X028900Y009329D01*
X028900Y008829D01*
X024350Y008579D02*
X023700Y010079D01*
X024000Y015729D02*
X024000Y020079D01*
X008700Y016273D02*
X008700Y015179D01*
X006100Y016529D02*
X006100Y016552D01*
X005541Y016552D01*
X005541Y009552D02*
X006100Y009552D01*
X005600Y009429D01*
D35*
X008650Y011379D03*
X008750Y010529D03*
X010700Y010629D03*
X010800Y009779D03*
X011850Y009179D03*
X012100Y010229D03*
X012900Y010179D03*
X013750Y009179D03*
X015400Y009329D03*
X016500Y009129D03*
X016600Y008679D03*
X017300Y008779D03*
X017900Y008329D03*
X018150Y009179D03*
X017250Y010279D03*
X016100Y011029D03*
X016000Y011529D03*
X016100Y012279D03*
X015400Y012679D03*
X014850Y012629D03*
X014400Y012629D03*
X013500Y013229D03*
X013050Y013229D03*
X012750Y012179D03*
X011500Y011829D03*
X010700Y011629D03*
X012800Y014429D03*
X013150Y016029D03*
X013100Y016579D03*
X014800Y017129D03*
X015800Y017129D03*
X016700Y017129D03*
X017500Y017129D03*
X018800Y015379D03*
X019250Y015079D03*
X019650Y014629D03*
X020150Y015229D03*
X019750Y017129D03*
X022150Y017179D03*
X022650Y017179D03*
X022650Y019229D03*
X023150Y019229D03*
X019750Y019379D03*
X017250Y019229D03*
X016850Y020329D03*
X019150Y023729D03*
X022150Y023729D03*
X026300Y023879D03*
X026150Y015879D03*
X025650Y015729D03*
X024650Y013229D03*
X024500Y011979D03*
X022100Y010229D03*
X022300Y009529D03*
X022850Y009279D03*
X024350Y008579D03*
X024800Y008579D03*
X025250Y008579D03*
X025850Y006329D03*
X020600Y007879D03*
X020600Y008279D03*
X020200Y008279D03*
X020200Y007879D03*
X017400Y007129D03*
X016550Y006879D03*
X012300Y007329D03*
X011800Y007329D03*
X011050Y007279D03*
X014300Y010829D03*
X014800Y010829D03*
X017000Y013429D03*
X016620Y013849D03*
X015250Y014229D03*
X015250Y015129D03*
X019600Y012629D03*
X021800Y012979D03*
X011150Y019229D03*
X008700Y015179D03*
X006700Y014279D03*
X006550Y012529D03*
X004650Y013779D03*
X011650Y023579D03*
D36*
X010260Y023542D02*
X014540Y023542D01*
X014540Y023444D02*
X010260Y023444D01*
X010260Y023345D02*
X014540Y023345D01*
X014540Y023247D02*
X010260Y023247D01*
X010260Y023148D02*
X014540Y023148D01*
X014540Y023081D02*
X015102Y022519D01*
X015898Y022519D01*
X016460Y023081D01*
X016460Y023876D01*
X016218Y024119D01*
X027049Y024119D01*
X026957Y024092D01*
X026524Y023813D01*
X026186Y023424D01*
X026186Y023424D01*
X025972Y022955D01*
X025899Y022445D01*
X025972Y021935D01*
X026186Y021467D01*
X026524Y021077D01*
X026957Y020799D01*
X026957Y020799D01*
X027451Y020654D01*
X027967Y020654D01*
X028461Y020799D01*
X028894Y021077D01*
X028894Y021077D01*
X028894Y021077D01*
X029232Y021467D01*
X029240Y021485D01*
X029240Y014325D01*
X029086Y014479D01*
X028950Y014479D01*
X028950Y014079D01*
X028850Y014079D01*
X028850Y014479D01*
X028714Y014479D01*
X028450Y014215D01*
X028450Y014079D01*
X028850Y014079D01*
X028850Y013979D01*
X028450Y013979D01*
X028450Y013842D01*
X028714Y013579D01*
X028850Y013579D01*
X028850Y013979D01*
X028950Y013979D01*
X028950Y013579D01*
X029086Y013579D01*
X029240Y013732D01*
X029240Y013325D01*
X029086Y013479D01*
X028950Y013479D01*
X028950Y013079D01*
X028850Y013079D01*
X028850Y013479D01*
X028714Y013479D01*
X028450Y013215D01*
X028450Y013079D01*
X028850Y013079D01*
X028850Y012979D01*
X028450Y012979D01*
X028450Y012842D01*
X028714Y012579D01*
X028850Y012579D01*
X028850Y012979D01*
X028950Y012979D01*
X028950Y012579D01*
X029086Y012579D01*
X029240Y012732D01*
X029240Y012225D01*
X029086Y012379D01*
X028950Y012379D01*
X028950Y011979D01*
X028850Y011979D01*
X028850Y012379D01*
X028714Y012379D01*
X028450Y012115D01*
X028450Y011979D01*
X028850Y011979D01*
X028850Y011879D01*
X028450Y011879D01*
X028450Y011742D01*
X028714Y011479D01*
X028850Y011479D01*
X028850Y011879D01*
X028950Y011879D01*
X028950Y011479D01*
X029086Y011479D01*
X029240Y011632D01*
X029240Y011225D01*
X029086Y011379D01*
X028950Y011379D01*
X028950Y010979D01*
X028850Y010979D01*
X028850Y011379D01*
X028714Y011379D01*
X028450Y011115D01*
X028450Y010979D01*
X028850Y010979D01*
X028850Y010879D01*
X028450Y010879D01*
X028450Y010742D01*
X028714Y010479D01*
X028850Y010479D01*
X028850Y010879D01*
X028950Y010879D01*
X028950Y010479D01*
X029086Y010479D01*
X029240Y010632D01*
X029240Y010125D01*
X029086Y010279D01*
X028950Y010279D01*
X028950Y009879D01*
X028850Y009879D01*
X028850Y010279D01*
X028714Y010279D01*
X028450Y010015D01*
X028450Y009879D01*
X028850Y009879D01*
X028850Y009779D01*
X028450Y009779D01*
X028450Y009642D01*
X028714Y009379D01*
X028850Y009379D01*
X028850Y009779D01*
X028950Y009779D01*
X028950Y009379D01*
X029086Y009379D01*
X029240Y009532D01*
X029240Y009125D01*
X029086Y009279D01*
X028950Y009279D01*
X028950Y008879D01*
X028850Y008879D01*
X028850Y009279D01*
X028714Y009279D01*
X028450Y009015D01*
X028450Y008879D01*
X028850Y008879D01*
X028850Y008779D01*
X028450Y008779D01*
X028450Y008642D01*
X028714Y008379D01*
X028850Y008379D01*
X028850Y008779D01*
X028950Y008779D01*
X028950Y008379D01*
X029086Y008379D01*
X029240Y008532D01*
X029240Y007658D01*
X029232Y007676D01*
X028894Y008065D01*
X028461Y008344D01*
X028461Y008344D01*
X028210Y008417D01*
X028410Y008618D01*
X028410Y009040D01*
X028121Y009329D01*
X028410Y009618D01*
X028410Y010040D01*
X028111Y010339D01*
X027689Y010339D01*
X027400Y010050D01*
X027111Y010339D01*
X026689Y010339D01*
X026529Y010179D01*
X025651Y010179D01*
X025651Y010279D01*
X025551Y010279D01*
X025551Y010694D01*
X024794Y010694D01*
X024755Y010684D01*
X024721Y010664D01*
X024693Y010636D01*
X024674Y010602D01*
X024663Y010564D01*
X024663Y010279D01*
X025551Y010279D01*
X025551Y010179D01*
X025651Y010179D01*
X025651Y009764D01*
X026390Y009764D01*
X026390Y009618D01*
X026689Y009319D01*
X026750Y009319D01*
X026611Y009261D01*
X026468Y009118D01*
X026390Y008930D01*
X026390Y008727D01*
X026468Y008540D01*
X026611Y008396D01*
X026799Y008319D01*
X026918Y008319D01*
X026524Y008065D01*
X026186Y007676D01*
X026186Y007676D01*
X025972Y007207D01*
X025902Y006717D01*
X025773Y006717D01*
X025630Y006658D01*
X025521Y006549D01*
X025462Y006406D01*
X025462Y006252D01*
X025510Y006134D01*
X025423Y006047D01*
X025423Y005480D01*
X025517Y005386D01*
X025513Y005383D01*
X025494Y005349D01*
X025483Y005311D01*
X025483Y005143D01*
X025802Y005143D01*
X025802Y005046D01*
X025483Y005046D01*
X025483Y004939D01*
X024826Y004939D01*
X024826Y005081D01*
X024450Y005081D01*
X024450Y005181D01*
X024350Y005181D01*
X024350Y005556D01*
X024105Y005556D01*
X024067Y005546D01*
X024032Y005526D01*
X024004Y005498D01*
X023985Y005464D01*
X023974Y005426D01*
X023974Y005181D01*
X024350Y005181D01*
X024350Y005081D01*
X023974Y005081D01*
X023974Y004939D01*
X023826Y004939D01*
X023826Y005081D01*
X023450Y005081D01*
X023450Y005181D01*
X023350Y005181D01*
X023350Y005556D01*
X023105Y005556D01*
X023067Y005546D01*
X023032Y005526D01*
X023004Y005498D01*
X022985Y005464D01*
X022974Y005426D01*
X022974Y005181D01*
X023350Y005181D01*
X023350Y005081D01*
X022974Y005081D01*
X022974Y004939D01*
X022826Y004939D01*
X022826Y005081D01*
X022450Y005081D01*
X022450Y005181D01*
X022350Y005181D01*
X022350Y005556D01*
X022105Y005556D01*
X022067Y005546D01*
X022032Y005526D01*
X022004Y005498D01*
X021985Y005464D01*
X021974Y005426D01*
X021974Y005181D01*
X022350Y005181D01*
X022350Y005081D01*
X021974Y005081D01*
X021974Y004939D01*
X021826Y004939D01*
X021826Y005081D01*
X021450Y005081D01*
X021450Y005181D01*
X021350Y005181D01*
X021350Y005556D01*
X021105Y005556D01*
X021067Y005546D01*
X021032Y005526D01*
X021004Y005498D01*
X020985Y005464D01*
X020974Y005426D01*
X020974Y005181D01*
X021350Y005181D01*
X021350Y005081D01*
X020974Y005081D01*
X020974Y004939D01*
X020000Y004939D01*
X020000Y008179D01*
X019660Y008799D01*
X019665Y008799D01*
X019879Y008887D01*
X020042Y009050D01*
X020130Y009263D01*
X020130Y009494D01*
X020042Y009707D01*
X019879Y009870D01*
X019665Y009959D01*
X019435Y009959D01*
X019221Y009870D01*
X019150Y009799D01*
X019150Y011729D01*
X021150Y013229D01*
X021150Y015339D01*
X021170Y015339D01*
X021170Y015699D01*
X021230Y015699D01*
X021230Y015759D01*
X021170Y015759D01*
X021170Y016119D01*
X021150Y016119D01*
X021150Y016229D01*
X016150Y016229D01*
X016150Y016179D01*
X015700Y016179D01*
X015700Y016279D01*
X015600Y016279D01*
X015600Y016747D01*
X015528Y016736D01*
X015450Y016711D01*
X015377Y016674D01*
X015311Y016625D01*
X015253Y016568D01*
X015205Y016501D01*
X015168Y016428D01*
X015143Y016351D01*
X015131Y016279D01*
X015600Y016279D01*
X015600Y016179D01*
X015131Y016179D01*
X015143Y016107D01*
X015168Y016029D01*
X015205Y015956D01*
X015253Y015890D01*
X015311Y015832D01*
X015377Y015784D01*
X015450Y015747D01*
X015528Y015722D01*
X015600Y015710D01*
X015600Y016179D01*
X015700Y016179D01*
X015700Y015710D01*
X015772Y015722D01*
X015850Y015747D01*
X015923Y015784D01*
X015989Y015832D01*
X016047Y015890D01*
X016095Y015956D01*
X016132Y016029D01*
X016150Y016085D01*
X016150Y013729D01*
X016650Y013229D01*
X016954Y012620D01*
X016446Y012620D01*
X016377Y012551D01*
X016320Y012608D01*
X016177Y012667D01*
X016023Y012667D01*
X015880Y012608D01*
X015771Y012499D01*
X015712Y012356D01*
X015712Y012202D01*
X015771Y012059D01*
X015880Y011950D01*
X015960Y011917D01*
X015923Y011917D01*
X015780Y011858D01*
X015671Y011749D01*
X015612Y011606D01*
X015612Y011452D01*
X015671Y011309D01*
X015759Y011221D01*
X015712Y011106D01*
X015712Y010952D01*
X015771Y010809D01*
X015880Y010700D01*
X016023Y010641D01*
X016177Y010641D01*
X016203Y010651D01*
X016862Y010222D01*
X016862Y010202D01*
X016921Y010059D01*
X017030Y009950D01*
X017173Y009891D01*
X017327Y009891D01*
X017470Y009950D01*
X017579Y010059D01*
X017638Y010202D01*
X017638Y010356D01*
X017579Y010499D01*
X017470Y010608D01*
X017327Y010667D01*
X017173Y010667D01*
X017147Y010656D01*
X016488Y011086D01*
X016488Y011106D01*
X016475Y011137D01*
X017054Y011137D01*
X017177Y011260D01*
X017177Y011828D01*
X017126Y011879D01*
X017177Y011930D01*
X017177Y012229D01*
X017939Y012229D01*
X018000Y012168D01*
X018143Y012168D01*
X018150Y012161D01*
X018150Y009729D01*
X018270Y009549D01*
X018227Y009567D01*
X018073Y009567D01*
X017930Y009508D01*
X017861Y009439D01*
X016739Y009439D01*
X016720Y009458D01*
X016577Y009517D01*
X016423Y009517D01*
X016280Y009458D01*
X016171Y009349D01*
X016112Y009206D01*
X016112Y009052D01*
X016171Y008909D01*
X016280Y008800D01*
X016423Y008741D01*
X016577Y008741D01*
X016720Y008800D01*
X016829Y008909D01*
X016833Y008919D01*
X017861Y008919D01*
X017930Y008850D01*
X018058Y008797D01*
X018058Y008684D01*
X017977Y008717D01*
X017823Y008717D01*
X017680Y008658D01*
X017571Y008549D01*
X017512Y008406D01*
X017512Y008252D01*
X017571Y008109D01*
X017680Y008000D01*
X017823Y007941D01*
X017977Y007941D01*
X018120Y008000D01*
X018159Y008039D01*
X018272Y008039D01*
X018285Y008044D01*
X018571Y008044D01*
X018694Y008167D01*
X018694Y008814D01*
X018571Y008937D01*
X018457Y008937D01*
X018479Y008959D01*
X018538Y009102D01*
X018538Y009147D01*
X018866Y008655D01*
X018866Y008495D01*
X018973Y008495D01*
X018978Y008486D01*
X018866Y008486D01*
X018866Y008235D01*
X018876Y008196D01*
X018896Y008162D01*
X018924Y008134D01*
X018958Y008115D01*
X018996Y008104D01*
X019120Y008104D01*
X019120Y008274D01*
X019128Y008262D01*
X019128Y008104D01*
X019150Y008104D01*
X019150Y007913D01*
X018929Y007913D01*
X018869Y007853D01*
X018754Y007853D01*
X018754Y007471D01*
X018746Y007471D01*
X018746Y007853D01*
X018631Y007853D01*
X018571Y007913D01*
X018181Y007913D01*
X018058Y007790D01*
X018058Y007144D01*
X018116Y007086D01*
X018116Y006813D01*
X018112Y006778D01*
X018116Y006762D01*
X018116Y006745D01*
X018129Y006712D01*
X018193Y006479D01*
X018154Y006439D01*
X018150Y006430D01*
X018146Y006439D01*
X018017Y006569D01*
X017848Y006639D01*
X017665Y006639D01*
X017496Y006569D01*
X017366Y006439D01*
X017330Y006352D01*
X017323Y006368D01*
X017280Y006434D01*
X017224Y006489D01*
X017158Y006533D01*
X017086Y006563D01*
X017008Y006579D01*
X016998Y006579D01*
X016998Y006208D01*
X016940Y006208D01*
X016940Y006579D01*
X016930Y006579D01*
X016852Y006563D01*
X016779Y006533D01*
X016714Y006489D01*
X016658Y006434D01*
X016614Y006368D01*
X016584Y006295D01*
X016569Y006218D01*
X016569Y006208D01*
X016940Y006208D01*
X016940Y006150D01*
X016569Y006150D01*
X016569Y006139D01*
X016584Y006062D01*
X016614Y005989D01*
X016658Y005924D01*
X016714Y005868D01*
X016779Y005824D01*
X016852Y005794D01*
X016930Y005779D01*
X016940Y005779D01*
X016940Y006150D01*
X016998Y006150D01*
X016998Y005779D01*
X017008Y005779D01*
X017086Y005794D01*
X017158Y005824D01*
X017224Y005868D01*
X017280Y005924D01*
X017323Y005989D01*
X017330Y006006D01*
X017366Y005918D01*
X017496Y005789D01*
X017665Y005719D01*
X017848Y005719D01*
X018017Y005789D01*
X018146Y005918D01*
X018150Y005927D01*
X018154Y005918D01*
X018283Y005789D01*
X018452Y005719D01*
X018635Y005719D01*
X018804Y005789D01*
X018871Y005856D01*
X018871Y005842D01*
X018994Y005719D01*
X019150Y005719D01*
X019150Y004939D01*
X008650Y004939D01*
X008650Y008229D01*
X009650Y009229D01*
X009650Y012229D01*
X009561Y012406D01*
X010049Y012406D01*
X010142Y012499D01*
X010146Y012496D01*
X010180Y012476D01*
X010218Y012466D01*
X010394Y012466D01*
X010394Y012779D01*
X010494Y012779D01*
X010494Y012466D01*
X010671Y012466D01*
X010709Y012476D01*
X010725Y012486D01*
X010741Y012476D01*
X010779Y012466D01*
X010956Y012466D01*
X010956Y012779D01*
X011056Y012779D01*
X011056Y012466D01*
X011232Y012466D01*
X011270Y012476D01*
X011304Y012496D01*
X011308Y012499D01*
X011401Y012406D01*
X011988Y012406D01*
X012111Y012529D01*
X012111Y013128D01*
X011996Y013244D01*
X012005Y013247D01*
X012131Y013374D01*
X012200Y013539D01*
X012200Y013718D01*
X012131Y013884D01*
X012005Y014010D01*
X011840Y014079D01*
X011660Y014079D01*
X011495Y014010D01*
X011369Y013884D01*
X011300Y013718D01*
X011300Y013539D01*
X011369Y013374D01*
X011434Y013308D01*
X011434Y013251D01*
X011401Y013251D01*
X011308Y013158D01*
X011304Y013161D01*
X011270Y013181D01*
X011232Y013191D01*
X011056Y013191D01*
X011056Y012879D01*
X010956Y012879D01*
X010956Y013191D01*
X010779Y013191D01*
X010741Y013181D01*
X010725Y013172D01*
X010709Y013181D01*
X010671Y013191D01*
X010494Y013191D01*
X010494Y012879D01*
X010394Y012879D01*
X010394Y013191D01*
X010218Y013191D01*
X010180Y013181D01*
X010146Y013161D01*
X010142Y013158D01*
X010068Y013232D01*
X010105Y013247D01*
X010231Y013374D01*
X010300Y013539D01*
X010300Y013718D01*
X010231Y013884D01*
X010105Y014010D01*
X009940Y014079D01*
X009760Y014079D01*
X009595Y014010D01*
X009469Y013884D01*
X009400Y013718D01*
X009400Y013539D01*
X009469Y013374D01*
X009496Y013347D01*
X009496Y013251D01*
X009462Y013251D01*
X009339Y013128D01*
X009339Y012851D01*
X009150Y013229D01*
X009150Y016229D01*
X008150Y016229D01*
X008150Y008729D01*
X007650Y007729D01*
X007650Y004939D01*
X002489Y004939D01*
X002870Y005051D01*
X002870Y005051D01*
X003304Y005329D01*
X003304Y005329D01*
X003304Y005329D01*
X003641Y005719D01*
X003855Y006187D01*
X003855Y006187D01*
X003928Y006697D01*
X003855Y007207D01*
X003641Y007676D01*
X003304Y008065D01*
X002870Y008344D01*
X002376Y008489D01*
X001861Y008489D01*
X001367Y008344D01*
X001367Y008344D01*
X000933Y008065D01*
X000596Y007676D01*
X000382Y007207D01*
X000360Y007055D01*
X000360Y016932D01*
X000464Y016829D01*
X000836Y016829D01*
X001100Y017092D01*
X001100Y017465D01*
X000836Y017729D01*
X000464Y017729D01*
X000360Y017625D01*
X000360Y018226D01*
X000403Y018184D01*
X000596Y018104D01*
X000804Y018104D01*
X000997Y018184D01*
X001145Y018331D01*
X001225Y018524D01*
X001225Y018733D01*
X001145Y018926D01*
X000997Y019074D01*
X000804Y019154D01*
X000596Y019154D01*
X000403Y019074D01*
X000360Y019031D01*
X000360Y019726D01*
X000403Y019684D01*
X000596Y019604D01*
X000804Y019604D01*
X000997Y019684D01*
X001145Y019831D01*
X001225Y020024D01*
X001225Y020233D01*
X001145Y020426D01*
X000997Y020574D01*
X000804Y020654D01*
X000596Y020654D01*
X000403Y020574D01*
X000360Y020531D01*
X000360Y022087D01*
X000382Y021935D01*
X000596Y021467D01*
X000933Y021077D01*
X001367Y020799D01*
X001367Y020799D01*
X001419Y020783D01*
X001403Y020768D01*
X001355Y020701D01*
X001318Y020628D01*
X001293Y020551D01*
X001281Y020479D01*
X001750Y020479D01*
X001750Y020379D01*
X001281Y020379D01*
X001293Y020307D01*
X001318Y020229D01*
X001355Y020156D01*
X001403Y020090D01*
X001461Y020032D01*
X001527Y019984D01*
X001600Y019947D01*
X001656Y019929D01*
X001600Y019911D01*
X001527Y019874D01*
X001461Y019825D01*
X001403Y019768D01*
X001355Y019701D01*
X001014Y019701D01*
X001113Y019799D02*
X001435Y019799D01*
X001355Y019701D02*
X001318Y019628D01*
X001293Y019551D01*
X001281Y019479D01*
X001750Y019479D01*
X001750Y019947D01*
X001750Y020379D01*
X001850Y020379D01*
X001850Y020479D01*
X002319Y020479D01*
X002307Y020551D01*
X002282Y020628D01*
X002269Y020654D01*
X002376Y020654D01*
X002870Y020799D01*
X002870Y020799D01*
X003304Y021077D01*
X003304Y021077D01*
X003304Y021077D01*
X003641Y021467D01*
X003855Y021935D01*
X003855Y021935D01*
X003928Y022445D01*
X003855Y022955D01*
X003641Y023424D01*
X003304Y023813D01*
X002870Y024092D01*
X002778Y024119D01*
X004379Y024119D01*
X004335Y024100D01*
X004079Y023844D01*
X003940Y023510D01*
X003940Y023148D01*
X004079Y022813D01*
X004335Y022557D01*
X004669Y022419D01*
X005031Y022419D01*
X005365Y022557D01*
X005621Y022813D01*
X005760Y023148D01*
X005760Y023510D01*
X005621Y023844D01*
X005365Y024100D01*
X005321Y024119D01*
X006379Y024119D01*
X006335Y024100D01*
X006079Y023844D01*
X005940Y023510D01*
X005940Y023148D01*
X006079Y022813D01*
X006335Y022557D01*
X006669Y022419D01*
X007031Y022419D01*
X007365Y022557D01*
X007621Y022813D01*
X007760Y023148D01*
X007760Y023510D01*
X007621Y023844D01*
X007365Y024100D01*
X007321Y024119D01*
X008582Y024119D01*
X008340Y023876D01*
X008340Y023081D01*
X008902Y022519D01*
X009698Y022519D01*
X010260Y023081D01*
X010260Y023876D01*
X010018Y024119D01*
X014782Y024119D01*
X014540Y023876D01*
X014540Y023081D01*
X014571Y023050D02*
X010229Y023050D01*
X010130Y022951D02*
X014670Y022951D01*
X014768Y022853D02*
X010032Y022853D01*
X009933Y022754D02*
X014867Y022754D01*
X014965Y022656D02*
X009835Y022656D01*
X009736Y022557D02*
X015064Y022557D01*
X015102Y022439D02*
X014540Y021876D01*
X014540Y021081D01*
X015102Y020519D01*
X015470Y020519D01*
X015458Y020507D01*
X015370Y020294D01*
X015370Y020230D01*
X015261Y020339D01*
X014839Y020339D01*
X014540Y020040D01*
X014540Y019618D01*
X014839Y019319D01*
X015261Y019319D01*
X015384Y019441D01*
X015380Y019433D01*
X015380Y019428D01*
X015378Y019423D01*
X015380Y019374D01*
X015380Y017941D01*
X014933Y017494D01*
X014877Y017517D01*
X014723Y017517D01*
X014580Y017458D01*
X014471Y017349D01*
X014412Y017206D01*
X014412Y017052D01*
X014471Y016909D01*
X014580Y016800D01*
X014723Y016741D01*
X014877Y016741D01*
X015020Y016800D01*
X015129Y016909D01*
X015141Y016938D01*
X015414Y017211D01*
X015412Y017206D01*
X015412Y017052D01*
X015471Y016909D01*
X015580Y016800D01*
X015711Y016746D01*
X015700Y016747D01*
X015700Y016279D01*
X016169Y016279D01*
X016157Y016351D01*
X016132Y016428D01*
X016095Y016501D01*
X016047Y016568D01*
X015989Y016625D01*
X015923Y016674D01*
X015850Y016711D01*
X015772Y016736D01*
X015742Y016741D01*
X015877Y016741D01*
X016020Y016800D01*
X016129Y016909D01*
X016188Y017052D01*
X016188Y017110D01*
X016320Y017225D01*
X016312Y017206D01*
X016312Y017052D01*
X016371Y016909D01*
X016480Y016800D01*
X016623Y016741D01*
X016777Y016741D01*
X016920Y016800D01*
X017029Y016909D01*
X017088Y017052D01*
X017088Y017206D01*
X017030Y017346D01*
X017030Y017510D01*
X017139Y017271D01*
X017112Y017206D01*
X017112Y017052D01*
X017171Y016909D01*
X017280Y016800D01*
X017423Y016741D01*
X017577Y016741D01*
X017720Y016800D01*
X017829Y016909D01*
X017888Y017052D01*
X017888Y017206D01*
X017829Y017349D01*
X017720Y017458D01*
X017630Y017495D01*
X017520Y017737D01*
X017520Y018950D01*
X017579Y019009D01*
X017638Y019152D01*
X017638Y019306D01*
X017579Y019449D01*
X017479Y019549D01*
X017979Y019549D01*
X018039Y019489D01*
X018208Y019419D01*
X018391Y019419D01*
X018561Y019489D01*
X018690Y019618D01*
X018721Y019692D01*
X018934Y019479D01*
X019070Y019479D01*
X019070Y019849D01*
X019130Y019849D01*
X019130Y019909D01*
X019070Y019909D01*
X019070Y020279D01*
X018934Y020279D01*
X018721Y020065D01*
X018690Y020139D01*
X018561Y020269D01*
X018391Y020339D01*
X018208Y020339D01*
X018039Y020269D01*
X017979Y020209D01*
X017250Y020209D01*
X017235Y020213D01*
X017222Y020212D01*
X017238Y020252D01*
X017238Y020406D01*
X017179Y020549D01*
X017070Y020658D01*
X016927Y020717D01*
X016773Y020717D01*
X016630Y020658D01*
X016521Y020549D01*
X016473Y020432D01*
X016442Y020507D01*
X016279Y020670D01*
X016116Y020738D01*
X016460Y021081D01*
X016460Y021453D01*
X018277Y022467D01*
X018314Y022483D01*
X018327Y022495D01*
X018342Y022504D01*
X018367Y022536D01*
X018614Y022783D01*
X018614Y022783D01*
X018642Y022810D01*
X018711Y022839D01*
X018840Y022968D01*
X018910Y023137D01*
X018910Y023320D01*
X018840Y023489D01*
X018711Y023619D01*
X018541Y023689D01*
X018358Y023689D01*
X018189Y023619D01*
X018060Y023489D01*
X018029Y023415D01*
X017816Y023629D01*
X017680Y023629D01*
X017680Y023259D01*
X017620Y023259D01*
X017620Y023629D01*
X017484Y023629D01*
X017250Y023394D01*
X017250Y023259D01*
X017620Y023259D01*
X017620Y023199D01*
X017250Y023199D01*
X017250Y023063D01*
X017484Y022829D01*
X017620Y022829D01*
X017620Y023199D01*
X017680Y023199D01*
X017680Y022829D01*
X017734Y022829D01*
X016305Y022031D01*
X015898Y022439D01*
X015102Y022439D01*
X015024Y022360D02*
X009776Y022360D01*
X009698Y022439D02*
X008902Y022439D01*
X008340Y021876D01*
X008340Y021081D01*
X008902Y020519D01*
X009698Y020519D01*
X010260Y021081D01*
X010260Y021876D01*
X009698Y022439D01*
X009875Y022262D02*
X014925Y022262D01*
X014827Y022163D02*
X009973Y022163D01*
X010072Y022065D02*
X014728Y022065D01*
X014630Y021966D02*
X010170Y021966D01*
X010260Y021868D02*
X014540Y021868D01*
X014540Y021769D02*
X010260Y021769D01*
X010260Y021671D02*
X014540Y021671D01*
X014540Y021572D02*
X010260Y021572D01*
X010260Y021474D02*
X014540Y021474D01*
X014540Y021375D02*
X010260Y021375D01*
X010260Y021277D02*
X014540Y021277D01*
X014540Y021178D02*
X010260Y021178D01*
X010259Y021080D02*
X014541Y021080D01*
X014640Y020981D02*
X010160Y020981D01*
X010062Y020883D02*
X014738Y020883D01*
X014837Y020784D02*
X009963Y020784D01*
X009865Y020686D02*
X014935Y020686D01*
X015034Y020587D02*
X009766Y020587D01*
X008834Y020587D02*
X007540Y020587D01*
X007540Y020559D02*
X007540Y020690D01*
X007312Y020919D01*
X007180Y020919D01*
X007180Y020559D01*
X007120Y020559D01*
X007120Y020919D01*
X006988Y020919D01*
X006760Y020690D01*
X006760Y020559D01*
X007120Y020559D01*
X007120Y020499D01*
X006760Y020499D01*
X006760Y020367D01*
X006988Y020139D01*
X007120Y020139D01*
X007120Y020499D01*
X007180Y020499D01*
X007180Y020559D01*
X007540Y020559D01*
X007540Y020499D02*
X007180Y020499D01*
X007180Y020139D01*
X007312Y020139D01*
X007540Y020367D01*
X007540Y020499D01*
X007540Y020489D02*
X015451Y020489D01*
X015410Y020390D02*
X007540Y020390D01*
X007465Y020292D02*
X007792Y020292D01*
X007839Y020339D02*
X007540Y020040D01*
X007540Y019618D01*
X007839Y019319D01*
X008261Y019319D01*
X008560Y019618D01*
X008560Y020040D01*
X008261Y020339D01*
X007839Y020339D01*
X007693Y020193D02*
X007366Y020193D01*
X007180Y020193D02*
X007120Y020193D01*
X007120Y020292D02*
X007180Y020292D01*
X007180Y020390D02*
X007120Y020390D01*
X007120Y020489D02*
X007180Y020489D01*
X007180Y020587D02*
X007120Y020587D01*
X007120Y020686D02*
X007180Y020686D01*
X007180Y020784D02*
X007120Y020784D01*
X007120Y020883D02*
X007180Y020883D01*
X007348Y020883D02*
X008538Y020883D01*
X008440Y020981D02*
X003154Y020981D01*
X003306Y021080D02*
X008341Y021080D01*
X008340Y021178D02*
X007657Y021178D01*
X007585Y021149D02*
X007799Y021237D01*
X007962Y021400D01*
X008050Y021613D01*
X008050Y021844D01*
X007962Y022057D01*
X007799Y022220D01*
X007585Y022309D01*
X007355Y022309D01*
X007141Y022220D01*
X006978Y022057D01*
X006890Y021844D01*
X006890Y021613D01*
X006978Y021400D01*
X007141Y021237D01*
X007355Y021149D01*
X007585Y021149D01*
X007838Y021277D02*
X008340Y021277D01*
X008340Y021375D02*
X007937Y021375D01*
X007992Y021474D02*
X008340Y021474D01*
X008340Y021572D02*
X008033Y021572D01*
X008050Y021671D02*
X008340Y021671D01*
X008340Y021769D02*
X008050Y021769D01*
X008040Y021868D02*
X008340Y021868D01*
X008430Y021966D02*
X007999Y021966D01*
X007954Y022065D02*
X008528Y022065D01*
X008627Y022163D02*
X007856Y022163D01*
X007699Y022262D02*
X008725Y022262D01*
X008824Y022360D02*
X003916Y022360D01*
X003902Y022262D02*
X007241Y022262D01*
X007084Y022163D02*
X006617Y022163D01*
X006603Y022174D02*
X006530Y022211D01*
X006452Y022236D01*
X006380Y022247D01*
X006380Y021779D01*
X006280Y021779D01*
X006280Y022247D01*
X006208Y022236D01*
X006130Y022211D01*
X006057Y022174D01*
X005991Y022125D01*
X005933Y022068D01*
X005885Y022001D01*
X005848Y021928D01*
X005823Y021851D01*
X005811Y021779D01*
X006280Y021779D01*
X006280Y021679D01*
X005811Y021679D01*
X005823Y021607D01*
X005848Y021529D01*
X005885Y021456D01*
X005933Y021390D01*
X005991Y021332D01*
X006057Y021284D01*
X006130Y021247D01*
X006208Y021222D01*
X006280Y021210D01*
X006280Y021679D01*
X006380Y021679D01*
X006380Y021779D01*
X006849Y021779D01*
X006837Y021851D01*
X006812Y021928D01*
X006775Y022001D01*
X006727Y022068D01*
X006669Y022125D01*
X006603Y022174D01*
X006729Y022065D02*
X006986Y022065D01*
X006941Y021966D02*
X006793Y021966D01*
X006832Y021868D02*
X006900Y021868D01*
X006890Y021769D02*
X006380Y021769D01*
X006380Y021679D02*
X006849Y021679D01*
X006837Y021607D01*
X006812Y021529D01*
X006775Y021456D01*
X006727Y021390D01*
X006669Y021332D01*
X006603Y021284D01*
X006530Y021247D01*
X006452Y021222D01*
X006380Y021210D01*
X006380Y021679D01*
X006380Y021671D02*
X006280Y021671D01*
X006280Y021769D02*
X003779Y021769D01*
X003734Y021671D02*
X005813Y021671D01*
X005834Y021572D02*
X003689Y021572D01*
X003644Y021474D02*
X005876Y021474D01*
X005948Y021375D02*
X003562Y021375D01*
X003641Y021467D02*
X003641Y021467D01*
X003477Y021277D02*
X006072Y021277D01*
X006280Y021277D02*
X006380Y021277D01*
X006380Y021375D02*
X006280Y021375D01*
X006280Y021474D02*
X006380Y021474D01*
X006380Y021572D02*
X006280Y021572D01*
X006280Y021868D02*
X006380Y021868D01*
X006380Y021966D02*
X006280Y021966D01*
X006280Y022065D02*
X006380Y022065D01*
X006380Y022163D02*
X006280Y022163D01*
X006043Y022163D02*
X003888Y022163D01*
X003874Y022065D02*
X005931Y022065D01*
X005867Y021966D02*
X003860Y021966D01*
X003824Y021868D02*
X005828Y021868D01*
X005128Y022459D02*
X006572Y022459D01*
X006335Y022557D02*
X005365Y022557D01*
X005464Y022656D02*
X006236Y022656D01*
X006138Y022754D02*
X005562Y022754D01*
X005638Y022853D02*
X006062Y022853D01*
X006021Y022951D02*
X005679Y022951D01*
X005719Y023050D02*
X005981Y023050D01*
X005940Y023148D02*
X005760Y023148D01*
X005760Y023247D02*
X005940Y023247D01*
X005940Y023345D02*
X005760Y023345D01*
X005760Y023444D02*
X005940Y023444D01*
X005953Y023542D02*
X005747Y023542D01*
X005706Y023641D02*
X005994Y023641D01*
X006035Y023739D02*
X005665Y023739D01*
X005624Y023838D02*
X006076Y023838D01*
X006171Y023936D02*
X005529Y023936D01*
X005431Y024035D02*
X006269Y024035D01*
X007431Y024035D02*
X008498Y024035D01*
X008400Y023936D02*
X007529Y023936D01*
X007624Y023838D02*
X008340Y023838D01*
X008340Y023739D02*
X007665Y023739D01*
X007706Y023641D02*
X008340Y023641D01*
X008340Y023542D02*
X007747Y023542D01*
X007760Y023444D02*
X008340Y023444D01*
X008340Y023345D02*
X007760Y023345D01*
X007760Y023247D02*
X008340Y023247D01*
X008340Y023148D02*
X007760Y023148D01*
X007719Y023050D02*
X008371Y023050D01*
X008470Y022951D02*
X007679Y022951D01*
X007638Y022853D02*
X008568Y022853D01*
X008667Y022754D02*
X007562Y022754D01*
X007464Y022656D02*
X008765Y022656D01*
X008864Y022557D02*
X007365Y022557D01*
X007128Y022459D02*
X017071Y022459D01*
X016895Y022360D02*
X015976Y022360D01*
X016075Y022262D02*
X016718Y022262D01*
X016542Y022163D02*
X016173Y022163D01*
X016272Y022065D02*
X016365Y022065D01*
X016673Y021572D02*
X020925Y021572D01*
X020907Y021586D02*
X020964Y021544D01*
X021027Y021512D01*
X021095Y021490D01*
X021165Y021479D01*
X021450Y021479D01*
X021450Y021879D01*
X020752Y021879D01*
X020761Y021823D01*
X020783Y021756D01*
X020815Y021693D01*
X020857Y021636D01*
X020907Y021586D01*
X020831Y021671D02*
X016850Y021671D01*
X017026Y021769D02*
X020779Y021769D01*
X020754Y021868D02*
X017202Y021868D01*
X017379Y021966D02*
X021450Y021966D01*
X021450Y021979D02*
X021450Y021879D01*
X021550Y021879D01*
X021550Y021979D01*
X021450Y021979D01*
X021450Y022379D01*
X021165Y022379D01*
X021095Y022368D01*
X021027Y022346D01*
X020964Y022314D01*
X020907Y022272D01*
X020857Y022222D01*
X020815Y022165D01*
X020783Y022102D01*
X020761Y022034D01*
X020752Y021979D01*
X021450Y021979D01*
X021450Y022065D02*
X021550Y022065D01*
X021550Y021979D02*
X021550Y022379D01*
X021835Y022379D01*
X021905Y022368D01*
X021973Y022346D01*
X022036Y022314D01*
X022093Y022272D01*
X022143Y022222D01*
X022185Y022165D01*
X022217Y022102D01*
X022239Y022034D01*
X022248Y021979D01*
X021550Y021979D01*
X021550Y021966D02*
X023195Y021966D01*
X023190Y021977D02*
X023268Y021790D01*
X023411Y021646D01*
X023574Y021579D01*
X023411Y021511D01*
X023268Y021368D01*
X023190Y021180D01*
X023190Y020977D01*
X023268Y020790D01*
X023411Y020646D01*
X023599Y020569D01*
X024401Y020569D01*
X024589Y020646D01*
X024732Y020790D01*
X024810Y020977D01*
X024810Y021180D01*
X024732Y021368D01*
X024589Y021511D01*
X024426Y021579D01*
X024589Y021646D01*
X024732Y021790D01*
X024770Y021881D01*
X024770Y021763D01*
X024858Y021550D01*
X025021Y021387D01*
X025235Y021299D01*
X025465Y021299D01*
X025679Y021387D01*
X025842Y021550D01*
X025930Y021763D01*
X025930Y021994D01*
X025842Y022207D01*
X025679Y022370D01*
X025659Y022379D01*
X025679Y022387D01*
X025842Y022550D01*
X025930Y022763D01*
X025930Y022994D01*
X025842Y023207D01*
X025679Y023370D01*
X025465Y023459D01*
X025235Y023459D01*
X025021Y023370D01*
X024858Y023207D01*
X024810Y023091D01*
X024810Y023180D01*
X024732Y023368D01*
X024589Y023511D01*
X024401Y023589D01*
X023599Y023589D01*
X023411Y023511D01*
X023268Y023368D01*
X023190Y023180D01*
X023190Y022977D01*
X023268Y022790D01*
X023411Y022646D01*
X023574Y022579D01*
X023411Y022511D01*
X023268Y022368D01*
X023190Y022180D01*
X023190Y021977D01*
X023190Y022065D02*
X022229Y022065D01*
X022186Y022163D02*
X023190Y022163D01*
X023224Y022262D02*
X022103Y022262D01*
X021928Y022360D02*
X023265Y022360D01*
X023359Y022459D02*
X021998Y022459D01*
X022089Y022496D02*
X021901Y022419D01*
X021099Y022419D01*
X020911Y022496D01*
X020768Y022640D01*
X020690Y022827D01*
X020690Y023030D01*
X020768Y023218D01*
X020911Y023361D01*
X021099Y023439D01*
X021901Y023439D01*
X022089Y023361D01*
X022232Y023218D01*
X022310Y023030D01*
X022310Y022827D01*
X022232Y022640D01*
X022089Y022496D01*
X022150Y022557D02*
X023523Y022557D01*
X023402Y022656D02*
X022239Y022656D01*
X022280Y022754D02*
X023303Y022754D01*
X023242Y022853D02*
X022310Y022853D01*
X022310Y022951D02*
X023201Y022951D01*
X023190Y023050D02*
X022302Y023050D01*
X022261Y023148D02*
X023190Y023148D01*
X023218Y023247D02*
X022203Y023247D01*
X022105Y023345D02*
X023258Y023345D01*
X023344Y023444D02*
X018859Y023444D01*
X018900Y023345D02*
X020895Y023345D01*
X020797Y023247D02*
X018910Y023247D01*
X018910Y023148D02*
X020739Y023148D01*
X020698Y023050D02*
X018874Y023050D01*
X018823Y022951D02*
X020690Y022951D01*
X020690Y022853D02*
X018725Y022853D01*
X018586Y022754D02*
X020720Y022754D01*
X020761Y022656D02*
X018487Y022656D01*
X018389Y022557D02*
X020850Y022557D01*
X021002Y022459D02*
X018261Y022459D01*
X018085Y022360D02*
X021072Y022360D01*
X020897Y022262D02*
X017908Y022262D01*
X017732Y022163D02*
X020814Y022163D01*
X020771Y022065D02*
X017555Y022065D01*
X017248Y022557D02*
X015936Y022557D01*
X016035Y022656D02*
X017424Y022656D01*
X017460Y022853D02*
X016232Y022853D01*
X016330Y022951D02*
X017362Y022951D01*
X017263Y023050D02*
X016429Y023050D01*
X016460Y023148D02*
X017250Y023148D01*
X017250Y023345D02*
X016460Y023345D01*
X016460Y023247D02*
X017620Y023247D01*
X017620Y023345D02*
X017680Y023345D01*
X017680Y023444D02*
X017620Y023444D01*
X017620Y023542D02*
X017680Y023542D01*
X017902Y023542D02*
X018113Y023542D01*
X018041Y023444D02*
X018001Y023444D01*
X018243Y023641D02*
X016460Y023641D01*
X016460Y023739D02*
X026460Y023739D01*
X026524Y023813D02*
X026524Y023813D01*
X026524Y023813D01*
X026562Y023838D02*
X016460Y023838D01*
X016400Y023936D02*
X026715Y023936D01*
X026869Y024035D02*
X016302Y024035D01*
X016460Y023542D02*
X017398Y023542D01*
X017299Y023444D02*
X016460Y023444D01*
X016133Y022754D02*
X017601Y022754D01*
X017620Y022853D02*
X017680Y022853D01*
X017680Y022951D02*
X017620Y022951D01*
X017620Y023050D02*
X017680Y023050D01*
X017680Y023148D02*
X017620Y023148D01*
X018657Y023641D02*
X026374Y023641D01*
X026289Y023542D02*
X024514Y023542D01*
X024656Y023444D02*
X025199Y023444D01*
X024996Y023345D02*
X024742Y023345D01*
X024782Y023247D02*
X024898Y023247D01*
X024834Y023148D02*
X024810Y023148D01*
X025501Y023444D02*
X026204Y023444D01*
X026151Y023345D02*
X025704Y023345D01*
X025802Y023247D02*
X026106Y023247D01*
X026061Y023148D02*
X025866Y023148D01*
X025907Y023050D02*
X026016Y023050D01*
X025972Y022955D02*
X025972Y022955D01*
X025972Y022951D02*
X025930Y022951D01*
X025930Y022853D02*
X025958Y022853D01*
X025943Y022754D02*
X025926Y022754D01*
X025929Y022656D02*
X025885Y022656D01*
X025915Y022557D02*
X025845Y022557D01*
X025901Y022459D02*
X025750Y022459D01*
X025689Y022360D02*
X025911Y022360D01*
X025899Y022445D02*
X025899Y022445D01*
X025925Y022262D02*
X025787Y022262D01*
X025860Y022163D02*
X025940Y022163D01*
X025954Y022065D02*
X025901Y022065D01*
X025930Y021966D02*
X025968Y021966D01*
X025972Y021935D02*
X025972Y021935D01*
X026003Y021868D02*
X025930Y021868D01*
X025930Y021769D02*
X026048Y021769D01*
X026093Y021671D02*
X025892Y021671D01*
X025851Y021572D02*
X026138Y021572D01*
X026183Y021474D02*
X025765Y021474D01*
X025650Y021375D02*
X026266Y021375D01*
X026186Y021467D02*
X026186Y021467D01*
X026351Y021277D02*
X024770Y021277D01*
X024810Y021178D02*
X026436Y021178D01*
X026522Y021080D02*
X024810Y021080D01*
X024810Y020981D02*
X026673Y020981D01*
X026524Y021077D02*
X026524Y021077D01*
X026826Y020883D02*
X024771Y020883D01*
X024727Y020784D02*
X027007Y020784D01*
X027342Y020686D02*
X024628Y020686D01*
X024446Y020587D02*
X029240Y020587D01*
X029240Y020489D02*
X024486Y020489D01*
X024473Y020496D02*
X024405Y020518D01*
X024335Y020529D01*
X024050Y020529D01*
X024050Y020129D01*
X023950Y020129D01*
X023950Y020529D01*
X023665Y020529D01*
X023595Y020518D01*
X023527Y020496D01*
X023464Y020464D01*
X023407Y020422D01*
X023357Y020372D01*
X023315Y020315D01*
X023283Y020252D01*
X023261Y020184D01*
X023252Y020129D01*
X023950Y020129D01*
X023950Y020029D01*
X023252Y020029D01*
X023261Y019973D01*
X023283Y019906D01*
X023315Y019843D01*
X023357Y019786D01*
X023407Y019736D01*
X023464Y019694D01*
X023527Y019662D01*
X023595Y019640D01*
X023665Y019629D01*
X023950Y019629D01*
X023950Y020029D01*
X024050Y020029D01*
X024050Y020129D01*
X024748Y020129D01*
X024739Y020184D01*
X024717Y020252D01*
X024685Y020315D01*
X024643Y020372D01*
X024593Y020422D01*
X024536Y020464D01*
X024473Y020496D01*
X024625Y020390D02*
X029240Y020390D01*
X029240Y020292D02*
X028415Y020292D01*
X028489Y020261D02*
X028301Y020339D01*
X028099Y020339D01*
X027911Y020261D01*
X027768Y020118D01*
X027690Y019930D01*
X027690Y019127D01*
X027768Y018940D01*
X027911Y018796D01*
X028099Y018719D01*
X028301Y018719D01*
X028489Y018796D01*
X028632Y018940D01*
X028710Y019127D01*
X028710Y019930D01*
X028632Y020118D01*
X028489Y020261D01*
X028557Y020193D02*
X029240Y020193D01*
X029240Y020095D02*
X028642Y020095D01*
X028683Y019996D02*
X029240Y019996D01*
X029240Y019898D02*
X028710Y019898D01*
X028710Y019799D02*
X029240Y019799D01*
X029240Y019701D02*
X028710Y019701D01*
X028710Y019602D02*
X029240Y019602D01*
X029240Y019504D02*
X028710Y019504D01*
X028710Y019405D02*
X029240Y019405D01*
X029240Y019307D02*
X028710Y019307D01*
X028710Y019208D02*
X029240Y019208D01*
X029240Y019110D02*
X028703Y019110D01*
X028662Y019011D02*
X029240Y019011D01*
X029240Y018913D02*
X028605Y018913D01*
X028507Y018814D02*
X029240Y018814D01*
X029240Y018716D02*
X023019Y018716D01*
X023117Y018814D02*
X025893Y018814D01*
X025911Y018796D02*
X026099Y018719D01*
X026301Y018719D01*
X026489Y018796D01*
X026632Y018940D01*
X026710Y019127D01*
X026710Y019930D01*
X026632Y020118D01*
X026489Y020261D01*
X026301Y020339D01*
X026099Y020339D01*
X025911Y020261D01*
X025768Y020118D01*
X025690Y019930D01*
X025690Y019127D01*
X025768Y018940D01*
X025911Y018796D01*
X025795Y018913D02*
X023383Y018913D01*
X023370Y018900D02*
X023479Y019009D01*
X023538Y019152D01*
X023538Y019306D01*
X023479Y019449D01*
X023370Y019558D01*
X023227Y019617D01*
X023073Y019617D01*
X022930Y019558D01*
X022900Y019528D01*
X022870Y019558D01*
X022727Y019617D01*
X022573Y019617D01*
X022430Y019558D01*
X022321Y019449D01*
X022262Y019306D01*
X022262Y019223D01*
X021921Y018882D01*
X021880Y018783D01*
X021880Y017458D01*
X021821Y017399D01*
X021762Y017256D01*
X021762Y017102D01*
X021821Y016959D01*
X021930Y016850D01*
X022073Y016791D01*
X022227Y016791D01*
X022370Y016850D01*
X022400Y016880D01*
X022430Y016850D01*
X022573Y016791D01*
X022727Y016791D01*
X022870Y016850D01*
X022979Y016959D01*
X023038Y017102D01*
X023038Y017256D01*
X022979Y017399D01*
X022920Y017458D01*
X022920Y018617D01*
X023144Y018841D01*
X023227Y018841D01*
X023370Y018900D01*
X023480Y019011D02*
X025738Y019011D01*
X025697Y019110D02*
X023521Y019110D01*
X023538Y019208D02*
X025690Y019208D01*
X025690Y019307D02*
X023538Y019307D01*
X023497Y019405D02*
X025690Y019405D01*
X025690Y019504D02*
X023424Y019504D01*
X023262Y019602D02*
X025690Y019602D01*
X025690Y019701D02*
X024545Y019701D01*
X024536Y019694D02*
X024593Y019736D01*
X024643Y019786D01*
X024685Y019843D01*
X024717Y019906D01*
X024739Y019973D01*
X024748Y020029D01*
X024050Y020029D01*
X024050Y019629D01*
X024335Y019629D01*
X024405Y019640D01*
X024473Y019662D01*
X024536Y019694D01*
X024653Y019799D02*
X025690Y019799D01*
X025690Y019898D02*
X024713Y019898D01*
X024743Y019996D02*
X025717Y019996D01*
X025758Y020095D02*
X024050Y020095D01*
X024050Y020193D02*
X023950Y020193D01*
X023950Y020095D02*
X019450Y020095D01*
X019500Y020044D02*
X019266Y020279D01*
X019130Y020279D01*
X019130Y019909D01*
X019500Y019909D01*
X019500Y020044D01*
X019500Y019996D02*
X023257Y019996D01*
X023287Y019898D02*
X019130Y019898D01*
X019130Y019849D02*
X019500Y019849D01*
X019500Y019713D01*
X019266Y019479D01*
X019130Y019479D01*
X019130Y019849D01*
X019130Y019799D02*
X019070Y019799D01*
X019070Y019701D02*
X019130Y019701D01*
X019130Y019602D02*
X019070Y019602D01*
X019070Y019504D02*
X019130Y019504D01*
X019291Y019504D02*
X019382Y019504D01*
X019362Y019456D02*
X019421Y019599D01*
X019530Y019708D01*
X019673Y019767D01*
X019827Y019767D01*
X019970Y019708D01*
X020079Y019599D01*
X020138Y019456D01*
X020138Y019303D01*
X020364Y019529D01*
X020736Y019529D01*
X021000Y019265D01*
X021000Y018892D01*
X020736Y018629D01*
X020364Y018629D01*
X020100Y018892D01*
X020100Y019210D01*
X020079Y019159D01*
X020040Y019120D01*
X020040Y017388D01*
X020079Y017349D01*
X020138Y017206D01*
X020138Y017052D01*
X020079Y016909D01*
X019970Y016800D01*
X019827Y016741D01*
X019673Y016741D01*
X019530Y016800D01*
X019421Y016909D01*
X019362Y017052D01*
X019362Y017206D01*
X019421Y017349D01*
X019460Y017388D01*
X019460Y019120D01*
X019421Y019159D01*
X019362Y019302D01*
X019362Y019456D01*
X019362Y019405D02*
X017597Y019405D01*
X017638Y019307D02*
X019362Y019307D01*
X019401Y019208D02*
X017638Y019208D01*
X017621Y019110D02*
X019460Y019110D01*
X019460Y019011D02*
X017580Y019011D01*
X017520Y018913D02*
X019460Y018913D01*
X019460Y018814D02*
X017520Y018814D01*
X017520Y018716D02*
X019460Y018716D01*
X019460Y018617D02*
X017520Y018617D01*
X017520Y018519D02*
X019460Y018519D01*
X019460Y018420D02*
X017520Y018420D01*
X017520Y018322D02*
X019460Y018322D01*
X019460Y018223D02*
X017520Y018223D01*
X017520Y018125D02*
X019460Y018125D01*
X019460Y018026D02*
X017520Y018026D01*
X017520Y017928D02*
X019460Y017928D01*
X019460Y017829D02*
X017520Y017829D01*
X017523Y017731D02*
X019460Y017731D01*
X019460Y017632D02*
X017568Y017632D01*
X017612Y017534D02*
X019460Y017534D01*
X019460Y017435D02*
X017742Y017435D01*
X017834Y017337D02*
X019416Y017337D01*
X019375Y017238D02*
X017875Y017238D01*
X017888Y017140D02*
X019362Y017140D01*
X019366Y017041D02*
X017884Y017041D01*
X017843Y016943D02*
X019407Y016943D01*
X019486Y016844D02*
X017764Y016844D01*
X017590Y016746D02*
X019660Y016746D01*
X019840Y016746D02*
X021170Y016746D01*
X021170Y016759D02*
X021170Y016699D01*
X020810Y016699D01*
X020810Y016567D01*
X021038Y016339D01*
X021170Y016339D01*
X021170Y016699D01*
X021230Y016699D01*
X021230Y016759D01*
X021170Y016759D01*
X021170Y017119D01*
X021038Y017119D01*
X020810Y016890D01*
X020810Y016759D01*
X021170Y016759D01*
X021200Y016729D02*
X021150Y016679D01*
X021150Y016239D01*
X021200Y016189D01*
X021200Y015729D01*
X021230Y015759D02*
X021230Y016119D01*
X021362Y016119D01*
X021590Y015890D01*
X021590Y015759D01*
X021230Y015759D01*
X021230Y015761D02*
X021170Y015761D01*
X021230Y015699D02*
X021230Y015339D01*
X021362Y015339D01*
X021590Y015567D01*
X021590Y015699D01*
X021230Y015699D01*
X021230Y015662D02*
X021170Y015662D01*
X021170Y015564D02*
X021230Y015564D01*
X021230Y015465D02*
X021170Y015465D01*
X021170Y015367D02*
X021230Y015367D01*
X021150Y015268D02*
X025190Y015268D01*
X025190Y015170D02*
X021150Y015170D01*
X021150Y015071D02*
X025190Y015071D01*
X025190Y014973D02*
X021150Y014973D01*
X021150Y014874D02*
X025190Y014874D01*
X025190Y014776D02*
X021150Y014776D01*
X021150Y014677D02*
X025190Y014677D01*
X025190Y014579D02*
X021150Y014579D01*
X021150Y014480D02*
X025190Y014480D01*
X025190Y014382D02*
X021150Y014382D01*
X021150Y014283D02*
X025190Y014283D01*
X025190Y014185D02*
X021150Y014185D01*
X021150Y014086D02*
X025190Y014086D01*
X025190Y013988D02*
X021150Y013988D01*
X021150Y013889D02*
X025190Y013889D01*
X025190Y013791D02*
X021150Y013791D01*
X021150Y013692D02*
X025190Y013692D01*
X025190Y013594D02*
X021150Y013594D01*
X021150Y013495D02*
X025190Y013495D01*
X025190Y013397D02*
X021150Y013397D01*
X021150Y013298D02*
X025190Y013298D01*
X025190Y013200D02*
X021111Y013200D01*
X020980Y013101D02*
X025190Y013101D01*
X025190Y013003D02*
X020849Y013003D01*
X020717Y012904D02*
X025190Y012904D01*
X025190Y012806D02*
X020586Y012806D01*
X020455Y012707D02*
X025190Y012707D01*
X025190Y012609D02*
X020323Y012609D01*
X020192Y012510D02*
X025190Y012510D01*
X025190Y012412D02*
X020061Y012412D01*
X019929Y012313D02*
X025190Y012313D01*
X025190Y012215D02*
X019798Y012215D01*
X019667Y012116D02*
X025190Y012116D01*
X025190Y012018D02*
X019535Y012018D01*
X019404Y011919D02*
X025190Y011919D01*
X025190Y011821D02*
X019273Y011821D01*
X019150Y011722D02*
X025190Y011722D01*
X025190Y011639D02*
X024472Y011639D01*
X024413Y011645D01*
X024391Y011639D01*
X024368Y011639D01*
X024313Y011616D01*
X024257Y011600D01*
X024239Y011585D01*
X024217Y011576D01*
X024175Y011535D01*
X023199Y010754D01*
X022325Y010754D01*
X022202Y010631D01*
X022202Y010607D01*
X022177Y010617D01*
X022023Y010617D01*
X021880Y010558D01*
X021806Y010484D01*
X021750Y010540D01*
X021150Y010540D01*
X021027Y010417D01*
X021027Y009830D01*
X021121Y009736D01*
X021117Y009733D01*
X021098Y009699D01*
X021087Y009661D01*
X021087Y009484D01*
X021400Y009484D01*
X021400Y009384D01*
X021500Y009384D01*
X021500Y009078D01*
X021682Y009078D01*
X021720Y009088D01*
X021755Y009108D01*
X021783Y009136D01*
X021802Y009170D01*
X021813Y009208D01*
X021813Y009384D01*
X021500Y009384D01*
X021500Y009484D01*
X021813Y009484D01*
X021813Y009580D01*
X021912Y009490D01*
X021912Y009452D01*
X021971Y009309D01*
X022080Y009200D01*
X022223Y009141D01*
X022377Y009141D01*
X022520Y009200D01*
X022629Y009309D01*
X022688Y009452D01*
X022688Y009606D01*
X022648Y009704D01*
X023361Y009704D01*
X023964Y008312D01*
X024096Y008185D01*
X024161Y008159D01*
X023943Y008159D01*
X023820Y008036D01*
X023820Y007979D01*
X023729Y008070D01*
X023515Y008159D01*
X023285Y008159D01*
X023071Y008070D01*
X022908Y007907D01*
X022900Y007887D01*
X022892Y007907D01*
X022729Y008070D01*
X022515Y008159D01*
X022285Y008159D01*
X022071Y008070D01*
X021908Y007907D01*
X021900Y007887D01*
X021892Y007907D01*
X021729Y008070D01*
X021515Y008159D01*
X021285Y008159D01*
X021071Y008070D01*
X020908Y007907D01*
X020820Y007694D01*
X020820Y007463D01*
X020908Y007250D01*
X021046Y007112D01*
X021037Y007112D01*
X020914Y006989D01*
X020914Y006264D01*
X021037Y006141D01*
X021763Y006141D01*
X021886Y006264D01*
X021886Y006989D01*
X021763Y007112D01*
X021754Y007112D01*
X021892Y007250D01*
X021900Y007270D01*
X021908Y007250D01*
X022046Y007112D01*
X022037Y007112D01*
X021914Y006989D01*
X021914Y006264D01*
X022037Y006141D01*
X022763Y006141D01*
X022886Y006264D01*
X022886Y006989D01*
X022763Y007112D01*
X022754Y007112D01*
X022892Y007250D01*
X022900Y007270D01*
X022908Y007250D01*
X023046Y007112D01*
X023037Y007112D01*
X022914Y006989D01*
X022914Y006264D01*
X023037Y006141D01*
X023763Y006141D01*
X023886Y006264D01*
X023886Y006989D01*
X023763Y007112D01*
X023754Y007112D01*
X023820Y007179D01*
X023820Y007122D01*
X023933Y007008D01*
X023914Y006989D01*
X023914Y006264D01*
X024037Y006141D01*
X024763Y006141D01*
X024886Y006264D01*
X024886Y006989D01*
X024867Y007008D01*
X024980Y007122D01*
X024980Y008036D01*
X024857Y008159D01*
X024538Y008159D01*
X024617Y008193D01*
X024632Y008209D01*
X024679Y008209D01*
X024723Y008191D01*
X024877Y008191D01*
X024921Y008209D01*
X025129Y008209D01*
X025173Y008191D01*
X025327Y008191D01*
X025470Y008250D01*
X025579Y008359D01*
X025638Y008502D01*
X025638Y008656D01*
X025579Y008799D01*
X025470Y008908D01*
X025327Y008967D01*
X025173Y008967D01*
X025129Y008949D01*
X024921Y008949D01*
X024877Y008967D01*
X024723Y008967D01*
X024689Y008953D01*
X024197Y010090D01*
X024197Y010502D01*
X024593Y010819D01*
X025438Y010819D01*
X025558Y010769D01*
X025741Y010769D01*
X025911Y010839D01*
X026040Y010968D01*
X026110Y011137D01*
X026110Y015355D01*
X026572Y015522D01*
X026390Y015340D01*
X026390Y014918D01*
X026689Y014619D01*
X027111Y014619D01*
X027410Y014918D01*
X027410Y014979D01*
X027468Y014840D01*
X027611Y014696D01*
X027799Y014619D01*
X028001Y014619D01*
X028189Y014696D01*
X028332Y014840D01*
X028410Y015027D01*
X028410Y015230D01*
X028332Y015418D01*
X028189Y015561D01*
X028050Y015619D01*
X028111Y015619D01*
X028410Y015918D01*
X028410Y016340D01*
X028111Y016639D01*
X027689Y016639D01*
X027400Y016350D01*
X027111Y016639D01*
X026689Y016639D01*
X026550Y016500D01*
X025514Y016168D01*
X025430Y016143D01*
X025427Y016140D01*
X025423Y016139D01*
X025356Y016083D01*
X025288Y016027D01*
X025286Y016024D01*
X025283Y016021D01*
X025243Y015943D01*
X025202Y015866D01*
X025201Y015862D01*
X025199Y015858D01*
X025192Y015776D01*
X025190Y015770D01*
X025190Y015752D01*
X025183Y015684D01*
X025184Y015680D01*
X025184Y015676D01*
X025189Y015661D01*
X025186Y015609D01*
X025190Y015599D01*
X025190Y011639D01*
X024331Y011624D02*
X019150Y011624D01*
X019150Y011525D02*
X024164Y011525D01*
X024040Y011427D02*
X019150Y011427D01*
X019150Y011328D02*
X023917Y011328D01*
X023794Y011230D02*
X019150Y011230D01*
X019150Y011131D02*
X023671Y011131D01*
X023548Y011033D02*
X019150Y011033D01*
X019150Y010934D02*
X023425Y010934D01*
X023302Y010836D02*
X019150Y010836D01*
X019150Y010737D02*
X022308Y010737D01*
X022210Y010639D02*
X019150Y010639D01*
X019150Y010540D02*
X021863Y010540D01*
X021052Y010442D02*
X019150Y010442D01*
X019150Y010343D02*
X021027Y010343D01*
X021027Y010245D02*
X019150Y010245D01*
X019150Y010146D02*
X021027Y010146D01*
X021027Y010048D02*
X019150Y010048D01*
X019150Y009949D02*
X019412Y009949D01*
X019202Y009851D02*
X019150Y009851D01*
X019688Y009949D02*
X021027Y009949D01*
X021027Y009851D02*
X019898Y009851D01*
X019997Y009752D02*
X021105Y009752D01*
X021087Y009654D02*
X020064Y009654D01*
X020105Y009555D02*
X021087Y009555D01*
X021087Y009384D02*
X021087Y009208D01*
X021098Y009170D01*
X021117Y009136D01*
X021145Y009108D01*
X021180Y009088D01*
X021218Y009078D01*
X021400Y009078D01*
X021400Y009384D01*
X021087Y009384D01*
X021087Y009358D02*
X020130Y009358D01*
X020128Y009260D02*
X021087Y009260D01*
X021102Y009161D02*
X020088Y009161D01*
X020047Y009063D02*
X023639Y009063D01*
X023596Y009161D02*
X022427Y009161D01*
X022580Y009260D02*
X023554Y009260D01*
X023511Y009358D02*
X022649Y009358D01*
X022688Y009457D02*
X023468Y009457D01*
X023426Y009555D02*
X022688Y009555D01*
X022668Y009654D02*
X023383Y009654D01*
X023682Y008964D02*
X019956Y008964D01*
X019827Y008866D02*
X023724Y008866D01*
X023767Y008767D02*
X019677Y008767D01*
X019731Y008669D02*
X023810Y008669D01*
X023852Y008570D02*
X019785Y008570D01*
X019839Y008472D02*
X023895Y008472D01*
X023938Y008373D02*
X019893Y008373D01*
X019947Y008275D02*
X024003Y008275D01*
X024117Y008176D02*
X020000Y008176D01*
X020000Y008078D02*
X021089Y008078D01*
X020980Y007979D02*
X020000Y007979D01*
X020000Y007881D02*
X020897Y007881D01*
X020857Y007782D02*
X020000Y007782D01*
X020000Y007684D02*
X020820Y007684D01*
X020820Y007585D02*
X020000Y007585D01*
X020000Y007487D02*
X020820Y007487D01*
X020851Y007388D02*
X020000Y007388D01*
X020000Y007290D02*
X020892Y007290D01*
X020967Y007191D02*
X020000Y007191D01*
X020000Y007093D02*
X021018Y007093D01*
X020919Y006994D02*
X020000Y006994D01*
X020000Y006896D02*
X020914Y006896D01*
X020914Y006797D02*
X020000Y006797D01*
X020000Y006699D02*
X020914Y006699D01*
X020914Y006600D02*
X020000Y006600D01*
X020000Y006502D02*
X020914Y006502D01*
X020914Y006403D02*
X020000Y006403D01*
X020000Y006305D02*
X020914Y006305D01*
X020972Y006206D02*
X020000Y006206D01*
X020000Y006108D02*
X025484Y006108D01*
X025481Y006206D02*
X024828Y006206D01*
X024886Y006305D02*
X025462Y006305D01*
X025462Y006403D02*
X024886Y006403D01*
X024886Y006502D02*
X025502Y006502D01*
X025573Y006600D02*
X024886Y006600D01*
X024886Y006699D02*
X025729Y006699D01*
X025913Y006797D02*
X024886Y006797D01*
X024886Y006896D02*
X025928Y006896D01*
X025942Y006994D02*
X024881Y006994D01*
X024951Y007093D02*
X025956Y007093D01*
X025970Y007191D02*
X024980Y007191D01*
X024980Y007290D02*
X026010Y007290D01*
X025972Y007207D02*
X025972Y007207D01*
X026055Y007388D02*
X024980Y007388D01*
X024980Y007487D02*
X026100Y007487D01*
X026145Y007585D02*
X024980Y007585D01*
X024980Y007684D02*
X026193Y007684D01*
X026279Y007782D02*
X024980Y007782D01*
X024980Y007881D02*
X026364Y007881D01*
X026449Y007979D02*
X024980Y007979D01*
X024938Y008078D02*
X026543Y008078D01*
X026524Y008065D02*
X026524Y008065D01*
X026524Y008065D01*
X026697Y008176D02*
X024578Y008176D01*
X023862Y008078D02*
X023711Y008078D01*
X023820Y007979D02*
X023820Y007979D01*
X023089Y008078D02*
X022711Y008078D01*
X022820Y007979D02*
X022980Y007979D01*
X022967Y007191D02*
X022833Y007191D01*
X022782Y007093D02*
X023018Y007093D01*
X022919Y006994D02*
X022881Y006994D01*
X022886Y006896D02*
X022914Y006896D01*
X022914Y006797D02*
X022886Y006797D01*
X022886Y006699D02*
X022914Y006699D01*
X022914Y006600D02*
X022886Y006600D01*
X022886Y006502D02*
X022914Y006502D01*
X022914Y006403D02*
X022886Y006403D01*
X022886Y006305D02*
X022914Y006305D01*
X022972Y006206D02*
X022828Y006206D01*
X022695Y005556D02*
X022450Y005556D01*
X022450Y005181D01*
X022826Y005181D01*
X022826Y005426D01*
X022815Y005464D01*
X022796Y005498D01*
X022768Y005526D01*
X022733Y005546D01*
X022695Y005556D01*
X022777Y005517D02*
X023023Y005517D01*
X022974Y005418D02*
X022826Y005418D01*
X022826Y005320D02*
X022974Y005320D01*
X022974Y005221D02*
X022826Y005221D01*
X022826Y005024D02*
X022974Y005024D01*
X023350Y005123D02*
X022450Y005123D01*
X022450Y005221D02*
X022350Y005221D01*
X022350Y005123D02*
X021450Y005123D01*
X021450Y005181D02*
X021826Y005181D01*
X021826Y005426D01*
X021815Y005464D01*
X021796Y005498D01*
X021768Y005526D01*
X021733Y005546D01*
X021695Y005556D01*
X021450Y005556D01*
X021450Y005181D01*
X021450Y005221D02*
X021350Y005221D01*
X021350Y005123D02*
X020000Y005123D01*
X020000Y005221D02*
X020974Y005221D01*
X020974Y005320D02*
X020000Y005320D01*
X020000Y005418D02*
X020974Y005418D01*
X021023Y005517D02*
X020000Y005517D01*
X020000Y005615D02*
X025423Y005615D01*
X025423Y005517D02*
X024777Y005517D01*
X024768Y005526D02*
X024733Y005546D01*
X024695Y005556D01*
X024450Y005556D01*
X024450Y005181D01*
X024826Y005181D01*
X024826Y005426D01*
X024815Y005464D01*
X024796Y005498D01*
X024768Y005526D01*
X024826Y005418D02*
X025485Y005418D01*
X025486Y005320D02*
X024826Y005320D01*
X024826Y005221D02*
X025483Y005221D01*
X025483Y005024D02*
X024826Y005024D01*
X024450Y005123D02*
X025802Y005123D01*
X025898Y005123D02*
X026845Y005123D01*
X026957Y005051D02*
X026524Y005329D01*
X026524Y005329D01*
X026277Y005615D01*
X026277Y005480D01*
X026183Y005386D01*
X026187Y005383D01*
X026206Y005349D01*
X026217Y005311D01*
X026217Y005143D01*
X025898Y005143D01*
X025898Y005046D01*
X026217Y005046D01*
X026217Y004939D01*
X027339Y004939D01*
X026957Y005051D01*
X026957Y005051D01*
X027048Y005024D02*
X026217Y005024D01*
X026217Y005221D02*
X026692Y005221D01*
X026539Y005320D02*
X026214Y005320D01*
X026215Y005418D02*
X026447Y005418D01*
X026361Y005517D02*
X026277Y005517D01*
X025423Y005714D02*
X020000Y005714D01*
X020000Y005812D02*
X025423Y005812D01*
X025423Y005911D02*
X020000Y005911D01*
X020000Y006009D02*
X025423Y006009D01*
X024450Y005517D02*
X024350Y005517D01*
X024350Y005418D02*
X024450Y005418D01*
X024450Y005320D02*
X024350Y005320D01*
X024350Y005221D02*
X024450Y005221D01*
X024350Y005123D02*
X023450Y005123D01*
X023450Y005181D02*
X023826Y005181D01*
X023826Y005426D01*
X023815Y005464D01*
X023796Y005498D01*
X023768Y005526D01*
X023733Y005546D01*
X023695Y005556D01*
X023450Y005556D01*
X023450Y005181D01*
X023450Y005221D02*
X023350Y005221D01*
X023350Y005320D02*
X023450Y005320D01*
X023450Y005418D02*
X023350Y005418D01*
X023350Y005517D02*
X023450Y005517D01*
X023777Y005517D02*
X024023Y005517D01*
X023974Y005418D02*
X023826Y005418D01*
X023826Y005320D02*
X023974Y005320D01*
X023974Y005221D02*
X023826Y005221D01*
X023826Y005024D02*
X023974Y005024D01*
X023972Y006206D02*
X023828Y006206D01*
X023886Y006305D02*
X023914Y006305D01*
X023914Y006403D02*
X023886Y006403D01*
X023886Y006502D02*
X023914Y006502D01*
X023914Y006600D02*
X023886Y006600D01*
X023886Y006699D02*
X023914Y006699D01*
X023914Y006797D02*
X023886Y006797D01*
X023886Y006896D02*
X023914Y006896D01*
X023919Y006994D02*
X023881Y006994D01*
X023849Y007093D02*
X023782Y007093D01*
X022089Y008078D02*
X021711Y008078D01*
X021820Y007979D02*
X021980Y007979D01*
X021967Y007191D02*
X021833Y007191D01*
X021782Y007093D02*
X022018Y007093D01*
X021919Y006994D02*
X021881Y006994D01*
X021886Y006896D02*
X021914Y006896D01*
X021914Y006797D02*
X021886Y006797D01*
X021886Y006699D02*
X021914Y006699D01*
X021914Y006600D02*
X021886Y006600D01*
X021886Y006502D02*
X021914Y006502D01*
X021914Y006403D02*
X021886Y006403D01*
X021886Y006305D02*
X021914Y006305D01*
X021972Y006206D02*
X021828Y006206D01*
X021777Y005517D02*
X022023Y005517D01*
X021974Y005418D02*
X021826Y005418D01*
X021826Y005320D02*
X021974Y005320D01*
X021974Y005221D02*
X021826Y005221D01*
X021826Y005024D02*
X021974Y005024D01*
X021450Y005320D02*
X021350Y005320D01*
X021350Y005418D02*
X021450Y005418D01*
X021450Y005517D02*
X021350Y005517D01*
X020974Y005024D02*
X020000Y005024D01*
X019150Y005024D02*
X008650Y005024D01*
X008650Y005123D02*
X009519Y005123D01*
X009470Y005172D02*
X009593Y005049D01*
X010507Y005049D01*
X010630Y005172D01*
X010630Y006086D01*
X010507Y006209D01*
X010450Y006209D01*
X010542Y006300D01*
X010630Y006513D01*
X010630Y006520D01*
X010640Y006530D01*
X010640Y006368D01*
X010939Y006069D01*
X011361Y006069D01*
X011650Y006358D01*
X011929Y006079D01*
X011640Y005790D01*
X011640Y005368D01*
X011939Y005069D01*
X012361Y005069D01*
X012650Y005358D01*
X012939Y005069D01*
X013361Y005069D01*
X013650Y005358D01*
X013939Y005069D01*
X014361Y005069D01*
X014660Y005368D01*
X014660Y005790D01*
X014631Y005819D01*
X014754Y005819D01*
X014700Y005765D01*
X014700Y005629D01*
X015100Y005629D01*
X015100Y005529D01*
X014700Y005529D01*
X014700Y005392D01*
X014964Y005129D01*
X015100Y005129D01*
X015100Y005529D01*
X015200Y005529D01*
X015200Y005629D01*
X015600Y005629D01*
X015600Y005765D01*
X015546Y005819D01*
X015702Y005819D01*
X015797Y005858D01*
X015870Y005932D01*
X015910Y006027D01*
X015910Y006391D01*
X016355Y006540D01*
X016473Y006491D01*
X016627Y006491D01*
X016770Y006550D01*
X016879Y006659D01*
X016938Y006802D01*
X016938Y006956D01*
X016879Y007099D01*
X016770Y007208D01*
X016627Y007267D01*
X016473Y007267D01*
X016330Y007208D01*
X016221Y007099D01*
X016194Y007034D01*
X015610Y006840D01*
X015361Y007089D01*
X015008Y007089D01*
X014797Y007299D01*
X014702Y007339D01*
X012688Y007339D01*
X012688Y007406D01*
X012629Y007549D01*
X012520Y007658D01*
X012377Y007717D01*
X012223Y007717D01*
X012080Y007658D01*
X012050Y007628D01*
X012020Y007658D01*
X011877Y007717D01*
X011723Y007717D01*
X011683Y007700D01*
X011413Y007847D01*
X011403Y007858D01*
X011367Y007873D01*
X011332Y007892D01*
X011317Y007893D01*
X011304Y007899D01*
X011264Y007899D01*
X011225Y007903D01*
X011211Y007899D01*
X010566Y007899D01*
X010542Y007957D01*
X010379Y008120D01*
X010279Y008162D01*
X010323Y008184D01*
X010389Y008232D01*
X010447Y008290D01*
X010495Y008356D01*
X010532Y008429D01*
X010557Y008507D01*
X010569Y008579D01*
X010100Y008579D01*
X010100Y008679D01*
X010000Y008679D01*
X010000Y009147D01*
X009928Y009136D01*
X009850Y009111D01*
X009777Y009074D01*
X009711Y009025D01*
X009653Y008968D01*
X009605Y008901D01*
X009568Y008828D01*
X009543Y008751D01*
X009531Y008679D01*
X010000Y008679D01*
X010000Y008579D01*
X009531Y008579D01*
X009543Y008507D01*
X009568Y008429D01*
X009605Y008356D01*
X009653Y008290D01*
X009711Y008232D01*
X009777Y008184D01*
X009821Y008162D01*
X009721Y008120D01*
X009558Y007957D01*
X009470Y007744D01*
X009470Y007513D01*
X009558Y007300D01*
X009721Y007137D01*
X009741Y007129D01*
X009721Y007120D01*
X009558Y006957D01*
X009470Y006744D01*
X009470Y006513D01*
X009558Y006300D01*
X009650Y006209D01*
X009593Y006209D01*
X009470Y006086D01*
X009470Y005172D01*
X009470Y005221D02*
X008650Y005221D01*
X008650Y005320D02*
X009470Y005320D01*
X009470Y005418D02*
X008650Y005418D01*
X008650Y005517D02*
X009470Y005517D01*
X009470Y005615D02*
X008650Y005615D01*
X008650Y005714D02*
X009470Y005714D01*
X009470Y005812D02*
X008650Y005812D01*
X008650Y005911D02*
X009470Y005911D01*
X009470Y006009D02*
X008650Y006009D01*
X008650Y006108D02*
X009492Y006108D01*
X009591Y006206D02*
X008650Y006206D01*
X008650Y006305D02*
X009556Y006305D01*
X009516Y006403D02*
X008650Y006403D01*
X008650Y006502D02*
X009475Y006502D01*
X009470Y006600D02*
X008650Y006600D01*
X008650Y006699D02*
X009470Y006699D01*
X009492Y006797D02*
X008650Y006797D01*
X008650Y006896D02*
X009533Y006896D01*
X009595Y006994D02*
X008650Y006994D01*
X008650Y007093D02*
X009694Y007093D01*
X009667Y007191D02*
X008650Y007191D01*
X008650Y007290D02*
X009569Y007290D01*
X009522Y007388D02*
X008650Y007388D01*
X008650Y007487D02*
X009481Y007487D01*
X009470Y007585D02*
X008650Y007585D01*
X008650Y007684D02*
X009470Y007684D01*
X009486Y007782D02*
X008650Y007782D01*
X008650Y007881D02*
X009527Y007881D01*
X009580Y007979D02*
X008650Y007979D01*
X008650Y008078D02*
X009679Y008078D01*
X009793Y008176D02*
X008650Y008176D01*
X008696Y008275D02*
X009669Y008275D01*
X009597Y008373D02*
X008795Y008373D01*
X008893Y008472D02*
X009554Y008472D01*
X009533Y008570D02*
X008992Y008570D01*
X009090Y008669D02*
X010000Y008669D01*
X010050Y008629D02*
X010050Y012029D01*
X009650Y012429D01*
X010250Y012429D01*
X010500Y012773D01*
X010444Y012829D01*
X011006Y012829D01*
X011256Y014229D01*
X012150Y014229D01*
X012450Y013979D01*
X013050Y013229D01*
X014500Y013129D01*
X014850Y012629D01*
X015012Y012609D02*
X012111Y012609D01*
X012111Y012707D02*
X015012Y012707D01*
X015012Y012756D02*
X015012Y012602D01*
X015071Y012459D01*
X015150Y012380D01*
X015000Y012380D01*
X015000Y012073D01*
X015313Y012073D01*
X015313Y012250D01*
X015302Y012288D01*
X015294Y012303D01*
X015323Y012291D01*
X015477Y012291D01*
X015620Y012350D01*
X015729Y012459D01*
X015788Y012602D01*
X015788Y012756D01*
X015729Y012899D01*
X015705Y012923D01*
X015597Y013898D01*
X015620Y013955D01*
X015620Y014108D01*
X015638Y014152D01*
X015638Y014306D01*
X015620Y014350D01*
X015620Y015008D01*
X015638Y015052D01*
X015638Y015206D01*
X015579Y015349D01*
X015470Y015458D01*
X015327Y015517D01*
X015173Y015517D01*
X015030Y015458D01*
X014921Y015349D01*
X014862Y015206D01*
X014862Y015052D01*
X014880Y015008D01*
X014880Y014350D01*
X014862Y014306D01*
X014862Y014152D01*
X014880Y014108D01*
X014880Y013955D01*
X014936Y013819D01*
X014942Y013814D01*
X015049Y012846D01*
X015012Y012756D01*
X015033Y012806D02*
X012111Y012806D01*
X012111Y012904D02*
X015043Y012904D01*
X015032Y013003D02*
X012111Y013003D01*
X012111Y013101D02*
X015021Y013101D01*
X015010Y013200D02*
X012040Y013200D01*
X012056Y013298D02*
X014999Y013298D01*
X014988Y013397D02*
X012141Y013397D01*
X012182Y013495D02*
X014977Y013495D01*
X014966Y013594D02*
X012200Y013594D01*
X012200Y013692D02*
X014955Y013692D01*
X014944Y013791D02*
X012170Y013791D01*
X012126Y013889D02*
X014907Y013889D01*
X014880Y013988D02*
X012027Y013988D01*
X011750Y013629D02*
X011694Y013434D01*
X011694Y012829D01*
X011349Y013200D02*
X010101Y013200D01*
X010156Y013298D02*
X011434Y013298D01*
X011359Y013397D02*
X010241Y013397D01*
X010282Y013495D02*
X011318Y013495D01*
X011300Y013594D02*
X010300Y013594D01*
X010300Y013692D02*
X011300Y013692D01*
X011330Y013791D02*
X010270Y013791D01*
X010226Y013889D02*
X011374Y013889D01*
X011473Y013988D02*
X010127Y013988D01*
X009850Y013629D02*
X009756Y013534D01*
X009756Y012829D01*
X009410Y013200D02*
X009164Y013200D01*
X009150Y013298D02*
X009496Y013298D01*
X009459Y013397D02*
X009150Y013397D01*
X009150Y013495D02*
X009418Y013495D01*
X009400Y013594D02*
X009150Y013594D01*
X009150Y013692D02*
X009400Y013692D01*
X009430Y013791D02*
X009150Y013791D01*
X009150Y013889D02*
X009474Y013889D01*
X009573Y013988D02*
X009150Y013988D01*
X009150Y014086D02*
X014880Y014086D01*
X014862Y014185D02*
X009150Y014185D01*
X009150Y014283D02*
X014862Y014283D01*
X014880Y014382D02*
X009150Y014382D01*
X009150Y014480D02*
X014880Y014480D01*
X014880Y014579D02*
X009150Y014579D01*
X009150Y014677D02*
X014880Y014677D01*
X014880Y014776D02*
X009150Y014776D01*
X009150Y014874D02*
X014880Y014874D01*
X014880Y014973D02*
X009150Y014973D01*
X009150Y015071D02*
X014862Y015071D01*
X014862Y015170D02*
X009150Y015170D01*
X009150Y015268D02*
X014888Y015268D01*
X014939Y015367D02*
X009150Y015367D01*
X009150Y015465D02*
X010062Y015465D01*
X010138Y015389D02*
X009910Y015617D01*
X009910Y015749D01*
X010270Y015749D01*
X010270Y015809D01*
X010270Y016169D01*
X010138Y016169D01*
X009910Y015940D01*
X009910Y015809D01*
X010270Y015809D01*
X010330Y015809D01*
X010330Y016169D01*
X010462Y016169D01*
X010690Y015940D01*
X010690Y015809D01*
X010330Y015809D01*
X010330Y015749D01*
X010690Y015749D01*
X010690Y015617D01*
X010462Y015389D01*
X010330Y015389D01*
X010330Y015749D01*
X010270Y015749D01*
X010270Y015389D01*
X010138Y015389D01*
X010270Y015465D02*
X010330Y015465D01*
X010330Y015564D02*
X010270Y015564D01*
X010270Y015662D02*
X010330Y015662D01*
X010330Y015761D02*
X015423Y015761D01*
X015284Y015859D02*
X010690Y015859D01*
X010673Y015958D02*
X015204Y015958D01*
X015159Y016056D02*
X010574Y016056D01*
X010476Y016155D02*
X015135Y016155D01*
X015143Y016352D02*
X007118Y016352D01*
X007132Y016379D02*
X007157Y016457D01*
X007169Y016529D01*
X006700Y016529D01*
X006700Y016629D01*
X006600Y016629D01*
X006600Y017097D01*
X006528Y017086D01*
X006450Y017061D01*
X006377Y017024D01*
X006311Y016975D01*
X006253Y016918D01*
X006205Y016851D01*
X006168Y016778D01*
X006143Y016701D01*
X006131Y016629D01*
X006600Y016629D01*
X006600Y016529D01*
X006131Y016529D01*
X006143Y016457D01*
X006168Y016379D01*
X006205Y016306D01*
X006253Y016240D01*
X006311Y016182D01*
X006377Y016134D01*
X006450Y016097D01*
X006528Y016072D01*
X006600Y016060D01*
X006600Y016529D01*
X006700Y016529D01*
X006700Y016060D01*
X006772Y016072D01*
X006850Y016097D01*
X006923Y016134D01*
X006989Y016182D01*
X007047Y016240D01*
X007095Y016306D01*
X007132Y016379D01*
X007155Y016450D02*
X010077Y016450D01*
X010138Y016389D02*
X009910Y016617D01*
X009910Y016749D01*
X010270Y016749D01*
X010270Y016809D01*
X010270Y017169D01*
X010138Y017169D01*
X009910Y016940D01*
X009910Y016809D01*
X010270Y016809D01*
X010330Y016809D01*
X010330Y017169D01*
X010462Y017169D01*
X010690Y016940D01*
X010690Y016809D01*
X010330Y016809D01*
X010330Y016749D01*
X010690Y016749D01*
X010690Y016617D01*
X010462Y016389D01*
X010330Y016389D01*
X010330Y016749D01*
X010270Y016749D01*
X010270Y016389D01*
X010138Y016389D01*
X010270Y016450D02*
X010330Y016450D01*
X010330Y016549D02*
X010270Y016549D01*
X010270Y016647D02*
X010330Y016647D01*
X010330Y016746D02*
X010270Y016746D01*
X010270Y016844D02*
X010330Y016844D01*
X010330Y016943D02*
X010270Y016943D01*
X010270Y017041D02*
X010330Y017041D01*
X010330Y017140D02*
X010270Y017140D01*
X010109Y017140D02*
X002100Y017140D01*
X002100Y017092D02*
X001836Y016829D01*
X001464Y016829D01*
X001200Y017092D01*
X001200Y017465D01*
X001464Y017729D01*
X001836Y017729D01*
X002100Y017465D01*
X002100Y017092D01*
X002049Y017041D02*
X005350Y017041D01*
X005340Y017038D02*
X005266Y017001D01*
X005200Y016952D01*
X005141Y016894D01*
X005093Y016827D01*
X005055Y016754D01*
X005030Y016675D01*
X005018Y016602D01*
X005491Y016602D01*
X005491Y016502D01*
X005018Y016502D01*
X005030Y016430D01*
X005055Y016351D01*
X005093Y016278D01*
X005141Y016211D01*
X005200Y016153D01*
X005266Y016104D01*
X005303Y016086D01*
X005210Y016048D01*
X005173Y016011D01*
X005092Y016207D01*
X004929Y016370D01*
X004715Y016459D01*
X004485Y016459D01*
X004271Y016370D01*
X004109Y016208D01*
X004036Y016383D01*
X003872Y016548D01*
X003657Y016636D01*
X003425Y016636D01*
X003210Y016548D01*
X003144Y016481D01*
X003092Y016607D01*
X002929Y016770D01*
X002715Y016859D01*
X002485Y016859D01*
X002271Y016770D01*
X002108Y016607D01*
X002020Y016394D01*
X002020Y016163D01*
X002108Y015950D01*
X002130Y015929D01*
X001914Y015929D01*
X001650Y015665D01*
X001650Y015292D01*
X001914Y015029D01*
X002286Y015029D01*
X002550Y015292D01*
X002550Y015665D01*
X002516Y015699D01*
X002715Y015699D01*
X002929Y015787D01*
X002992Y015851D01*
X003046Y015722D01*
X003210Y015557D01*
X003222Y015552D01*
X003210Y015548D01*
X003046Y015383D01*
X002957Y015169D01*
X002957Y014936D01*
X003046Y014722D01*
X003210Y014557D01*
X003222Y014552D01*
X003210Y014548D01*
X003046Y014383D01*
X002957Y014169D01*
X002957Y013936D01*
X003046Y013722D01*
X003210Y013557D01*
X003303Y013519D01*
X003266Y013501D01*
X003200Y013452D01*
X003141Y013394D01*
X003093Y013327D01*
X003055Y013254D01*
X003030Y013175D01*
X003018Y013102D01*
X003491Y013102D01*
X003491Y013002D01*
X003018Y013002D01*
X003030Y012930D01*
X003055Y012851D01*
X003093Y012778D01*
X003141Y012711D01*
X003200Y012653D01*
X003266Y012604D01*
X003303Y012586D01*
X003210Y012548D01*
X003046Y012383D01*
X002957Y012169D01*
X002957Y011936D01*
X003046Y011722D01*
X003210Y011557D01*
X003222Y011552D01*
X003210Y011548D01*
X003046Y011383D01*
X002957Y011169D01*
X002957Y010936D01*
X003046Y010722D01*
X003210Y010557D01*
X003222Y010552D01*
X003210Y010548D01*
X003056Y010393D01*
X002929Y010520D01*
X002715Y010609D01*
X002485Y010609D01*
X002271Y010520D01*
X002108Y010357D01*
X002020Y010144D01*
X002020Y009913D01*
X002108Y009700D01*
X002271Y009537D01*
X002485Y009449D01*
X002715Y009449D01*
X002929Y009537D01*
X003079Y009688D01*
X003210Y009557D01*
X003425Y009468D01*
X003657Y009468D01*
X003872Y009557D01*
X004036Y009722D01*
X004124Y009934D01*
X004221Y009837D01*
X004435Y009749D01*
X004665Y009749D01*
X004879Y009837D01*
X005042Y010000D01*
X005108Y010160D01*
X005210Y010057D01*
X005303Y010019D01*
X005266Y010001D01*
X005200Y009952D01*
X005141Y009894D01*
X005093Y009827D01*
X005055Y009754D01*
X005030Y009675D01*
X005018Y009602D01*
X005491Y009602D01*
X005491Y009502D01*
X005591Y009502D01*
X005591Y009030D01*
X005664Y009041D01*
X005742Y009067D01*
X005816Y009104D01*
X005882Y009153D01*
X005941Y009211D01*
X005989Y009278D01*
X006027Y009351D01*
X006052Y009430D01*
X006064Y009502D01*
X005591Y009502D01*
X005591Y009602D01*
X006064Y009602D01*
X006052Y009675D01*
X006027Y009754D01*
X005989Y009827D01*
X005941Y009894D01*
X005882Y009952D01*
X005816Y010001D01*
X005779Y010019D01*
X005872Y010057D01*
X006036Y010222D01*
X006125Y010436D01*
X006125Y010669D01*
X006036Y010883D01*
X005872Y011048D01*
X005860Y011052D01*
X005872Y011057D01*
X006036Y011222D01*
X006125Y011436D01*
X006125Y011669D01*
X006036Y011883D01*
X005872Y012048D01*
X005860Y012052D01*
X005872Y012057D01*
X006036Y012222D01*
X006125Y012436D01*
X006125Y012669D01*
X006036Y012883D01*
X005872Y013048D01*
X005860Y013052D01*
X005872Y013057D01*
X006036Y013222D01*
X006125Y013436D01*
X006125Y013669D01*
X006036Y013883D01*
X005872Y014048D01*
X005860Y014052D01*
X005872Y014057D01*
X006036Y014222D01*
X006125Y014436D01*
X006125Y014669D01*
X006036Y014883D01*
X005872Y015048D01*
X005860Y015052D01*
X005872Y015057D01*
X006036Y015222D01*
X006125Y015436D01*
X006125Y015669D01*
X006036Y015883D01*
X005872Y016048D01*
X005779Y016086D01*
X005816Y016104D01*
X005882Y016153D01*
X005941Y016211D01*
X005989Y016278D01*
X006027Y016351D01*
X006052Y016430D01*
X006064Y016502D01*
X005591Y016502D01*
X005591Y016602D01*
X006064Y016602D01*
X006052Y016675D01*
X006027Y016754D01*
X005989Y016827D01*
X005941Y016894D01*
X005882Y016952D01*
X005816Y017001D01*
X005742Y017038D01*
X005664Y017064D01*
X005591Y017075D01*
X005591Y016602D01*
X005491Y016602D01*
X005491Y017075D01*
X005418Y017064D01*
X005340Y017038D01*
X005491Y017041D02*
X005591Y017041D01*
X005591Y016943D02*
X005491Y016943D01*
X005491Y016844D02*
X005591Y016844D01*
X005591Y016746D02*
X005491Y016746D01*
X005491Y016647D02*
X005591Y016647D01*
X005591Y016549D02*
X006600Y016549D01*
X006600Y016647D02*
X006700Y016647D01*
X006700Y016629D02*
X006700Y017097D01*
X006772Y017086D01*
X006850Y017061D01*
X006923Y017024D01*
X006989Y016975D01*
X007047Y016918D01*
X007095Y016851D01*
X007132Y016778D01*
X007157Y016701D01*
X007169Y016629D01*
X006700Y016629D01*
X006700Y016549D02*
X009978Y016549D01*
X009910Y016647D02*
X007166Y016647D01*
X007142Y016746D02*
X009910Y016746D01*
X009910Y016844D02*
X007098Y016844D01*
X007021Y016943D02*
X009912Y016943D01*
X010011Y017041D02*
X006888Y017041D01*
X006700Y017041D02*
X006600Y017041D01*
X006600Y016943D02*
X006700Y016943D01*
X006700Y016844D02*
X006600Y016844D01*
X006600Y016746D02*
X006700Y016746D01*
X006412Y017041D02*
X005732Y017041D01*
X005892Y016943D02*
X006279Y016943D01*
X006202Y016844D02*
X005977Y016844D01*
X006029Y016746D02*
X006158Y016746D01*
X006134Y016647D02*
X006056Y016647D01*
X006055Y016450D02*
X006145Y016450D01*
X006182Y016352D02*
X006027Y016352D01*
X005971Y016253D02*
X006244Y016253D01*
X006349Y016155D02*
X005884Y016155D01*
X005851Y016056D02*
X008150Y016056D01*
X008150Y015958D02*
X005961Y015958D01*
X006046Y015859D02*
X008150Y015859D01*
X008150Y015761D02*
X006087Y015761D01*
X006125Y015662D02*
X008150Y015662D01*
X008150Y015564D02*
X006125Y015564D01*
X006125Y015465D02*
X008150Y015465D01*
X008150Y015367D02*
X006096Y015367D01*
X006055Y015268D02*
X008150Y015268D01*
X008150Y015170D02*
X005984Y015170D01*
X005886Y015071D02*
X008150Y015071D01*
X008150Y014973D02*
X005946Y014973D01*
X006040Y014874D02*
X008150Y014874D01*
X008150Y014776D02*
X006081Y014776D01*
X006121Y014677D02*
X008150Y014677D01*
X008150Y014579D02*
X006949Y014579D01*
X006920Y014608D02*
X007029Y014499D01*
X007088Y014356D01*
X007088Y014202D01*
X007029Y014059D01*
X006920Y013950D01*
X006880Y013933D01*
X006880Y012746D01*
X006938Y012606D01*
X006938Y012452D01*
X006879Y012309D01*
X006770Y012200D01*
X006627Y012141D01*
X006473Y012141D01*
X006330Y012200D01*
X006221Y012309D01*
X006162Y012452D01*
X006162Y012606D01*
X006220Y012746D01*
X006220Y014194D01*
X006270Y014316D01*
X006313Y014358D01*
X006371Y014499D01*
X006480Y014608D01*
X006623Y014667D01*
X006777Y014667D01*
X006920Y014608D01*
X007037Y014480D02*
X008150Y014480D01*
X008150Y014382D02*
X007077Y014382D01*
X007088Y014283D02*
X008150Y014283D01*
X008150Y014185D02*
X007081Y014185D01*
X007040Y014086D02*
X008150Y014086D01*
X008150Y013988D02*
X006958Y013988D01*
X006880Y013889D02*
X008150Y013889D01*
X008150Y013791D02*
X006880Y013791D01*
X006880Y013692D02*
X008150Y013692D01*
X008150Y013594D02*
X006880Y013594D01*
X006880Y013495D02*
X008150Y013495D01*
X008150Y013397D02*
X006880Y013397D01*
X006880Y013298D02*
X008150Y013298D01*
X008150Y013200D02*
X006880Y013200D01*
X006880Y013101D02*
X008150Y013101D01*
X008150Y013003D02*
X006880Y013003D01*
X006880Y012904D02*
X008150Y012904D01*
X008150Y012806D02*
X006880Y012806D01*
X006896Y012707D02*
X008150Y012707D01*
X008150Y012609D02*
X006937Y012609D01*
X006938Y012510D02*
X008150Y012510D01*
X008150Y012412D02*
X006922Y012412D01*
X006881Y012313D02*
X008150Y012313D01*
X008150Y012215D02*
X006785Y012215D01*
X006315Y012215D02*
X006029Y012215D01*
X006074Y012313D02*
X006219Y012313D01*
X006178Y012412D02*
X006115Y012412D01*
X006125Y012510D02*
X006162Y012510D01*
X006163Y012609D02*
X006125Y012609D01*
X006109Y012707D02*
X006204Y012707D01*
X006220Y012806D02*
X006068Y012806D01*
X006015Y012904D02*
X006220Y012904D01*
X006220Y013003D02*
X005916Y013003D01*
X005916Y013101D02*
X006220Y013101D01*
X006220Y013200D02*
X006014Y013200D01*
X006068Y013298D02*
X006220Y013298D01*
X006220Y013397D02*
X006109Y013397D01*
X006125Y013495D02*
X006220Y013495D01*
X006220Y013594D02*
X006125Y013594D01*
X006115Y013692D02*
X006220Y013692D01*
X006220Y013791D02*
X006074Y013791D01*
X006030Y013889D02*
X006220Y013889D01*
X006220Y013988D02*
X005931Y013988D01*
X005901Y014086D02*
X006220Y014086D01*
X006220Y014185D02*
X005999Y014185D01*
X006062Y014283D02*
X006257Y014283D01*
X006323Y014382D02*
X006102Y014382D01*
X006125Y014480D02*
X006363Y014480D01*
X006451Y014579D02*
X006125Y014579D01*
X005222Y015052D02*
X005210Y015048D01*
X005046Y014883D01*
X004957Y014669D01*
X004957Y014436D01*
X005046Y014222D01*
X005210Y014057D01*
X005222Y014052D01*
X005210Y014048D01*
X005046Y013883D01*
X004957Y013669D01*
X004957Y013436D01*
X005046Y013222D01*
X005210Y013057D01*
X005222Y013052D01*
X005210Y013048D01*
X005046Y012883D01*
X004957Y012669D01*
X004957Y012436D01*
X005046Y012222D01*
X005210Y012057D01*
X005222Y012052D01*
X005210Y012048D01*
X005046Y011883D01*
X004957Y011669D01*
X004957Y011436D01*
X005046Y011222D01*
X005210Y011057D01*
X005222Y011052D01*
X005210Y011048D01*
X005046Y010883D01*
X004978Y010721D01*
X004879Y010820D01*
X004665Y010909D01*
X004435Y010909D01*
X004221Y010820D01*
X004058Y010657D01*
X003971Y010448D01*
X003872Y010548D01*
X003860Y010552D01*
X003872Y010557D01*
X004036Y010722D01*
X004125Y010936D01*
X004125Y011169D01*
X004036Y011383D01*
X003872Y011548D01*
X003860Y011552D01*
X003872Y011557D01*
X004036Y011722D01*
X004125Y011936D01*
X004125Y012169D01*
X004036Y012383D01*
X003872Y012548D01*
X003779Y012586D01*
X003816Y012604D01*
X003882Y012653D01*
X003941Y012711D01*
X003989Y012778D01*
X004027Y012851D01*
X004052Y012930D01*
X004064Y013002D01*
X003591Y013002D01*
X003591Y013102D01*
X004064Y013102D01*
X004052Y013175D01*
X004027Y013254D01*
X003989Y013327D01*
X003941Y013394D01*
X003882Y013452D01*
X003816Y013501D01*
X003779Y013519D01*
X003872Y013557D01*
X004036Y013722D01*
X004125Y013936D01*
X004125Y014169D01*
X004036Y014383D01*
X003872Y014548D01*
X003860Y014552D01*
X003872Y014557D01*
X004036Y014722D01*
X004125Y014936D01*
X004125Y015169D01*
X004036Y015383D01*
X003872Y015548D01*
X003860Y015552D01*
X003872Y015557D01*
X004036Y015722D01*
X004037Y015723D01*
X004108Y015550D01*
X004271Y015387D01*
X004485Y015299D01*
X004715Y015299D01*
X004929Y015387D01*
X004963Y015422D01*
X005046Y015222D01*
X005210Y015057D01*
X005222Y015052D01*
X005196Y015071D02*
X004125Y015071D01*
X004125Y014973D02*
X005135Y014973D01*
X005042Y014874D02*
X004099Y014874D01*
X004059Y014776D02*
X005001Y014776D01*
X004961Y014677D02*
X003992Y014677D01*
X003893Y014579D02*
X004957Y014579D01*
X004957Y014480D02*
X003939Y014480D01*
X004037Y014382D02*
X004979Y014382D01*
X005020Y014283D02*
X004077Y014283D01*
X004118Y014185D02*
X005083Y014185D01*
X005181Y014086D02*
X004125Y014086D01*
X004125Y013988D02*
X005150Y013988D01*
X005052Y013889D02*
X004106Y013889D01*
X004065Y013791D02*
X005008Y013791D01*
X004967Y013692D02*
X004007Y013692D01*
X003908Y013594D02*
X004957Y013594D01*
X004957Y013495D02*
X003823Y013495D01*
X003938Y013397D02*
X004973Y013397D01*
X005014Y013298D02*
X004004Y013298D01*
X004044Y013200D02*
X005068Y013200D01*
X005166Y013101D02*
X003591Y013101D01*
X003591Y013003D02*
X005165Y013003D01*
X005067Y012904D02*
X004044Y012904D01*
X004003Y012806D02*
X005014Y012806D01*
X004973Y012707D02*
X003937Y012707D01*
X003822Y012609D02*
X004957Y012609D01*
X004957Y012510D02*
X003909Y012510D01*
X004007Y012412D02*
X004967Y012412D01*
X005008Y012313D02*
X004065Y012313D01*
X004106Y012215D02*
X005053Y012215D01*
X005151Y012116D02*
X004125Y012116D01*
X004125Y012018D02*
X005180Y012018D01*
X005082Y011919D02*
X004118Y011919D01*
X004077Y011821D02*
X005020Y011821D01*
X004979Y011722D02*
X004036Y011722D01*
X003938Y011624D02*
X004957Y011624D01*
X004957Y011525D02*
X003894Y011525D01*
X003992Y011427D02*
X004961Y011427D01*
X005002Y011328D02*
X004059Y011328D01*
X004100Y011230D02*
X005042Y011230D01*
X005136Y011131D02*
X004125Y011131D01*
X004125Y011033D02*
X005195Y011033D01*
X005097Y010934D02*
X004124Y010934D01*
X004083Y010836D02*
X004258Y010836D01*
X004138Y010737D02*
X004043Y010737D01*
X004051Y010639D02*
X003953Y010639D01*
X004010Y010540D02*
X003879Y010540D01*
X003203Y010540D02*
X002881Y010540D01*
X003007Y010442D02*
X003104Y010442D01*
X003129Y010639D02*
X000360Y010639D01*
X000360Y010737D02*
X003039Y010737D01*
X002999Y010836D02*
X000360Y010836D01*
X000360Y010934D02*
X002958Y010934D01*
X002957Y011033D02*
X000360Y011033D01*
X000360Y011131D02*
X002957Y011131D01*
X002982Y011230D02*
X000360Y011230D01*
X000360Y011328D02*
X003023Y011328D01*
X003089Y011427D02*
X000360Y011427D01*
X000360Y011525D02*
X003188Y011525D01*
X003144Y011624D02*
X000360Y011624D01*
X000360Y011722D02*
X003046Y011722D01*
X003005Y011821D02*
X000360Y011821D01*
X000360Y011919D02*
X002964Y011919D01*
X002957Y012018D02*
X000360Y012018D01*
X000360Y012116D02*
X002957Y012116D01*
X002976Y012215D02*
X000360Y012215D01*
X000360Y012313D02*
X003017Y012313D01*
X003074Y012412D02*
X000360Y012412D01*
X000360Y012510D02*
X003173Y012510D01*
X003260Y012609D02*
X000360Y012609D01*
X000360Y012707D02*
X003145Y012707D01*
X003078Y012806D02*
X000360Y012806D01*
X000360Y012904D02*
X003038Y012904D01*
X003038Y013200D02*
X000360Y013200D01*
X000360Y013298D02*
X003078Y013298D01*
X003144Y013397D02*
X000360Y013397D01*
X000360Y013495D02*
X003259Y013495D01*
X003174Y013594D02*
X000360Y013594D01*
X000360Y013692D02*
X003075Y013692D01*
X003017Y013791D02*
X000360Y013791D01*
X000360Y013889D02*
X002976Y013889D01*
X002957Y013988D02*
X000360Y013988D01*
X000360Y014086D02*
X001856Y014086D01*
X001914Y014029D02*
X002286Y014029D01*
X002550Y014292D01*
X002550Y014665D01*
X002286Y014929D01*
X001914Y014929D01*
X001650Y014665D01*
X001650Y014292D01*
X001914Y014029D01*
X001758Y014185D02*
X000360Y014185D01*
X000360Y014283D02*
X001659Y014283D01*
X001650Y014382D02*
X000360Y014382D01*
X000360Y014480D02*
X001650Y014480D01*
X001650Y014579D02*
X000360Y014579D01*
X000360Y014677D02*
X001662Y014677D01*
X001761Y014776D02*
X000360Y014776D01*
X000360Y014874D02*
X001859Y014874D01*
X001871Y015071D02*
X000360Y015071D01*
X000360Y014973D02*
X002957Y014973D01*
X002957Y015071D02*
X002329Y015071D01*
X002427Y015170D02*
X002957Y015170D01*
X002998Y015268D02*
X002526Y015268D01*
X002550Y015367D02*
X003039Y015367D01*
X003128Y015465D02*
X002550Y015465D01*
X002550Y015564D02*
X003204Y015564D01*
X003105Y015662D02*
X002550Y015662D01*
X002865Y015761D02*
X003030Y015761D01*
X003878Y015564D02*
X004103Y015564D01*
X004062Y015662D02*
X003977Y015662D01*
X003954Y015465D02*
X004193Y015465D01*
X004320Y015367D02*
X004043Y015367D01*
X004084Y015268D02*
X005026Y015268D01*
X004986Y015367D02*
X004880Y015367D01*
X005098Y015170D02*
X004124Y015170D01*
X004650Y015054D02*
X007587Y015054D01*
X008150Y016155D02*
X006951Y016155D01*
X007056Y016253D02*
X015600Y016253D01*
X015600Y016155D02*
X015700Y016155D01*
X015700Y016253D02*
X025780Y016253D01*
X026088Y016352D02*
X024825Y016352D01*
X024812Y016339D02*
X025040Y016567D01*
X025040Y016699D01*
X024680Y016699D01*
X024680Y016759D01*
X024620Y016759D01*
X024620Y017119D01*
X024488Y017119D01*
X024260Y016890D01*
X024260Y016759D01*
X024620Y016759D01*
X024620Y016699D01*
X024260Y016699D01*
X024260Y016567D01*
X024488Y016339D01*
X024620Y016339D01*
X024620Y016699D01*
X024680Y016699D01*
X024680Y016339D01*
X024812Y016339D01*
X024680Y016352D02*
X024620Y016352D01*
X024620Y016450D02*
X024680Y016450D01*
X024680Y016549D02*
X024620Y016549D01*
X024620Y016647D02*
X024680Y016647D01*
X024680Y016746D02*
X026647Y016746D01*
X026714Y016679D02*
X026450Y016942D01*
X026450Y017079D01*
X026850Y017079D01*
X026850Y017179D01*
X026850Y017579D01*
X026714Y017579D01*
X026450Y017315D01*
X026450Y017179D01*
X026850Y017179D01*
X026950Y017179D01*
X026950Y017579D01*
X027086Y017579D01*
X027350Y017315D01*
X027350Y017179D01*
X026950Y017179D01*
X026950Y017079D01*
X027350Y017079D01*
X027350Y016942D01*
X027086Y016679D01*
X026950Y016679D01*
X026950Y017079D01*
X026850Y017079D01*
X026850Y016679D01*
X026714Y016679D01*
X026850Y016746D02*
X026950Y016746D01*
X026950Y016844D02*
X026850Y016844D01*
X026850Y016943D02*
X026950Y016943D01*
X026950Y017041D02*
X026850Y017041D01*
X026850Y017140D02*
X023038Y017140D01*
X023038Y017238D02*
X026450Y017238D01*
X026472Y017337D02*
X023005Y017337D01*
X022942Y017435D02*
X026570Y017435D01*
X026669Y017534D02*
X022920Y017534D01*
X022920Y017632D02*
X029240Y017632D01*
X029240Y017534D02*
X028131Y017534D01*
X028086Y017579D02*
X027950Y017579D01*
X027950Y017179D01*
X027850Y017179D01*
X027850Y017579D01*
X027714Y017579D01*
X027450Y017315D01*
X027450Y017179D01*
X027850Y017179D01*
X027850Y017079D01*
X027450Y017079D01*
X027450Y016942D01*
X027714Y016679D01*
X027850Y016679D01*
X027850Y017079D01*
X027950Y017079D01*
X027950Y017179D01*
X028350Y017179D01*
X028350Y017315D01*
X028086Y017579D01*
X027950Y017534D02*
X027850Y017534D01*
X027850Y017435D02*
X027950Y017435D01*
X027950Y017337D02*
X027850Y017337D01*
X027850Y017238D02*
X027950Y017238D01*
X027950Y017140D02*
X029240Y017140D01*
X029240Y017238D02*
X028350Y017238D01*
X028328Y017337D02*
X029240Y017337D01*
X029240Y017435D02*
X028230Y017435D01*
X028350Y017079D02*
X027950Y017079D01*
X027950Y016679D01*
X028086Y016679D01*
X028350Y016942D01*
X028350Y017079D01*
X028350Y017041D02*
X029240Y017041D01*
X029240Y016943D02*
X028350Y016943D01*
X028252Y016844D02*
X029240Y016844D01*
X029240Y016746D02*
X028153Y016746D01*
X028201Y016549D02*
X029240Y016549D01*
X029240Y016647D02*
X025040Y016647D01*
X025022Y016549D02*
X026599Y016549D01*
X026395Y016450D02*
X024923Y016450D01*
X024812Y016119D02*
X024680Y016119D01*
X024680Y015759D01*
X024620Y015759D01*
X024620Y016119D01*
X024488Y016119D01*
X024260Y015890D01*
X024260Y015759D01*
X024620Y015759D01*
X024620Y015699D01*
X024260Y015699D01*
X024260Y015567D01*
X024488Y015339D01*
X024620Y015339D01*
X024620Y015699D01*
X024680Y015699D01*
X024680Y015759D01*
X025040Y015759D01*
X025040Y015890D01*
X024812Y016119D01*
X024874Y016056D02*
X025324Y016056D01*
X025251Y015958D02*
X024973Y015958D01*
X025040Y015859D02*
X025200Y015859D01*
X025190Y015761D02*
X025040Y015761D01*
X025040Y015699D02*
X024680Y015699D01*
X024680Y015339D01*
X024812Y015339D01*
X025040Y015567D01*
X025040Y015699D01*
X025040Y015662D02*
X025188Y015662D01*
X025190Y015564D02*
X025037Y015564D01*
X024938Y015465D02*
X025190Y015465D01*
X025190Y015367D02*
X024840Y015367D01*
X024680Y015367D02*
X024620Y015367D01*
X024620Y015465D02*
X024680Y015465D01*
X024680Y015564D02*
X024620Y015564D01*
X024620Y015662D02*
X024680Y015662D01*
X024680Y015761D02*
X024620Y015761D01*
X024620Y015859D02*
X024680Y015859D01*
X024680Y015958D02*
X024620Y015958D01*
X024620Y016056D02*
X024680Y016056D01*
X024426Y016056D02*
X021424Y016056D01*
X021523Y015958D02*
X024327Y015958D01*
X024260Y015859D02*
X021590Y015859D01*
X021590Y015761D02*
X024260Y015761D01*
X024260Y015662D02*
X021590Y015662D01*
X021587Y015564D02*
X024263Y015564D01*
X024362Y015465D02*
X021488Y015465D01*
X021390Y015367D02*
X024460Y015367D01*
X025469Y016155D02*
X021150Y016155D01*
X021170Y016056D02*
X021230Y016056D01*
X021230Y015958D02*
X021170Y015958D01*
X021170Y015859D02*
X021230Y015859D01*
X021230Y016339D02*
X021362Y016339D01*
X021590Y016567D01*
X021590Y016699D01*
X021230Y016699D01*
X021230Y016339D01*
X021230Y016352D02*
X021170Y016352D01*
X021170Y016450D02*
X021230Y016450D01*
X021230Y016549D02*
X021170Y016549D01*
X021170Y016647D02*
X021230Y016647D01*
X021230Y016746D02*
X024620Y016746D01*
X024680Y016759D02*
X024680Y017119D01*
X024812Y017119D01*
X025040Y016890D01*
X025040Y016759D01*
X024680Y016759D01*
X024680Y016844D02*
X024620Y016844D01*
X024620Y016943D02*
X024680Y016943D01*
X024680Y017041D02*
X024620Y017041D01*
X024411Y017041D02*
X023013Y017041D01*
X022963Y016943D02*
X024312Y016943D01*
X024260Y016844D02*
X022857Y016844D01*
X022443Y016844D02*
X022357Y016844D01*
X021943Y016844D02*
X021590Y016844D01*
X021590Y016890D02*
X021362Y017119D01*
X021230Y017119D01*
X021230Y016759D01*
X021590Y016759D01*
X021590Y016890D01*
X021538Y016943D02*
X021837Y016943D01*
X021787Y017041D02*
X021439Y017041D01*
X021230Y017041D02*
X021170Y017041D01*
X021170Y016943D02*
X021230Y016943D01*
X021230Y016844D02*
X021170Y016844D01*
X020961Y017041D02*
X020134Y017041D01*
X020138Y017140D02*
X021762Y017140D01*
X021762Y017238D02*
X020125Y017238D01*
X020084Y017337D02*
X021795Y017337D01*
X021858Y017435D02*
X020040Y017435D01*
X020040Y017534D02*
X021880Y017534D01*
X021880Y017632D02*
X020740Y017632D01*
X020736Y017629D02*
X021000Y017892D01*
X021000Y018265D01*
X020736Y018529D01*
X020364Y018529D01*
X020100Y018265D01*
X020100Y017892D01*
X020364Y017629D01*
X020736Y017629D01*
X020838Y017731D02*
X021880Y017731D01*
X021880Y017829D02*
X020937Y017829D01*
X021000Y017928D02*
X021880Y017928D01*
X021880Y018026D02*
X021000Y018026D01*
X021000Y018125D02*
X021880Y018125D01*
X021880Y018223D02*
X021000Y018223D01*
X020943Y018322D02*
X021880Y018322D01*
X021880Y018420D02*
X020845Y018420D01*
X020746Y018519D02*
X021880Y018519D01*
X021880Y018617D02*
X020040Y018617D01*
X020040Y018519D02*
X020354Y018519D01*
X020255Y018420D02*
X020040Y018420D01*
X020040Y018322D02*
X020157Y018322D01*
X020100Y018223D02*
X020040Y018223D01*
X020040Y018125D02*
X020100Y018125D01*
X020100Y018026D02*
X020040Y018026D01*
X020040Y017928D02*
X020100Y017928D01*
X020040Y017829D02*
X020163Y017829D01*
X020262Y017731D02*
X020040Y017731D01*
X020040Y017632D02*
X020360Y017632D01*
X020093Y016943D02*
X020862Y016943D01*
X020810Y016844D02*
X020014Y016844D01*
X020810Y016647D02*
X015959Y016647D01*
X015890Y016746D02*
X016610Y016746D01*
X016790Y016746D02*
X017410Y016746D01*
X017236Y016844D02*
X016964Y016844D01*
X017043Y016943D02*
X017157Y016943D01*
X017116Y017041D02*
X017084Y017041D01*
X017088Y017140D02*
X017112Y017140D01*
X017125Y017238D02*
X017075Y017238D01*
X017109Y017337D02*
X017034Y017337D01*
X017030Y017435D02*
X017064Y017435D01*
X016312Y017140D02*
X016223Y017140D01*
X016184Y017041D02*
X016316Y017041D01*
X016357Y016943D02*
X016143Y016943D01*
X016064Y016844D02*
X016436Y016844D01*
X016060Y016549D02*
X020828Y016549D01*
X020927Y016450D02*
X016121Y016450D01*
X016157Y016352D02*
X021025Y016352D01*
X021375Y016352D02*
X024475Y016352D01*
X024377Y016450D02*
X021473Y016450D01*
X021572Y016549D02*
X024278Y016549D01*
X024260Y016647D02*
X021590Y016647D01*
X022920Y017731D02*
X029240Y017731D01*
X029240Y017829D02*
X022920Y017829D01*
X022920Y017928D02*
X029240Y017928D01*
X029240Y018026D02*
X022920Y018026D01*
X022920Y018125D02*
X029240Y018125D01*
X029240Y018223D02*
X022920Y018223D01*
X022920Y018322D02*
X029240Y018322D01*
X029240Y018420D02*
X022920Y018420D01*
X022920Y018519D02*
X029240Y018519D01*
X029240Y018617D02*
X022920Y018617D01*
X022248Y019208D02*
X021000Y019208D01*
X021000Y019110D02*
X022149Y019110D01*
X022051Y019011D02*
X021000Y019011D01*
X021000Y018913D02*
X021952Y018913D01*
X021893Y018814D02*
X020922Y018814D01*
X020823Y018716D02*
X021880Y018716D01*
X022262Y019307D02*
X020958Y019307D01*
X020860Y019405D02*
X022303Y019405D01*
X022376Y019504D02*
X020761Y019504D01*
X020339Y019504D02*
X020118Y019504D01*
X020138Y019405D02*
X020240Y019405D01*
X020142Y019307D02*
X020138Y019307D01*
X020099Y019208D02*
X020100Y019208D01*
X020100Y019110D02*
X020040Y019110D01*
X020040Y019011D02*
X020100Y019011D01*
X020100Y018913D02*
X020040Y018913D01*
X020040Y018814D02*
X020178Y018814D01*
X020277Y018716D02*
X020040Y018716D01*
X020075Y019602D02*
X022538Y019602D01*
X022762Y019602D02*
X023038Y019602D01*
X023347Y019799D02*
X019500Y019799D01*
X019488Y019701D02*
X019523Y019701D01*
X019425Y019602D02*
X019389Y019602D01*
X019130Y019996D02*
X019070Y019996D01*
X019070Y020095D02*
X019130Y020095D01*
X019130Y020193D02*
X019070Y020193D01*
X018849Y020193D02*
X018636Y020193D01*
X018708Y020095D02*
X018750Y020095D01*
X018505Y020292D02*
X023304Y020292D01*
X023264Y020193D02*
X019351Y020193D01*
X019977Y019701D02*
X023455Y019701D01*
X023950Y019701D02*
X024050Y019701D01*
X024050Y019799D02*
X023950Y019799D01*
X023950Y019898D02*
X024050Y019898D01*
X024050Y019996D02*
X023950Y019996D01*
X023950Y020292D02*
X024050Y020292D01*
X024050Y020390D02*
X023950Y020390D01*
X023950Y020489D02*
X024050Y020489D01*
X023554Y020587D02*
X022180Y020587D01*
X022232Y020640D02*
X022310Y020827D01*
X022310Y021030D01*
X022232Y021218D01*
X022089Y021361D01*
X021901Y021439D01*
X021099Y021439D01*
X020911Y021361D01*
X020768Y021218D01*
X020690Y021030D01*
X020690Y020827D01*
X020768Y020640D01*
X020911Y020496D01*
X021099Y020419D01*
X021901Y020419D01*
X022089Y020496D01*
X022232Y020640D01*
X022251Y020686D02*
X023372Y020686D01*
X023273Y020784D02*
X022292Y020784D01*
X022310Y020883D02*
X023229Y020883D01*
X023190Y020981D02*
X022310Y020981D01*
X022289Y021080D02*
X023190Y021080D01*
X023190Y021178D02*
X022249Y021178D01*
X022173Y021277D02*
X023230Y021277D01*
X023275Y021375D02*
X022055Y021375D01*
X021973Y021512D02*
X022036Y021544D01*
X022093Y021586D01*
X022143Y021636D01*
X022185Y021693D01*
X022217Y021756D01*
X022239Y021823D01*
X022248Y021879D01*
X021550Y021879D01*
X021550Y021479D01*
X021835Y021479D01*
X021905Y021490D01*
X021973Y021512D01*
X022075Y021572D02*
X023559Y021572D01*
X023387Y021671D02*
X022169Y021671D01*
X022221Y021769D02*
X023288Y021769D01*
X023235Y021868D02*
X022246Y021868D01*
X021550Y021868D02*
X021450Y021868D01*
X021450Y021769D02*
X021550Y021769D01*
X021550Y021671D02*
X021450Y021671D01*
X021450Y021572D02*
X021550Y021572D01*
X021550Y022163D02*
X021450Y022163D01*
X021450Y022262D02*
X021550Y022262D01*
X021550Y022360D02*
X021450Y022360D01*
X020945Y021375D02*
X016460Y021375D01*
X016460Y021277D02*
X020827Y021277D01*
X020751Y021178D02*
X016460Y021178D01*
X016459Y021080D02*
X020711Y021080D01*
X020690Y020981D02*
X016360Y020981D01*
X016262Y020883D02*
X020690Y020883D01*
X020708Y020784D02*
X016163Y020784D01*
X016242Y020686D02*
X016698Y020686D01*
X016560Y020587D02*
X016362Y020587D01*
X016449Y020489D02*
X016496Y020489D01*
X017002Y020686D02*
X020749Y020686D01*
X020820Y020587D02*
X017140Y020587D01*
X017204Y020489D02*
X020929Y020489D01*
X022071Y020489D02*
X023514Y020489D01*
X023375Y020390D02*
X017238Y020390D01*
X017238Y020292D02*
X018095Y020292D01*
X018024Y019504D02*
X017524Y019504D01*
X018576Y019504D02*
X018909Y019504D01*
X018811Y019602D02*
X018674Y019602D01*
X016497Y021474D02*
X023374Y021474D01*
X024441Y021572D02*
X024849Y021572D01*
X024808Y021671D02*
X024613Y021671D01*
X024712Y021769D02*
X024770Y021769D01*
X024765Y021868D02*
X024770Y021868D01*
X024626Y021474D02*
X024935Y021474D01*
X025050Y021375D02*
X024725Y021375D01*
X024696Y020292D02*
X025985Y020292D01*
X025843Y020193D02*
X024736Y020193D01*
X026415Y020292D02*
X027985Y020292D01*
X027843Y020193D02*
X027464Y020193D01*
X027493Y020172D02*
X027436Y020214D01*
X027373Y020246D01*
X027305Y020268D01*
X027250Y020276D01*
X027250Y019579D01*
X027150Y019579D01*
X027150Y020276D01*
X027095Y020268D01*
X027027Y020246D01*
X026964Y020214D01*
X026907Y020172D01*
X026857Y020122D01*
X026815Y020065D01*
X026783Y020002D01*
X026761Y019934D01*
X026750Y019864D01*
X026750Y019579D01*
X027150Y019579D01*
X027150Y019479D01*
X026750Y019479D01*
X026750Y019193D01*
X026761Y019123D01*
X026783Y019056D01*
X026815Y018993D01*
X026857Y018936D01*
X026907Y018886D01*
X026964Y018844D01*
X027027Y018812D01*
X027095Y018790D01*
X027150Y018781D01*
X027150Y019479D01*
X027250Y019479D01*
X027250Y019579D01*
X027650Y019579D01*
X027650Y019864D01*
X027639Y019934D01*
X027617Y020002D01*
X027585Y020065D01*
X027543Y020122D01*
X027493Y020172D01*
X027563Y020095D02*
X027758Y020095D01*
X027717Y019996D02*
X027619Y019996D01*
X027645Y019898D02*
X027690Y019898D01*
X027690Y019799D02*
X027650Y019799D01*
X027650Y019701D02*
X027690Y019701D01*
X027690Y019602D02*
X027650Y019602D01*
X027690Y019504D02*
X027250Y019504D01*
X027250Y019479D02*
X027650Y019479D01*
X027650Y019193D01*
X027639Y019123D01*
X027617Y019056D01*
X027585Y018993D01*
X027543Y018936D01*
X027493Y018886D01*
X027436Y018844D01*
X027373Y018812D01*
X027305Y018790D01*
X027250Y018781D01*
X027250Y019479D01*
X027250Y019405D02*
X027150Y019405D01*
X027150Y019307D02*
X027250Y019307D01*
X027250Y019208D02*
X027150Y019208D01*
X027150Y019110D02*
X027250Y019110D01*
X027250Y019011D02*
X027150Y019011D01*
X027150Y018913D02*
X027250Y018913D01*
X027250Y018814D02*
X027150Y018814D01*
X027022Y018814D02*
X026507Y018814D01*
X026605Y018913D02*
X026880Y018913D01*
X026806Y019011D02*
X026662Y019011D01*
X026703Y019110D02*
X026765Y019110D01*
X026750Y019208D02*
X026710Y019208D01*
X026710Y019307D02*
X026750Y019307D01*
X026750Y019405D02*
X026710Y019405D01*
X026710Y019504D02*
X027150Y019504D01*
X027150Y019602D02*
X027250Y019602D01*
X027250Y019701D02*
X027150Y019701D01*
X027150Y019799D02*
X027250Y019799D01*
X027250Y019898D02*
X027150Y019898D01*
X027150Y019996D02*
X027250Y019996D01*
X027250Y020095D02*
X027150Y020095D01*
X027150Y020193D02*
X027250Y020193D01*
X026936Y020193D02*
X026557Y020193D01*
X026642Y020095D02*
X026837Y020095D01*
X026781Y019996D02*
X026683Y019996D01*
X026710Y019898D02*
X026755Y019898D01*
X026750Y019799D02*
X026710Y019799D01*
X026710Y019701D02*
X026750Y019701D01*
X026750Y019602D02*
X026710Y019602D01*
X027650Y019405D02*
X027690Y019405D01*
X027690Y019307D02*
X027650Y019307D01*
X027650Y019208D02*
X027690Y019208D01*
X027697Y019110D02*
X027635Y019110D01*
X027594Y019011D02*
X027738Y019011D01*
X027795Y018913D02*
X027520Y018913D01*
X027378Y018814D02*
X027893Y018814D01*
X027669Y017534D02*
X027131Y017534D01*
X027230Y017435D02*
X027570Y017435D01*
X027472Y017337D02*
X027328Y017337D01*
X027350Y017238D02*
X027450Y017238D01*
X027450Y017041D02*
X027350Y017041D01*
X027350Y016943D02*
X027450Y016943D01*
X027548Y016844D02*
X027252Y016844D01*
X027153Y016746D02*
X027647Y016746D01*
X027599Y016549D02*
X027201Y016549D01*
X027300Y016450D02*
X027500Y016450D01*
X027402Y016352D02*
X027398Y016352D01*
X027850Y016746D02*
X027950Y016746D01*
X027950Y016844D02*
X027850Y016844D01*
X027850Y016943D02*
X027950Y016943D01*
X027950Y017041D02*
X027850Y017041D01*
X027850Y017140D02*
X026950Y017140D01*
X026950Y017238D02*
X026850Y017238D01*
X026850Y017337D02*
X026950Y017337D01*
X026950Y017435D02*
X026850Y017435D01*
X026850Y017534D02*
X026950Y017534D01*
X026450Y017041D02*
X024889Y017041D01*
X024988Y016943D02*
X026450Y016943D01*
X026548Y016844D02*
X025040Y016844D01*
X026141Y015367D02*
X026417Y015367D01*
X026415Y015465D02*
X026515Y015465D01*
X026390Y015268D02*
X026110Y015268D01*
X026110Y015170D02*
X026390Y015170D01*
X026390Y015071D02*
X026110Y015071D01*
X026110Y014973D02*
X026390Y014973D01*
X026433Y014874D02*
X026110Y014874D01*
X026110Y014776D02*
X026532Y014776D01*
X026630Y014677D02*
X026110Y014677D01*
X026110Y014579D02*
X029240Y014579D01*
X029240Y014677D02*
X028143Y014677D01*
X028111Y014539D02*
X027689Y014539D01*
X027400Y014250D01*
X027111Y014539D01*
X026689Y014539D01*
X026390Y014240D01*
X026390Y013818D01*
X026689Y013519D01*
X026750Y013519D01*
X026611Y013461D01*
X026468Y013318D01*
X026390Y013130D01*
X026390Y012927D01*
X026468Y012740D01*
X026611Y012596D01*
X026799Y012519D01*
X027001Y012519D01*
X027189Y012596D01*
X027332Y012740D01*
X027390Y012879D01*
X027390Y012818D01*
X027689Y012519D01*
X028111Y012519D01*
X028410Y012818D01*
X028410Y013240D01*
X028121Y013529D01*
X028410Y013818D01*
X028410Y014240D01*
X028111Y014539D01*
X028170Y014480D02*
X029240Y014480D01*
X029240Y014382D02*
X029183Y014382D01*
X028950Y014382D02*
X028850Y014382D01*
X028850Y014283D02*
X028950Y014283D01*
X028950Y014185D02*
X028850Y014185D01*
X028850Y014086D02*
X028950Y014086D01*
X028850Y013988D02*
X028410Y013988D01*
X028410Y014086D02*
X028450Y014086D01*
X028450Y014185D02*
X028410Y014185D01*
X028367Y014283D02*
X028518Y014283D01*
X028617Y014382D02*
X028268Y014382D01*
X028268Y014776D02*
X029240Y014776D01*
X029240Y014874D02*
X028347Y014874D01*
X028387Y014973D02*
X029240Y014973D01*
X029240Y015071D02*
X028410Y015071D01*
X028410Y015170D02*
X029240Y015170D01*
X029240Y015268D02*
X028394Y015268D01*
X028353Y015367D02*
X029240Y015367D01*
X029240Y015465D02*
X028285Y015465D01*
X028182Y015564D02*
X029240Y015564D01*
X029240Y015662D02*
X028155Y015662D01*
X028253Y015761D02*
X029240Y015761D01*
X029240Y015859D02*
X028352Y015859D01*
X028410Y015958D02*
X029240Y015958D01*
X029240Y016056D02*
X028410Y016056D01*
X028410Y016155D02*
X029240Y016155D01*
X029240Y016253D02*
X028410Y016253D01*
X028398Y016352D02*
X029240Y016352D01*
X029240Y016450D02*
X028300Y016450D01*
X027413Y014973D02*
X027410Y014973D01*
X027367Y014874D02*
X027453Y014874D01*
X027532Y014776D02*
X027268Y014776D01*
X027170Y014677D02*
X027657Y014677D01*
X027630Y014480D02*
X027170Y014480D01*
X027268Y014382D02*
X027532Y014382D01*
X027433Y014283D02*
X027367Y014283D01*
X026630Y014480D02*
X026110Y014480D01*
X026110Y014382D02*
X026532Y014382D01*
X026433Y014283D02*
X026110Y014283D01*
X026110Y014185D02*
X026390Y014185D01*
X026390Y014086D02*
X026110Y014086D01*
X026110Y013988D02*
X026390Y013988D01*
X026390Y013889D02*
X026110Y013889D01*
X026110Y013791D02*
X026417Y013791D01*
X026515Y013692D02*
X026110Y013692D01*
X026110Y013594D02*
X026614Y013594D01*
X026694Y013495D02*
X026110Y013495D01*
X026110Y013397D02*
X026547Y013397D01*
X026460Y013298D02*
X026110Y013298D01*
X026110Y013200D02*
X026419Y013200D01*
X026390Y013101D02*
X026110Y013101D01*
X026110Y013003D02*
X026390Y013003D01*
X026400Y012904D02*
X026110Y012904D01*
X026110Y012806D02*
X026440Y012806D01*
X026500Y012707D02*
X026110Y012707D01*
X026110Y012609D02*
X026599Y012609D01*
X026689Y012439D02*
X026390Y012140D01*
X026390Y011718D01*
X026689Y011419D01*
X026750Y011419D01*
X026611Y011361D01*
X026468Y011218D01*
X026390Y011030D01*
X026390Y010827D01*
X026451Y010681D01*
X026446Y010684D01*
X026408Y010694D01*
X025651Y010694D01*
X025651Y010279D01*
X026538Y010279D01*
X026538Y010564D01*
X026536Y010572D01*
X026611Y010496D01*
X026799Y010419D01*
X027001Y010419D01*
X027189Y010496D01*
X027332Y010640D01*
X027390Y010779D01*
X027390Y010718D01*
X027689Y010419D01*
X028111Y010419D01*
X028410Y010718D01*
X028410Y011140D01*
X028121Y011429D01*
X028410Y011718D01*
X028410Y012140D01*
X028111Y012439D01*
X027689Y012439D01*
X027400Y012150D01*
X027111Y012439D01*
X026689Y012439D01*
X026662Y012412D02*
X026110Y012412D01*
X026110Y012510D02*
X029240Y012510D01*
X029240Y012412D02*
X028138Y012412D01*
X028237Y012313D02*
X028648Y012313D01*
X028550Y012215D02*
X028335Y012215D01*
X028410Y012116D02*
X028451Y012116D01*
X028450Y012018D02*
X028410Y012018D01*
X028410Y011919D02*
X028850Y011919D01*
X028850Y011821D02*
X028950Y011821D01*
X028950Y011722D02*
X028850Y011722D01*
X028850Y011624D02*
X028950Y011624D01*
X028950Y011525D02*
X028850Y011525D01*
X028667Y011525D02*
X028218Y011525D01*
X028123Y011427D02*
X029240Y011427D01*
X029240Y011525D02*
X029133Y011525D01*
X029231Y011624D02*
X029240Y011624D01*
X029240Y011328D02*
X029137Y011328D01*
X029235Y011230D02*
X029240Y011230D01*
X028950Y011230D02*
X028850Y011230D01*
X028850Y011328D02*
X028950Y011328D01*
X028950Y011131D02*
X028850Y011131D01*
X028850Y011033D02*
X028950Y011033D01*
X028850Y010934D02*
X028410Y010934D01*
X028410Y010836D02*
X028450Y010836D01*
X028455Y010737D02*
X028410Y010737D01*
X028331Y010639D02*
X028554Y010639D01*
X028652Y010540D02*
X028233Y010540D01*
X028134Y010442D02*
X029240Y010442D01*
X029240Y010540D02*
X029148Y010540D01*
X028950Y010540D02*
X028850Y010540D01*
X028850Y010639D02*
X028950Y010639D01*
X028950Y010737D02*
X028850Y010737D01*
X028850Y010836D02*
X028950Y010836D01*
X028450Y011033D02*
X028410Y011033D01*
X028410Y011131D02*
X028466Y011131D01*
X028565Y011230D02*
X028320Y011230D01*
X028222Y011328D02*
X028663Y011328D01*
X028569Y011624D02*
X028316Y011624D01*
X028410Y011722D02*
X028470Y011722D01*
X028450Y011821D02*
X028410Y011821D01*
X028850Y012018D02*
X028950Y012018D01*
X028950Y012116D02*
X028850Y012116D01*
X028850Y012215D02*
X028950Y012215D01*
X028950Y012313D02*
X028850Y012313D01*
X028850Y012609D02*
X028950Y012609D01*
X028950Y012707D02*
X028850Y012707D01*
X028850Y012806D02*
X028950Y012806D01*
X028950Y012904D02*
X028850Y012904D01*
X028850Y013003D02*
X028410Y013003D01*
X028410Y013101D02*
X028450Y013101D01*
X028450Y013200D02*
X028410Y013200D01*
X028352Y013298D02*
X028533Y013298D01*
X028632Y013397D02*
X028253Y013397D01*
X028155Y013495D02*
X029240Y013495D01*
X029240Y013397D02*
X029168Y013397D01*
X029101Y013594D02*
X029240Y013594D01*
X029240Y013692D02*
X029200Y013692D01*
X028950Y013692D02*
X028850Y013692D01*
X028850Y013594D02*
X028950Y013594D01*
X028950Y013791D02*
X028850Y013791D01*
X028850Y013889D02*
X028950Y013889D01*
X028699Y013594D02*
X028186Y013594D01*
X028285Y013692D02*
X028600Y013692D01*
X028502Y013791D02*
X028383Y013791D01*
X028410Y013889D02*
X028450Y013889D01*
X028850Y013397D02*
X028950Y013397D01*
X028950Y013298D02*
X028850Y013298D01*
X028850Y013200D02*
X028950Y013200D01*
X028950Y013101D02*
X028850Y013101D01*
X028450Y012904D02*
X028410Y012904D01*
X028398Y012806D02*
X028487Y012806D01*
X028585Y012707D02*
X028300Y012707D01*
X028201Y012609D02*
X028684Y012609D01*
X029116Y012609D02*
X029240Y012609D01*
X029240Y012707D02*
X029215Y012707D01*
X029240Y012313D02*
X029152Y012313D01*
X027662Y012412D02*
X027138Y012412D01*
X027237Y012313D02*
X027563Y012313D01*
X027465Y012215D02*
X027335Y012215D01*
X027201Y012609D02*
X027599Y012609D01*
X027500Y012707D02*
X027300Y012707D01*
X027360Y012806D02*
X027402Y012806D01*
X026563Y012313D02*
X026110Y012313D01*
X026110Y012215D02*
X026465Y012215D01*
X026390Y012116D02*
X026110Y012116D01*
X026110Y012018D02*
X026390Y012018D01*
X026390Y011919D02*
X026110Y011919D01*
X026110Y011821D02*
X026390Y011821D01*
X026390Y011722D02*
X026110Y011722D01*
X026110Y011624D02*
X026484Y011624D01*
X026582Y011525D02*
X026110Y011525D01*
X026110Y011427D02*
X026681Y011427D01*
X026578Y011328D02*
X026110Y011328D01*
X026110Y011230D02*
X026480Y011230D01*
X026432Y011131D02*
X026108Y011131D01*
X026067Y011033D02*
X026391Y011033D01*
X026390Y010934D02*
X026006Y010934D01*
X025903Y010836D02*
X026390Y010836D01*
X026427Y010737D02*
X024491Y010737D01*
X024368Y010639D02*
X024696Y010639D01*
X024663Y010540D02*
X024245Y010540D01*
X024197Y010442D02*
X024663Y010442D01*
X024663Y010343D02*
X024197Y010343D01*
X024197Y010245D02*
X025551Y010245D01*
X025551Y010179D02*
X024663Y010179D01*
X024663Y009894D01*
X024674Y009856D01*
X024693Y009822D01*
X024721Y009794D01*
X024755Y009774D01*
X024794Y009764D01*
X025551Y009764D01*
X025551Y010179D01*
X025551Y010146D02*
X025651Y010146D01*
X025651Y010048D02*
X025551Y010048D01*
X025551Y009949D02*
X025651Y009949D01*
X025651Y009851D02*
X025551Y009851D01*
X025651Y010245D02*
X026595Y010245D01*
X026538Y010343D02*
X029240Y010343D01*
X029240Y010245D02*
X029120Y010245D01*
X029219Y010146D02*
X029240Y010146D01*
X028950Y010146D02*
X028850Y010146D01*
X028850Y010048D02*
X028950Y010048D01*
X028950Y009949D02*
X028850Y009949D01*
X028850Y009851D02*
X028410Y009851D01*
X028410Y009949D02*
X028450Y009949D01*
X028483Y010048D02*
X028402Y010048D01*
X028304Y010146D02*
X028581Y010146D01*
X028680Y010245D02*
X028205Y010245D01*
X028410Y009752D02*
X028450Y009752D01*
X028450Y009654D02*
X028410Y009654D01*
X028348Y009555D02*
X028537Y009555D01*
X028636Y009457D02*
X028249Y009457D01*
X028151Y009358D02*
X029240Y009358D01*
X029240Y009260D02*
X029105Y009260D01*
X029204Y009161D02*
X029240Y009161D01*
X028950Y009161D02*
X028850Y009161D01*
X028850Y009063D02*
X028950Y009063D01*
X028950Y008964D02*
X028850Y008964D01*
X028850Y008866D02*
X028410Y008866D01*
X028410Y008964D02*
X028450Y008964D01*
X028498Y009063D02*
X028387Y009063D01*
X028289Y009161D02*
X028596Y009161D01*
X028695Y009260D02*
X028190Y009260D01*
X028410Y008767D02*
X028450Y008767D01*
X028450Y008669D02*
X028410Y008669D01*
X028363Y008570D02*
X028522Y008570D01*
X028621Y008472D02*
X028264Y008472D01*
X028360Y008373D02*
X029240Y008373D01*
X029240Y008275D02*
X028568Y008275D01*
X028721Y008176D02*
X029240Y008176D01*
X029240Y008078D02*
X028875Y008078D01*
X028894Y008065D02*
X028894Y008065D01*
X028969Y007979D02*
X029240Y007979D01*
X029240Y007881D02*
X029054Y007881D01*
X029139Y007782D02*
X029240Y007782D01*
X029240Y007684D02*
X029225Y007684D01*
X029232Y007676D02*
X029232Y007676D01*
X029240Y008472D02*
X029179Y008472D01*
X028950Y008472D02*
X028850Y008472D01*
X028850Y008570D02*
X028950Y008570D01*
X028950Y008669D02*
X028850Y008669D01*
X028850Y008767D02*
X028950Y008767D01*
X028950Y009260D02*
X028850Y009260D01*
X028850Y009457D02*
X028950Y009457D01*
X028950Y009555D02*
X028850Y009555D01*
X028850Y009654D02*
X028950Y009654D01*
X028950Y009752D02*
X028850Y009752D01*
X029164Y009457D02*
X029240Y009457D01*
X028950Y010245D02*
X028850Y010245D01*
X027666Y010442D02*
X027057Y010442D01*
X027233Y010540D02*
X027567Y010540D01*
X027469Y010639D02*
X027331Y010639D01*
X027373Y010737D02*
X027390Y010737D01*
X027205Y010245D02*
X027595Y010245D01*
X027496Y010146D02*
X027304Y010146D01*
X026743Y010442D02*
X026538Y010442D01*
X026538Y010540D02*
X026567Y010540D01*
X026390Y009752D02*
X024343Y009752D01*
X024385Y009654D02*
X026390Y009654D01*
X026452Y009555D02*
X024428Y009555D01*
X024471Y009457D02*
X026551Y009457D01*
X026649Y009358D02*
X024514Y009358D01*
X024556Y009260D02*
X026610Y009260D01*
X026511Y009161D02*
X024599Y009161D01*
X024642Y009063D02*
X026445Y009063D01*
X026404Y008964D02*
X025333Y008964D01*
X025167Y008964D02*
X024883Y008964D01*
X024717Y008964D02*
X024684Y008964D01*
X025512Y008866D02*
X026390Y008866D01*
X026390Y008767D02*
X025592Y008767D01*
X025633Y008669D02*
X026414Y008669D01*
X026455Y008570D02*
X025638Y008570D01*
X025626Y008472D02*
X026536Y008472D01*
X026667Y008373D02*
X025585Y008373D01*
X025495Y008275D02*
X026850Y008275D01*
X025651Y010343D02*
X025551Y010343D01*
X025551Y010442D02*
X025651Y010442D01*
X025651Y010540D02*
X025551Y010540D01*
X025551Y010639D02*
X025651Y010639D01*
X024663Y010146D02*
X024197Y010146D01*
X024215Y010048D02*
X024663Y010048D01*
X024663Y009949D02*
X024257Y009949D01*
X024300Y009851D02*
X024677Y009851D01*
X022173Y009161D02*
X021798Y009161D01*
X021813Y009260D02*
X022020Y009260D01*
X021951Y009358D02*
X021813Y009358D01*
X021912Y009457D02*
X021500Y009457D01*
X021500Y009358D02*
X021400Y009358D01*
X021400Y009260D02*
X021500Y009260D01*
X021500Y009161D02*
X021400Y009161D01*
X021400Y009457D02*
X020130Y009457D01*
X019124Y008491D02*
X019112Y008491D01*
X018800Y008179D01*
X018800Y007517D01*
X018750Y007467D01*
X018750Y007829D01*
X018600Y007979D01*
X018200Y007979D01*
X017850Y007779D01*
X017850Y007060D01*
X017400Y006610D01*
X016969Y006179D01*
X016940Y006206D02*
X015910Y006206D01*
X015910Y006108D02*
X016575Y006108D01*
X016606Y006009D02*
X015903Y006009D01*
X015850Y005911D02*
X016671Y005911D01*
X016808Y005812D02*
X015553Y005812D01*
X015600Y005714D02*
X019150Y005714D01*
X019150Y005615D02*
X015200Y005615D01*
X015200Y005529D02*
X015600Y005529D01*
X015600Y005392D01*
X015336Y005129D01*
X015200Y005129D01*
X015200Y005529D01*
X015200Y005517D02*
X015100Y005517D01*
X015100Y005615D02*
X014660Y005615D01*
X014660Y005517D02*
X014700Y005517D01*
X014700Y005418D02*
X014660Y005418D01*
X014612Y005320D02*
X014773Y005320D01*
X014871Y005221D02*
X014514Y005221D01*
X014415Y005123D02*
X019150Y005123D01*
X019150Y005221D02*
X015429Y005221D01*
X015527Y005320D02*
X019150Y005320D01*
X019150Y005418D02*
X015600Y005418D01*
X015600Y005517D02*
X019150Y005517D01*
X018901Y005812D02*
X018828Y005812D01*
X018544Y006179D02*
X018376Y006797D01*
X018376Y007467D01*
X018058Y007487D02*
X012655Y007487D01*
X012688Y007388D02*
X018058Y007388D01*
X018058Y007290D02*
X014807Y007290D01*
X014905Y007191D02*
X016314Y007191D01*
X016219Y007093D02*
X015004Y007093D01*
X014650Y007079D02*
X015150Y006579D01*
X015650Y006579D02*
X015650Y006079D01*
X013850Y006079D01*
X013350Y005579D01*
X013150Y005579D01*
X012688Y005320D02*
X012612Y005320D01*
X012514Y005221D02*
X012786Y005221D01*
X012885Y005123D02*
X012415Y005123D01*
X011885Y005123D02*
X010581Y005123D01*
X010630Y005221D02*
X010871Y005221D01*
X010964Y005129D02*
X011100Y005129D01*
X011100Y005529D01*
X010700Y005529D01*
X010700Y005392D01*
X010964Y005129D01*
X011100Y005221D02*
X011200Y005221D01*
X011200Y005129D02*
X011336Y005129D01*
X011600Y005392D01*
X011600Y005529D01*
X011200Y005529D01*
X011200Y005629D01*
X011100Y005629D01*
X011100Y006029D01*
X010964Y006029D01*
X010700Y005765D01*
X010700Y005629D01*
X011100Y005629D01*
X011100Y005529D01*
X011200Y005529D01*
X011200Y005129D01*
X011200Y005320D02*
X011100Y005320D01*
X011100Y005418D02*
X011200Y005418D01*
X011200Y005517D02*
X011100Y005517D01*
X011100Y005615D02*
X010630Y005615D01*
X010630Y005517D02*
X010700Y005517D01*
X010700Y005418D02*
X010630Y005418D01*
X010630Y005320D02*
X010773Y005320D01*
X010700Y005714D02*
X010630Y005714D01*
X010630Y005812D02*
X010747Y005812D01*
X010846Y005911D02*
X010630Y005911D01*
X010630Y006009D02*
X010944Y006009D01*
X010900Y006108D02*
X010608Y006108D01*
X010509Y006206D02*
X010801Y006206D01*
X010703Y006305D02*
X010544Y006305D01*
X010584Y006403D02*
X010640Y006403D01*
X010640Y006502D02*
X010625Y006502D01*
X011100Y006009D02*
X011200Y006009D01*
X011200Y006029D02*
X011336Y006029D01*
X011600Y005765D01*
X011600Y005629D01*
X011200Y005629D01*
X011200Y006029D01*
X011200Y005911D02*
X011100Y005911D01*
X011100Y005812D02*
X011200Y005812D01*
X011200Y005714D02*
X011100Y005714D01*
X011200Y005615D02*
X011640Y005615D01*
X011640Y005517D02*
X011600Y005517D01*
X011600Y005418D02*
X011640Y005418D01*
X011688Y005320D02*
X011527Y005320D01*
X011429Y005221D02*
X011786Y005221D01*
X011640Y005714D02*
X011600Y005714D01*
X011553Y005812D02*
X011662Y005812D01*
X011761Y005911D02*
X011454Y005911D01*
X011356Y006009D02*
X011859Y006009D01*
X011900Y006108D02*
X011400Y006108D01*
X011499Y006206D02*
X011801Y006206D01*
X011703Y006305D02*
X011597Y006305D01*
X012350Y007079D02*
X014650Y007079D01*
X014366Y007579D02*
X014600Y007813D01*
X014600Y007949D01*
X014230Y007949D01*
X014230Y008009D01*
X014600Y008009D01*
X014600Y008144D01*
X014386Y008358D01*
X014461Y008389D01*
X014590Y008518D01*
X014660Y008687D01*
X014660Y008870D01*
X014590Y009039D01*
X014461Y009169D01*
X014291Y009239D01*
X014138Y009239D01*
X014138Y009256D01*
X014079Y009399D01*
X013970Y009508D01*
X013827Y009567D01*
X013673Y009567D01*
X013530Y009508D01*
X013471Y009449D01*
X012129Y009449D01*
X012070Y009508D01*
X011927Y009567D01*
X011773Y009567D01*
X011630Y009508D01*
X011521Y009399D01*
X011462Y009256D01*
X011462Y009102D01*
X011521Y008959D01*
X011630Y008850D01*
X011773Y008791D01*
X011927Y008791D01*
X012070Y008850D01*
X012129Y008909D01*
X013471Y008909D01*
X013530Y008850D01*
X013673Y008791D01*
X013740Y008791D01*
X013740Y008687D01*
X013810Y008518D01*
X013939Y008389D01*
X014014Y008358D01*
X013800Y008144D01*
X013800Y008009D01*
X014170Y008009D01*
X014170Y007949D01*
X013800Y007949D01*
X013800Y007813D01*
X014034Y007579D01*
X014170Y007579D01*
X014170Y007949D01*
X014230Y007949D01*
X014230Y007579D01*
X014366Y007579D01*
X014372Y007585D02*
X018058Y007585D01*
X018058Y007684D02*
X014471Y007684D01*
X014569Y007782D02*
X018058Y007782D01*
X018148Y007881D02*
X014600Y007881D01*
X014600Y008078D02*
X017602Y008078D01*
X017543Y008176D02*
X014568Y008176D01*
X014470Y008275D02*
X017512Y008275D01*
X017512Y008373D02*
X014423Y008373D01*
X014544Y008472D02*
X017539Y008472D01*
X017593Y008570D02*
X014612Y008570D01*
X014652Y008669D02*
X017707Y008669D01*
X017914Y008866D02*
X016786Y008866D01*
X016641Y008767D02*
X018058Y008767D01*
X018150Y009179D02*
X016700Y009179D01*
X016500Y009129D01*
X016359Y008767D02*
X014660Y008767D01*
X014660Y008866D02*
X016214Y008866D01*
X016148Y008964D02*
X014621Y008964D01*
X014567Y009063D02*
X016112Y009063D01*
X016112Y009161D02*
X014468Y009161D01*
X014137Y009260D02*
X016134Y009260D01*
X016181Y009358D02*
X014096Y009358D01*
X014021Y009457D02*
X016279Y009457D01*
X016721Y009457D02*
X017879Y009457D01*
X018045Y009555D02*
X013855Y009555D01*
X013645Y009555D02*
X011955Y009555D01*
X012121Y009457D02*
X013479Y009457D01*
X013120Y009850D02*
X013229Y009959D01*
X013288Y010102D01*
X013288Y010256D01*
X013229Y010399D01*
X013137Y010490D01*
X013031Y011911D01*
X013079Y011959D01*
X013138Y012102D01*
X013138Y012256D01*
X013079Y012399D01*
X012970Y012508D01*
X012827Y012567D01*
X012673Y012567D01*
X012530Y012508D01*
X012421Y012399D01*
X012362Y012256D01*
X012362Y012102D01*
X012421Y011959D01*
X012513Y011867D01*
X012619Y010447D01*
X012571Y010399D01*
X012512Y010256D01*
X012512Y010102D01*
X012571Y009959D01*
X012680Y009850D01*
X012823Y009791D01*
X012977Y009791D01*
X013120Y009850D01*
X013121Y009851D02*
X018150Y009851D01*
X018150Y009949D02*
X017469Y009949D01*
X017568Y010048D02*
X018150Y010048D01*
X018150Y010146D02*
X017615Y010146D01*
X017638Y010245D02*
X018150Y010245D01*
X018150Y010343D02*
X017638Y010343D01*
X017603Y010442D02*
X018150Y010442D01*
X018150Y010540D02*
X017537Y010540D01*
X017395Y010639D02*
X018150Y010639D01*
X018150Y010737D02*
X017023Y010737D01*
X016872Y010836D02*
X018150Y010836D01*
X018150Y010934D02*
X016721Y010934D01*
X016570Y011033D02*
X018150Y011033D01*
X018150Y011131D02*
X016478Y011131D01*
X016100Y011029D02*
X017250Y010279D01*
X016932Y010048D02*
X013266Y010048D01*
X013288Y010146D02*
X016885Y010146D01*
X016826Y010245D02*
X013288Y010245D01*
X013252Y010343D02*
X016675Y010343D01*
X016524Y010442D02*
X014880Y010442D01*
X014877Y010441D02*
X015020Y010500D01*
X015129Y010609D01*
X015188Y010752D01*
X015188Y010906D01*
X015183Y010918D01*
X015250Y010918D01*
X015373Y011041D01*
X015373Y011628D01*
X015279Y011721D01*
X015283Y011724D01*
X015302Y011759D01*
X015313Y011797D01*
X015313Y011973D01*
X015000Y011973D01*
X015000Y012073D01*
X014900Y012073D01*
X014900Y011973D01*
X014350Y011973D01*
X014350Y012073D01*
X014663Y012073D01*
X014900Y012073D01*
X014900Y012380D01*
X014718Y012380D01*
X014680Y012370D01*
X014645Y012350D01*
X014625Y012330D01*
X014605Y012350D01*
X014570Y012370D01*
X014532Y012380D01*
X014350Y012380D01*
X014350Y012073D01*
X014250Y012073D01*
X014250Y011973D01*
X013937Y011973D01*
X013937Y011797D01*
X013948Y011759D01*
X013967Y011724D01*
X013971Y011721D01*
X013877Y011628D01*
X013877Y011041D01*
X013941Y010977D01*
X013912Y010906D01*
X013912Y010752D01*
X013971Y010609D01*
X014080Y010500D01*
X014223Y010441D01*
X014377Y010441D01*
X014520Y010500D01*
X014550Y010530D01*
X014580Y010500D01*
X014723Y010441D01*
X014877Y010441D01*
X014720Y010442D02*
X014380Y010442D01*
X014220Y010442D02*
X013186Y010442D01*
X013134Y010540D02*
X014040Y010540D01*
X013959Y010639D02*
X013126Y010639D01*
X013119Y010737D02*
X013918Y010737D01*
X013912Y010836D02*
X013111Y010836D01*
X013104Y010934D02*
X013924Y010934D01*
X013885Y011033D02*
X013097Y011033D01*
X013089Y011131D02*
X013877Y011131D01*
X013877Y011230D02*
X013082Y011230D01*
X013075Y011328D02*
X013877Y011328D01*
X013877Y011427D02*
X013067Y011427D01*
X013060Y011525D02*
X013877Y011525D01*
X013877Y011624D02*
X013052Y011624D01*
X013045Y011722D02*
X013970Y011722D01*
X013937Y011821D02*
X013038Y011821D01*
X013039Y011919D02*
X013937Y011919D01*
X013937Y012073D02*
X014250Y012073D01*
X014250Y012380D01*
X014068Y012380D01*
X014030Y012370D01*
X013995Y012350D01*
X013967Y012322D01*
X013948Y012288D01*
X013937Y012250D01*
X013937Y012073D01*
X013937Y012116D02*
X013138Y012116D01*
X013138Y012215D02*
X013937Y012215D01*
X013962Y012313D02*
X013114Y012313D01*
X013066Y012412D02*
X015118Y012412D01*
X015050Y012510D02*
X012964Y012510D01*
X012536Y012510D02*
X012092Y012510D01*
X011994Y012412D02*
X012434Y012412D01*
X012386Y012313D02*
X009608Y012313D01*
X009650Y012215D02*
X011418Y012215D01*
X011423Y012217D02*
X011280Y012158D01*
X011171Y012049D01*
X011112Y011906D01*
X011112Y011752D01*
X011171Y011609D01*
X011280Y011500D01*
X011358Y011468D01*
X011755Y010409D01*
X011712Y010306D01*
X011712Y010152D01*
X011771Y010009D01*
X011880Y009900D01*
X012023Y009841D01*
X012177Y009841D01*
X012320Y009900D01*
X012429Y010009D01*
X012488Y010152D01*
X012488Y010306D01*
X012429Y010449D01*
X012320Y010558D01*
X012242Y010590D01*
X011845Y011648D01*
X011888Y011752D01*
X011888Y011906D01*
X011829Y012049D01*
X011720Y012158D01*
X011577Y012217D01*
X011423Y012217D01*
X011582Y012215D02*
X012362Y012215D01*
X012362Y012116D02*
X011761Y012116D01*
X011842Y012018D02*
X012397Y012018D01*
X012461Y011919D02*
X011883Y011919D01*
X011888Y011821D02*
X012516Y011821D01*
X012524Y011722D02*
X011876Y011722D01*
X011855Y011624D02*
X012531Y011624D01*
X012538Y011525D02*
X011891Y011525D01*
X011928Y011427D02*
X012546Y011427D01*
X012553Y011328D02*
X011965Y011328D01*
X012002Y011230D02*
X012560Y011230D01*
X012568Y011131D02*
X012039Y011131D01*
X012076Y011033D02*
X012575Y011033D01*
X012583Y010934D02*
X012113Y010934D01*
X012150Y010836D02*
X012590Y010836D01*
X012597Y010737D02*
X012187Y010737D01*
X012224Y010639D02*
X012605Y010639D01*
X012612Y010540D02*
X012337Y010540D01*
X012432Y010442D02*
X012614Y010442D01*
X012548Y010343D02*
X012473Y010343D01*
X012488Y010245D02*
X012512Y010245D01*
X012512Y010146D02*
X012486Y010146D01*
X012445Y010048D02*
X012534Y010048D01*
X012581Y009949D02*
X012369Y009949D01*
X012202Y009851D02*
X012679Y009851D01*
X012900Y010179D02*
X012750Y012179D01*
X013103Y012018D02*
X014250Y012018D01*
X014300Y012023D02*
X014950Y012023D01*
X015050Y012073D01*
X015050Y011879D01*
X015400Y011879D01*
X015500Y011873D01*
X015506Y011873D01*
X015750Y012479D01*
X015806Y012823D01*
X016000Y012929D01*
X016000Y015029D01*
X016150Y015071D02*
X015638Y015071D01*
X015638Y015170D02*
X016150Y015170D01*
X016150Y015268D02*
X015612Y015268D01*
X015561Y015367D02*
X016150Y015367D01*
X016150Y015465D02*
X015452Y015465D01*
X015600Y015761D02*
X015700Y015761D01*
X015700Y015859D02*
X015600Y015859D01*
X015600Y015958D02*
X015700Y015958D01*
X015700Y016056D02*
X015600Y016056D01*
X015600Y016352D02*
X015700Y016352D01*
X015700Y016450D02*
X015600Y016450D01*
X015600Y016549D02*
X015700Y016549D01*
X015700Y016647D02*
X015600Y016647D01*
X015600Y016746D02*
X015700Y016746D01*
X015710Y016746D02*
X015710Y016746D01*
X015590Y016746D02*
X014890Y016746D01*
X014710Y016746D02*
X010690Y016746D01*
X010690Y016844D02*
X014536Y016844D01*
X014457Y016943D02*
X010688Y016943D01*
X010589Y017041D02*
X014416Y017041D01*
X014412Y017140D02*
X010491Y017140D01*
X010690Y016647D02*
X015341Y016647D01*
X015240Y016549D02*
X010622Y016549D01*
X010523Y016450D02*
X015179Y016450D01*
X015064Y016844D02*
X015536Y016844D01*
X015457Y016943D02*
X015146Y016943D01*
X015244Y017041D02*
X015416Y017041D01*
X015412Y017140D02*
X015343Y017140D01*
X014973Y017534D02*
X009291Y017534D01*
X009193Y017435D02*
X014558Y017435D01*
X014466Y017337D02*
X002100Y017337D01*
X002100Y017435D02*
X008707Y017435D01*
X008764Y017379D02*
X008500Y017642D01*
X008500Y018015D01*
X008764Y018279D01*
X009136Y018279D01*
X009400Y018015D01*
X009400Y017642D01*
X009136Y017379D01*
X008764Y017379D01*
X008609Y017534D02*
X002031Y017534D01*
X001933Y017632D02*
X008510Y017632D01*
X008500Y017731D02*
X000360Y017731D01*
X000360Y017829D02*
X008500Y017829D01*
X008500Y017928D02*
X000360Y017928D01*
X000360Y018026D02*
X008511Y018026D01*
X008610Y018125D02*
X000855Y018125D01*
X001037Y018223D02*
X008708Y018223D01*
X008764Y018379D02*
X009136Y018379D01*
X009400Y018642D01*
X009400Y019015D01*
X009136Y019279D01*
X008764Y019279D01*
X008500Y019015D01*
X008500Y018642D01*
X008764Y018379D01*
X008722Y018420D02*
X001182Y018420D01*
X001223Y018519D02*
X008624Y018519D01*
X008525Y018617D02*
X001225Y018617D01*
X001225Y018716D02*
X008500Y018716D01*
X008500Y018814D02*
X001191Y018814D01*
X001151Y018913D02*
X001734Y018913D01*
X001750Y018913D02*
X001850Y018913D01*
X001850Y018910D02*
X001922Y018922D01*
X002000Y018947D01*
X002073Y018984D01*
X002139Y019032D01*
X002197Y019090D01*
X002245Y019156D01*
X002282Y019229D01*
X002307Y019307D01*
X002319Y019379D01*
X001850Y019379D01*
X001850Y019479D01*
X001750Y019479D01*
X001750Y019379D01*
X001281Y019379D01*
X001293Y019307D01*
X001318Y019229D01*
X001355Y019156D01*
X001403Y019090D01*
X001461Y019032D01*
X001527Y018984D01*
X001600Y018947D01*
X001678Y018922D01*
X001750Y018910D01*
X001750Y019379D01*
X001850Y019379D01*
X001850Y018910D01*
X001866Y018913D02*
X008500Y018913D01*
X008500Y019011D02*
X003994Y019011D01*
X003891Y018969D02*
X004152Y019077D01*
X004352Y019277D01*
X004460Y019538D01*
X004460Y019820D01*
X004352Y020081D01*
X004152Y020281D01*
X003891Y020389D01*
X003609Y020389D01*
X003348Y020281D01*
X003148Y020081D01*
X003040Y019820D01*
X003040Y019538D01*
X003148Y019277D01*
X003348Y019077D01*
X003609Y018969D01*
X003891Y018969D01*
X004185Y019110D02*
X005400Y019110D01*
X005481Y019029D02*
X005100Y019410D01*
X005100Y019629D01*
X005700Y019629D01*
X005700Y019729D01*
X005700Y020329D01*
X005481Y020329D01*
X005100Y019948D01*
X005100Y019729D01*
X005700Y019729D01*
X005800Y019729D01*
X005800Y020329D01*
X006019Y020329D01*
X006400Y019948D01*
X006400Y019729D01*
X005800Y019729D01*
X005800Y019629D01*
X006400Y019629D01*
X006400Y019410D01*
X006019Y019029D01*
X005800Y019029D01*
X005800Y019629D01*
X005700Y019629D01*
X005700Y019029D01*
X005481Y019029D01*
X005700Y019110D02*
X005800Y019110D01*
X005800Y019208D02*
X005700Y019208D01*
X005700Y019307D02*
X005800Y019307D01*
X005800Y019405D02*
X005700Y019405D01*
X005700Y019504D02*
X005800Y019504D01*
X005800Y019602D02*
X005700Y019602D01*
X005700Y019701D02*
X004460Y019701D01*
X004460Y019799D02*
X005100Y019799D01*
X005100Y019898D02*
X004428Y019898D01*
X004387Y019996D02*
X005148Y019996D01*
X005247Y020095D02*
X004338Y020095D01*
X004240Y020193D02*
X005345Y020193D01*
X005444Y020292D02*
X004125Y020292D01*
X003375Y020292D02*
X002302Y020292D01*
X002307Y020307D02*
X002319Y020379D01*
X001850Y020379D01*
X001850Y019479D01*
X002319Y019479D01*
X002307Y019551D01*
X002282Y019628D01*
X002245Y019701D01*
X003040Y019701D01*
X003040Y019799D02*
X002165Y019799D01*
X002139Y019825D02*
X002073Y019874D01*
X002000Y019911D01*
X001944Y019929D01*
X002000Y019947D01*
X002073Y019984D01*
X002139Y020032D01*
X002197Y020090D01*
X002245Y020156D01*
X002282Y020229D01*
X002307Y020307D01*
X002264Y020193D02*
X003260Y020193D01*
X003162Y020095D02*
X002200Y020095D01*
X002089Y019996D02*
X003113Y019996D01*
X003072Y019898D02*
X002025Y019898D01*
X002139Y019825D02*
X002197Y019768D01*
X002245Y019701D01*
X002290Y019602D02*
X003040Y019602D01*
X003054Y019504D02*
X002315Y019504D01*
X002307Y019307D02*
X003136Y019307D01*
X003095Y019405D02*
X001850Y019405D01*
X001850Y019307D02*
X001750Y019307D01*
X001750Y019405D02*
X000360Y019405D01*
X000360Y019307D02*
X001293Y019307D01*
X001329Y019208D02*
X000360Y019208D01*
X000360Y019110D02*
X000489Y019110D01*
X000360Y019504D02*
X001285Y019504D01*
X001310Y019602D02*
X000360Y019602D01*
X000360Y019701D02*
X000385Y019701D01*
X000911Y019110D02*
X001389Y019110D01*
X001490Y019011D02*
X001060Y019011D01*
X001750Y019011D02*
X001850Y019011D01*
X001850Y019110D02*
X001750Y019110D01*
X001750Y019208D02*
X001850Y019208D01*
X002110Y019011D02*
X003506Y019011D01*
X003315Y019110D02*
X002211Y019110D01*
X002271Y019208D02*
X003216Y019208D01*
X004284Y019208D02*
X005301Y019208D01*
X005203Y019307D02*
X004364Y019307D01*
X004405Y019405D02*
X005104Y019405D01*
X005100Y019504D02*
X004446Y019504D01*
X004460Y019602D02*
X005100Y019602D01*
X005700Y019799D02*
X005800Y019799D01*
X005800Y019701D02*
X006770Y019701D01*
X006760Y019690D02*
X006760Y019559D01*
X007120Y019559D01*
X007120Y019919D01*
X006988Y019919D01*
X006760Y019690D01*
X006760Y019602D02*
X006400Y019602D01*
X006400Y019504D02*
X007120Y019504D01*
X007120Y019499D02*
X006760Y019499D01*
X006760Y019367D01*
X006988Y019139D01*
X007120Y019139D01*
X007120Y019499D01*
X007120Y019559D01*
X007180Y019559D01*
X007180Y019919D01*
X007312Y019919D01*
X007540Y019690D01*
X007540Y019559D01*
X007180Y019559D01*
X007180Y019499D01*
X007540Y019499D01*
X007540Y019367D01*
X007312Y019139D01*
X007180Y019139D01*
X007180Y019499D01*
X007120Y019499D01*
X007180Y019504D02*
X007654Y019504D01*
X007752Y019405D02*
X007540Y019405D01*
X007480Y019307D02*
X015380Y019307D01*
X015379Y019405D02*
X015348Y019405D01*
X015380Y019208D02*
X009207Y019208D01*
X009305Y019110D02*
X015380Y019110D01*
X015380Y019011D02*
X009400Y019011D01*
X009400Y018913D02*
X015380Y018913D01*
X015380Y018814D02*
X009400Y018814D01*
X009400Y018716D02*
X015380Y018716D01*
X015380Y018617D02*
X009375Y018617D01*
X009276Y018519D02*
X015380Y018519D01*
X015380Y018420D02*
X009178Y018420D01*
X009192Y018223D02*
X015380Y018223D01*
X015380Y018125D02*
X009290Y018125D01*
X009389Y018026D02*
X015380Y018026D01*
X015367Y017928D02*
X009400Y017928D01*
X009400Y017829D02*
X015269Y017829D01*
X015170Y017731D02*
X009400Y017731D01*
X009390Y017632D02*
X015072Y017632D01*
X014425Y017238D02*
X002100Y017238D01*
X001950Y016943D02*
X005190Y016943D01*
X005105Y016844D02*
X002750Y016844D01*
X002953Y016746D02*
X005053Y016746D01*
X005025Y016647D02*
X003052Y016647D01*
X003116Y016549D02*
X003213Y016549D01*
X003869Y016549D02*
X005491Y016549D01*
X005027Y016450D02*
X004736Y016450D01*
X004947Y016352D02*
X005055Y016352D01*
X005046Y016253D02*
X005111Y016253D01*
X005113Y016155D02*
X005197Y016155D01*
X005231Y016056D02*
X005154Y016056D01*
X004464Y016450D02*
X003969Y016450D01*
X004049Y016352D02*
X004253Y016352D01*
X004154Y016253D02*
X004090Y016253D01*
X002450Y016844D02*
X001852Y016844D01*
X002148Y016647D02*
X000360Y016647D01*
X000360Y016549D02*
X002084Y016549D01*
X002043Y016450D02*
X000360Y016450D01*
X000360Y016352D02*
X002020Y016352D01*
X002020Y016253D02*
X000360Y016253D01*
X000360Y016155D02*
X002024Y016155D01*
X002064Y016056D02*
X000360Y016056D01*
X000360Y015958D02*
X002105Y015958D01*
X001844Y015859D02*
X000360Y015859D01*
X000360Y015761D02*
X001746Y015761D01*
X001650Y015662D02*
X000360Y015662D01*
X000360Y015564D02*
X001650Y015564D01*
X001650Y015465D02*
X000360Y015465D01*
X000360Y015367D02*
X001650Y015367D01*
X001674Y015268D02*
X000360Y015268D01*
X000360Y015170D02*
X001773Y015170D01*
X002341Y014874D02*
X002983Y014874D01*
X003023Y014776D02*
X002439Y014776D01*
X002538Y014677D02*
X003090Y014677D01*
X003189Y014579D02*
X002550Y014579D01*
X002550Y014480D02*
X003143Y014480D01*
X003045Y014382D02*
X002550Y014382D01*
X002541Y014283D02*
X003004Y014283D01*
X002964Y014185D02*
X002442Y014185D01*
X002344Y014086D02*
X002957Y014086D01*
X003491Y013101D02*
X000360Y013101D01*
X000360Y013003D02*
X003491Y013003D01*
X005931Y012116D02*
X008150Y012116D01*
X008150Y012018D02*
X005901Y012018D01*
X006000Y011919D02*
X008150Y011919D01*
X008150Y011821D02*
X006062Y011821D01*
X006103Y011722D02*
X008150Y011722D01*
X008150Y011624D02*
X006125Y011624D01*
X006125Y011525D02*
X008150Y011525D01*
X008150Y011427D02*
X006121Y011427D01*
X006080Y011328D02*
X008150Y011328D01*
X008150Y011230D02*
X006039Y011230D01*
X005946Y011131D02*
X008150Y011131D01*
X008150Y011033D02*
X005886Y011033D01*
X005985Y010934D02*
X008150Y010934D01*
X008150Y010836D02*
X006056Y010836D01*
X006096Y010737D02*
X008150Y010737D01*
X008150Y010639D02*
X006125Y010639D01*
X006125Y010540D02*
X008150Y010540D01*
X008150Y010442D02*
X006125Y010442D01*
X006086Y010343D02*
X008150Y010343D01*
X008150Y010245D02*
X006046Y010245D01*
X005961Y010146D02*
X008150Y010146D01*
X008150Y010048D02*
X005849Y010048D01*
X005885Y009949D02*
X008150Y009949D01*
X008150Y009851D02*
X007804Y009851D01*
X007773Y009874D02*
X007700Y009911D01*
X007622Y009936D01*
X007550Y009947D01*
X007550Y009479D01*
X007450Y009479D01*
X007450Y009947D01*
X007378Y009936D01*
X007300Y009911D01*
X007227Y009874D01*
X007161Y009825D01*
X007103Y009768D01*
X007055Y009701D01*
X007018Y009628D01*
X006993Y009551D01*
X006981Y009479D01*
X007450Y009479D01*
X007450Y009379D01*
X006981Y009379D01*
X006993Y009307D01*
X007018Y009229D01*
X007055Y009156D01*
X007103Y009090D01*
X007161Y009032D01*
X007227Y008984D01*
X007300Y008947D01*
X007378Y008922D01*
X007450Y008910D01*
X007450Y009379D01*
X007550Y009379D01*
X007550Y009479D01*
X008019Y009479D01*
X008007Y009551D01*
X007982Y009628D01*
X007945Y009701D01*
X007897Y009768D01*
X007839Y009825D01*
X007773Y009874D01*
X007908Y009752D02*
X008150Y009752D01*
X008150Y009654D02*
X007969Y009654D01*
X008006Y009555D02*
X008150Y009555D01*
X008150Y009457D02*
X007550Y009457D01*
X007500Y009429D02*
X007500Y007879D01*
X006750Y007129D01*
X006800Y007093D02*
X007650Y007093D01*
X007650Y007191D02*
X007400Y007191D01*
X007400Y007179D02*
X007400Y007398D01*
X007019Y007779D01*
X006800Y007779D01*
X006800Y007179D01*
X006700Y007179D01*
X006700Y007779D01*
X006481Y007779D01*
X006100Y007398D01*
X006100Y007179D01*
X006700Y007179D01*
X006700Y007079D01*
X006100Y007079D01*
X006100Y006860D01*
X006481Y006479D01*
X006700Y006479D01*
X006700Y007079D01*
X006800Y007079D01*
X006800Y007179D01*
X007400Y007179D01*
X007400Y007079D02*
X006800Y007079D01*
X006800Y006479D01*
X007019Y006479D01*
X007400Y006860D01*
X007400Y007079D01*
X007400Y006994D02*
X007650Y006994D01*
X007650Y006896D02*
X007400Y006896D01*
X007338Y006797D02*
X007650Y006797D01*
X007650Y006699D02*
X007239Y006699D01*
X007141Y006600D02*
X007650Y006600D01*
X007650Y006502D02*
X007042Y006502D01*
X006800Y006502D02*
X006700Y006502D01*
X006700Y006600D02*
X006800Y006600D01*
X006800Y006699D02*
X006700Y006699D01*
X006700Y006797D02*
X006800Y006797D01*
X006800Y006896D02*
X006700Y006896D01*
X006700Y006994D02*
X006800Y006994D01*
X006700Y007093D02*
X005460Y007093D01*
X005460Y007191D02*
X006100Y007191D01*
X006100Y007290D02*
X005452Y007290D01*
X005460Y007270D02*
X005352Y007531D01*
X005152Y007731D01*
X004891Y007839D01*
X004609Y007839D01*
X004348Y007731D01*
X004148Y007531D01*
X004040Y007270D01*
X004040Y006988D01*
X004148Y006727D01*
X004348Y006527D01*
X004609Y006419D01*
X004891Y006419D01*
X005152Y006527D01*
X005352Y006727D01*
X005460Y006988D01*
X005460Y007270D01*
X005411Y007388D02*
X006100Y007388D01*
X006189Y007487D02*
X005370Y007487D01*
X005298Y007585D02*
X006287Y007585D01*
X006386Y007684D02*
X005199Y007684D01*
X005028Y007782D02*
X007677Y007782D01*
X007650Y007684D02*
X007114Y007684D01*
X007213Y007585D02*
X007650Y007585D01*
X007650Y007487D02*
X007311Y007487D01*
X007400Y007388D02*
X007650Y007388D01*
X007650Y007290D02*
X007400Y007290D01*
X006800Y007290D02*
X006700Y007290D01*
X006700Y007388D02*
X006800Y007388D01*
X006800Y007487D02*
X006700Y007487D01*
X006700Y007585D02*
X006800Y007585D01*
X006800Y007684D02*
X006700Y007684D01*
X006700Y007191D02*
X006800Y007191D01*
X006100Y006994D02*
X005460Y006994D01*
X005422Y006896D02*
X006100Y006896D01*
X006162Y006797D02*
X005381Y006797D01*
X005324Y006699D02*
X006261Y006699D01*
X006359Y006600D02*
X005226Y006600D01*
X005092Y006502D02*
X006458Y006502D01*
X007650Y006403D02*
X003886Y006403D01*
X003872Y006305D02*
X007650Y006305D01*
X007650Y006206D02*
X003858Y006206D01*
X003819Y006108D02*
X007650Y006108D01*
X007650Y006009D02*
X003774Y006009D01*
X003729Y005911D02*
X007650Y005911D01*
X007650Y005812D02*
X003684Y005812D01*
X003641Y005719D02*
X003641Y005719D01*
X003637Y005714D02*
X007650Y005714D01*
X007650Y005615D02*
X003552Y005615D01*
X003466Y005517D02*
X007650Y005517D01*
X007650Y005418D02*
X003381Y005418D01*
X003289Y005320D02*
X007650Y005320D01*
X007650Y005221D02*
X003136Y005221D01*
X002982Y005123D02*
X007650Y005123D01*
X007650Y005024D02*
X002780Y005024D01*
X003900Y006502D02*
X004408Y006502D01*
X004274Y006600D02*
X003915Y006600D01*
X003928Y006699D02*
X004176Y006699D01*
X004119Y006797D02*
X003914Y006797D01*
X003900Y006896D02*
X004078Y006896D01*
X004040Y006994D02*
X003886Y006994D01*
X003872Y007093D02*
X004040Y007093D01*
X004040Y007191D02*
X003857Y007191D01*
X003855Y007207D02*
X003855Y007207D01*
X003817Y007290D02*
X004048Y007290D01*
X004089Y007388D02*
X003772Y007388D01*
X003728Y007487D02*
X004130Y007487D01*
X004202Y007585D02*
X003683Y007585D01*
X003641Y007676D02*
X003641Y007676D01*
X003634Y007684D02*
X004301Y007684D01*
X004472Y007782D02*
X003549Y007782D01*
X003464Y007881D02*
X007726Y007881D01*
X007775Y007979D02*
X003378Y007979D01*
X003304Y008065D02*
X003304Y008065D01*
X003284Y008078D02*
X007825Y008078D01*
X007874Y008176D02*
X003131Y008176D01*
X002978Y008275D02*
X007923Y008275D01*
X007972Y008373D02*
X002770Y008373D01*
X002870Y008344D02*
X002870Y008344D01*
X002434Y008472D02*
X008022Y008472D01*
X008071Y008570D02*
X000360Y008570D01*
X000360Y008472D02*
X001803Y008472D01*
X001467Y008373D02*
X000360Y008373D01*
X000360Y008275D02*
X001259Y008275D01*
X001106Y008176D02*
X000360Y008176D01*
X000360Y008078D02*
X000953Y008078D01*
X000933Y008065D02*
X000933Y008065D01*
X000933Y008065D01*
X000859Y007979D02*
X000360Y007979D01*
X000360Y007881D02*
X000773Y007881D01*
X000688Y007782D02*
X000360Y007782D01*
X000360Y007684D02*
X000603Y007684D01*
X000554Y007585D02*
X000360Y007585D01*
X000360Y007487D02*
X000509Y007487D01*
X000465Y007388D02*
X000360Y007388D01*
X000360Y007290D02*
X000420Y007290D01*
X000380Y007191D02*
X000360Y007191D01*
X000360Y007093D02*
X000365Y007093D01*
X000360Y008669D02*
X008120Y008669D01*
X008150Y008767D02*
X000360Y008767D01*
X000360Y008866D02*
X008150Y008866D01*
X008150Y008964D02*
X007734Y008964D01*
X007700Y008947D02*
X007773Y008984D01*
X007839Y009032D01*
X007897Y009090D01*
X007945Y009156D01*
X007982Y009229D01*
X008007Y009307D01*
X008019Y009379D01*
X007550Y009379D01*
X007550Y008910D01*
X007622Y008922D01*
X007700Y008947D01*
X007550Y008964D02*
X007450Y008964D01*
X007450Y009063D02*
X007550Y009063D01*
X007550Y009161D02*
X007450Y009161D01*
X007450Y009260D02*
X007550Y009260D01*
X007550Y009358D02*
X007450Y009358D01*
X007450Y009457D02*
X006056Y009457D01*
X006029Y009358D02*
X006985Y009358D01*
X007008Y009260D02*
X005976Y009260D01*
X005891Y009161D02*
X007053Y009161D01*
X007131Y009063D02*
X005730Y009063D01*
X005591Y009063D02*
X005491Y009063D01*
X005491Y009030D02*
X005491Y009502D01*
X005018Y009502D01*
X005030Y009430D01*
X005055Y009351D01*
X005093Y009278D01*
X005141Y009211D01*
X005200Y009153D01*
X005266Y009104D01*
X005340Y009067D01*
X005418Y009041D01*
X005491Y009030D01*
X005491Y009161D02*
X005591Y009161D01*
X005591Y009260D02*
X005491Y009260D01*
X005491Y009358D02*
X005591Y009358D01*
X005591Y009457D02*
X005491Y009457D01*
X005491Y009555D02*
X003867Y009555D01*
X003968Y009654D02*
X005026Y009654D01*
X005055Y009752D02*
X004674Y009752D01*
X004892Y009851D02*
X005110Y009851D01*
X005197Y009949D02*
X004991Y009949D01*
X005061Y010048D02*
X005233Y010048D01*
X005121Y010146D02*
X005102Y010146D01*
X004985Y010737D02*
X004962Y010737D01*
X005026Y010836D02*
X004842Y010836D01*
X004426Y009752D02*
X004049Y009752D01*
X004090Y009851D02*
X004208Y009851D01*
X005026Y009457D02*
X002735Y009457D01*
X002947Y009555D02*
X003215Y009555D01*
X003114Y009654D02*
X003045Y009654D01*
X002465Y009457D02*
X000360Y009457D01*
X000360Y009555D02*
X002253Y009555D01*
X002155Y009654D02*
X000360Y009654D01*
X000360Y009752D02*
X002087Y009752D01*
X002046Y009851D02*
X000360Y009851D01*
X000360Y009949D02*
X002020Y009949D01*
X002020Y010048D02*
X000360Y010048D01*
X000360Y010146D02*
X002021Y010146D01*
X002062Y010245D02*
X000360Y010245D01*
X000360Y010343D02*
X002102Y010343D01*
X002193Y010442D02*
X000360Y010442D01*
X000360Y010540D02*
X002319Y010540D01*
X000360Y009358D02*
X005053Y009358D01*
X005106Y009260D02*
X000360Y009260D01*
X000360Y009161D02*
X005191Y009161D01*
X005352Y009063D02*
X000360Y009063D01*
X000360Y008964D02*
X007266Y008964D01*
X007869Y009063D02*
X008150Y009063D01*
X008150Y009161D02*
X007947Y009161D01*
X007992Y009260D02*
X008150Y009260D01*
X008150Y009358D02*
X008015Y009358D01*
X007550Y009555D02*
X007450Y009555D01*
X007450Y009654D02*
X007550Y009654D01*
X007550Y009752D02*
X007450Y009752D01*
X007450Y009851D02*
X007550Y009851D01*
X007196Y009851D02*
X005972Y009851D01*
X006027Y009752D02*
X007092Y009752D01*
X007031Y009654D02*
X006055Y009654D01*
X005591Y009555D02*
X006994Y009555D01*
X009189Y008767D02*
X009548Y008767D01*
X009587Y008866D02*
X009287Y008866D01*
X009386Y008964D02*
X009651Y008964D01*
X009763Y009063D02*
X009484Y009063D01*
X009583Y009161D02*
X011462Y009161D01*
X011463Y009260D02*
X009650Y009260D01*
X009650Y009358D02*
X011504Y009358D01*
X011579Y009457D02*
X009650Y009457D01*
X009650Y009555D02*
X011745Y009555D01*
X011998Y009851D02*
X009650Y009851D01*
X009650Y009949D02*
X011831Y009949D01*
X011755Y010048D02*
X009650Y010048D01*
X009650Y010146D02*
X011714Y010146D01*
X011712Y010245D02*
X010787Y010245D01*
X010777Y010241D02*
X010920Y010300D01*
X011029Y010409D01*
X011088Y010552D01*
X011088Y010706D01*
X011029Y010849D01*
X010960Y010918D01*
X011002Y011382D01*
X011029Y011409D01*
X011088Y011552D01*
X011088Y011706D01*
X011029Y011849D01*
X010920Y011958D01*
X010777Y012017D01*
X010623Y012017D01*
X010480Y011958D01*
X010371Y011849D01*
X010312Y011706D01*
X010312Y011552D01*
X010371Y011409D01*
X010473Y011307D01*
X010445Y010992D01*
X010440Y010981D01*
X010440Y010941D01*
X010438Y010915D01*
X010371Y010849D01*
X010312Y010706D01*
X010312Y010552D01*
X010371Y010409D01*
X010480Y010300D01*
X010623Y010241D01*
X010777Y010241D01*
X010613Y010245D02*
X009650Y010245D01*
X009650Y010343D02*
X010437Y010343D01*
X010357Y010442D02*
X009650Y010442D01*
X009650Y010540D02*
X010317Y010540D01*
X010312Y010639D02*
X009650Y010639D01*
X009650Y010737D02*
X010325Y010737D01*
X010366Y010836D02*
X009650Y010836D01*
X009650Y010934D02*
X010439Y010934D01*
X010448Y011033D02*
X009650Y011033D01*
X009650Y011131D02*
X010457Y011131D01*
X010466Y011230D02*
X009650Y011230D01*
X009650Y011328D02*
X010452Y011328D01*
X010364Y011427D02*
X009650Y011427D01*
X009650Y011525D02*
X010323Y011525D01*
X010312Y011624D02*
X009650Y011624D01*
X009650Y011722D02*
X010319Y011722D01*
X010359Y011821D02*
X009650Y011821D01*
X009650Y011919D02*
X010442Y011919D01*
X010700Y011629D02*
X010750Y011479D01*
X010700Y010929D01*
X010700Y010629D01*
X011088Y010639D02*
X011669Y010639D01*
X011632Y010737D02*
X011075Y010737D01*
X011034Y010836D02*
X011595Y010836D01*
X011558Y010934D02*
X010962Y010934D01*
X010971Y011033D02*
X011521Y011033D01*
X011484Y011131D02*
X010979Y011131D01*
X010988Y011230D02*
X011447Y011230D01*
X011410Y011328D02*
X010997Y011328D01*
X011036Y011427D02*
X011373Y011427D01*
X011255Y011525D02*
X011077Y011525D01*
X011088Y011624D02*
X011165Y011624D01*
X011124Y011722D02*
X011081Y011722D01*
X011112Y011821D02*
X011041Y011821D01*
X011117Y011919D02*
X010958Y011919D01*
X011158Y012018D02*
X009650Y012018D01*
X009650Y012116D02*
X011239Y012116D01*
X011395Y012412D02*
X010055Y012412D01*
X010394Y012510D02*
X010494Y012510D01*
X010494Y012609D02*
X010394Y012609D01*
X010394Y012707D02*
X010494Y012707D01*
X010500Y012773D02*
X010500Y012879D01*
X010494Y012879D02*
X010956Y012879D01*
X010956Y012779D01*
X010649Y012779D01*
X010494Y012779D01*
X010494Y012879D01*
X010494Y012904D02*
X010394Y012904D01*
X010394Y013003D02*
X010494Y013003D01*
X010494Y013101D02*
X010394Y013101D01*
X010494Y012806D02*
X010956Y012806D01*
X010956Y012904D02*
X011056Y012904D01*
X011056Y013003D02*
X010956Y013003D01*
X010956Y013101D02*
X011056Y013101D01*
X011056Y012707D02*
X010956Y012707D01*
X010956Y012609D02*
X011056Y012609D01*
X011056Y012510D02*
X010956Y012510D01*
X011500Y011829D02*
X012100Y010229D01*
X011727Y010343D02*
X010963Y010343D01*
X011043Y010442D02*
X011742Y010442D01*
X011706Y010540D02*
X011083Y010540D01*
X009650Y009752D02*
X018150Y009752D01*
X018200Y009654D02*
X009650Y009654D01*
X010100Y009147D02*
X010100Y008679D01*
X010569Y008679D01*
X010557Y008751D01*
X010532Y008828D01*
X010495Y008901D01*
X010447Y008968D01*
X010389Y009025D01*
X010323Y009074D01*
X010250Y009111D01*
X010172Y009136D01*
X010100Y009147D01*
X010100Y009063D02*
X010000Y009063D01*
X010000Y008964D02*
X010100Y008964D01*
X010100Y008866D02*
X010000Y008866D01*
X010000Y008767D02*
X010100Y008767D01*
X010100Y008669D02*
X013748Y008669D01*
X013740Y008767D02*
X010552Y008767D01*
X010513Y008866D02*
X011614Y008866D01*
X011519Y008964D02*
X010449Y008964D01*
X010337Y009063D02*
X011478Y009063D01*
X012086Y008866D02*
X013514Y008866D01*
X013788Y008570D02*
X010567Y008570D01*
X010546Y008472D02*
X013856Y008472D01*
X013977Y008373D02*
X010503Y008373D01*
X010431Y008275D02*
X013930Y008275D01*
X013832Y008176D02*
X010307Y008176D01*
X010421Y008078D02*
X013800Y008078D01*
X013800Y007881D02*
X011352Y007881D01*
X011532Y007782D02*
X013831Y007782D01*
X013929Y007684D02*
X012457Y007684D01*
X012592Y007585D02*
X014028Y007585D01*
X014170Y007585D02*
X014230Y007585D01*
X014230Y007684D02*
X014170Y007684D01*
X014170Y007782D02*
X014230Y007782D01*
X014230Y007881D02*
X014170Y007881D01*
X014170Y007979D02*
X010520Y007979D01*
X011957Y007684D02*
X012143Y007684D01*
X012300Y007329D02*
X012350Y007079D01*
X014230Y007979D02*
X017730Y007979D01*
X018070Y007979D02*
X019150Y007979D01*
X019150Y008078D02*
X018605Y008078D01*
X018694Y008176D02*
X018888Y008176D01*
X018866Y008275D02*
X018694Y008275D01*
X018694Y008373D02*
X018866Y008373D01*
X018866Y008472D02*
X018694Y008472D01*
X018694Y008570D02*
X018866Y008570D01*
X018857Y008669D02*
X018694Y008669D01*
X018694Y008767D02*
X018791Y008767D01*
X018725Y008866D02*
X018642Y008866D01*
X018660Y008964D02*
X018481Y008964D01*
X018522Y009063D02*
X018594Y009063D01*
X018266Y009555D02*
X018255Y009555D01*
X017300Y008779D02*
X016050Y008779D01*
X015500Y009329D01*
X015400Y009329D01*
X015650Y010579D01*
X015500Y010829D01*
X015506Y011873D01*
X015313Y011919D02*
X015954Y011919D01*
X015812Y012018D02*
X015000Y012018D01*
X015000Y012116D02*
X014900Y012116D01*
X014900Y012018D02*
X014350Y012018D01*
X014350Y012116D02*
X014250Y012116D01*
X014250Y012215D02*
X014350Y012215D01*
X014350Y012313D02*
X014250Y012313D01*
X014900Y012313D02*
X015000Y012313D01*
X015000Y012215D02*
X014900Y012215D01*
X015313Y012215D02*
X015712Y012215D01*
X015712Y012313D02*
X015532Y012313D01*
X015682Y012412D02*
X015735Y012412D01*
X015750Y012510D02*
X015783Y012510D01*
X015788Y012609D02*
X015883Y012609D01*
X015788Y012707D02*
X016911Y012707D01*
X016861Y012806D02*
X015767Y012806D01*
X015723Y012904D02*
X016812Y012904D01*
X016763Y013003D02*
X015696Y013003D01*
X015685Y013101D02*
X016714Y013101D01*
X016664Y013200D02*
X015674Y013200D01*
X015663Y013298D02*
X016580Y013298D01*
X016482Y013397D02*
X015652Y013397D01*
X015641Y013495D02*
X016383Y013495D01*
X016285Y013594D02*
X015630Y013594D01*
X015619Y013692D02*
X016186Y013692D01*
X016150Y013791D02*
X015608Y013791D01*
X015598Y013889D02*
X016150Y013889D01*
X016150Y013988D02*
X015620Y013988D01*
X015620Y014086D02*
X016150Y014086D01*
X016150Y014185D02*
X015638Y014185D01*
X015638Y014283D02*
X016150Y014283D01*
X016150Y014382D02*
X015620Y014382D01*
X015620Y014480D02*
X016150Y014480D01*
X016150Y014579D02*
X015620Y014579D01*
X015620Y014677D02*
X016150Y014677D01*
X016150Y014776D02*
X015620Y014776D01*
X015620Y014874D02*
X016150Y014874D01*
X016150Y014973D02*
X015620Y014973D01*
X015048Y015465D02*
X010538Y015465D01*
X010637Y015564D02*
X016150Y015564D01*
X016150Y015662D02*
X010690Y015662D01*
X010330Y015859D02*
X010270Y015859D01*
X010270Y015761D02*
X009150Y015761D01*
X009150Y015859D02*
X009910Y015859D01*
X009927Y015958D02*
X009150Y015958D01*
X009150Y016056D02*
X010026Y016056D01*
X010124Y016155D02*
X009150Y016155D01*
X009150Y015662D02*
X009910Y015662D01*
X009963Y015564D02*
X009150Y015564D01*
X010270Y015958D02*
X010330Y015958D01*
X010330Y016056D02*
X010270Y016056D01*
X010270Y016155D02*
X010330Y016155D01*
X008900Y014179D02*
X008900Y012429D01*
X008850Y012379D01*
X008900Y012429D02*
X009650Y012429D01*
X009339Y012904D02*
X009312Y012904D01*
X009339Y013003D02*
X009263Y013003D01*
X009214Y013101D02*
X009339Y013101D01*
X006700Y016155D02*
X006600Y016155D01*
X006600Y016253D02*
X006700Y016253D01*
X006700Y016352D02*
X006600Y016352D01*
X006600Y016450D02*
X006700Y016450D01*
X006100Y019110D02*
X008595Y019110D01*
X008693Y019208D02*
X007381Y019208D01*
X007180Y019208D02*
X007120Y019208D01*
X007120Y019307D02*
X007180Y019307D01*
X007180Y019405D02*
X007120Y019405D01*
X007120Y019602D02*
X007180Y019602D01*
X007180Y019701D02*
X007120Y019701D01*
X007120Y019799D02*
X007180Y019799D01*
X007180Y019898D02*
X007120Y019898D01*
X006967Y019898D02*
X006400Y019898D01*
X006400Y019799D02*
X006869Y019799D01*
X006934Y020193D02*
X006155Y020193D01*
X006253Y020095D02*
X007595Y020095D01*
X007540Y019996D02*
X006352Y019996D01*
X006056Y020292D02*
X006835Y020292D01*
X006760Y020390D02*
X001850Y020390D01*
X001850Y020292D02*
X001750Y020292D01*
X001750Y020390D02*
X001160Y020390D01*
X001201Y020292D02*
X001298Y020292D01*
X001336Y020193D02*
X001225Y020193D01*
X001225Y020095D02*
X001400Y020095D01*
X001511Y019996D02*
X001213Y019996D01*
X001173Y019898D02*
X001575Y019898D01*
X001750Y019898D02*
X001850Y019898D01*
X001850Y019996D02*
X001750Y019996D01*
X001750Y020095D02*
X001850Y020095D01*
X001850Y020193D02*
X001750Y020193D01*
X001750Y019799D02*
X001850Y019799D01*
X001850Y019701D02*
X001750Y019701D01*
X001750Y019602D02*
X001850Y019602D01*
X001850Y019504D02*
X001750Y019504D01*
X001283Y020489D02*
X001082Y020489D01*
X000965Y020587D02*
X001305Y020587D01*
X001347Y020686D02*
X000360Y020686D01*
X000360Y020784D02*
X001416Y020784D01*
X001236Y020883D02*
X000360Y020883D01*
X000360Y020981D02*
X001083Y020981D01*
X000933Y021077D02*
X000933Y021077D01*
X000931Y021080D02*
X000360Y021080D01*
X000360Y021178D02*
X000846Y021178D01*
X000760Y021277D02*
X000360Y021277D01*
X000360Y021375D02*
X000675Y021375D01*
X000596Y021467D02*
X000596Y021467D01*
X000593Y021474D02*
X000360Y021474D01*
X000360Y021572D02*
X000548Y021572D01*
X000503Y021671D02*
X000360Y021671D01*
X000360Y021769D02*
X000458Y021769D01*
X000413Y021868D02*
X000360Y021868D01*
X000360Y021966D02*
X000377Y021966D01*
X000363Y022065D02*
X000360Y022065D01*
X000360Y020587D02*
X000435Y020587D01*
X002295Y020587D02*
X006760Y020587D01*
X006760Y020489D02*
X002317Y020489D01*
X002485Y020686D02*
X006760Y020686D01*
X006854Y020784D02*
X002821Y020784D01*
X003001Y020883D02*
X006952Y020883D01*
X007283Y021178D02*
X003391Y021178D01*
X003927Y022459D02*
X004572Y022459D01*
X004335Y022557D02*
X003912Y022557D01*
X003898Y022656D02*
X004236Y022656D01*
X004138Y022754D02*
X003884Y022754D01*
X003870Y022853D02*
X004062Y022853D01*
X004021Y022951D02*
X003856Y022951D01*
X003855Y022955D02*
X003855Y022955D01*
X003812Y023050D02*
X003981Y023050D01*
X003940Y023148D02*
X003767Y023148D01*
X003722Y023247D02*
X003940Y023247D01*
X003940Y023345D02*
X003677Y023345D01*
X003641Y023424D02*
X003641Y023424D01*
X003624Y023444D02*
X003940Y023444D01*
X003953Y023542D02*
X003538Y023542D01*
X003453Y023641D02*
X003994Y023641D01*
X004035Y023739D02*
X003368Y023739D01*
X003304Y023813D02*
X003304Y023813D01*
X003265Y023838D02*
X004076Y023838D01*
X004171Y023936D02*
X003112Y023936D01*
X002959Y024035D02*
X004269Y024035D01*
X002870Y024092D02*
X002870Y024092D01*
X006588Y021277D02*
X007102Y021277D01*
X007003Y021375D02*
X006712Y021375D01*
X006784Y021474D02*
X006948Y021474D01*
X006907Y021572D02*
X006826Y021572D01*
X006847Y021671D02*
X006890Y021671D01*
X007446Y020784D02*
X008637Y020784D01*
X008735Y020686D02*
X007540Y020686D01*
X007540Y019898D02*
X007333Y019898D01*
X007431Y019799D02*
X007540Y019799D01*
X007530Y019701D02*
X007540Y019701D01*
X007540Y019602D02*
X007555Y019602D01*
X008348Y019405D02*
X014752Y019405D01*
X014654Y019504D02*
X008446Y019504D01*
X008545Y019602D02*
X014555Y019602D01*
X014540Y019701D02*
X008560Y019701D01*
X008560Y019799D02*
X014540Y019799D01*
X014540Y019898D02*
X008560Y019898D01*
X008560Y019996D02*
X014540Y019996D01*
X014595Y020095D02*
X008505Y020095D01*
X008407Y020193D02*
X014693Y020193D01*
X014792Y020292D02*
X008308Y020292D01*
X006919Y019208D02*
X006199Y019208D01*
X006297Y019307D02*
X006820Y019307D01*
X006760Y019405D02*
X006396Y019405D01*
X005800Y019898D02*
X005700Y019898D01*
X005700Y019996D02*
X005800Y019996D01*
X005800Y020095D02*
X005700Y020095D01*
X005700Y020193D02*
X005800Y020193D01*
X005800Y020292D02*
X005700Y020292D01*
X002247Y016746D02*
X000360Y016746D01*
X000360Y016844D02*
X000448Y016844D01*
X000852Y016844D02*
X001448Y016844D01*
X001350Y016943D02*
X000950Y016943D01*
X001049Y017041D02*
X001251Y017041D01*
X001200Y017140D02*
X001100Y017140D01*
X001100Y017238D02*
X001200Y017238D01*
X001200Y017337D02*
X001100Y017337D01*
X001100Y017435D02*
X001200Y017435D01*
X001269Y017534D02*
X001031Y017534D01*
X000933Y017632D02*
X001367Y017632D01*
X001135Y018322D02*
X015380Y018322D01*
X015370Y020292D02*
X015308Y020292D01*
X014540Y023641D02*
X010260Y023641D01*
X010260Y023739D02*
X014540Y023739D01*
X014540Y023838D02*
X010260Y023838D01*
X010200Y023936D02*
X014600Y023936D01*
X014698Y024035D02*
X010102Y024035D01*
X018787Y023542D02*
X023486Y023542D01*
X022675Y023704D02*
X022650Y023729D01*
X022150Y023729D01*
X026957Y024092D02*
X026957Y024092D01*
X029235Y021474D02*
X029240Y021474D01*
X029232Y021467D02*
X029232Y021467D01*
X029240Y021375D02*
X029153Y021375D01*
X029067Y021277D02*
X029240Y021277D01*
X029240Y021178D02*
X028982Y021178D01*
X028896Y021080D02*
X029240Y021080D01*
X029240Y020981D02*
X028745Y020981D01*
X028592Y020883D02*
X029240Y020883D01*
X029240Y020784D02*
X028411Y020784D01*
X028461Y020799D02*
X028461Y020799D01*
X028076Y020686D02*
X029240Y020686D01*
X020750Y015379D02*
X020750Y013279D01*
X019350Y012229D01*
X018537Y012229D01*
X018570Y012238D01*
X018605Y012258D01*
X018633Y012286D01*
X018652Y012320D01*
X018656Y012334D01*
X018663Y012327D01*
X019237Y012327D01*
X019337Y012427D01*
X019337Y012961D01*
X019269Y013029D01*
X019337Y013096D01*
X019337Y013299D01*
X019952Y013299D01*
X020000Y013279D01*
X020100Y013279D01*
X020192Y013317D01*
X020262Y013387D01*
X020300Y013479D01*
X020300Y014914D01*
X020347Y014934D01*
X020445Y015032D01*
X020498Y015160D01*
X020498Y015298D01*
X020465Y015379D01*
X020750Y015379D01*
X020750Y015367D02*
X020470Y015367D01*
X020498Y015268D02*
X020750Y015268D01*
X020750Y015170D02*
X020498Y015170D01*
X020462Y015071D02*
X020750Y015071D01*
X020750Y014973D02*
X020386Y014973D01*
X020300Y014874D02*
X020750Y014874D01*
X020750Y014776D02*
X020300Y014776D01*
X020300Y014677D02*
X020750Y014677D01*
X020750Y014579D02*
X020300Y014579D01*
X020300Y014480D02*
X020750Y014480D01*
X020750Y014382D02*
X020300Y014382D01*
X020300Y014283D02*
X020750Y014283D01*
X020750Y014185D02*
X020300Y014185D01*
X020300Y014086D02*
X020750Y014086D01*
X020750Y013988D02*
X020300Y013988D01*
X020300Y013889D02*
X020750Y013889D01*
X020750Y013791D02*
X020300Y013791D01*
X020300Y013692D02*
X020750Y013692D01*
X020750Y013594D02*
X020300Y013594D01*
X020300Y013495D02*
X020750Y013495D01*
X020750Y013397D02*
X020266Y013397D01*
X020147Y013298D02*
X020750Y013298D01*
X020645Y013200D02*
X019337Y013200D01*
X019337Y013298D02*
X019953Y013298D01*
X020382Y013003D02*
X019295Y013003D01*
X019337Y013101D02*
X020513Y013101D01*
X020251Y012904D02*
X019337Y012904D01*
X019337Y012806D02*
X020119Y012806D01*
X019988Y012707D02*
X019337Y012707D01*
X019337Y012609D02*
X019857Y012609D01*
X019725Y012510D02*
X019337Y012510D01*
X019321Y012412D02*
X019594Y012412D01*
X019463Y012313D02*
X018649Y012313D01*
X018450Y012229D02*
X018350Y012329D01*
X018350Y012634D01*
X018300Y012584D01*
X018300Y012694D01*
X017650Y012694D01*
X017602Y012707D02*
X017193Y012707D01*
X017283Y012743D02*
X017283Y012911D01*
X017294Y012949D01*
X017313Y012983D01*
X017341Y013011D01*
X017346Y013014D01*
X017263Y013096D01*
X017263Y013200D01*
X017263Y013200D01*
X017197Y013134D01*
X017069Y013081D01*
X017019Y013081D01*
X017283Y012514D01*
X017283Y012646D01*
X017602Y012646D01*
X017602Y012743D01*
X017283Y012743D01*
X017283Y012806D02*
X017147Y012806D01*
X017101Y012904D02*
X017283Y012904D01*
X017333Y013003D02*
X017055Y013003D01*
X017119Y013101D02*
X017263Y013101D01*
X017485Y013429D02*
X017000Y013429D01*
X017485Y013429D02*
X017650Y013363D01*
X018290Y013363D01*
X018300Y013273D01*
X018300Y013344D01*
X018950Y012694D01*
X019300Y012329D02*
X018450Y012229D01*
X018150Y012116D02*
X017177Y012116D01*
X017177Y012018D02*
X018150Y012018D01*
X018150Y011919D02*
X017166Y011919D01*
X017177Y011821D02*
X018150Y011821D01*
X018150Y011722D02*
X017177Y011722D01*
X017177Y011624D02*
X018150Y011624D01*
X018150Y011525D02*
X017177Y011525D01*
X017177Y011427D02*
X018150Y011427D01*
X018150Y011328D02*
X017177Y011328D01*
X017146Y011230D02*
X018150Y011230D01*
X017953Y012215D02*
X017177Y012215D01*
X016750Y012213D02*
X016685Y012279D01*
X016100Y012279D01*
X015747Y012116D02*
X015313Y012116D01*
X015313Y011821D02*
X015743Y011821D01*
X015660Y011722D02*
X015280Y011722D01*
X015373Y011624D02*
X015619Y011624D01*
X015612Y011525D02*
X015373Y011525D01*
X015373Y011427D02*
X015622Y011427D01*
X015663Y011328D02*
X015373Y011328D01*
X015373Y011230D02*
X015750Y011230D01*
X015722Y011131D02*
X015373Y011131D01*
X015365Y011033D02*
X015712Y011033D01*
X015719Y010934D02*
X015266Y010934D01*
X015188Y010836D02*
X015760Y010836D01*
X015843Y010737D02*
X015182Y010737D01*
X015141Y010639D02*
X016222Y010639D01*
X016373Y010540D02*
X015060Y010540D01*
X014300Y010829D02*
X014300Y011334D01*
X016000Y011529D02*
X016735Y011529D01*
X016750Y011544D01*
X016435Y012609D02*
X016317Y012609D01*
X017239Y012609D02*
X017283Y012609D01*
X018250Y012634D02*
X018250Y012897D01*
X018350Y012897D01*
X018350Y012634D01*
X018250Y012634D01*
X018250Y012707D02*
X018350Y012707D01*
X018350Y012806D02*
X018250Y012806D01*
X019300Y012329D02*
X019600Y012629D01*
X019800Y013759D02*
X019337Y013759D01*
X019337Y014161D01*
X019269Y014229D01*
X019337Y014296D01*
X019337Y014831D01*
X019237Y014930D01*
X019030Y014930D01*
X019030Y015116D01*
X019095Y015182D01*
X019148Y015310D01*
X019148Y015448D01*
X019115Y015529D01*
X019150Y015529D01*
X019150Y015379D01*
X019835Y015379D01*
X019802Y015298D01*
X019802Y015283D01*
X019800Y015279D01*
X019800Y013759D01*
X019800Y013791D02*
X019337Y013791D01*
X019337Y013889D02*
X019800Y013889D01*
X019800Y013988D02*
X019337Y013988D01*
X019337Y014086D02*
X019800Y014086D01*
X019800Y014185D02*
X019313Y014185D01*
X019350Y014229D02*
X019650Y014629D01*
X019800Y014677D02*
X019337Y014677D01*
X019337Y014579D02*
X019800Y014579D01*
X019800Y014480D02*
X019337Y014480D01*
X019337Y014382D02*
X019800Y014382D01*
X019800Y014283D02*
X019324Y014283D01*
X019337Y014776D02*
X019800Y014776D01*
X019800Y014874D02*
X019293Y014874D01*
X019250Y015079D02*
X019550Y014929D01*
X019800Y014973D02*
X019030Y014973D01*
X019030Y015071D02*
X019800Y015071D01*
X019800Y015170D02*
X019083Y015170D01*
X019131Y015268D02*
X019800Y015268D01*
X019830Y015367D02*
X019148Y015367D01*
X019141Y015465D02*
X019150Y015465D01*
X018300Y014573D02*
X017940Y014563D01*
X017650Y014563D01*
X017698Y014579D02*
X018250Y014579D01*
X018250Y014623D02*
X018250Y014523D01*
X017937Y014523D01*
X017937Y014515D01*
X017698Y014515D01*
X017698Y014612D01*
X018017Y014612D01*
X018017Y014623D01*
X018250Y014623D01*
X017602Y014612D02*
X017602Y014515D01*
X017283Y014515D01*
X017283Y014347D01*
X017294Y014309D01*
X017313Y014274D01*
X017341Y014247D01*
X017346Y014244D01*
X017263Y014161D01*
X017263Y014069D01*
X017216Y014069D01*
X017095Y014087D01*
X017074Y014105D01*
X017008Y014100D01*
X016943Y014110D01*
X016920Y014093D01*
X016872Y014089D01*
X016817Y014144D01*
X016689Y014197D01*
X016650Y014197D01*
X016650Y015529D01*
X017193Y015529D01*
X017179Y015503D01*
X017169Y015465D01*
X017169Y015277D01*
X017467Y015277D01*
X017467Y015180D01*
X017169Y015180D01*
X017169Y014993D01*
X017179Y014954D01*
X017198Y014920D01*
X017226Y014892D01*
X017261Y014872D01*
X017299Y014862D01*
X017323Y014862D01*
X017313Y014852D01*
X017294Y014818D01*
X017283Y014780D01*
X017283Y014612D01*
X017602Y014612D01*
X017602Y014579D02*
X016650Y014579D01*
X016650Y014677D02*
X017283Y014677D01*
X017283Y014776D02*
X016650Y014776D01*
X016650Y014874D02*
X017257Y014874D01*
X017174Y014973D02*
X016650Y014973D01*
X016650Y015071D02*
X017169Y015071D01*
X017169Y015170D02*
X016650Y015170D01*
X016650Y015268D02*
X017467Y015268D01*
X017169Y015367D02*
X016650Y015367D01*
X016650Y015465D02*
X017169Y015465D01*
X016150Y015761D02*
X015877Y015761D01*
X016016Y015859D02*
X016150Y015859D01*
X016150Y015958D02*
X016096Y015958D01*
X016141Y016056D02*
X016150Y016056D01*
X016650Y014480D02*
X017283Y014480D01*
X017283Y014382D02*
X016650Y014382D01*
X016650Y014283D02*
X017308Y014283D01*
X017287Y014185D02*
X016718Y014185D01*
X016620Y013849D02*
X017000Y013879D01*
X017200Y013849D01*
X018255Y013849D01*
X017650Y013894D01*
X018310Y013884D01*
X018300Y013884D01*
X018635Y013879D02*
X017650Y013894D01*
X017263Y014086D02*
X017100Y014086D01*
X018635Y013879D02*
X018950Y013894D01*
X017031Y009949D02*
X013219Y009949D01*
X015456Y006994D02*
X016074Y006994D01*
X015779Y006896D02*
X015554Y006896D01*
X015650Y006579D02*
X016550Y006879D01*
X016820Y006600D02*
X017572Y006600D01*
X017400Y006610D02*
X017400Y007129D01*
X016922Y006994D02*
X018116Y006994D01*
X018116Y006896D02*
X016938Y006896D01*
X016936Y006797D02*
X018114Y006797D01*
X018133Y006699D02*
X016896Y006699D01*
X016940Y006502D02*
X016998Y006502D01*
X016998Y006403D02*
X016940Y006403D01*
X016940Y006305D02*
X016998Y006305D01*
X016998Y006108D02*
X016940Y006108D01*
X016940Y006009D02*
X016998Y006009D01*
X016998Y005911D02*
X016940Y005911D01*
X016940Y005812D02*
X016998Y005812D01*
X017129Y005812D02*
X017472Y005812D01*
X017374Y005911D02*
X017267Y005911D01*
X017300Y006403D02*
X017351Y006403D01*
X017429Y006502D02*
X017205Y006502D01*
X016732Y006502D02*
X016654Y006502D01*
X016638Y006403D02*
X015946Y006403D01*
X015910Y006305D02*
X016588Y006305D01*
X016446Y006502D02*
X016241Y006502D01*
X016881Y007093D02*
X018109Y007093D01*
X018058Y007191D02*
X016786Y007191D01*
X017941Y006600D02*
X018160Y006600D01*
X018187Y006502D02*
X018084Y006502D01*
X018672Y006699D02*
X019071Y006699D01*
X019071Y006639D02*
X018994Y006639D01*
X018871Y006516D01*
X018871Y006502D01*
X018804Y006569D01*
X018695Y006614D01*
X018636Y006831D01*
X018636Y007081D01*
X018746Y007081D01*
X018746Y007463D01*
X018754Y007463D01*
X018754Y007081D01*
X018869Y007081D01*
X018929Y007021D01*
X019071Y007021D01*
X019071Y006639D01*
X018956Y006600D02*
X018728Y006600D01*
X018645Y006797D02*
X019071Y006797D01*
X019071Y006896D02*
X018636Y006896D01*
X018636Y006994D02*
X019071Y006994D01*
X019331Y007110D02*
X019331Y006179D01*
X019331Y007110D02*
X019124Y007467D01*
X018754Y007487D02*
X018746Y007487D01*
X018746Y007585D02*
X018754Y007585D01*
X018746Y007684D02*
X018754Y007684D01*
X018746Y007782D02*
X018754Y007782D01*
X018896Y007881D02*
X018604Y007881D01*
X018746Y007388D02*
X018754Y007388D01*
X018746Y007290D02*
X018754Y007290D01*
X018746Y007191D02*
X018754Y007191D01*
X018746Y007093D02*
X018754Y007093D01*
X019120Y008176D02*
X019128Y008176D01*
X018161Y005911D02*
X018139Y005911D01*
X018040Y005812D02*
X018260Y005812D01*
X015200Y005418D02*
X015100Y005418D01*
X015100Y005320D02*
X015200Y005320D01*
X015200Y005221D02*
X015100Y005221D01*
X014700Y005714D02*
X014660Y005714D01*
X014638Y005812D02*
X014747Y005812D01*
X013885Y005123D02*
X013415Y005123D01*
X013514Y005221D02*
X013786Y005221D01*
X013688Y005320D02*
X013612Y005320D01*
X021813Y009555D02*
X021840Y009555D01*
X022350Y005517D02*
X022450Y005517D01*
X022450Y005418D02*
X022350Y005418D01*
X022350Y005320D02*
X022450Y005320D01*
X000367Y017632D02*
X000360Y017632D01*
X000360Y018125D02*
X000545Y018125D01*
X000363Y018223D02*
X000360Y018223D01*
D37*
X001800Y019429D02*
X001800Y020429D01*
X005750Y019679D02*
X005950Y019879D01*
X007150Y019529D01*
X007150Y020529D01*
X007000Y020779D01*
X006750Y020629D01*
X006880Y020749D02*
X006330Y021729D01*
X006250Y021379D02*
X006880Y020749D01*
X006700Y014279D02*
X006550Y014129D01*
X006550Y012529D01*
X010850Y014229D02*
X011256Y014229D01*
X014400Y012629D02*
X014850Y012529D01*
X014950Y012023D01*
X015400Y012679D02*
X015250Y014029D01*
X014950Y011334D02*
X014800Y010829D01*
X021400Y007579D02*
X021400Y006627D01*
X022400Y006627D02*
X022400Y007579D01*
X023400Y007579D02*
X023400Y006627D01*
X024400Y006627D02*
X024400Y007579D01*
X024400Y005131D02*
X023400Y005131D01*
X022400Y005131D01*
X021400Y005131D01*
X016700Y017129D02*
X016700Y019279D01*
X017200Y019879D01*
X018300Y019879D01*
D38*
X021500Y021929D02*
X022400Y021629D01*
X023250Y020179D01*
X024000Y020079D01*
X024000Y015729D02*
X024000Y013229D01*
X024000Y012029D01*
X023650Y010229D02*
X023700Y010079D01*
X023199Y010229D02*
X022100Y010229D01*
X024350Y008579D02*
X024800Y008579D01*
X025250Y008579D01*
X015250Y014029D02*
X015250Y014229D01*
X015250Y015129D01*
D39*
X010650Y016268D02*
X010650Y019229D01*
X011150Y019229D01*
X010650Y019229D02*
X010650Y022579D01*
X011650Y023579D01*
X015500Y021479D02*
X016000Y021529D01*
X018150Y022729D01*
X018450Y023029D01*
X018450Y023229D01*
X019150Y023729D02*
X019150Y023779D01*
X017900Y023779D01*
X017650Y023229D01*
X019150Y023779D02*
X020300Y023779D01*
X021050Y023629D01*
X022200Y023629D01*
X022400Y023429D01*
X019750Y019379D02*
X019750Y017129D01*
X020050Y015229D02*
X020050Y013529D01*
X020050Y015229D02*
X020150Y015229D01*
X021800Y012979D02*
X021800Y011979D01*
X022150Y011979D01*
X024050Y011979D01*
X024000Y012029D01*
X024050Y011979D02*
X024500Y011979D01*
X024650Y013229D02*
X024000Y013229D01*
X023650Y010229D02*
X023199Y010229D01*
X022300Y009529D02*
X021806Y009979D01*
X021450Y010123D01*
X021450Y009434D02*
X020650Y009084D01*
X020600Y008279D01*
X018376Y008491D02*
X018214Y008329D01*
X017900Y008329D01*
X010800Y009779D02*
X010050Y009529D01*
X010050Y008629D01*
X008750Y010529D02*
X008650Y011379D01*
X006650Y016579D02*
X006126Y016579D01*
X006100Y016552D01*
X025601Y010229D02*
X025851Y010028D01*
X026550Y009329D01*
X028900Y009329D01*
D40*
X024650Y016229D02*
X027164Y018229D01*
X027162Y018226D01*
X024650Y016229D02*
X021150Y016239D01*
X018150Y016247D01*
X016150Y016252D01*
X013200Y016261D01*
X010650Y016268D01*
X008700Y016273D01*
X008650Y016275D01*
X007600Y016075D01*
X007599Y016029D01*
X007599Y016528D01*
X006750Y016579D01*
X006100Y016529D01*
X006750Y016579D02*
X007600Y016075D01*
X007599Y016029D02*
X007587Y015222D01*
X007500Y009429D01*
X005600Y009429D01*
X006750Y016579D02*
X006750Y020629D01*
X006250Y021379D01*
D41*
X004750Y020679D02*
X002550Y020679D01*
X002200Y020429D01*
X001800Y020429D01*
X004750Y020679D02*
X005750Y019679D01*
X010300Y016779D02*
X012150Y016229D01*
X012800Y016229D01*
X013150Y016229D01*
X013100Y016279D01*
X013100Y016579D01*
X013150Y016261D02*
X013200Y016261D01*
X013150Y016261D02*
X013150Y016229D01*
X013150Y016029D01*
X012800Y016229D02*
X012800Y014429D01*
X012150Y016229D02*
X010300Y015779D01*
X007587Y015222D02*
X007587Y015054D01*
X004650Y015054D02*
X004650Y013779D01*
X011850Y009179D02*
X013750Y009179D01*
X014200Y007979D02*
X015750Y007779D01*
X016600Y008679D01*
X020200Y008279D02*
X020200Y007879D01*
X020600Y007879D01*
X020650Y005131D01*
X021400Y005131D01*
X024400Y005131D02*
X024437Y005094D01*
X025850Y005094D01*
X025850Y005763D02*
X025850Y006329D01*
X022850Y009279D02*
X022550Y008979D01*
X022006Y008979D01*
X021450Y009434D01*
X020600Y008279D02*
X020650Y011229D01*
X021150Y011229D01*
X021650Y011729D01*
X021650Y012029D01*
X022150Y012029D01*
X022150Y011979D01*
X020050Y013529D02*
X019265Y013529D01*
X018950Y013363D01*
X018644Y014229D02*
X018300Y014573D01*
X018644Y014229D02*
X019350Y014229D01*
X019650Y014629D02*
X019700Y014729D01*
X019550Y014929D01*
X018950Y014563D02*
X018800Y014763D01*
X018800Y015379D01*
X018185Y015229D02*
X018150Y015263D01*
X018150Y016247D01*
X017500Y017129D02*
X017250Y017679D01*
X017250Y019229D01*
X016850Y020079D02*
X016150Y019229D01*
X016200Y017479D01*
X015800Y017129D01*
X015650Y017829D02*
X015650Y019379D01*
X015950Y020179D01*
X016850Y020079D02*
X016850Y020329D01*
X019100Y019879D02*
X019650Y020279D01*
X019650Y021229D01*
X020350Y021929D01*
X021500Y021929D01*
X022400Y021629D02*
X022400Y023429D01*
X022675Y023704D01*
X022800Y023829D01*
X026250Y023829D01*
X026300Y023879D01*
X023150Y019229D02*
X022650Y018729D01*
X022650Y017179D01*
X022150Y017179D02*
X022150Y018729D01*
X022650Y019229D01*
X024650Y016729D02*
X024650Y016229D01*
X024650Y015729D01*
X024000Y015729D01*
X017650Y015094D02*
X017650Y014563D01*
X017650Y015094D02*
X017515Y015229D01*
X016150Y015179D02*
X016150Y016229D01*
X015650Y016229D01*
X016150Y016229D02*
X016150Y016252D01*
X014950Y017129D02*
X015650Y017829D01*
X014950Y017129D02*
X014800Y017129D01*
X016150Y015179D02*
X016000Y015029D01*
X020200Y008279D02*
X020600Y008279D01*
X011800Y007329D02*
X011250Y007629D01*
X010050Y007629D01*
X010350Y006629D02*
X011050Y007279D01*
X010350Y006629D02*
X010050Y006629D01*
D42*
X015150Y005579D02*
X016369Y005579D01*
X016969Y006179D01*
X023199Y010229D02*
X024449Y011229D01*
X025650Y011229D01*
M02*
