G75*
%MOIN*%
%OFA0B0*%
%FSLAX24Y24*%
%IPPOS*%
%LPD*%
%AMOC8*
5,1,8,0,0,1.08239X$1,22.5*
%
%ADD10C,0.0000*%
%ADD11C,0.0100*%
%ADD12C,0.0520*%
%ADD13R,0.0453X0.0465*%
%ADD14OC8,0.0540*%
%ADD15C,0.0540*%
%ADD16C,0.1221*%
%ADD17C,0.1040*%
%ADD18OC8,0.1040*%
%ADD19OC8,0.0640*%
%ADD20R,0.0434X0.0473*%
%ADD21OC8,0.1540*%
%ADD22C,0.0640*%
%ADD23C,0.0780*%
%ADD24C,0.0640*%
%ADD25R,0.0465X0.0453*%
%ADD26R,0.0473X0.0434*%
%ADD27R,0.0780X0.0780*%
%ADD28OC8,0.0520*%
%ADD29R,0.0591X0.0591*%
%ADD30R,0.0540X0.0540*%
%ADD31C,0.0788*%
%ADD32R,0.0257X0.0512*%
%ADD33C,0.0670*%
%ADD34C,0.1440*%
%ADD35R,0.1615X0.0670*%
D10*
X000150Y004729D02*
X000150Y024329D01*
X029450Y024329D01*
X029450Y004729D01*
X000150Y004729D01*
X001528Y006697D02*
X001530Y006745D01*
X001536Y006793D01*
X001546Y006840D01*
X001559Y006886D01*
X001577Y006931D01*
X001597Y006975D01*
X001622Y007017D01*
X001650Y007056D01*
X001680Y007093D01*
X001714Y007127D01*
X001751Y007159D01*
X001789Y007188D01*
X001830Y007213D01*
X001873Y007235D01*
X001918Y007253D01*
X001964Y007267D01*
X002011Y007278D01*
X002059Y007285D01*
X002107Y007288D01*
X002155Y007287D01*
X002203Y007282D01*
X002251Y007273D01*
X002297Y007261D01*
X002342Y007244D01*
X002386Y007224D01*
X002428Y007201D01*
X002468Y007174D01*
X002506Y007144D01*
X002541Y007111D01*
X002573Y007075D01*
X002603Y007037D01*
X002629Y006996D01*
X002651Y006953D01*
X002671Y006909D01*
X002686Y006864D01*
X002698Y006817D01*
X002706Y006769D01*
X002710Y006721D01*
X002710Y006673D01*
X002706Y006625D01*
X002698Y006577D01*
X002686Y006530D01*
X002671Y006485D01*
X002651Y006441D01*
X002629Y006398D01*
X002603Y006357D01*
X002573Y006319D01*
X002541Y006283D01*
X002506Y006250D01*
X002468Y006220D01*
X002428Y006193D01*
X002386Y006170D01*
X002342Y006150D01*
X002297Y006133D01*
X002251Y006121D01*
X002203Y006112D01*
X002155Y006107D01*
X002107Y006106D01*
X002059Y006109D01*
X002011Y006116D01*
X001964Y006127D01*
X001918Y006141D01*
X001873Y006159D01*
X001830Y006181D01*
X001789Y006206D01*
X001751Y006235D01*
X001714Y006267D01*
X001680Y006301D01*
X001650Y006338D01*
X001622Y006377D01*
X001597Y006419D01*
X001577Y006463D01*
X001559Y006508D01*
X001546Y006554D01*
X001536Y006601D01*
X001530Y006649D01*
X001528Y006697D01*
X001528Y022445D02*
X001530Y022493D01*
X001536Y022541D01*
X001546Y022588D01*
X001559Y022634D01*
X001577Y022679D01*
X001597Y022723D01*
X001622Y022765D01*
X001650Y022804D01*
X001680Y022841D01*
X001714Y022875D01*
X001751Y022907D01*
X001789Y022936D01*
X001830Y022961D01*
X001873Y022983D01*
X001918Y023001D01*
X001964Y023015D01*
X002011Y023026D01*
X002059Y023033D01*
X002107Y023036D01*
X002155Y023035D01*
X002203Y023030D01*
X002251Y023021D01*
X002297Y023009D01*
X002342Y022992D01*
X002386Y022972D01*
X002428Y022949D01*
X002468Y022922D01*
X002506Y022892D01*
X002541Y022859D01*
X002573Y022823D01*
X002603Y022785D01*
X002629Y022744D01*
X002651Y022701D01*
X002671Y022657D01*
X002686Y022612D01*
X002698Y022565D01*
X002706Y022517D01*
X002710Y022469D01*
X002710Y022421D01*
X002706Y022373D01*
X002698Y022325D01*
X002686Y022278D01*
X002671Y022233D01*
X002651Y022189D01*
X002629Y022146D01*
X002603Y022105D01*
X002573Y022067D01*
X002541Y022031D01*
X002506Y021998D01*
X002468Y021968D01*
X002428Y021941D01*
X002386Y021918D01*
X002342Y021898D01*
X002297Y021881D01*
X002251Y021869D01*
X002203Y021860D01*
X002155Y021855D01*
X002107Y021854D01*
X002059Y021857D01*
X002011Y021864D01*
X001964Y021875D01*
X001918Y021889D01*
X001873Y021907D01*
X001830Y021929D01*
X001789Y021954D01*
X001751Y021983D01*
X001714Y022015D01*
X001680Y022049D01*
X001650Y022086D01*
X001622Y022125D01*
X001597Y022167D01*
X001577Y022211D01*
X001559Y022256D01*
X001546Y022302D01*
X001536Y022349D01*
X001530Y022397D01*
X001528Y022445D01*
X027118Y022445D02*
X027120Y022493D01*
X027126Y022541D01*
X027136Y022588D01*
X027149Y022634D01*
X027167Y022679D01*
X027187Y022723D01*
X027212Y022765D01*
X027240Y022804D01*
X027270Y022841D01*
X027304Y022875D01*
X027341Y022907D01*
X027379Y022936D01*
X027420Y022961D01*
X027463Y022983D01*
X027508Y023001D01*
X027554Y023015D01*
X027601Y023026D01*
X027649Y023033D01*
X027697Y023036D01*
X027745Y023035D01*
X027793Y023030D01*
X027841Y023021D01*
X027887Y023009D01*
X027932Y022992D01*
X027976Y022972D01*
X028018Y022949D01*
X028058Y022922D01*
X028096Y022892D01*
X028131Y022859D01*
X028163Y022823D01*
X028193Y022785D01*
X028219Y022744D01*
X028241Y022701D01*
X028261Y022657D01*
X028276Y022612D01*
X028288Y022565D01*
X028296Y022517D01*
X028300Y022469D01*
X028300Y022421D01*
X028296Y022373D01*
X028288Y022325D01*
X028276Y022278D01*
X028261Y022233D01*
X028241Y022189D01*
X028219Y022146D01*
X028193Y022105D01*
X028163Y022067D01*
X028131Y022031D01*
X028096Y021998D01*
X028058Y021968D01*
X028018Y021941D01*
X027976Y021918D01*
X027932Y021898D01*
X027887Y021881D01*
X027841Y021869D01*
X027793Y021860D01*
X027745Y021855D01*
X027697Y021854D01*
X027649Y021857D01*
X027601Y021864D01*
X027554Y021875D01*
X027508Y021889D01*
X027463Y021907D01*
X027420Y021929D01*
X027379Y021954D01*
X027341Y021983D01*
X027304Y022015D01*
X027270Y022049D01*
X027240Y022086D01*
X027212Y022125D01*
X027187Y022167D01*
X027167Y022211D01*
X027149Y022256D01*
X027136Y022302D01*
X027126Y022349D01*
X027120Y022397D01*
X027118Y022445D01*
X027118Y006697D02*
X027120Y006745D01*
X027126Y006793D01*
X027136Y006840D01*
X027149Y006886D01*
X027167Y006931D01*
X027187Y006975D01*
X027212Y007017D01*
X027240Y007056D01*
X027270Y007093D01*
X027304Y007127D01*
X027341Y007159D01*
X027379Y007188D01*
X027420Y007213D01*
X027463Y007235D01*
X027508Y007253D01*
X027554Y007267D01*
X027601Y007278D01*
X027649Y007285D01*
X027697Y007288D01*
X027745Y007287D01*
X027793Y007282D01*
X027841Y007273D01*
X027887Y007261D01*
X027932Y007244D01*
X027976Y007224D01*
X028018Y007201D01*
X028058Y007174D01*
X028096Y007144D01*
X028131Y007111D01*
X028163Y007075D01*
X028193Y007037D01*
X028219Y006996D01*
X028241Y006953D01*
X028261Y006909D01*
X028276Y006864D01*
X028288Y006817D01*
X028296Y006769D01*
X028300Y006721D01*
X028300Y006673D01*
X028296Y006625D01*
X028288Y006577D01*
X028276Y006530D01*
X028261Y006485D01*
X028241Y006441D01*
X028219Y006398D01*
X028193Y006357D01*
X028163Y006319D01*
X028131Y006283D01*
X028096Y006250D01*
X028058Y006220D01*
X028018Y006193D01*
X027976Y006170D01*
X027932Y006150D01*
X027887Y006133D01*
X027841Y006121D01*
X027793Y006112D01*
X027745Y006107D01*
X027697Y006106D01*
X027649Y006109D01*
X027601Y006116D01*
X027554Y006127D01*
X027508Y006141D01*
X027463Y006159D01*
X027420Y006181D01*
X027379Y006206D01*
X027341Y006235D01*
X027304Y006267D01*
X027270Y006301D01*
X027240Y006338D01*
X027212Y006377D01*
X027187Y006419D01*
X027167Y006463D01*
X027149Y006508D01*
X027136Y006554D01*
X027126Y006601D01*
X027120Y006649D01*
X027118Y006697D01*
D11*
X024800Y015679D02*
X023850Y015729D01*
X008450Y015729D01*
X008100Y015629D01*
X008000Y010179D01*
X008000Y009229D01*
X007900Y009029D01*
X007650Y008929D01*
X005700Y008929D01*
X005700Y009929D01*
X007000Y009929D01*
X007100Y015779D01*
X006650Y016079D01*
X006300Y016029D01*
X006050Y016029D01*
X005900Y016079D01*
X005750Y016229D01*
X005850Y016329D01*
X005900Y016479D01*
X005900Y016679D01*
X005750Y016879D01*
X005800Y016929D01*
X005950Y017029D01*
X006250Y017079D01*
X006250Y020479D01*
X005850Y021129D01*
X005800Y021429D01*
X005900Y021579D01*
X006250Y021379D01*
X006450Y021329D01*
X006700Y021579D01*
X007250Y020729D01*
X007300Y017029D01*
X007850Y016979D01*
X008050Y016729D01*
X024400Y016729D01*
X026950Y018679D01*
X026950Y018979D01*
X027450Y018979D01*
X027450Y018629D01*
X027600Y018529D01*
X027650Y018229D01*
X027550Y017929D01*
X024800Y015679D01*
X024900Y015761D02*
X007100Y015761D01*
X007098Y015662D02*
X008217Y015662D01*
X008099Y015564D02*
X007096Y015564D01*
X007095Y015465D02*
X008097Y015465D01*
X008095Y015367D02*
X007093Y015367D01*
X007091Y015268D02*
X008093Y015268D01*
X008092Y015170D02*
X007090Y015170D01*
X007088Y015071D02*
X008090Y015071D01*
X008088Y014973D02*
X007086Y014973D01*
X007085Y014874D02*
X008086Y014874D01*
X008084Y014776D02*
X007083Y014776D01*
X007081Y014677D02*
X008083Y014677D01*
X008081Y014579D02*
X007079Y014579D01*
X007078Y014480D02*
X008079Y014480D01*
X008077Y014382D02*
X007076Y014382D01*
X007074Y014283D02*
X008075Y014283D01*
X008074Y014185D02*
X007073Y014185D01*
X007071Y014086D02*
X008072Y014086D01*
X008070Y013988D02*
X007069Y013988D01*
X007068Y013889D02*
X008068Y013889D01*
X008066Y013791D02*
X007066Y013791D01*
X007064Y013692D02*
X008064Y013692D01*
X008063Y013594D02*
X007063Y013594D01*
X007061Y013495D02*
X008061Y013495D01*
X008059Y013397D02*
X007059Y013397D01*
X007058Y013298D02*
X008057Y013298D01*
X008055Y013200D02*
X007056Y013200D01*
X007054Y013101D02*
X008054Y013101D01*
X008052Y013003D02*
X007053Y013003D01*
X007051Y012904D02*
X008050Y012904D01*
X008048Y012806D02*
X007049Y012806D01*
X007047Y012707D02*
X008046Y012707D01*
X008045Y012609D02*
X007046Y012609D01*
X007044Y012510D02*
X008043Y012510D01*
X008041Y012412D02*
X007042Y012412D01*
X007041Y012313D02*
X008039Y012313D01*
X008037Y012215D02*
X007039Y012215D01*
X007037Y012116D02*
X008036Y012116D01*
X008034Y012018D02*
X007036Y012018D01*
X007034Y011919D02*
X008032Y011919D01*
X008030Y011821D02*
X007032Y011821D01*
X007031Y011722D02*
X008028Y011722D01*
X008027Y011624D02*
X007029Y011624D01*
X007027Y011525D02*
X008025Y011525D01*
X008023Y011427D02*
X007026Y011427D01*
X007024Y011328D02*
X008021Y011328D01*
X008019Y011230D02*
X007022Y011230D01*
X007021Y011131D02*
X008017Y011131D01*
X008016Y011033D02*
X007019Y011033D01*
X007017Y010934D02*
X008014Y010934D01*
X008012Y010836D02*
X007016Y010836D01*
X007014Y010737D02*
X008010Y010737D01*
X008008Y010639D02*
X007012Y010639D01*
X007010Y010540D02*
X008007Y010540D01*
X008005Y010442D02*
X007009Y010442D01*
X007007Y010343D02*
X008003Y010343D01*
X008001Y010245D02*
X007005Y010245D01*
X007004Y010146D02*
X008000Y010146D01*
X008000Y010048D02*
X007002Y010048D01*
X007000Y009949D02*
X008000Y009949D01*
X008000Y009851D02*
X005700Y009851D01*
X005700Y009752D02*
X008000Y009752D01*
X008000Y009654D02*
X005700Y009654D01*
X005700Y009555D02*
X008000Y009555D01*
X008000Y009457D02*
X005700Y009457D01*
X005700Y009358D02*
X008000Y009358D01*
X008000Y009260D02*
X005700Y009260D01*
X005700Y009161D02*
X007966Y009161D01*
X007917Y009063D02*
X005700Y009063D01*
X005700Y008964D02*
X007739Y008964D01*
X006979Y015859D02*
X025021Y015859D01*
X025141Y015958D02*
X006831Y015958D01*
X006684Y016056D02*
X025261Y016056D01*
X025382Y016155D02*
X005824Y016155D01*
X005775Y016253D02*
X025502Y016253D01*
X025623Y016352D02*
X005858Y016352D01*
X005891Y016450D02*
X025743Y016450D01*
X025863Y016549D02*
X005900Y016549D01*
X005900Y016647D02*
X025984Y016647D01*
X026104Y016746D02*
X024422Y016746D01*
X024551Y016844D02*
X026225Y016844D01*
X026345Y016943D02*
X024680Y016943D01*
X024809Y017041D02*
X026465Y017041D01*
X026586Y017140D02*
X024938Y017140D01*
X025066Y017238D02*
X026706Y017238D01*
X026826Y017337D02*
X025195Y017337D01*
X025324Y017435D02*
X026947Y017435D01*
X027067Y017534D02*
X025453Y017534D01*
X025582Y017632D02*
X027188Y017632D01*
X027308Y017731D02*
X025710Y017731D01*
X025839Y017829D02*
X027428Y017829D01*
X027549Y017928D02*
X025968Y017928D01*
X026097Y018026D02*
X027583Y018026D01*
X027615Y018125D02*
X026226Y018125D01*
X026354Y018223D02*
X027648Y018223D01*
X027634Y018322D02*
X026483Y018322D01*
X026612Y018420D02*
X027618Y018420D01*
X027602Y018519D02*
X026741Y018519D01*
X026870Y018617D02*
X027467Y018617D01*
X027450Y018716D02*
X026950Y018716D01*
X026950Y018814D02*
X027450Y018814D01*
X027450Y018913D02*
X026950Y018913D01*
X008036Y016746D02*
X005850Y016746D01*
X005776Y016844D02*
X007958Y016844D01*
X007879Y016943D02*
X005821Y016943D01*
X006025Y017041D02*
X007300Y017041D01*
X007299Y017140D02*
X006250Y017140D01*
X006250Y017238D02*
X007297Y017238D01*
X007296Y017337D02*
X006250Y017337D01*
X006250Y017435D02*
X007295Y017435D01*
X007293Y017534D02*
X006250Y017534D01*
X006250Y017632D02*
X007292Y017632D01*
X007291Y017731D02*
X006250Y017731D01*
X006250Y017829D02*
X007289Y017829D01*
X007288Y017928D02*
X006250Y017928D01*
X006250Y018026D02*
X007287Y018026D01*
X007285Y018125D02*
X006250Y018125D01*
X006250Y018223D02*
X007284Y018223D01*
X007283Y018322D02*
X006250Y018322D01*
X006250Y018420D02*
X007281Y018420D01*
X007280Y018519D02*
X006250Y018519D01*
X006250Y018617D02*
X007279Y018617D01*
X007277Y018716D02*
X006250Y018716D01*
X006250Y018814D02*
X007276Y018814D01*
X007275Y018913D02*
X006250Y018913D01*
X006250Y019011D02*
X007273Y019011D01*
X007272Y019110D02*
X006250Y019110D01*
X006250Y019208D02*
X007271Y019208D01*
X007269Y019307D02*
X006250Y019307D01*
X006250Y019405D02*
X007268Y019405D01*
X007267Y019504D02*
X006250Y019504D01*
X006250Y019602D02*
X007265Y019602D01*
X007264Y019701D02*
X006250Y019701D01*
X006250Y019799D02*
X007263Y019799D01*
X007261Y019898D02*
X006250Y019898D01*
X006250Y019996D02*
X007260Y019996D01*
X007259Y020095D02*
X006250Y020095D01*
X006250Y020193D02*
X007257Y020193D01*
X007256Y020292D02*
X006250Y020292D01*
X006250Y020390D02*
X007255Y020390D01*
X007253Y020489D02*
X006244Y020489D01*
X006183Y020587D02*
X007252Y020587D01*
X007251Y020686D02*
X006123Y020686D01*
X006062Y020784D02*
X007214Y020784D01*
X007150Y020883D02*
X006001Y020883D01*
X005941Y020981D02*
X007087Y020981D01*
X007023Y021080D02*
X005880Y021080D01*
X005842Y021178D02*
X006959Y021178D01*
X006895Y021277D02*
X005825Y021277D01*
X005809Y021375D02*
X006264Y021375D01*
X006084Y021474D02*
X005830Y021474D01*
X005896Y021572D02*
X005911Y021572D01*
X006497Y021375D02*
X006832Y021375D01*
X006768Y021474D02*
X006595Y021474D01*
X006694Y021572D02*
X006704Y021572D01*
X006493Y016056D02*
X005967Y016056D01*
D12*
X009850Y013629D03*
X011750Y013629D03*
D13*
X011694Y012829D03*
X011006Y012829D03*
X010444Y012829D03*
X009756Y012829D03*
D14*
X014200Y007979D03*
X019100Y019879D03*
X017650Y023229D03*
D15*
X018450Y023229D03*
X018300Y019879D03*
X014200Y008779D03*
X016969Y006179D03*
X017756Y006179D03*
X018544Y006179D03*
D16*
X027709Y006697D03*
X027709Y022445D03*
X002119Y022445D03*
X002119Y006697D03*
D17*
X004750Y007129D03*
X003750Y019679D03*
D18*
X005750Y019679D03*
X006750Y007129D03*
D19*
X011150Y006579D03*
X012150Y006579D03*
X013150Y006579D03*
X014150Y006579D03*
X015150Y006579D03*
X015150Y005579D03*
X014150Y005579D03*
X013150Y005579D03*
X012150Y005579D03*
X011150Y005579D03*
X026900Y009829D03*
X027900Y009829D03*
X028900Y009829D03*
X028900Y008829D03*
X027900Y008829D03*
X027900Y010929D03*
X028900Y010929D03*
X028900Y011929D03*
X027900Y011929D03*
X026900Y011929D03*
X027900Y013029D03*
X028900Y013029D03*
X028900Y014029D03*
X027900Y014029D03*
X026900Y014029D03*
X026900Y015129D03*
X026900Y016129D03*
X027900Y016129D03*
X027900Y017129D03*
X026900Y017129D03*
X015050Y019829D03*
X008050Y019829D03*
D20*
X017515Y015229D03*
X018185Y015229D03*
D21*
X015500Y021479D03*
X015500Y023479D03*
X009300Y023479D03*
X009300Y021479D03*
D22*
X021200Y021929D02*
X021800Y021929D01*
X021800Y022929D02*
X021200Y022929D01*
X021200Y020929D02*
X021800Y020929D01*
X023700Y021079D02*
X024300Y021079D01*
X024300Y022079D02*
X023700Y022079D01*
X023700Y023079D02*
X024300Y023079D01*
X024300Y020079D02*
X023700Y020079D01*
X026200Y019829D02*
X026200Y019229D01*
X027200Y019229D02*
X027200Y019829D01*
X028200Y019829D02*
X028200Y019229D01*
D23*
X025350Y021879D03*
X025350Y022879D03*
X015950Y020179D03*
X015650Y016229D03*
X019550Y009379D03*
X021400Y007579D03*
X022400Y007579D03*
X023400Y007579D03*
X010050Y007629D03*
X010050Y008629D03*
X010050Y006629D03*
X007500Y009429D03*
X004550Y010329D03*
X002600Y010029D03*
X004600Y015879D03*
X002600Y016279D03*
X001800Y019429D03*
X001800Y020429D03*
X006330Y021729D03*
X007470Y021729D03*
X006650Y016579D03*
D24*
X026900Y013029D03*
X027900Y015129D03*
X026900Y010929D03*
X026900Y008829D03*
D25*
X021450Y009434D03*
X021450Y010123D03*
X018300Y012584D03*
X018300Y013273D03*
X018300Y013884D03*
X018300Y014573D03*
X014950Y012023D03*
X014300Y012023D03*
X014300Y011334D03*
X014950Y011334D03*
D26*
X016750Y011544D03*
X016750Y012213D03*
X017650Y012694D03*
X017650Y013363D03*
X017650Y013894D03*
X017650Y014563D03*
X018950Y014563D03*
X018950Y013894D03*
X018950Y013363D03*
X018950Y012694D03*
X025850Y005763D03*
X025850Y005094D03*
D27*
X024400Y007579D03*
X010050Y005629D03*
D28*
X002100Y014479D03*
X002100Y015479D03*
X001650Y017279D03*
X000650Y017279D03*
X007150Y019529D03*
X007150Y020529D03*
X008950Y018829D03*
X008950Y017829D03*
X010300Y016779D03*
X010300Y015779D03*
X020550Y018079D03*
X020550Y019079D03*
X021200Y016729D03*
X021200Y015729D03*
X024650Y015729D03*
X024650Y016729D03*
D29*
X024400Y006627D03*
X023400Y006627D03*
X022400Y006627D03*
X021400Y006627D03*
X021400Y005131D03*
X022400Y005131D03*
X023400Y005131D03*
X024400Y005131D03*
D30*
X019331Y006179D03*
D31*
X005541Y009552D03*
X005541Y010552D03*
X005541Y011552D03*
X005541Y012552D03*
X005541Y013552D03*
X005541Y014552D03*
X005541Y015552D03*
X005541Y016552D03*
X003541Y016052D03*
X003541Y015052D03*
X003541Y014052D03*
X003541Y013052D03*
X003541Y012052D03*
X003541Y011052D03*
X003541Y010052D03*
D32*
X018376Y008491D03*
X019124Y008491D03*
X019124Y007467D03*
X018750Y007467D03*
X018376Y007467D03*
D33*
X000700Y018629D03*
X000700Y020129D03*
D34*
X004850Y023329D03*
X006850Y023329D03*
D35*
X023199Y010229D03*
X025601Y010229D03*
M02*
