G75*
%MOIN*%
%OFA0B0*%
%FSLAX24Y24*%
%IPPOS*%
%LPD*%
%AMOC8*
5,1,8,0,0,1.08239X$1,22.5*
%
%ADD10C,0.0030*%
D10*
X000292Y008344D02*
X000292Y008406D01*
X000353Y008467D01*
X000662Y008467D01*
X000785Y008467D02*
X000847Y008467D01*
X001015Y008467D02*
X001138Y008344D01*
X001262Y008344D01*
X001385Y008467D01*
X001262Y008651D02*
X001200Y008589D01*
X001077Y008589D01*
X001015Y008651D01*
X001015Y008836D01*
X001015Y008958D02*
X001138Y009081D01*
X001262Y009081D01*
X001385Y008958D01*
X001262Y008836D02*
X001262Y008651D01*
X001615Y008591D02*
X001738Y008467D01*
X001738Y008529D02*
X001738Y008344D01*
X001615Y008344D02*
X001985Y008344D01*
X001985Y008529D01*
X001924Y008591D01*
X001800Y008591D01*
X001738Y008529D01*
X001677Y008712D02*
X001615Y008774D01*
X001615Y008897D01*
X001677Y008959D01*
X001800Y008959D01*
X001862Y008897D01*
X001862Y008774D01*
X001800Y008712D01*
X001677Y008712D01*
X001615Y009080D02*
X001615Y009266D01*
X001677Y009327D01*
X001800Y009327D01*
X001862Y009266D01*
X001862Y009080D01*
X001985Y009080D02*
X001615Y009080D01*
X001677Y009449D02*
X001615Y009510D01*
X001615Y009634D01*
X001677Y009696D01*
X001800Y009696D01*
X001862Y009634D01*
X001862Y009510D01*
X001800Y009449D01*
X001677Y009449D01*
X001385Y009695D02*
X001385Y009818D01*
X001385Y009757D02*
X001077Y009757D01*
X001015Y009695D01*
X001015Y009633D01*
X001077Y009572D01*
X001077Y009940D02*
X001015Y010002D01*
X001015Y010125D01*
X001077Y010187D01*
X001200Y010187D01*
X001262Y010125D01*
X001262Y010002D01*
X001200Y009940D01*
X001077Y009940D01*
X000662Y009879D02*
X000662Y009694D01*
X000415Y009694D01*
X000415Y009573D02*
X000415Y009388D01*
X000477Y009326D01*
X000538Y009388D01*
X000538Y009573D01*
X000600Y009573D02*
X000415Y009573D01*
X000600Y009573D02*
X000662Y009511D01*
X000662Y009388D01*
X000600Y009205D02*
X000415Y009205D01*
X000600Y009205D02*
X000662Y009143D01*
X000662Y009019D01*
X000600Y008958D01*
X000600Y008836D02*
X000662Y008774D01*
X000662Y008651D01*
X000600Y008589D01*
X000477Y008589D01*
X000415Y008651D01*
X000415Y008774D01*
X000477Y008836D01*
X000600Y008836D01*
X000785Y008958D02*
X000415Y008958D01*
X000662Y009879D02*
X000600Y009941D01*
X000415Y009941D01*
X000415Y010063D02*
X000662Y010063D01*
X000662Y010248D01*
X000600Y010309D01*
X000415Y010309D01*
X000477Y010431D02*
X000600Y010431D01*
X000662Y010493D01*
X000662Y010616D01*
X000600Y010678D01*
X000538Y010678D01*
X000538Y010431D01*
X000477Y010431D02*
X000415Y010493D01*
X000415Y010616D01*
X000415Y010799D02*
X000415Y010984D01*
X000477Y011046D01*
X000538Y010984D01*
X000538Y010861D01*
X000600Y010799D01*
X000662Y010861D01*
X000662Y011046D01*
X000477Y011168D02*
X000477Y011229D01*
X000415Y011229D01*
X000415Y011168D01*
X000477Y011168D01*
X000415Y011352D02*
X000415Y011537D01*
X000477Y011599D01*
X000538Y011537D01*
X000538Y011413D01*
X000600Y011352D01*
X000662Y011413D01*
X000662Y011599D01*
X000662Y011720D02*
X000477Y011720D01*
X000415Y011782D01*
X000415Y011967D01*
X000662Y011967D01*
X000785Y012088D02*
X000785Y012150D01*
X000415Y012150D01*
X000415Y012088D02*
X000415Y012212D01*
X000415Y012334D02*
X000785Y012334D01*
X000892Y012518D02*
X001015Y012641D01*
X001015Y012580D01*
X001077Y012580D01*
X001077Y012641D01*
X001015Y012641D01*
X001077Y012397D02*
X001138Y012335D01*
X001138Y012211D01*
X001200Y012150D01*
X001262Y012211D01*
X001262Y012397D01*
X001077Y012397D02*
X001015Y012335D01*
X001015Y012150D01*
X001138Y012028D02*
X001138Y011781D01*
X001077Y011781D02*
X001200Y011781D01*
X001262Y011843D01*
X001262Y011967D01*
X001200Y012028D01*
X001138Y012028D01*
X001015Y011967D02*
X001015Y011843D01*
X001077Y011781D01*
X001015Y011660D02*
X001200Y011660D01*
X001262Y011598D01*
X001262Y011413D01*
X001015Y011413D01*
X001015Y011292D02*
X001200Y011292D01*
X001262Y011230D01*
X001262Y011045D01*
X001015Y011045D01*
X001015Y010923D02*
X001015Y010738D01*
X001077Y010676D01*
X001138Y010738D01*
X001138Y010923D01*
X001200Y010923D02*
X001015Y010923D01*
X001200Y010923D02*
X001262Y010862D01*
X001262Y010738D01*
X001200Y010555D02*
X001262Y010493D01*
X001262Y010370D01*
X001200Y010308D01*
X001385Y010308D02*
X001015Y010308D01*
X001015Y010555D02*
X001200Y010555D01*
X001615Y010616D02*
X001677Y010678D01*
X001800Y010678D01*
X001862Y010616D01*
X001862Y010493D01*
X001800Y010431D01*
X001677Y010431D01*
X001615Y010493D01*
X001615Y010616D01*
X001677Y010799D02*
X001738Y010861D01*
X001738Y011046D01*
X001800Y011046D02*
X001615Y011046D01*
X001615Y010861D01*
X001677Y010799D01*
X001862Y010861D02*
X001862Y010984D01*
X001800Y011046D01*
X001738Y011168D02*
X001862Y011291D01*
X001862Y011353D01*
X001800Y011474D02*
X001862Y011536D01*
X001862Y011721D01*
X001985Y011721D02*
X001615Y011721D01*
X001615Y011536D01*
X001677Y011474D01*
X001800Y011474D01*
X001862Y011168D02*
X001615Y011168D01*
X001677Y010309D02*
X001615Y010248D01*
X001615Y010063D01*
X001985Y010063D01*
X001985Y010248D01*
X001924Y010309D01*
X001862Y010309D01*
X001800Y010248D01*
X001800Y010063D01*
X001862Y009940D02*
X001862Y009817D01*
X001924Y009879D02*
X001677Y009879D01*
X001615Y009940D01*
X001800Y010248D02*
X001738Y010309D01*
X001677Y010309D01*
X001615Y012211D02*
X001862Y012458D01*
X001924Y012458D01*
X001985Y012396D01*
X001985Y012273D01*
X001924Y012211D01*
X001615Y012211D02*
X001615Y012458D01*
X001324Y013132D02*
X001262Y013132D01*
X001200Y013194D01*
X001200Y013317D01*
X001138Y013379D01*
X001077Y013379D01*
X001015Y013317D01*
X001015Y013194D01*
X001077Y013132D01*
X001324Y013132D02*
X001385Y013194D01*
X001385Y013317D01*
X001324Y013379D01*
X001262Y013500D02*
X001077Y013500D01*
X001015Y013562D01*
X001015Y013747D01*
X001262Y013747D01*
X001385Y013869D02*
X001385Y013930D01*
X001015Y013930D01*
X001015Y013869D02*
X001015Y013992D01*
X001015Y014114D02*
X001385Y014114D01*
X001262Y014299D02*
X001138Y014114D01*
X001015Y014299D01*
X001077Y014421D02*
X001138Y014483D01*
X001138Y014668D01*
X001200Y014668D02*
X001015Y014668D01*
X001015Y014483D01*
X001077Y014421D01*
X001262Y014483D02*
X001262Y014606D01*
X001200Y014668D01*
X001138Y014789D02*
X001262Y014974D01*
X001200Y015096D02*
X001077Y015096D01*
X001015Y015158D01*
X001015Y015281D01*
X001077Y015343D01*
X001200Y015343D01*
X001262Y015281D01*
X001262Y015158D01*
X001200Y015096D01*
X001015Y014974D02*
X001138Y014789D01*
X001015Y014789D02*
X001385Y014789D01*
X000785Y014790D02*
X000785Y014667D01*
X000724Y014605D01*
X000477Y014605D01*
X000415Y014667D01*
X000415Y014790D01*
X000477Y014852D01*
X000538Y014790D02*
X000662Y014790D01*
X000662Y014667D01*
X000538Y014667D01*
X000538Y014790D01*
X000600Y014852D01*
X000724Y014852D01*
X000785Y014790D01*
X000600Y014973D02*
X000538Y015035D01*
X000538Y015159D01*
X000477Y015220D01*
X000415Y015159D01*
X000415Y014973D01*
X000600Y014973D02*
X000662Y015035D01*
X000662Y015220D01*
X000662Y015342D02*
X000477Y015342D01*
X000415Y015403D01*
X000415Y015589D01*
X000353Y015589D02*
X000292Y015527D01*
X000292Y015465D01*
X000353Y015589D02*
X000662Y015589D01*
X000600Y015710D02*
X000538Y015772D01*
X000538Y015895D01*
X000477Y015957D01*
X000415Y015895D01*
X000415Y015710D01*
X000600Y015710D02*
X000662Y015772D01*
X000662Y015957D01*
X000662Y016078D02*
X000662Y016202D01*
X000724Y016140D02*
X000477Y016140D01*
X000415Y016202D01*
X000477Y016324D02*
X000600Y016324D01*
X000662Y016386D01*
X000662Y016509D01*
X000600Y016571D01*
X000538Y016571D01*
X000538Y016324D01*
X000477Y016324D02*
X000415Y016386D01*
X000415Y016509D01*
X000415Y016692D02*
X000662Y016692D01*
X000662Y016754D01*
X000600Y016816D01*
X000662Y016877D01*
X000600Y016939D01*
X000415Y016939D01*
X000415Y017061D02*
X000415Y017184D01*
X000415Y017122D02*
X000785Y017122D01*
X000785Y017061D01*
X001015Y016999D02*
X001015Y017246D01*
X001077Y017367D02*
X001324Y017614D01*
X001077Y017614D01*
X001015Y017553D01*
X001015Y017429D01*
X001077Y017367D01*
X001324Y017367D01*
X001385Y017429D01*
X001385Y017553D01*
X001324Y017614D01*
X001262Y017736D02*
X001385Y017859D01*
X001015Y017859D01*
X001015Y017736D02*
X001015Y017983D01*
X001200Y018104D02*
X001200Y018351D01*
X001015Y018289D02*
X001385Y018289D01*
X001200Y018104D01*
X000892Y018472D02*
X001015Y018596D01*
X001015Y018534D01*
X001077Y018534D01*
X001077Y018596D01*
X001015Y018596D01*
X000785Y018596D02*
X000724Y018534D01*
X000415Y018534D01*
X000415Y018718D02*
X000415Y018841D01*
X000415Y018780D02*
X000662Y018780D01*
X000662Y018718D01*
X000600Y018596D02*
X000600Y018472D01*
X000477Y018350D02*
X000415Y018350D01*
X000415Y018288D01*
X000477Y018288D01*
X000477Y018350D01*
X000538Y018167D02*
X000538Y017920D01*
X000477Y017920D02*
X000600Y017920D01*
X000662Y017982D01*
X000662Y018105D01*
X000600Y018167D01*
X000538Y018167D01*
X000415Y018105D02*
X000415Y017982D01*
X000477Y017920D01*
X000662Y017799D02*
X000415Y017675D01*
X000662Y017552D01*
X000662Y017368D02*
X000415Y017368D01*
X000415Y017306D02*
X000415Y017430D01*
X000662Y017368D02*
X000662Y017306D01*
X000785Y017368D02*
X000847Y017368D01*
X001015Y016999D02*
X001262Y017246D01*
X001324Y017246D01*
X001385Y017184D01*
X001385Y017061D01*
X001324Y016999D01*
X001077Y016509D02*
X001077Y016447D01*
X001015Y016447D01*
X001015Y016509D01*
X001077Y016509D01*
X001015Y016509D02*
X000892Y016385D01*
X001015Y016263D02*
X001015Y016140D01*
X001015Y016201D02*
X001262Y016201D01*
X001262Y016140D01*
X001262Y016018D02*
X001138Y015833D01*
X001015Y016018D01*
X001015Y015833D02*
X001385Y015833D01*
X001262Y015711D02*
X001262Y015526D01*
X001200Y015465D01*
X001138Y015526D01*
X001138Y015650D01*
X001077Y015711D01*
X001015Y015650D01*
X001015Y015465D01*
X001385Y016201D02*
X001447Y016201D01*
X000600Y016816D02*
X000415Y016816D01*
X000785Y018780D02*
X000847Y018780D01*
X001077Y019086D02*
X001015Y019148D01*
X001015Y019271D01*
X001077Y019333D01*
X001200Y019333D01*
X001200Y019210D01*
X001324Y019333D02*
X001385Y019271D01*
X001385Y019148D01*
X001324Y019086D01*
X001077Y019086D01*
X001138Y019455D02*
X001138Y019640D01*
X001200Y019701D01*
X001324Y019701D01*
X001385Y019640D01*
X001385Y019455D01*
X001015Y019455D01*
X001015Y019823D02*
X001015Y020070D01*
X001015Y020315D02*
X001262Y020438D01*
X001324Y020560D02*
X001385Y020621D01*
X001385Y020745D01*
X001324Y020806D01*
X001262Y020806D01*
X001015Y020560D01*
X001015Y020806D01*
X001015Y020315D02*
X001262Y020191D01*
X001385Y019823D02*
X001015Y019823D01*
X000415Y014483D02*
X000415Y014360D01*
X000415Y014421D02*
X000662Y014421D01*
X000662Y014360D01*
X000662Y014238D02*
X000538Y014053D01*
X000415Y014238D01*
X000415Y014053D02*
X000785Y014053D01*
X000662Y013931D02*
X000662Y013746D01*
X000600Y013684D01*
X000538Y013746D01*
X000538Y013870D01*
X000477Y013931D01*
X000415Y013870D01*
X000415Y013684D01*
X000477Y013563D02*
X000600Y013563D01*
X000662Y013501D01*
X000662Y013378D01*
X000600Y013316D01*
X000477Y013316D01*
X000415Y013378D01*
X000415Y013501D01*
X000477Y013563D01*
X000415Y013194D02*
X000538Y013009D01*
X000662Y013194D01*
X000785Y013009D02*
X000415Y013009D01*
X000415Y012888D02*
X000415Y012703D01*
X000477Y012641D01*
X000538Y012703D01*
X000538Y012888D01*
X000600Y012888D02*
X000415Y012888D01*
X000600Y012888D02*
X000662Y012826D01*
X000662Y012703D01*
X000662Y012519D02*
X000538Y012334D01*
X000415Y012519D01*
X000785Y014421D02*
X000847Y014421D01*
M02*
