%
M48
M72
T01C0.0236
T02C0.0315
T03C0.0320
T04C0.0400
T05C0.0420
T06C0.0433
T07C0.0591
T08C0.0810
T09C0.1181
%
T01
X8650Y11379
X8750Y10529
X10700Y10629
X10800Y9779
X11850Y9179
X12100Y10229
X12900Y10179
X13750Y9179
X15400Y9329
X16500Y9129
X16600Y8679
X17300Y8779
X17900Y8329
X18150Y9179
X17250Y10279
X16100Y11029
X16000Y11529
X16100Y12279
X15400Y12679
X14850Y12629
X14400Y12629
X13500Y13229
X13050Y13229
X12750Y12179
X11500Y11829
X10700Y11629
X12800Y14429
X13150Y16029
X13100Y16579
X14800Y17129
X15800Y17129
X16700Y17129
X17500Y17129
X18800Y15379
X19250Y15079
X19650Y14629
X20150Y15229
X19750Y17129
X22150Y17179
X22650Y17179
X22650Y19229
X23150Y19229
X19750Y19379
X17250Y19229
X16850Y20329
X19150Y23729
X22150Y23729
X26300Y23879
X26150Y15879
X25650Y15729
X24650Y13229
X24500Y11979
X22100Y10229
X22300Y9529
X22850Y9279
X24350Y8579
X24800Y8579
X25250Y8579
X25850Y6329
X20600Y7879
X20600Y8279
X20200Y8279
X20200Y7879
X17400Y7129
X16550Y6879
X12300Y7329
X11800Y7329
X11050Y7279
X14300Y10829
X14800Y10829
X17000Y13429
X16620Y13849
X15250Y14229
X15250Y15129
X19600Y12629
X21800Y12979
X11150Y19229
X8700Y15179
X6700Y14279
X6550Y12529
X4650Y13779
X11650Y23579
T02
X16969Y6179
X17756Y6179
X18544Y6179
X19331Y6179
T03
X7150Y20529
X7150Y19529
X8950Y18829
X8950Y17829
X10300Y16779
X10300Y15779
X9850Y13629
X11750Y13629
X14200Y8779
X14200Y7979
X21200Y15729
X21200Y16729
X20550Y18079
X20550Y19079
X19100Y19879
X18300Y19879
X18450Y23229
X17650Y23229
X24650Y16729
X24650Y15729
X2100Y14479
X2100Y15479
X1650Y17279
X650Y17279
T04
X1800Y20429
X1800Y19429
X3750Y19679
X5750Y19679
X8050Y19829
X7470Y21729
X6330Y21729
X6650Y16579
X4600Y15879
X2600Y16279
X4550Y10329
X2600Y10029
X4750Y7129
X6750Y7129
X7500Y9429
X10050Y8629
X10050Y7629
X10050Y6629
X11150Y6579
X12150Y6579
X13150Y6579
X14150Y6579
X15150Y6579
X15150Y5579
X14150Y5579
X13150Y5579
X12150Y5579
X11150Y5579
X10050Y5629
X15650Y16229
X15050Y19829
X15950Y20179
X21500Y20929
X21500Y21929
X21500Y22929
X24000Y23079
X24000Y22079
X24000Y21079
X24000Y20079
X25350Y21879
X25350Y22879
X27200Y19529
X28200Y19529
X26200Y19529
X26900Y17129
X27900Y17129
X27900Y16129
X26900Y16129
X26900Y15129
X27900Y15129
X27900Y14029
X26900Y14029
X26900Y13029
X27900Y13029
X28900Y13029
X28900Y14029
X28900Y11929
X27900Y11929
X26900Y11929
X26900Y10929
X27900Y10929
X28900Y10929
X28900Y9829
X27900Y9829
X26900Y9829
X26900Y8829
X27900Y8829
X28900Y8829
X24400Y7579
X23400Y7579
X22400Y7579
X21400Y7579
X19550Y9379
T05
X700Y18629
X700Y20129
T06
X5541Y9552
X5541Y10552
X5541Y11552
X5541Y12552
X5541Y13552
X5541Y14552
X5541Y15552
X5541Y16552
X3541Y16052
X3541Y15052
X3541Y14052
X3541Y13052
X3541Y12052
X3541Y11052
X3541Y10052
T07
X9300Y21479
X9300Y23479
X15500Y23479
X15500Y21479
T08
X4850Y23329
X6850Y23329
T09
X2119Y22445
X2119Y6697
X27709Y6697
X27709Y22445
M30
