G75*
%MOIN*%
%OFA0B0*%
%FSLAX24Y24*%
%IPPOS*%
%LPD*%
%AMOC8*
5,1,8,0,0,1.08239X$1,22.5*
%
%ADD10C,0.0000*%
D10*
X000150Y004729D02*
X000150Y024329D01*
X029450Y024329D01*
X029450Y004729D01*
X000150Y004729D01*
X001528Y006697D02*
X001530Y006745D01*
X001536Y006793D01*
X001546Y006840D01*
X001559Y006886D01*
X001577Y006931D01*
X001597Y006975D01*
X001622Y007017D01*
X001650Y007056D01*
X001680Y007093D01*
X001714Y007127D01*
X001751Y007159D01*
X001789Y007188D01*
X001830Y007213D01*
X001873Y007235D01*
X001918Y007253D01*
X001964Y007267D01*
X002011Y007278D01*
X002059Y007285D01*
X002107Y007288D01*
X002155Y007287D01*
X002203Y007282D01*
X002251Y007273D01*
X002297Y007261D01*
X002342Y007244D01*
X002386Y007224D01*
X002428Y007201D01*
X002468Y007174D01*
X002506Y007144D01*
X002541Y007111D01*
X002573Y007075D01*
X002603Y007037D01*
X002629Y006996D01*
X002651Y006953D01*
X002671Y006909D01*
X002686Y006864D01*
X002698Y006817D01*
X002706Y006769D01*
X002710Y006721D01*
X002710Y006673D01*
X002706Y006625D01*
X002698Y006577D01*
X002686Y006530D01*
X002671Y006485D01*
X002651Y006441D01*
X002629Y006398D01*
X002603Y006357D01*
X002573Y006319D01*
X002541Y006283D01*
X002506Y006250D01*
X002468Y006220D01*
X002428Y006193D01*
X002386Y006170D01*
X002342Y006150D01*
X002297Y006133D01*
X002251Y006121D01*
X002203Y006112D01*
X002155Y006107D01*
X002107Y006106D01*
X002059Y006109D01*
X002011Y006116D01*
X001964Y006127D01*
X001918Y006141D01*
X001873Y006159D01*
X001830Y006181D01*
X001789Y006206D01*
X001751Y006235D01*
X001714Y006267D01*
X001680Y006301D01*
X001650Y006338D01*
X001622Y006377D01*
X001597Y006419D01*
X001577Y006463D01*
X001559Y006508D01*
X001546Y006554D01*
X001536Y006601D01*
X001530Y006649D01*
X001528Y006697D01*
X001528Y022445D02*
X001530Y022493D01*
X001536Y022541D01*
X001546Y022588D01*
X001559Y022634D01*
X001577Y022679D01*
X001597Y022723D01*
X001622Y022765D01*
X001650Y022804D01*
X001680Y022841D01*
X001714Y022875D01*
X001751Y022907D01*
X001789Y022936D01*
X001830Y022961D01*
X001873Y022983D01*
X001918Y023001D01*
X001964Y023015D01*
X002011Y023026D01*
X002059Y023033D01*
X002107Y023036D01*
X002155Y023035D01*
X002203Y023030D01*
X002251Y023021D01*
X002297Y023009D01*
X002342Y022992D01*
X002386Y022972D01*
X002428Y022949D01*
X002468Y022922D01*
X002506Y022892D01*
X002541Y022859D01*
X002573Y022823D01*
X002603Y022785D01*
X002629Y022744D01*
X002651Y022701D01*
X002671Y022657D01*
X002686Y022612D01*
X002698Y022565D01*
X002706Y022517D01*
X002710Y022469D01*
X002710Y022421D01*
X002706Y022373D01*
X002698Y022325D01*
X002686Y022278D01*
X002671Y022233D01*
X002651Y022189D01*
X002629Y022146D01*
X002603Y022105D01*
X002573Y022067D01*
X002541Y022031D01*
X002506Y021998D01*
X002468Y021968D01*
X002428Y021941D01*
X002386Y021918D01*
X002342Y021898D01*
X002297Y021881D01*
X002251Y021869D01*
X002203Y021860D01*
X002155Y021855D01*
X002107Y021854D01*
X002059Y021857D01*
X002011Y021864D01*
X001964Y021875D01*
X001918Y021889D01*
X001873Y021907D01*
X001830Y021929D01*
X001789Y021954D01*
X001751Y021983D01*
X001714Y022015D01*
X001680Y022049D01*
X001650Y022086D01*
X001622Y022125D01*
X001597Y022167D01*
X001577Y022211D01*
X001559Y022256D01*
X001546Y022302D01*
X001536Y022349D01*
X001530Y022397D01*
X001528Y022445D01*
X027118Y022445D02*
X027120Y022493D01*
X027126Y022541D01*
X027136Y022588D01*
X027149Y022634D01*
X027167Y022679D01*
X027187Y022723D01*
X027212Y022765D01*
X027240Y022804D01*
X027270Y022841D01*
X027304Y022875D01*
X027341Y022907D01*
X027379Y022936D01*
X027420Y022961D01*
X027463Y022983D01*
X027508Y023001D01*
X027554Y023015D01*
X027601Y023026D01*
X027649Y023033D01*
X027697Y023036D01*
X027745Y023035D01*
X027793Y023030D01*
X027841Y023021D01*
X027887Y023009D01*
X027932Y022992D01*
X027976Y022972D01*
X028018Y022949D01*
X028058Y022922D01*
X028096Y022892D01*
X028131Y022859D01*
X028163Y022823D01*
X028193Y022785D01*
X028219Y022744D01*
X028241Y022701D01*
X028261Y022657D01*
X028276Y022612D01*
X028288Y022565D01*
X028296Y022517D01*
X028300Y022469D01*
X028300Y022421D01*
X028296Y022373D01*
X028288Y022325D01*
X028276Y022278D01*
X028261Y022233D01*
X028241Y022189D01*
X028219Y022146D01*
X028193Y022105D01*
X028163Y022067D01*
X028131Y022031D01*
X028096Y021998D01*
X028058Y021968D01*
X028018Y021941D01*
X027976Y021918D01*
X027932Y021898D01*
X027887Y021881D01*
X027841Y021869D01*
X027793Y021860D01*
X027745Y021855D01*
X027697Y021854D01*
X027649Y021857D01*
X027601Y021864D01*
X027554Y021875D01*
X027508Y021889D01*
X027463Y021907D01*
X027420Y021929D01*
X027379Y021954D01*
X027341Y021983D01*
X027304Y022015D01*
X027270Y022049D01*
X027240Y022086D01*
X027212Y022125D01*
X027187Y022167D01*
X027167Y022211D01*
X027149Y022256D01*
X027136Y022302D01*
X027126Y022349D01*
X027120Y022397D01*
X027118Y022445D01*
X027118Y006697D02*
X027120Y006745D01*
X027126Y006793D01*
X027136Y006840D01*
X027149Y006886D01*
X027167Y006931D01*
X027187Y006975D01*
X027212Y007017D01*
X027240Y007056D01*
X027270Y007093D01*
X027304Y007127D01*
X027341Y007159D01*
X027379Y007188D01*
X027420Y007213D01*
X027463Y007235D01*
X027508Y007253D01*
X027554Y007267D01*
X027601Y007278D01*
X027649Y007285D01*
X027697Y007288D01*
X027745Y007287D01*
X027793Y007282D01*
X027841Y007273D01*
X027887Y007261D01*
X027932Y007244D01*
X027976Y007224D01*
X028018Y007201D01*
X028058Y007174D01*
X028096Y007144D01*
X028131Y007111D01*
X028163Y007075D01*
X028193Y007037D01*
X028219Y006996D01*
X028241Y006953D01*
X028261Y006909D01*
X028276Y006864D01*
X028288Y006817D01*
X028296Y006769D01*
X028300Y006721D01*
X028300Y006673D01*
X028296Y006625D01*
X028288Y006577D01*
X028276Y006530D01*
X028261Y006485D01*
X028241Y006441D01*
X028219Y006398D01*
X028193Y006357D01*
X028163Y006319D01*
X028131Y006283D01*
X028096Y006250D01*
X028058Y006220D01*
X028018Y006193D01*
X027976Y006170D01*
X027932Y006150D01*
X027887Y006133D01*
X027841Y006121D01*
X027793Y006112D01*
X027745Y006107D01*
X027697Y006106D01*
X027649Y006109D01*
X027601Y006116D01*
X027554Y006127D01*
X027508Y006141D01*
X027463Y006159D01*
X027420Y006181D01*
X027379Y006206D01*
X027341Y006235D01*
X027304Y006267D01*
X027270Y006301D01*
X027240Y006338D01*
X027212Y006377D01*
X027187Y006419D01*
X027167Y006463D01*
X027149Y006508D01*
X027136Y006554D01*
X027126Y006601D01*
X027120Y006649D01*
X027118Y006697D01*
M02*
