G75*
%MOIN*%
%OFA0B0*%
%FSLAX24Y24*%
%IPPOS*%
%LPD*%
%AMOC8*
5,1,8,0,0,1.08239X$1,22.5*
%
%ADD10C,0.0000*%
%ADD11C,0.0100*%
%ADD12C,0.0520*%
%ADD13OC8,0.0540*%
%ADD14C,0.0540*%
%ADD15R,0.0453X0.0465*%
%ADD16R,0.0465X0.0453*%
%ADD17R,0.0473X0.0434*%
%ADD18C,0.1221*%
%ADD19R,0.0276X0.0906*%
%ADD20C,0.1040*%
%ADD21OC8,0.1040*%
%ADD22R,0.0620X0.0150*%
%ADD23R,0.0150X0.0620*%
%ADD24OC8,0.0640*%
%ADD25R,0.0920X0.0520*%
%ADD26R,0.0906X0.1457*%
%ADD27R,0.0591X0.0591*%
%ADD28OC8,0.1540*%
%ADD29C,0.0640*%
%ADD30C,0.0780*%
%ADD31C,0.0640*%
%ADD32R,0.0257X0.0512*%
%ADD33R,0.0560X0.0270*%
%ADD34R,0.0434X0.0473*%
%ADD35R,0.0268X0.0552*%
%ADD36R,0.0780X0.0780*%
%ADD37R,0.0355X0.0355*%
%ADD38R,0.0840X0.0300*%
%ADD39OC8,0.0520*%
%ADD40R,0.0340X0.0440*%
%ADD41R,0.0440X0.0340*%
%ADD42R,0.0540X0.0540*%
%ADD43C,0.0788*%
%ADD44R,0.0296X0.0237*%
%ADD45C,0.0670*%
%ADD46C,0.1440*%
%ADD47R,0.0631X0.1182*%
%ADD48R,0.0355X0.0355*%
D10*
X000150Y004729D02*
X000150Y024329D01*
X029450Y024329D01*
X029450Y004729D01*
X000150Y004729D01*
X001528Y006697D02*
X001530Y006745D01*
X001536Y006793D01*
X001546Y006840D01*
X001559Y006886D01*
X001577Y006931D01*
X001597Y006975D01*
X001622Y007017D01*
X001650Y007056D01*
X001680Y007093D01*
X001714Y007127D01*
X001751Y007159D01*
X001789Y007188D01*
X001830Y007213D01*
X001873Y007235D01*
X001918Y007253D01*
X001964Y007267D01*
X002011Y007278D01*
X002059Y007285D01*
X002107Y007288D01*
X002155Y007287D01*
X002203Y007282D01*
X002251Y007273D01*
X002297Y007261D01*
X002342Y007244D01*
X002386Y007224D01*
X002428Y007201D01*
X002468Y007174D01*
X002506Y007144D01*
X002541Y007111D01*
X002573Y007075D01*
X002603Y007037D01*
X002629Y006996D01*
X002651Y006953D01*
X002671Y006909D01*
X002686Y006864D01*
X002698Y006817D01*
X002706Y006769D01*
X002710Y006721D01*
X002710Y006673D01*
X002706Y006625D01*
X002698Y006577D01*
X002686Y006530D01*
X002671Y006485D01*
X002651Y006441D01*
X002629Y006398D01*
X002603Y006357D01*
X002573Y006319D01*
X002541Y006283D01*
X002506Y006250D01*
X002468Y006220D01*
X002428Y006193D01*
X002386Y006170D01*
X002342Y006150D01*
X002297Y006133D01*
X002251Y006121D01*
X002203Y006112D01*
X002155Y006107D01*
X002107Y006106D01*
X002059Y006109D01*
X002011Y006116D01*
X001964Y006127D01*
X001918Y006141D01*
X001873Y006159D01*
X001830Y006181D01*
X001789Y006206D01*
X001751Y006235D01*
X001714Y006267D01*
X001680Y006301D01*
X001650Y006338D01*
X001622Y006377D01*
X001597Y006419D01*
X001577Y006463D01*
X001559Y006508D01*
X001546Y006554D01*
X001536Y006601D01*
X001530Y006649D01*
X001528Y006697D01*
X001528Y022445D02*
X001530Y022493D01*
X001536Y022541D01*
X001546Y022588D01*
X001559Y022634D01*
X001577Y022679D01*
X001597Y022723D01*
X001622Y022765D01*
X001650Y022804D01*
X001680Y022841D01*
X001714Y022875D01*
X001751Y022907D01*
X001789Y022936D01*
X001830Y022961D01*
X001873Y022983D01*
X001918Y023001D01*
X001964Y023015D01*
X002011Y023026D01*
X002059Y023033D01*
X002107Y023036D01*
X002155Y023035D01*
X002203Y023030D01*
X002251Y023021D01*
X002297Y023009D01*
X002342Y022992D01*
X002386Y022972D01*
X002428Y022949D01*
X002468Y022922D01*
X002506Y022892D01*
X002541Y022859D01*
X002573Y022823D01*
X002603Y022785D01*
X002629Y022744D01*
X002651Y022701D01*
X002671Y022657D01*
X002686Y022612D01*
X002698Y022565D01*
X002706Y022517D01*
X002710Y022469D01*
X002710Y022421D01*
X002706Y022373D01*
X002698Y022325D01*
X002686Y022278D01*
X002671Y022233D01*
X002651Y022189D01*
X002629Y022146D01*
X002603Y022105D01*
X002573Y022067D01*
X002541Y022031D01*
X002506Y021998D01*
X002468Y021968D01*
X002428Y021941D01*
X002386Y021918D01*
X002342Y021898D01*
X002297Y021881D01*
X002251Y021869D01*
X002203Y021860D01*
X002155Y021855D01*
X002107Y021854D01*
X002059Y021857D01*
X002011Y021864D01*
X001964Y021875D01*
X001918Y021889D01*
X001873Y021907D01*
X001830Y021929D01*
X001789Y021954D01*
X001751Y021983D01*
X001714Y022015D01*
X001680Y022049D01*
X001650Y022086D01*
X001622Y022125D01*
X001597Y022167D01*
X001577Y022211D01*
X001559Y022256D01*
X001546Y022302D01*
X001536Y022349D01*
X001530Y022397D01*
X001528Y022445D01*
X027118Y022445D02*
X027120Y022493D01*
X027126Y022541D01*
X027136Y022588D01*
X027149Y022634D01*
X027167Y022679D01*
X027187Y022723D01*
X027212Y022765D01*
X027240Y022804D01*
X027270Y022841D01*
X027304Y022875D01*
X027341Y022907D01*
X027379Y022936D01*
X027420Y022961D01*
X027463Y022983D01*
X027508Y023001D01*
X027554Y023015D01*
X027601Y023026D01*
X027649Y023033D01*
X027697Y023036D01*
X027745Y023035D01*
X027793Y023030D01*
X027841Y023021D01*
X027887Y023009D01*
X027932Y022992D01*
X027976Y022972D01*
X028018Y022949D01*
X028058Y022922D01*
X028096Y022892D01*
X028131Y022859D01*
X028163Y022823D01*
X028193Y022785D01*
X028219Y022744D01*
X028241Y022701D01*
X028261Y022657D01*
X028276Y022612D01*
X028288Y022565D01*
X028296Y022517D01*
X028300Y022469D01*
X028300Y022421D01*
X028296Y022373D01*
X028288Y022325D01*
X028276Y022278D01*
X028261Y022233D01*
X028241Y022189D01*
X028219Y022146D01*
X028193Y022105D01*
X028163Y022067D01*
X028131Y022031D01*
X028096Y021998D01*
X028058Y021968D01*
X028018Y021941D01*
X027976Y021918D01*
X027932Y021898D01*
X027887Y021881D01*
X027841Y021869D01*
X027793Y021860D01*
X027745Y021855D01*
X027697Y021854D01*
X027649Y021857D01*
X027601Y021864D01*
X027554Y021875D01*
X027508Y021889D01*
X027463Y021907D01*
X027420Y021929D01*
X027379Y021954D01*
X027341Y021983D01*
X027304Y022015D01*
X027270Y022049D01*
X027240Y022086D01*
X027212Y022125D01*
X027187Y022167D01*
X027167Y022211D01*
X027149Y022256D01*
X027136Y022302D01*
X027126Y022349D01*
X027120Y022397D01*
X027118Y022445D01*
X027118Y006697D02*
X027120Y006745D01*
X027126Y006793D01*
X027136Y006840D01*
X027149Y006886D01*
X027167Y006931D01*
X027187Y006975D01*
X027212Y007017D01*
X027240Y007056D01*
X027270Y007093D01*
X027304Y007127D01*
X027341Y007159D01*
X027379Y007188D01*
X027420Y007213D01*
X027463Y007235D01*
X027508Y007253D01*
X027554Y007267D01*
X027601Y007278D01*
X027649Y007285D01*
X027697Y007288D01*
X027745Y007287D01*
X027793Y007282D01*
X027841Y007273D01*
X027887Y007261D01*
X027932Y007244D01*
X027976Y007224D01*
X028018Y007201D01*
X028058Y007174D01*
X028096Y007144D01*
X028131Y007111D01*
X028163Y007075D01*
X028193Y007037D01*
X028219Y006996D01*
X028241Y006953D01*
X028261Y006909D01*
X028276Y006864D01*
X028288Y006817D01*
X028296Y006769D01*
X028300Y006721D01*
X028300Y006673D01*
X028296Y006625D01*
X028288Y006577D01*
X028276Y006530D01*
X028261Y006485D01*
X028241Y006441D01*
X028219Y006398D01*
X028193Y006357D01*
X028163Y006319D01*
X028131Y006283D01*
X028096Y006250D01*
X028058Y006220D01*
X028018Y006193D01*
X027976Y006170D01*
X027932Y006150D01*
X027887Y006133D01*
X027841Y006121D01*
X027793Y006112D01*
X027745Y006107D01*
X027697Y006106D01*
X027649Y006109D01*
X027601Y006116D01*
X027554Y006127D01*
X027508Y006141D01*
X027463Y006159D01*
X027420Y006181D01*
X027379Y006206D01*
X027341Y006235D01*
X027304Y006267D01*
X027270Y006301D01*
X027240Y006338D01*
X027212Y006377D01*
X027187Y006419D01*
X027167Y006463D01*
X027149Y006508D01*
X027136Y006554D01*
X027126Y006601D01*
X027120Y006649D01*
X027118Y006697D01*
D11*
X025700Y017929D02*
X003350Y017929D01*
X003250Y017879D01*
X002150Y017729D01*
X001800Y017479D01*
X001650Y016929D01*
X001650Y015529D01*
X003250Y015529D01*
X003300Y015429D01*
X003150Y015079D01*
X003400Y014629D01*
X003200Y014529D01*
X001650Y014529D01*
X001650Y010379D01*
X001350Y010079D01*
X000800Y010079D01*
X000650Y010229D01*
X000650Y017729D01*
X001650Y018729D01*
X002550Y018729D01*
X002650Y018829D01*
X007600Y018879D01*
X007600Y019879D01*
X008550Y019879D01*
X008550Y018829D01*
X020900Y018829D01*
X021000Y018929D01*
X021000Y020479D01*
X021100Y020579D01*
X021850Y020579D01*
X022000Y020429D01*
X022000Y018929D01*
X022050Y018829D01*
X025500Y018829D01*
X025550Y018929D01*
X025550Y019629D01*
X025650Y019729D01*
X025750Y019729D01*
X025800Y019679D01*
X025800Y019079D01*
X026050Y018829D01*
X026350Y018829D01*
X026500Y018879D01*
X026500Y018579D01*
X026150Y018229D01*
X026100Y018229D01*
X025700Y017929D01*
X025830Y018026D02*
X000948Y018026D01*
X001046Y018125D02*
X025961Y018125D01*
X026093Y018223D02*
X001145Y018223D01*
X001243Y018322D02*
X026243Y018322D01*
X026342Y018420D02*
X001342Y018420D01*
X001440Y018519D02*
X026440Y018519D01*
X026500Y018617D02*
X001539Y018617D01*
X001637Y018716D02*
X026500Y018716D01*
X026500Y018814D02*
X002636Y018814D01*
X002887Y017829D02*
X000751Y017829D01*
X000849Y017928D02*
X003348Y017928D01*
X002165Y017731D02*
X000652Y017731D01*
X000650Y017632D02*
X002015Y017632D01*
X001877Y017534D02*
X000650Y017534D01*
X000650Y017435D02*
X001788Y017435D01*
X001761Y017337D02*
X000650Y017337D01*
X000650Y017238D02*
X001734Y017238D01*
X001708Y017140D02*
X000650Y017140D01*
X000650Y017041D02*
X001681Y017041D01*
X001654Y016943D02*
X000650Y016943D01*
X000650Y016844D02*
X001650Y016844D01*
X001650Y016746D02*
X000650Y016746D01*
X000650Y016647D02*
X001650Y016647D01*
X001650Y016549D02*
X000650Y016549D01*
X000650Y016450D02*
X001650Y016450D01*
X001650Y016352D02*
X000650Y016352D01*
X000650Y016253D02*
X001650Y016253D01*
X001650Y016155D02*
X000650Y016155D01*
X000650Y016056D02*
X001650Y016056D01*
X001650Y015958D02*
X000650Y015958D01*
X000650Y015859D02*
X001650Y015859D01*
X001650Y015761D02*
X000650Y015761D01*
X000650Y015662D02*
X001650Y015662D01*
X001650Y015564D02*
X000650Y015564D01*
X000650Y015465D02*
X003282Y015465D01*
X003273Y015367D02*
X000650Y015367D01*
X000650Y015268D02*
X003231Y015268D01*
X003189Y015170D02*
X000650Y015170D01*
X000650Y015071D02*
X003154Y015071D01*
X003209Y014973D02*
X000650Y014973D01*
X000650Y014874D02*
X003264Y014874D01*
X003318Y014776D02*
X000650Y014776D01*
X000650Y014677D02*
X003373Y014677D01*
X003300Y014579D02*
X000650Y014579D01*
X000650Y014480D02*
X001650Y014480D01*
X001650Y014382D02*
X000650Y014382D01*
X000650Y014283D02*
X001650Y014283D01*
X001650Y014185D02*
X000650Y014185D01*
X000650Y014086D02*
X001650Y014086D01*
X001650Y013988D02*
X000650Y013988D01*
X000650Y013889D02*
X001650Y013889D01*
X001650Y013791D02*
X000650Y013791D01*
X000650Y013692D02*
X001650Y013692D01*
X001650Y013594D02*
X000650Y013594D01*
X000650Y013495D02*
X001650Y013495D01*
X001650Y013397D02*
X000650Y013397D01*
X000650Y013298D02*
X001650Y013298D01*
X001650Y013200D02*
X000650Y013200D01*
X000650Y013101D02*
X001650Y013101D01*
X001650Y013003D02*
X000650Y013003D01*
X000650Y012904D02*
X001650Y012904D01*
X001650Y012806D02*
X000650Y012806D01*
X000650Y012707D02*
X001650Y012707D01*
X001650Y012609D02*
X000650Y012609D01*
X000650Y012510D02*
X001650Y012510D01*
X001650Y012412D02*
X000650Y012412D01*
X000650Y012313D02*
X001650Y012313D01*
X001650Y012215D02*
X000650Y012215D01*
X000650Y012116D02*
X001650Y012116D01*
X001650Y012018D02*
X000650Y012018D01*
X000650Y011919D02*
X001650Y011919D01*
X001650Y011821D02*
X000650Y011821D01*
X000650Y011722D02*
X001650Y011722D01*
X001650Y011624D02*
X000650Y011624D01*
X000650Y011525D02*
X001650Y011525D01*
X001650Y011427D02*
X000650Y011427D01*
X000650Y011328D02*
X001650Y011328D01*
X001650Y011230D02*
X000650Y011230D01*
X000650Y011131D02*
X001650Y011131D01*
X001650Y011033D02*
X000650Y011033D01*
X000650Y010934D02*
X001650Y010934D01*
X001650Y010836D02*
X000650Y010836D01*
X000650Y010737D02*
X001650Y010737D01*
X001650Y010639D02*
X000650Y010639D01*
X000650Y010540D02*
X001650Y010540D01*
X001650Y010442D02*
X000650Y010442D01*
X000650Y010343D02*
X001615Y010343D01*
X001516Y010245D02*
X000650Y010245D01*
X000732Y010146D02*
X001418Y010146D01*
X007600Y018913D02*
X008550Y018913D01*
X008550Y019011D02*
X007600Y019011D01*
X007600Y019110D02*
X008550Y019110D01*
X008550Y019208D02*
X007600Y019208D01*
X007600Y019307D02*
X008550Y019307D01*
X008550Y019405D02*
X007600Y019405D01*
X007600Y019504D02*
X008550Y019504D01*
X008550Y019602D02*
X007600Y019602D01*
X007600Y019701D02*
X008550Y019701D01*
X008550Y019799D02*
X007600Y019799D01*
X021000Y019799D02*
X022000Y019799D01*
X022000Y019701D02*
X021000Y019701D01*
X021000Y019602D02*
X022000Y019602D01*
X022000Y019504D02*
X021000Y019504D01*
X021000Y019405D02*
X022000Y019405D01*
X022000Y019307D02*
X021000Y019307D01*
X021000Y019208D02*
X022000Y019208D01*
X022000Y019110D02*
X021000Y019110D01*
X021000Y019011D02*
X022000Y019011D01*
X022008Y018913D02*
X020984Y018913D01*
X021000Y019898D02*
X022000Y019898D01*
X022000Y019996D02*
X021000Y019996D01*
X021000Y020095D02*
X022000Y020095D01*
X022000Y020193D02*
X021000Y020193D01*
X021000Y020292D02*
X022000Y020292D01*
X022000Y020390D02*
X021000Y020390D01*
X021010Y020489D02*
X021940Y020489D01*
X025550Y019602D02*
X025800Y019602D01*
X025800Y019504D02*
X025550Y019504D01*
X025550Y019405D02*
X025800Y019405D01*
X025800Y019307D02*
X025550Y019307D01*
X025550Y019208D02*
X025800Y019208D01*
X025800Y019110D02*
X025550Y019110D01*
X025550Y019011D02*
X025867Y019011D01*
X025966Y018913D02*
X025542Y018913D01*
X025622Y019701D02*
X025778Y019701D01*
D12*
X011750Y013629D03*
X009850Y013629D03*
D13*
X014200Y007979D03*
X019100Y019879D03*
X017650Y023229D03*
D14*
X018450Y023229D03*
X018300Y019879D03*
X014200Y008779D03*
X016969Y006179D03*
X017756Y006179D03*
X018544Y006179D03*
D15*
X017294Y007629D03*
X017294Y008179D03*
X016606Y008179D03*
X016606Y007629D03*
X015994Y008829D03*
X015306Y008829D03*
X017656Y012729D03*
X018344Y012729D03*
X017994Y014929D03*
X017306Y014929D03*
X019256Y023229D03*
X019944Y023229D03*
X013244Y023579D03*
X012556Y023579D03*
D16*
X017450Y020523D03*
X017450Y019834D03*
X022550Y021534D03*
X022550Y022223D03*
X023550Y016973D03*
X023550Y016284D03*
X019650Y014073D03*
X019650Y013384D03*
X023400Y009823D03*
X023400Y009134D03*
X014750Y008823D03*
X014750Y008134D03*
X013350Y013734D03*
X013350Y014423D03*
X004600Y014284D03*
X004600Y014973D03*
X004600Y013273D03*
X004600Y012584D03*
D17*
X008950Y016394D03*
X008950Y017063D03*
X011900Y021644D03*
X011900Y022313D03*
X010900Y022894D03*
X010900Y023563D03*
X016650Y015013D03*
X016650Y014344D03*
X020750Y014563D03*
X020750Y013894D03*
X021550Y013894D03*
X021550Y014563D03*
X024100Y009813D03*
X024100Y009144D03*
X024900Y009144D03*
X024900Y009813D03*
X020150Y006763D03*
X020150Y006094D03*
X011850Y007894D03*
X011850Y008563D03*
X011050Y008563D03*
X011050Y007894D03*
X009150Y007563D03*
X009150Y006894D03*
D18*
X002119Y006697D03*
X002119Y022445D03*
X027709Y022445D03*
X027709Y006697D03*
D19*
X014300Y019905D03*
X013800Y019905D03*
X013300Y019905D03*
X012800Y019905D03*
X012800Y021952D03*
X013300Y021952D03*
X013800Y021952D03*
X014300Y021952D03*
D20*
X003750Y019679D03*
X004750Y007129D03*
D21*
X006750Y007129D03*
X005750Y019679D03*
D22*
X013530Y012809D03*
X013530Y012619D03*
X013530Y012419D03*
X013530Y012219D03*
X013530Y012029D03*
X013530Y011829D03*
X013530Y011629D03*
X013530Y011429D03*
X013530Y011239D03*
X013530Y011039D03*
X013530Y010839D03*
X013530Y010649D03*
X016770Y010649D03*
X016770Y010839D03*
X016770Y011039D03*
X016770Y011239D03*
X016770Y011429D03*
X016770Y011629D03*
X016770Y011829D03*
X016770Y012029D03*
X016770Y012219D03*
X016770Y012419D03*
X016770Y012619D03*
X016770Y012809D03*
D23*
X016230Y013349D03*
X016040Y013349D03*
X015840Y013349D03*
X015640Y013349D03*
X015450Y013349D03*
X015250Y013349D03*
X015050Y013349D03*
X014850Y013349D03*
X014660Y013349D03*
X014460Y013349D03*
X014260Y013349D03*
X014070Y013349D03*
X014070Y010109D03*
X014260Y010109D03*
X014460Y010109D03*
X014660Y010109D03*
X014850Y010109D03*
X015050Y010109D03*
X015250Y010109D03*
X015450Y010109D03*
X015640Y010109D03*
X015840Y010109D03*
X016040Y010109D03*
X016230Y010109D03*
D24*
X015150Y006579D03*
X014150Y006579D03*
X013150Y006579D03*
X012150Y006579D03*
X011150Y006579D03*
X011150Y005579D03*
X012150Y005579D03*
X013150Y005579D03*
X014150Y005579D03*
X015150Y005579D03*
X026900Y009829D03*
X027900Y009829D03*
X028900Y009829D03*
X028900Y008829D03*
X027900Y008829D03*
X027900Y010929D03*
X028900Y010929D03*
X028900Y011929D03*
X027900Y011929D03*
X026900Y011929D03*
X027900Y013029D03*
X028900Y013029D03*
X028900Y014029D03*
X027900Y014029D03*
X026900Y014029D03*
X026900Y015129D03*
X026900Y016129D03*
X027900Y016129D03*
X027900Y017129D03*
X026900Y017129D03*
X015050Y019829D03*
X008050Y019829D03*
D25*
X019720Y020669D03*
X019720Y021579D03*
X019720Y022489D03*
D26*
X017280Y021579D03*
D27*
X008048Y015779D03*
X008048Y014979D03*
X006552Y014979D03*
X006552Y015779D03*
X006098Y017329D03*
X004602Y017329D03*
X003848Y017279D03*
X002352Y017279D03*
X006352Y010379D03*
X006450Y009577D03*
X007848Y010379D03*
X006450Y008081D03*
X004798Y009029D03*
X003302Y009029D03*
X002548Y009029D03*
X001052Y009029D03*
X021400Y006627D03*
X022400Y006627D03*
X023400Y006627D03*
X024400Y006627D03*
X024400Y005131D03*
X023400Y005131D03*
X022400Y005131D03*
X021400Y005131D03*
D28*
X015500Y021479D03*
X015500Y023479D03*
X009300Y023479D03*
X009300Y021479D03*
D29*
X021200Y021929D02*
X021800Y021929D01*
X021800Y022929D02*
X021200Y022929D01*
X021200Y020929D02*
X021800Y020929D01*
X023700Y021079D02*
X024300Y021079D01*
X024300Y022079D02*
X023700Y022079D01*
X023700Y023079D02*
X024300Y023079D01*
X024300Y020079D02*
X023700Y020079D01*
X026200Y019829D02*
X026200Y019229D01*
X027200Y019229D02*
X027200Y019829D01*
X028200Y019829D02*
X028200Y019229D01*
D30*
X025350Y021879D03*
X025350Y022879D03*
X015950Y020179D03*
X015650Y016229D03*
X019550Y009379D03*
X021400Y007579D03*
X022400Y007579D03*
X023400Y007579D03*
X010050Y007629D03*
X010050Y008629D03*
X010050Y006629D03*
X007500Y009429D03*
X004550Y010329D03*
X002600Y010029D03*
X004600Y015879D03*
X002600Y016279D03*
X001800Y019429D03*
X001800Y020429D03*
X006330Y021729D03*
X007470Y021729D03*
X006650Y016579D03*
D31*
X026900Y013029D03*
X027900Y015129D03*
X026900Y010929D03*
X026900Y008829D03*
D32*
X011574Y019767D03*
X011200Y019767D03*
X010826Y019767D03*
X010826Y020791D03*
X011574Y020791D03*
D33*
X019050Y014099D03*
X019050Y013359D03*
X018250Y013729D03*
D34*
X017985Y014279D03*
X017315Y014279D03*
X017315Y015579D03*
X017985Y015579D03*
X011985Y015229D03*
X011315Y015229D03*
X010785Y015129D03*
X010115Y015129D03*
X010185Y010629D03*
X009515Y010629D03*
X009515Y009779D03*
X010185Y009779D03*
X007685Y005779D03*
X007015Y005779D03*
X015415Y008179D03*
X016085Y008179D03*
X016215Y005329D03*
X016885Y005329D03*
X017615Y005379D03*
X018285Y005379D03*
X018965Y005379D03*
X019635Y005379D03*
X013235Y022929D03*
X012565Y022929D03*
X020015Y023879D03*
X020685Y023879D03*
X024965Y023879D03*
X025635Y023879D03*
D35*
X022287Y010926D03*
X021894Y010926D03*
X021500Y010926D03*
X021106Y010926D03*
X020713Y010926D03*
X020713Y008832D03*
X021106Y008832D03*
X021500Y008832D03*
X021894Y008832D03*
X022287Y008832D03*
D36*
X024400Y007579D03*
X010050Y005629D03*
D37*
X007695Y008079D03*
X007105Y008079D03*
X012505Y015079D03*
X013095Y015079D03*
X010900Y021584D03*
X010900Y022174D03*
X017205Y023829D03*
X017795Y023829D03*
X023805Y023929D03*
X024395Y023929D03*
X025850Y005724D03*
X025850Y005134D03*
D38*
X025710Y010479D03*
X025710Y010979D03*
X025710Y011479D03*
X025710Y011979D03*
X025710Y012479D03*
X025710Y012979D03*
X025710Y013479D03*
X025710Y013979D03*
X023290Y013979D03*
X023290Y013479D03*
X023290Y012979D03*
X023290Y012479D03*
X023290Y011979D03*
X023290Y011479D03*
X023290Y010979D03*
X023290Y010479D03*
D39*
X024650Y015729D03*
X024650Y016729D03*
X021200Y016729D03*
X021200Y015729D03*
X020550Y018079D03*
X020550Y019079D03*
X010300Y016779D03*
X010300Y015779D03*
X008950Y017829D03*
X008950Y018829D03*
X007150Y019529D03*
X007150Y020529D03*
X001650Y017279D03*
X000650Y017279D03*
X002100Y015479D03*
X002100Y014479D03*
D40*
X013850Y015629D03*
X014250Y015629D03*
X014650Y015629D03*
X014650Y016479D03*
X013850Y016479D03*
D41*
X021400Y012479D03*
X021400Y012079D03*
X021400Y011679D03*
X022250Y011679D03*
X022250Y012479D03*
D42*
X019331Y006179D03*
D43*
X005541Y009552D03*
X005541Y010552D03*
X005541Y011552D03*
X005541Y012552D03*
X005541Y013552D03*
X005541Y014552D03*
X005541Y015552D03*
X005541Y016552D03*
X003541Y016052D03*
X003541Y015052D03*
X003541Y014052D03*
X003541Y013052D03*
X003541Y012052D03*
X003541Y011052D03*
X003541Y010052D03*
D44*
X009604Y011256D03*
X009604Y011571D03*
X009604Y011886D03*
X009604Y012201D03*
X010096Y012201D03*
X010096Y011886D03*
X010096Y011571D03*
X010096Y011256D03*
X018404Y010951D03*
X018404Y010636D03*
X018404Y010321D03*
X018404Y010006D03*
X018896Y010006D03*
X018896Y010321D03*
X018896Y010636D03*
X018896Y010951D03*
D45*
X000700Y018629D03*
X000700Y020129D03*
D46*
X004850Y023329D03*
X006850Y023329D03*
D47*
X011159Y016679D03*
X012341Y016679D03*
D48*
G36*
X014541Y014688D02*
X014291Y014438D01*
X014041Y014688D01*
X014291Y014938D01*
X014541Y014688D01*
G37*
G36*
X014959Y014270D02*
X014709Y014020D01*
X014459Y014270D01*
X014709Y014520D01*
X014959Y014270D01*
G37*
M02*
